<?xml version="1.0" encoding="UTF-8" standalone="no"?>
<!DOCTYPE svg PUBLIC "-//W3C//DTD SVG 1.1//EN" "http://www.w3.org/Graphics/SVG/1.1/DTD/svg11.dtd">
<svg width="100%" height="100%" viewBox="0 0 612 792" version="1.1" xmlns="http://www.w3.org/2000/svg" xmlns:xlink="http://www.w3.org/1999/xlink" xml:space="preserve" xmlns:serif="http://www.serif.com/" style="fill-rule:evenodd;clip-rule:evenodd;stroke-miterlimit:10;">
    <g id="bg">
        <rect x="0" y="0" width="612" height="792" style="fill:white;"/>
        <g transform="matrix(-1,0,0,1,612,0)">
            <rect x="0" y="0" width="612" height="792" style="fill:none;stroke:rgb(35,31,32);stroke-width:1px;"/>
        </g>
    </g>
    <g id="ground">
        <g transform="matrix(1,0,0,1,145.502,208.187)">
            <path d="M0,382.501L-2.667,390.501L5.333,397.169L7.667,408.169L21,411.169L21.667,424.501L16.667,435.501L22.667,445.835L36.333,452.501C36.333,452.501 49.534,473.808 50.333,480.169C50.417,480.833 57,483.169 57,483.169L59.667,487.835L85,486.501L77,481.169L85.333,480.169L79.667,472.169L89.667,475.169L87,465.501L94.667,469.835L98.667,460.501L96.333,448.501L103,457.169L103.333,471.169L111,465.169L111,473.169L120.333,470.169L117.333,478.169L125,477.835L117.667,486.169C117.667,486.169 130.221,486.647 134.333,485.501C139.416,484.085 147.333,486.169 147.333,486.169L144.333,480.501L150.667,481.501L152.333,475.169L155.667,477.835L160.333,477.835L161.333,481.169L171.333,481.501L168,485.835L175,487.501L171,491.169L185,494.835L194.333,502.501L207.667,506.501L210,516.835L219.333,521.169L222.333,541.501L248.667,539.835L255.667,542.501L259.333,548.835L276.333,549.835L298,557.835L313.667,557.169L323.333,549.835L320.667,525.501L312,520.501L315.333,502.169L302.333,498.169L301.333,491.169L289.333,489.169L287.333,479.835C287.333,479.835 273,474.501 270.333,471.835C267.667,469.169 279.333,467.501 279.333,467.501L270.333,465.169L275.333,458.835L266.667,459.169L266.667,450.501L261,455.169L258,448.169L253.333,453.169L248,448.169L248.333,454.835L242.667,451.835L244,460.501L235.333,458.501L222.667,458.835L217.333,454.835L217.667,298.835C226.001,308.167 248,304.501 248,304.501C248,304.501 266.07,325.562 271.333,320.501C279.396,312.751 284.779,322.149 286.587,320.669C288.396,319.188 291.417,314.065 292,312.501C292.583,310.938 291.867,299.659 291,299.167C288.833,297.938 286,302.501 280,300.501C274,298.501 277.333,291.835 277.333,291.835C277.333,291.835 282.626,286.315 282.667,284.501C282.708,282.688 276.437,273.571 276.333,266.501C276.208,258.001 256.375,255.259 254,254.501C250.271,253.314 241.523,246.212 239.271,238.564C238.853,237.147 237.498,235.452 237.498,230.647C237.498,229.501 232.833,228.501 232.833,228.501C230.56,227.439 227.271,223.126 225.667,219.835C225.667,219.835 222.917,215.917 218.083,213.667L217.917,209.417C217.917,209.417 223.583,215.251 229.833,214.751C236.083,214.251 241.583,213.585 245.667,213.417C249.75,213.251 255.083,214.333 257.917,216.251C260.75,218.167 263.416,222.167 264.25,223.501C265.083,224.833 270.708,223.751 270.708,223.751C270.708,223.751 273.5,221.083 273.417,219.833C273.333,218.583 271.417,216.667 270.917,215.167C270.417,213.667 271.316,204.731 270.667,203.835C270.021,202.939 264.169,195.503 263.751,190.169C263.335,184.835 256.001,181.001 252.501,180.835C249.001,180.668 236.896,179.855 232.396,176.938C227.896,174.022 218.25,168.167 218.25,168.167L218.583,147.501C218.583,147.501 224.154,151.58 227.935,150.126C231.998,148.564 226.08,143.576 232.833,143.417C239.896,143.251 245.833,146.001 245.833,146.001C245.833,146.001 256.635,153.203 257.5,153.584C260.435,154.876 263.896,154.792 264.583,154.334C265.271,153.876 266.958,150.292 269.583,149.584C272.208,148.876 272.623,149.418 273.623,150.064C274.623,150.709 276.25,151.339 276.75,151.084C278.748,150.064 278.332,140.292 277.332,138.084C276.333,135.876 271.248,123.814 264.873,123.001C263.539,122.831 253.832,125.084 244.666,120.667C235.5,116.25 234.271,110.251 230.916,105.917C229.226,103.735 222.248,98.167 222.248,98.167L222.33,84.584C222.33,84.584 241.854,101.18 243.246,101.834C245.332,102.814 246.496,102.25 246.496,102.25C246.496,102.25 250.765,99.667 252.33,99.584C253.896,99.501 259.373,104.189 261.246,102.667C263.911,100.501 260.869,92.875 260.414,91.75C259.958,90.626 255.328,85.604 254.58,84.834C253.833,84.063 252.667,79.443 254.83,75.916C255.915,74.147 255.665,73.063 254.665,72.23C253.699,71.425 245.075,72.543 238.935,55.876C238.719,55.291 238.623,51.189 236.915,50.272C235.177,49.34 233.232,50.25 229.332,48.98C225.822,47.838 222.833,45.001 222.833,45.001C222.833,45.001 222.412,34.019 222.748,33.666C223.083,33.313 224.958,32.813 225.08,33.916C225.111,34.193 224.833,37.698 225.708,38.188C227.271,39.063 229.523,33.409 236.914,38.5C238.458,39.563 239.433,37.915 239.164,36.333C238.896,34.751 232.58,30.834 230.33,27.084C228.08,23.334 227.08,19.167 226.414,15.5C225.748,11.834 220.58,15.667 220.664,-9.083C220.748,-33.833 219.914,-27.833 219.914,-27.833C219.914,-27.833 218.914,-30.75 218.164,-29.75C217.414,-28.75 217.08,-27.917 217.08,-27.917L216.083,-27.374C216.083,-27.374 216.582,-22.75 215.498,-21.667C214.414,-20.583 214.667,-18.708 215.083,-17.374C215.5,-16.041 216.164,-16 216.33,-13C216.498,-10 215.683,3.541 215.08,5.583C214.458,7.688 209.414,27.667 199.664,33.334C189.914,39.001 200.975,37.46 202.998,36.314C206.748,34.189 211.248,36.751 211.83,40.668C212.414,44.584 211.996,50.251 211.996,50.251C211.996,50.251 208.478,51.355 206.496,55.084C205.146,57.626 204.583,46.876 197.896,46.938C193.451,46.98 193.244,47.606 192.414,46.834C191.583,46.063 192.904,41.487 187.746,38.418C186.521,37.688 188.498,31.814 186.58,28.001C185.75,26.353 179.132,20.386 175.746,16.918C175.583,16.751 175.746,6.168 175.746,6.168C175.746,6.168 182.306,4.897 184.664,5.668C187.021,6.438 188.83,9.418 194.996,9.751C201.164,10.084 203.414,5.334 203.414,5.334C203.414,5.334 210.662,7.668 206.412,1.834C202.162,-3.999 206.412,-6.416 206.412,-6.416C206.412,-6.416 207.757,-9.28 204.162,-9.666C199.896,-10.124 200.458,-13.312 200.458,-13.312C200.458,-13.312 200.664,-16.833 198.496,-17.499C196.33,-18.166 194.021,-22.249 185.746,-26.25C177.957,-30.015 176.557,-34.353 175.83,-41.083C175.373,-45.311 172.748,-42.811 170.162,-52.25C169.468,-54.781 165.833,-53.749 165.833,-53.749L161.329,-53.083L160.745,-65.667C160.745,-65.667 167.505,-60.475 166.828,-65.167C166.708,-65.999 170.909,-64.615 171.828,-65.667C173.373,-67.436 176.662,-69.583 170.662,-73.583C164.662,-77.583 160.162,-89.416 158.662,-96.749C157.162,-104.083 157.771,-110.594 157.662,-111.166C157.208,-113.562 154.071,-115.061 153.079,-111.166C152.146,-107.499 152.646,-89.832 150.146,-82.749C147.646,-75.666 137.221,-72.291 137.496,-67.333C137.771,-65.124 138.623,-65.061 138.998,-64.436C139.373,-63.811 141.42,-62.436 146.079,-64.999C149.146,-66.687 151.913,-61.417 151.913,-61.167C151.913,-60.917 152.413,-50.167 152.413,-50.167C152.413,-50.167 148.58,-51.666 145.663,-47.499C142.747,-43.333 146.709,-53.865 136.958,-53.812C129.165,-53.77 129.568,-54.791 128.396,-55.624C125.498,-57.686 124.535,-63.521 123.247,-64.916C121.958,-66.312 112.664,-66.749 107.664,-73.333C102.664,-79.916 104.997,-112.5 104.997,-112.5C104.997,-112.5 107.995,-110.283 112.247,-111.5C114.208,-112.062 121.396,-109.437 122.08,-106.084C122.584,-103.615 125.164,-107.417 123.414,-108.834C121.664,-110.25 125.497,-117.584 121.914,-122.5C118.331,-127.417 116.332,-124.52 113.331,-126.417C108.559,-129.433 103.33,-135.501 102.414,-143.001C101.497,-150.501 99.748,-173.25 99.748,-173.25C99.748,-173.25 97.915,-175.334 96.581,-173.167C95.248,-171 94.774,-147.434 94.748,-146.749C94.623,-143.499 91.138,-129.083 91.083,-125.937C90.958,-118.812 79.832,-113.353 79.498,-109.437C79.449,-108.862 79.338,-103.709 82.747,-104.751C88.747,-106.584 80.354,-99.853 83.771,-98.937C87.187,-98.02 89.497,-100.918 89.413,-103.584C89.33,-106.251 95.58,-106.917 96.163,-102.751C96.747,-98.584 97.491,-78.375 97.497,-78.083C97.583,-73.499 89.139,-56.394 86.997,-54.833C84.396,-52.937 87.994,-53.104 86.664,-51.083C85.333,-49.062 74.48,-48.529 68.458,-35.624C67.583,-33.749 53.997,-14.583 53.997,-14.583C53.997,-14.583 48.794,-4.441 56.414,-7.333C58.333,-8.062 58.58,-3.25 64.497,-3.333C70.414,-3.416 68.247,-5.916 74.497,-7.5C80.747,-9.083 75.169,-3.561 84.146,-5.562C88.392,-6.508 87.958,-6.603 88.708,-6.687C89.458,-6.77 93.972,-9.307 95.021,-10.937C96.146,-12.687 98.664,-17.25 98.664,-17.25L98.58,-6.25C98.58,-6.25 94.463,-3.163 90.831,5.334C90.146,6.938 70.06,13.189 70.331,15.667C68.646,20.063 75.498,24.98 75.498,24.98C75.498,24.98 68.942,26.303 66.81,31.751C65.685,34.626 58.085,40.834 51.271,44.126C48.649,45.392 51.726,54.873 56.998,59.167C60.248,61.814 57.83,70.562 56.832,71.75C55.833,72.938 40.639,85.361 39.332,87.167C36.873,90.564 35.201,100.578 36.123,103.189C38.373,109.564 43.498,107.314 44.165,115.501C44.883,124.315 34.748,129.168 34.748,129.168C34.748,129.168 29.914,130.418 30.164,135.418C30.414,140.418 24.866,141.59 20.331,143.501C16.623,145.064 17.914,153.334 22.331,153.668C26.748,154.001 38.12,153.793 39.164,153.334C40.208,152.876 44.415,150.501 47.498,150.418C50.581,150.334 54.703,150.939 56.081,149.751C57.458,148.563 66.945,143.693 74.164,143.001C78.083,142.626 81.414,136.939 82.081,135.751C82.748,134.564 81.373,130.751 82.248,129.501C83.123,128.251 86.837,128.283 88.498,122.084C89.123,119.751 90.664,122.084 90.664,122.084L90.623,141.689C90.623,141.689 89.694,148.094 84.164,149.918C80.123,151.251 88.302,159.371 77.498,160.168C74.685,160.376 73.748,168.335 69.914,168.418C66.081,168.501 61.378,170.043 57.831,177.918C55.935,182.126 54.793,176.271 44.31,189.001C43.435,190.064 29.564,186.804 23.582,207.335C22.623,210.626 15.81,215.439 14.748,216.251C14.034,216.797 12.061,218.44 11.935,220.126C11.809,221.812 15.848,238.159 20.665,229.171C21.56,227.501 30.435,233.376 32.06,233.376C36.31,233.376 30.687,228.025 49.873,227.626C52.873,227.564 59.748,221.251 61.166,219.921C66.635,214.793 75.313,213.317 76.499,213.003C77.685,212.689 81.772,208.341 82.435,207.939C84.185,206.876 94.583,207.671 94.583,207.671L95.916,236.421L84.999,246.003C84.999,246.003 73.582,255.169 79.332,258.753C85.082,262.337 87.977,259.787 88.582,259.337C89.623,258.563 93.873,263.646 93.123,266.813C92.373,269.98 98.666,268.253 98.499,266.421C98.332,264.587 97.915,393.419 97.915,393.419C97.915,393.419 92.687,393.567 91.749,393.753C90.81,393.939 87.041,398.36 85.832,398.837C84.623,399.313 77.27,399.067 76.165,398.753C75.06,398.439 62.665,392.919 62.665,392.919L70.832,390.169L62.832,387.587L71.999,377.919L61.249,382.169L65.249,371.753L63.832,356.087L61.832,368.753L54.582,378.253L49.415,368.003L48.749,379.503L42.332,372.337L42.165,383.419L33.332,380.753L38.915,387.337C38.915,387.337 28.193,386.483 24.249,378.585C23.832,377.751 0,382.501 0,382.501Z" style="fill:none;fill-rule:nonzero;stroke:rgb(35,31,32);stroke-width:1px;stroke-linecap:round;stroke-linejoin:round;"/>
        </g>
        <g transform="matrix(1,0,0,1,316.333,652)">
            <path d="M0,-145.333L11.667,-144C11.667,-144 14.561,-134.051 23.334,-135C25.671,-135.253 32.334,-128.333 32.334,-128.333L29.667,0C29.667,0 16.672,-8.88 16.084,-12.416C15.918,-13.415 6,-12.667 6,-12.667L0,-145.333Z" style="fill:none;fill-rule:nonzero;stroke:rgb(35,31,32);stroke-width:1px;stroke-linecap:round;stroke-linejoin:round;"/>
        </g>
        <g transform="matrix(1,0,0,1,261.333,615.527)">
            <path d="M0,-137.86L6.667,-6.86L18,-2.194L19.333,1.806L36.333,8.806L32.667,-134.86C32.667,-134.86 29.235,-146.666 16.333,-137.86C7.418,-131.776 0,-137.86 0,-137.86Z" style="fill:none;fill-rule:nonzero;stroke:rgb(35,31,32);stroke-width:1px;stroke-linecap:round;stroke-linejoin:round;"/>
        </g>
        <g transform="matrix(0.11915,0.992876,0.992876,-0.11915,277.785,406.159)">
            <path d="M5.879,-19.625L22.664,-19.625C22.664,-19.625 17.053,-4.851 18.071,-1.952C19.09,0.947 18.15,7.103 11.624,5.872C5.097,4.641 20.759,-1.939 5.879,-19.625Z" style="fill:none;fill-rule:nonzero;stroke:rgb(35,31,32);stroke-width:1px;stroke-linecap:round;stroke-linejoin:round;"/>
        </g>
        <g transform="matrix(1,0,0,1,252.666,380.667)">
            <path d="M0,-45.667L-0.333,-31.667C-0.333,-31.667 3,-28 3.333,-20C3.667,-12 8,-20.667 10.667,-10.334C13.333,0 28,-6 26,-13C24,-20 14.333,-33.667 14.333,-33.667L13.667,-38.334L8,-45.334L0,-45.667Z" style="fill:none;fill-rule:nonzero;stroke:rgb(35,31,32);stroke-width:1px;stroke-linecap:round;stroke-linejoin:round;"/>
        </g>
        <g transform="matrix(1,0,0,1,291,313.666)">
            <path d="M0,13.333L0,-3.667C0,-3.667 -7.667,11 -6.667,14C-5.667,17 0,13.333 0,13.333Z" style="fill:none;fill-rule:nonzero;stroke:rgb(35,31,32);stroke-width:1px;stroke-linecap:round;stroke-linejoin:round;"/>
        </g>
        <g transform="matrix(1,0,0,1,302.666,324.333)">
            <path d="M0,-22L0,-7.667C0,-7.667 14.667,-3.334 15.333,-1.667C16,0 0,-22 0,-22Z" style="fill:none;fill-rule:nonzero;stroke:rgb(35,31,32);stroke-width:1px;stroke-linecap:round;stroke-linejoin:round;"/>
        </g>
        <g transform="matrix(1,0,0,1,246.333,277.968)">
            <path d="M0,-38.301L0.333,-17.634C0.333,-17.634 -3.594,-12.561 -6.667,-15.634C-8.166,-17.134 -3.5,0 -18.667,-5.634C-21.583,-6.718 -16.083,-22.718 -6.333,-24.718C-4.397,-25.115 0,-38.301 0,-38.301Z" style="fill:none;fill-rule:nonzero;stroke:rgb(35,31,32);stroke-width:1px;stroke-linecap:round;stroke-linejoin:round;"/>
        </g>
        <g transform="matrix(1,0,0,1,255,272.334)">
            <path d="M0,-33L1,-19.333C1,-19.333 7.333,-17.667 7,-9.333C6.667,-1 13.667,0 13.667,0C13.667,0 8,-9.667 11.667,-15C15.333,-20.333 5.11,-13.78 8.333,-26.667C8.667,-28 0,-33 0,-33Z" style="fill:none;fill-rule:nonzero;stroke:rgb(35,31,32);stroke-width:1px;stroke-linecap:round;stroke-linejoin:round;"/>
        </g>
        <g transform="matrix(1,0,0,1,252.667,179.208)">
            <path d="M0,21.792L0.333,13.459C0.333,13.459 0.689,0.522 1,1.125C3.167,5.334 3.834,2.303 4.083,4.625C4.833,11.625 12.509,14.035 13.333,8.459C14.583,0 18.541,5.251 20.208,9.251C21.875,13.251 30.333,9.792 30.333,9.792L31,12.792C31,12.792 23.261,13.405 23.333,13.792C23.792,16.251 22.875,17.959 14,13.792C10.19,12.003 7.891,15.765 7,16.792C5.917,18.042 6.25,13.042 4.25,13.208C2.25,13.375 0,21.792 0,21.792Z" style="fill:none;fill-rule:nonzero;stroke:rgb(35,31,32);stroke-width:1px;stroke-linecap:round;stroke-linejoin:round;"/>
        </g>
        <g transform="matrix(1,0,0,1,304,180)">
            <path d="M0,-2.333L2.667,-1.666L-0.333,0L0,-2.333Z" style="fill:none;fill-rule:nonzero;stroke:rgb(35,31,32);stroke-width:1px;stroke-linecap:round;stroke-linejoin:round;"/>
        </g>
        <g transform="matrix(1,0,0,1,348.834,428.777)">
            <path d="M0,-16.277L-0.521,-0.964C-0.355,-2.298 -8.021,-6.714 -11.334,-1.943C-14.187,2.166 -29.5,-0.777 -19.5,-8.11C-9.5,-15.443 -14.168,-4.777 -6.834,-11.61C0.5,-18.443 0,-16.277 0,-16.277Z" style="fill:none;fill-rule:nonzero;stroke:rgb(35,31,32);stroke-width:1px;stroke-linecap:round;stroke-linejoin:round;"/>
        </g>
        <g transform="matrix(0.0209747,-0.99978,-0.99978,-0.0209747,352.795,356.138)">
            <path d="M-23.367,-0.029L0.472,-0.029C0.472,-0.029 -8.312,-0.099 -10.58,18.243C-11.307,24.125 -17.673,22.596 -17.673,22.596C-17.673,22.596 -10.794,8.571 -23.214,0.641" style="fill:none;fill-rule:nonzero;stroke:rgb(35,31,32);stroke-width:1px;stroke-linecap:round;stroke-linejoin:round;"/>
        </g>
        <g transform="matrix(1,0,0,1,357,309.75)">
            <path d="M0,-19C0,-19 0.75,-3.75 0,-2.75C-0.75,-1.75 -10.5,0 -14.75,-3.5C-19,-7 -27.25,-6 -29,-5C-30.75,-4 -33.75,-7 -33.75,-9.25C-33.75,-11.5 -18.75,-7.5 -21.25,-13C-7.5,-8.25 -3.5,-15.25 -3.5,-15.25L0,-19Z" style="fill:none;fill-rule:nonzero;stroke:rgb(35,31,32);stroke-width:1px;stroke-linecap:round;stroke-linejoin:round;"/>
        </g>
        <g transform="matrix(1,0,0,1,300.625,234.875)">
            <path d="M0,-28.625C-0.125,-29.875 0.5,-18 1,-17.25C1.5,-16.5 8.125,-8.625 7.125,-5.625C6.125,-2.625 10.625,1.375 10.625,-0.375C10.625,-2.125 11.125,-12.375 10.625,-13C10.125,-13.625 2.25,-18.625 2.25,-23.375C2.25,-28.125 1.5,-30 2.375,-28.75C3.25,-27.5 0,-28.625 0,-28.625Z" style="fill:none;fill-rule:nonzero;stroke:rgb(35,31,32);stroke-width:1px;stroke-linecap:round;stroke-linejoin:round;"/>
        </g>
        <g transform="matrix(1,0,0,1,295.25,235.375)">
            <path d="M0,-30.375C0.25,-29.75 0,-14.875 0,-14.875C0,-14.875 -5.5,-15.375 -6.5,-7.625C-7.5,0.125 -20.75,-4 -13.125,-9.125C-5.5,-14.25 -2.5,-22.75 -3.125,-25.375C-3.75,-28 -2.5,-30.5 -2.5,-30.5L0,-30.375Z" style="fill:none;fill-rule:nonzero;stroke:rgb(35,31,32);stroke-width:1px;stroke-linecap:round;stroke-linejoin:round;"/>
        </g>
    </g>
</svg>
