solid OpenSCAD_Model
  facet normal -0.9247942013871828 -0.35273248458676765 -0.1426025224106795
    outer loop
      vertex 2.526348545775494 3.355229206068946 -14.440163830567087
      vertex 3.2173866610997077 2.6997079606834644 -17.30017217761848
      vertex 4.2 0 -16.994710690167242
    endloop
  endfacet
  facet normal -0.7332491076534372 -0.6038099009251043 0.31266491595676893
    outer loop
      vertex 4.530856441845977 1.0478439234896946 -14.195232137564739
      vertex 2.526348545775494 3.355229206068946 -14.440163830567087
      vertex 4.2 0 -16.994710690167242
    endloop
  endfacet
  facet normal -0.49143593813664826 -0.8628726390097978 0.11807424594728358
    outer loop
      vertex -0.27165721773678064 5.146119060658184 -13.943812397696247
      vertex 0.7293223462011077 4.136192562651273 -17.158066348139943
      vertex 3.2173866610997077 2.6997079606834644 -17.30017217761848
    endloop
  endfacet
  facet normal -0.5296031410118066 -0.8456841560724377 0.06586972899957294
    outer loop
      vertex 2.526348545775494 3.355229206068946 -14.440163830567087
      vertex -0.27165721773678064 5.146119060658184 -13.943812397696247
      vertex 3.2173866610997077 2.6997079606834644 -17.30017217761848
    endloop
  endfacet
  facet normal 0.22461609555387121 -0.8670956343520291 0.4446265517327846
    outer loop
      vertex -4.476500288463153 4.796803797618498 -13.239891274251795
      vertex -2.195964293916684 3.803521728670814 -16.329035706083314
      vertex 0.7293223462011077 4.136192562651273 -17.158066348139943
    endloop
  endfacet
  facet normal 0.13352138165322336 -0.9328254179567357 0.3346771283718922
    outer loop
      vertex -0.27165721773678064 5.146119060658184 -13.943812397696247
      vertex -4.476500288463153 4.796803797618498 -13.239891274251795
      vertex 0.7293223462011077 4.136192562651273 -17.158066348139943
    endloop
  endfacet
  facet normal 0.7925124490357489 -0.6082787291723248 0.04382927970958405
    outer loop
      vertex -4.788262819706994 0.5860782294105216 -14.108455969502574
      vertex -3.946709007300815 1.4364846019678092 -17.523017337561594
      vertex -2.195964293916684 3.803521728670814 -16.329035706083314
    endloop
  endfacet
  facet normal 0.7614068018466771 -0.18456316969828962 0.6214467945790173
    outer loop
      vertex -4.476500288463153 4.796803797618498 -13.239891274251795
      vertex -4.788262819706994 0.5860782294105216 -14.108455969502574
      vertex -2.195964293916684 3.803521728670814 -16.329035706083314
    endloop
  endfacet
  facet normal 0.9545762865939538 0.06880026524792342 0.2899148781527321
    outer loop
      vertex -4.790927549669091 -3.1138531882750327 -13.663486376909923
      vertex -3.946709007300815 -1.4364846019678084 -16.84122741170703
      vertex -3.946709007300815 1.4364846019678092 -17.523017337561594
    endloop
  endfacet
  facet normal 0.9688455300098369 0.028884315537482382 0.24597568029357983
    outer loop
      vertex -4.788262819706994 0.5860782294105216 -14.108455969502574
      vertex -4.790927549669091 -3.1138531882750327 -13.663486376909923
      vertex -3.946709007300815 1.4364846019678092 -17.523017337561594
    endloop
  endfacet
  facet normal 0.7372204511404847 0.6634224095024905 -0.12797153195195318
    outer loop
      vertex -1.2264351120482724 -4.016946217705079 -14.547705711483502
      vertex -2.100000000000002 -3.637306695894641 -17.61204766717439
      vertex -3.946709007300815 -1.4364846019678084 -16.84122741170703
    endloop
  endfacet
  facet normal 0.3277976079604394 0.7967645202664165 0.507656406893522
    outer loop
      vertex -4.790927549669091 -3.1138531882750327 -13.663486376909923
      vertex -1.2264351120482724 -4.016946217705079 -14.547705711483502
      vertex -3.946709007300815 -1.4364846019678084 -16.84122741170703
    endloop
  endfacet
  facet normal 0.16773074786417458 0.9850209292269769 0.04000206501854565
    outer loop
      vertex 1.895315278880721 -4.460370669559901 -14.09727860692733
      vertex 0.7293223462011058 -4.136192562651274 -17.19085273721564
      vertex -2.100000000000002 -3.637306695894641 -17.61204766717439
    endloop
  endfacet
  facet normal 0.127947025338664 0.9880510072736868 0.08593465966907898
    outer loop
      vertex -1.2264351120482724 -4.016946217705079 -14.547705711483502
      vertex 1.895315278880721 -4.460370669559901 -14.09727860692733
      vertex -2.100000000000002 -3.637306695894641 -17.61204766717439
    endloop
  endfacet
  facet normal -0.49607764500542706 0.8638434075507618 0.08764438006488436
    outer loop
      vertex 4.5041665227264245 -2.2928323794486456 -13.993371425299134
      vertex 3.2173866610997064 -2.699707960683466 -17.266438502055642
      vertex 0.7293223462011058 -4.136192562651274 -17.19085273721564
    endloop
  endfacet
  facet normal -0.6152252447095354 0.7257240849952048 0.3079325424991081
    outer loop
      vertex 1.895315278880721 -4.460370669559901 -14.09727860692733
      vertex 4.5041665227264245 -2.2928323794486456 -13.993371425299134
      vertex 0.7293223462011058 -4.136192562651274 -17.19085273721564
    endloop
  endfacet
  facet normal -0.9389758955172021 0.3435318347858695 -0.017610966081467408
    outer loop
      vertex 4.530856441845977 1.0478439234896946 -14.195232137564739
      vertex 4.2 0 -16.994710690167242
      vertex 3.2173866610997064 -2.699707960683466 -17.266438502055642
    endloop
  endfacet
  facet normal -0.931497327037581 0.029349937791898515 0.3625621476015576
    outer loop
      vertex 4.5041665227264245 -2.2928323794486456 -13.993371425299134
      vertex 4.530856441845977 1.0478439234896946 -14.195232137564739
      vertex 3.2173866610997064 -2.699707960683466 -17.266438502055642
    endloop
  endfacet
  facet normal -0.6914305092882129 -0.5510813552290699 0.4671543543030872
    outer loop
      vertex 2.6247802248847076 5.90742925491788 -11.283758428006545
      vertex 2.526348545775494 3.355229206068946 -14.440163830567087
      vertex 4.530856441845977 1.0478439234896946 -14.195232137564739
    endloop
  endfacet
  facet normal -0.6700523768101885 -0.5568805898511154 0.49082972707252664
    outer loop
      vertex 5.174674265873555 2.528726400748522 -11.636164702611032
      vertex 2.6247802248847076 5.90742925491788 -11.283758428006545
      vertex 4.530856441845977 1.0478439234896946 -14.195232137564739
    endloop
  endfacet
  facet normal -0.489458571286419 -0.8346800976214344 0.252466713902903
    outer loop
      vertex -2.053824207281459 7.14204982697389 -10.800163216747581
      vertex -0.27165721773678064 5.146119060658184 -13.943812397696247
      vertex 2.526348545775494 3.355229206068946 -14.440163830567087
    endloop
  endfacet
  facet normal -0.13804178645620638 -0.7680508300686288 0.6253338209491547
    outer loop
      vertex 2.6247802248847076 5.90742925491788 -11.283758428006545
      vertex -2.053824207281459 7.14204982697389 -10.800163216747581
      vertex 2.526348545775494 3.355229206068946 -14.440163830567087
    endloop
  endfacet
  facet normal 0.11466489561001704 -0.9725859855987253 0.20230784050970424
    outer loop
      vertex -7.597318910406098 5.116061385719095 -9.936243744815007
      vertex -4.476500288463153 4.796803797618498 -13.239891274251795
      vertex -0.27165721773678064 5.146119060658184 -13.943812397696247
    endloop
  endfacet
  facet normal 0.3504746534366643 -0.6879802704734135 0.6354924584428826
    outer loop
      vertex -2.053824207281459 7.14204982697389 -10.800163216747581
      vertex -7.597318910406098 5.116061385719095 -9.936243744815007
      vertex -0.27165721773678064 5.146119060658184 -13.943812397696247
    endloop
  endfacet
  facet normal 0.806422795760696 -0.17614835863366338 0.56449449087495
    outer loop
      vertex -7.410665013480289 -0.7845859264082652 -10.78986792708861
      vertex -4.788262819706994 0.5860782294105216 -14.108455969502574
      vertex -4.476500288463153 4.796803797618498 -13.239891274251795
    endloop
  endfacet
  facet normal 0.721072354784281 -0.07680609426351112 0.6885894880477312
    outer loop
      vertex -7.597318910406098 5.116061385719095 -9.936243744815007
      vertex -7.410665013480289 -0.7845859264082652 -10.78986792708861
      vertex -4.476500288463153 4.796803797618498 -13.239891274251795
    endloop
  endfacet
  facet normal 0.9856011148216048 0.01948975906651268 0.16796008976521498
    outer loop
      vertex -5.243364278583139 -5.437925637404289 -10.738876386660271
      vertex -4.790927549669091 -3.1138531882750327 -13.663486376909923
      vertex -4.788262819706994 0.5860782294105216 -14.108455969502574
    endloop
  endfacet
  facet normal 0.6739874122961497 0.32120071747231366 0.6652601499876653
    outer loop
      vertex -7.410665013480289 -0.7845859264082652 -10.78986792708861
      vertex -5.243364278583139 -5.437925637404289 -10.738876386660271
      vertex -4.788262819706994 0.5860782294105216 -14.108455969502574
    endloop
  endfacet
  facet normal 0.3266643610359647 0.8059316064174094 0.49372526875421185
    outer loop
      vertex -0.43489066025561895 -6.2878829753762835 -11.364456957431393
      vertex -1.2264351120482724 -4.016946217705079 -14.547705711483502
      vertex -4.790927549669091 -3.1138531882750327 -13.663486376909923
    endloop
  endfacet
  facet normal 0.21396348445058 0.7483815252294119 0.6278094615542726
    outer loop
      vertex -5.243364278583139 -5.437925637404289 -10.738876386660271
      vertex -0.43489066025561895 -6.2878829753762835 -11.364456957431393
      vertex -4.790927549669091 -3.1138531882750327 -13.663486376909923
    endloop
  endfacet
  facet normal 0.08658112617623037 0.9412162944346513 0.3265204368500686
    outer loop
      vertex 4.193624093346437 -5.762814863883729 -10.952325284132021
      vertex 1.895315278880721 -4.460370669559901 -14.09727860692733
      vertex -1.2264351120482724 -4.016946217705079 -14.547705711483502
    endloop
  endfacet
  facet normal -0.14271761003243189 0.7886187416339803 0.598090431398353
    outer loop
      vertex -0.43489066025561895 -6.2878829753762835 -11.364456957431393
      vertex 4.193624093346437 -5.762814863883729 -10.952325284132021
      vertex -1.2264351120482724 -4.016946217705079 -14.547705711483502
    endloop
  endfacet
  facet normal -0.6057111708468751 0.7120075632645124 0.3551889741608531
    outer loop
      vertex 6.9624702175759685 -1.7303205548347935 -10.928779292828311
      vertex 4.5041665227264245 -2.2928323794486456 -13.993371425299134
      vertex 1.895315278880721 -4.460370669559901 -14.09727860692733
    endloop
  endfacet
  facet normal -0.6338577721708423 0.43147989239565376 0.6419107625806344
    outer loop
      vertex 4.193624093346437 -5.762814863883729 -10.952325284132021
      vertex 6.9624702175759685 -1.7303205548347935 -10.928779292828311
      vertex 1.895315278880721 -4.460370669559901 -14.09727860692733
    endloop
  endfacet
  facet normal -0.9724609915513229 0.021790687202492002 0.23204479279281562
    outer loop
      vertex 5.174674265873555 2.528726400748522 -11.636164702611032
      vertex 4.530856441845977 1.0478439234896946 -14.195232137564739
      vertex 4.5041665227264245 -2.2928323794486456 -13.993371425299134
    endloop
  endfacet
  facet normal -0.7442678032625847 -0.20694818894578385 0.6350101448943526
    outer loop
      vertex 6.9624702175759685 -1.7303205548347935 -10.928779292828311
      vertex 5.174674265873555 2.528726400748522 -11.636164702611032
      vertex 4.5041665227264245 -2.2928323794486456 -13.993371425299134
    endloop
  endfacet
  facet normal -0.7664439274468766 -0.601837654621616 0.22439951773423988
    outer loop
      vertex 1.6083397770935197 8.324837764036761 -8.271974510672477
      vertex 2.6247802248847076 5.90742925491788 -11.283758428006545
      vertex 5.174674265873555 2.528726400748522 -11.636164702611032
    endloop
  endfacet
  facet normal -0.5224930852191288 -0.6450971663670357 0.5575397939550298
    outer loop
      vertex 5.599292614344842 4.54479439719837 -8.905561579474545
      vertex 1.6083397770935197 8.324837764036761 -8.271974510672477
      vertex 5.174674265873555 2.528726400748522 -11.636164702611032
    endloop
  endfacet
  facet normal -0.21588795362380453 -0.9320671029642748 0.2909352282758315
    outer loop
      vertex -4.920224122252199 8.852508750905992 -7.447385047396764
      vertex -2.053824207281459 7.14204982697389 -10.800163216747581
      vertex 2.6247802248847076 5.90742925491788 -11.283758428006545
    endloop
  endfacet
  facet normal 0.016681145743859108 -0.7769954686762203 0.6292851349215975
    outer loop
      vertex 1.6083397770935197 8.324837764036761 -8.271974510672477
      vertex -4.920224122252199 8.852508750905992 -7.447385047396764
      vertex 2.6247802248847076 5.90742925491788 -11.283758428006545
    endloop
  endfacet
  facet normal 0.3394837172650336 -0.9402357304148089 -0.02660031885608428
    outer loop
      vertex -10.453862272935986 3.999196991312727 -6.915007388838846
      vertex -7.597318910406098 5.116061385719095 -9.936243744815007
      vertex -2.053824207281459 7.14204982697389 -10.800163216747581
    endloop
  endfacet
  facet normal 0.5107857710392041 -0.5061592776372361 0.6949105566658468
    outer loop
      vertex -4.920224122252199 8.852508750905992 -7.447385047396764
      vertex -10.453862272935986 3.999196991312727 -6.915007388838846
      vertex -2.053824207281459 7.14204982697389 -10.800163216747581
    endloop
  endfacet
  facet normal 0.8965496471575184 -0.03551227973788739 0.44151739282790115
    outer loop
      vertex -8.99960801528354 -3.1102917196060615 -7.750406300653577
      vertex -7.410665013480289 -0.7845859264082652 -10.78986792708861
      vertex -7.597318910406098 5.116061385719095 -9.936243744815007
    endloop
  endfacet
  facet normal 0.7132543616234477 0.06388006402765707 0.6979882184141439
    outer loop
      vertex -10.453862272935986 3.999196991312727 -6.915007388838846
      vertex -8.99960801528354 -3.1102917196060615 -7.750406300653577
      vertex -7.597318910406098 5.116061385719095 -9.936243744815007
    endloop
  endfacet
  facet normal 0.9050984760020575 0.42088917850599983 -0.060407351831523966
    outer loop
      vertex -4.286305425640303 -7.1520623598576085 -8.342298687206409
      vertex -5.243364278583139 -5.437925637404289 -10.738876386660271
      vertex -7.410665013480289 -0.7845859264082652 -10.78986792708861
    endloop
  endfacet
  facet normal 0.5285734475059864 0.517896439311112 0.6726019541604885
    outer loop
      vertex -8.99960801528354 -3.1102917196060615 -7.750406300653577
      vertex -4.286305425640303 -7.1520623598576085 -8.342298687206409
      vertex -7.410665013480289 -0.7845859264082652 -10.78986792708861
    endloop
  endfacet
  facet normal 0.21354687563655544 0.8356909861780497 0.5059825170167684
    outer loop
      vertex 1.3945647091672855 -8.740447113343405 -8.085862916975833
      vertex -0.43489066025561895 -6.2878829753762835 -11.364456957431393
      vertex -5.243364278583139 -5.437925637404289 -10.738876386660271
    endloop
  endfacet
  facet normal 0.20978940429602122 0.8329729798067411 0.512000410895342
    outer loop
      vertex -4.286305425640303 -7.1520623598576085 -8.342298687206409
      vertex 1.3945647091672855 -8.740447113343405 -8.085862916975833
      vertex -5.243364278583139 -5.437925637404289 -10.738876386660271
    endloop
  endfacet
  facet normal -0.12932063177040237 0.966725970972668 0.22071944011676042
    outer loop
      vertex 7.021429366222226 -6.089599069084519 -7.864222386975931
      vertex 4.193624093346437 -5.762814863883729 -10.952325284132021
      vertex -0.43489066025561895 -6.2878829753762835 -11.364456957431393
    endloop
  endfacet
  facet normal -0.3352767780381599 0.6550666557565424 0.6771094140715295
    outer loop
      vertex 1.3945647091672855 -8.740447113343405 -8.085862916975833
      vertex 7.021429366222226 -6.089599069084519 -7.864222386975931
      vertex -0.43489066025561895 -6.2878829753762835 -11.364456957431393
    endloop
  endfacet
  facet normal -0.8225987884507373 0.5644211211903124 0.06899297930695349
    outer loop
      vertex 8.271303625142451 -0.13494603999054225 -8.375161450390259
      vertex 6.9624702175759685 -1.7303205548347935 -10.928779292828311
      vertex 4.193624093346437 -5.762814863883729 -10.952325284132021
    endloop
  endfacet
  facet normal -0.7105544000125327 0.20685270122226615 0.6725506706709031
    outer loop
      vertex 7.021429366222226 -6.089599069084519 -7.864222386975931
      vertex 8.271303625142451 -0.13494603999054225 -8.375161450390259
      vertex 4.193624093346437 -5.762814863883729 -10.952325284132021
    endloop
  endfacet
  facet normal -0.8787441342387533 -0.30835640974919776 0.36431452222985683
    outer loop
      vertex 5.599292614344842 4.54479439719837 -8.905561579474545
      vertex 5.174674265873555 2.528726400748522 -11.636164702611032
      vertex 6.9624702175759685 -1.7303205548347935 -10.928779292828311
    endloop
  endfacet
  facet normal -0.7277028234620012 -0.34854618813379057 0.5907318811972451
    outer loop
      vertex 8.271303625142451 -0.13494603999054225 -8.375161450390259
      vertex 5.599292614344842 4.54479439719837 -8.905561579474545
      vertex 6.9624702175759685 -1.7303205548347935 -10.928779292828311
    endloop
  endfacet
  facet normal -0.6906055176675828 -0.7219639858551409 -0.0428021272280696
    outer loop
      vertex -0.3661744776841037 10.04803335558113 -5.479466541466717
      vertex 1.6083397770935197 8.324837764036761 -8.271974510672477
      vertex 5.599292614344842 4.54479439719837 -8.905561579474545
    endloop
  endfacet
  facet normal -0.24738647673870356 -0.6910063837543595 0.6791981365827895
    outer loop
      vertex 5.908057339223462 7.585702172845942 -5.699323538589967
      vertex -0.3661744776841037 10.04803335558113 -5.479466541466717
      vertex 5.599292614344842 4.54479439719837 -8.905561579474545
    endloop
  endfacet
  facet normal -0.0648104656216819 -0.990564466161694 0.12075446958062913
    outer loop
      vertex -8.579232731905918 9.4991327787786 -4.106881506016772
      vertex -4.920224122252199 8.852508750905992 -7.447385047396764
      vertex 1.6083397770935197 8.324837764036761 -8.271974510672477
    endloop
  endfacet
  facet normal 0.1521476893406675 -0.7894125273394195 0.5947091241168965
    outer loop
      vertex -0.3661744776841037 10.04803335558113 -5.479466541466717
      vertex -8.579232731905918 9.4991327787786 -4.106881506016772
      vertex 1.6083397770935197 8.324837764036761 -8.271974510672477
    endloop
  endfacet
  facet normal 0.6564727283263604 -0.7531536226592963 -0.04246383919198854
    outer loop
      vertex -12.812837789951258 1.7808748993622852 -4.038813705188977
      vertex -10.453862272935986 3.999196991312727 -6.915007388838846
      vertex -4.920224122252199 8.852508750905992 -7.447385047396764
    endloop
  endfacet
  facet normal 0.6054358275656125 -0.3256881276841549 0.7262056886210212
    outer loop
      vertex -8.579232731905918 9.4991327787786 -4.106881506016772
      vertex -12.812837789951258 1.7808748993622852 -4.038813705188977
      vertex -4.920224122252199 8.852508750905992 -7.447385047396764
    endloop
  endfacet
  facet normal 0.9415531624237465 0.15761253063798558 0.29771787402796623
    outer loop
      vertex -9.417634108990685 -5.904710085677508 -4.948998613706813
      vertex -8.99960801528354 -3.1102917196060615 -7.750406300653577
      vertex -10.453862272935986 3.999196991312727 -6.915007388838846
    endloop
  endfacet
  facet normal 0.6694628579837916 0.2114080736180669 0.7121278734814919
    outer loop
      vertex -12.812837789951258 1.7808748993622852 -4.038813705188977
      vertex -9.417634108990685 -5.904710085677508 -4.948998613706813
      vertex -10.453862272935986 3.999196991312727 -6.915007388838846
    endloop
  endfacet
  facet normal 0.6467963924405205 0.715656074703565 0.2636110951113661
    outer loop
      vertex -3.009618850025143 -9.310776029995646 -5.614263739015112
      vertex -4.286305425640303 -7.1520623598576085 -8.342298687206409
      vertex -8.99960801528354 -3.1102917196060615 -7.750406300653577
    endloop
  endfacet
  facet normal 0.39910947056310103 0.618693614343408 0.6767051367305643
    outer loop
      vertex -9.417634108990685 -5.904710085677508 -4.948998613706813
      vertex -3.009618850025143 -9.310776029995646 -5.614263739015112
      vertex -8.99960801528354 -3.1102917196060615 -7.750406300653577
    endloop
  endfacet
  facet normal 0.250877853357106 0.9366986398744952 0.24424569751011221
    outer loop
      vertex 4.182040467046705 -10.305793851898406 -4.945818959874267
      vertex 1.3945647091672855 -8.740447113343405 -8.085862916975833
      vertex -4.286305425640303 -7.1520623598576085 -8.342298687206409
    endloop
  endfacet
  facet normal 0.05387570546311477 0.7951595155509181 0.6040022791262306
    outer loop
      vertex -3.009618850025143 -9.310776029995646 -5.614263739015112
      vertex 4.182040467046705 -10.305793851898406 -4.945818959874267
      vertex -4.286305425640303 -7.1520623598576085 -8.342298687206409
    endloop
  endfacet
  facet normal -0.42734284317788296 0.8994936570989237 0.09104534707192334
    outer loop
      vertex 9.664544809048078 -5.119905346263277 -5.038343597420961
      vertex 7.021429366222226 -6.089599069084519 -7.864222386975931
      vertex 1.3945647091672855 -8.740447113343405 -8.085862916975833
    endloop
  endfacet
  facet normal -0.48738496363479167 0.5276744196780684 0.6957122997619968
    outer loop
      vertex 4.182040467046705 -10.305793851898406 -4.945818959874267
      vertex 9.664544809048078 -5.119905346263277 -5.038343597420961
      vertex 1.3945647091672855 -8.740447113343405 -8.085862916975833
    endloop
  endfacet
  facet normal -0.9768224283005419 0.20900023595544368 0.0462260201574987
    outer loop
      vertex 8.816606550832766 1.8880360414309865 -5.998569320954085
      vertex 8.271303625142451 -0.13494603999054225 -8.375161450390259
      vertex 7.021429366222226 -6.089599069084519 -7.864222386975931
    endloop
  endfacet
  facet normal -0.7311756579135751 0.005000932243832699 0.682170908168432
    outer loop
      vertex 9.664544809048078 -5.119905346263277 -5.038343597420961
      vertex 8.816606550832766 1.8880360414309865 -5.998569320954085
      vertex 7.021429366222226 -6.089599069084519 -7.864222386975931
    endloop
  endfacet
  facet normal -0.7936957764914476 -0.40137129858980464 0.4571084062320142
    outer loop
      vertex 5.908057339223462 7.585702172845942 -5.699323538589967
      vertex 5.599292614344842 4.54479439719837 -8.905561579474545
      vertex 8.271303625142451 -0.13494603999054225 -8.375161450390259
    endloop
  endfacet
  facet normal -0.7490513204753387 -0.40972000927312957 0.5206261934395713
    outer loop
      vertex 8.816606550832766 1.8880360414309865 -5.998569320954085
      vertex 5.908057339223462 7.585702172845942 -5.699323538589967
      vertex 8.271303625142451 -0.13494603999054225 -8.375161450390259
    endloop
  endfacet
  facet normal -0.3597185994754085 -0.926474985193436 0.11066449747897196
    outer loop
      vertex -3.0924363652570923 11.454051706268402 -2.570189131203075
      vertex -0.3661744776841037 10.04803335558113 -5.479466541466717
      vertex 5.908057339223462 7.585702172845942 -5.699323538589967
    endloop
  endfacet
  facet normal -0.16026262422227422 -0.818798849015052 0.5512570508655795
    outer loop
      vertex 4.419347959913834 9.524517974802508 -3.2523422743255006
      vertex -3.0924363652570923 11.454051706268402 -2.570189131203075
      vertex 5.908057339223462 7.585702172845942 -5.699323538589967
    endloop
  endfacet
  facet normal 0.020947692978863286 -0.9652072740297692 -0.26064556838527914
    outer loop
      vertex -12.303197007261659 8.58000729058586 -1.002519702905879
      vertex -8.579232731905918 9.4991327787786 -4.106881506016772
      vertex -0.3661744776841037 10.04803335558113 -5.479466541466717
    endloop
  endfacet
  facet normal 0.3259114020360974 -0.6947504764038889 0.6411735596228489
    outer loop
      vertex -3.0924363652570923 11.454051706268402 -2.570189131203075
      vertex -12.303197007261659 8.58000729058586 -1.002519702905879
      vertex -0.3661744776841037 10.04803335558113 -5.479466541466717
    endloop
  endfacet
  facet normal 0.8764336838482918 -0.48094735160998814 -0.023529615284803275
    outer loop
      vertex -14.423156962103368 -1.289475619077998 -1.2619308132871132
      vertex -12.812837789951258 1.7808748993622852 -4.038813705188977
      vertex -8.579232731905918 9.4991327787786 -4.106881506016772
    endloop
  endfacet
  facet normal 0.6550691977147269 -0.16011698004702332 0.7384083551166015
    outer loop
      vertex -12.303197007261659 8.58000729058586 -1.002519702905879
      vertex -14.423156962103368 -1.289475619077998 -1.2619308132871132
      vertex -8.579232731905918 9.4991327787786 -4.106881506016772
    endloop
  endfacet
  facet normal 0.9152792785104388 0.4025315602348194 0.015237629222830989
    outer loop
      vertex -8.362287660639895 -8.39411854630578 -2.577977809547814
      vertex -9.417634108990685 -5.904710085677508 -4.948998613706813
      vertex -12.812837789951258 1.7808748993622852 -4.038813705188977
    endloop
  endfacet
  facet normal 0.5791597789395636 0.3584452296479056 0.7321823323471661
    outer loop
      vertex -14.423156962103368 -1.289475619077998 -1.2619308132871132
      vertex -8.362287660639895 -8.39411854630578 -2.577977809547814
      vertex -12.812837789951258 1.7808748993622852 -4.038813705188977
    endloop
  endfacet
  facet normal 0.44213249579301783 0.7300189864260298 0.5211440641716538
    outer loop
      vertex -1.119289579055386 -13.079660870729406 -1.9385402210101526
      vertex -3.009618850025143 -9.310776029995646 -5.614263739015112
      vertex -9.417634108990685 -5.904710085677508 -4.948998613706813
    endloop
  endfacet
  facet normal 0.411860561157346 0.7139405165040321 0.5662683260231955
    outer loop
      vertex -8.362287660639895 -8.39411854630578 -2.577977809547814
      vertex -1.119289579055386 -13.079660870729406 -1.9385402210101526
      vertex -9.417634108990685 -5.904710085677508 -4.948998613706813
    endloop
  endfacet
  facet normal 0.12840188493610266 0.9877341981498032 0.0888488027506342
    outer loop
      vertex 7.776558376421531 -11.061295110841085 -1.7415939575224433
      vertex 4.182040467046705 -10.305793851898406 -4.945818959874267
      vertex -3.009618850025143 -9.310776029995646 -5.614263739015112
    endloop
  endfacet
  facet normal -0.16302614516834568 0.6457422225070905 0.745948696669652
    outer loop
      vertex -1.119289579055386 -13.079660870729406 -1.9385402210101526
      vertex 7.776558376421531 -11.061295110841085 -1.7415939575224433
      vertex -3.009618850025143 -9.310776029995646 -5.614263739015112
    endloop
  endfacet
  facet normal -0.6693684160905021 0.7033872922234509 -0.2391489926365033
    outer loop
      vertex 11.119660491829158 -2.9568758069804733 -2.7492308364237497
      vertex 9.664544809048078 -5.119905346263277 -5.038343597420961
      vertex 4.182040467046705 -10.305793851898406 -4.945818959874267
    endloop
  endfacet
  facet normal -0.5871588530376737 0.3338877870627932 0.7374031644560487
    outer loop
      vertex 7.776558376421531 -11.061295110841085 -1.7415939575224433
      vertex 11.119660491829158 -2.9568758069804733 -2.7492308364237497
      vertex 4.182040467046705 -10.305793851898406 -4.945818959874267
    endloop
  endfacet
  facet normal -0.8834300951757202 -0.04296026471635564 0.4665894154321534
    outer loop
      vertex 10.375512227545947 4.862197371055618 -2.773131926527478
      vertex 8.816606550832766 1.8880360414309865 -5.998569320954085
      vertex 9.664544809048078 -5.119905346263277 -5.038343597420961
    endloop
  endfacet
  facet normal -0.807896776684348 -0.07510152769275563 0.58451908331658
    outer loop
      vertex 11.119660491829158 -2.9568758069804733 -2.7492308364237497
      vertex 10.375512227545947 4.862197371055618 -2.773131926527478
      vertex 9.664544809048078 -5.119905346263277 -5.038343597420961
    endloop
  endfacet
  facet normal -0.8788927713134793 -0.4388363466904002 -0.1870030945100505
    outer loop
      vertex 4.419347959913834 9.524517974802508 -3.2523422743255006
      vertex 5.908057339223462 7.585702172845942 -5.699323538589967
      vertex 8.816606550832766 1.8880360414309865 -5.998569320954085
    endloop
  endfacet
  facet normal -0.46826217615442917 -0.5251739938743314 0.7105792077884084
    outer loop
      vertex 10.375512227545947 4.862197371055618 -2.773131926527478
      vertex 4.419347959913834 9.524517974802508 -3.2523422743255006
      vertex 8.816606550832766 1.8880360414309865 -5.998569320954085
    endloop
  endfacet
  facet normal -0.2601853713528969 -0.8529010779230773 -0.4526182981405059
    outer loop
      vertex -5.663237876168773 10.59267865502311 0.5307702322569493
      vertex -3.0924363652570923 11.454051706268402 -2.570189131203075
      vertex 4.419347959913834 9.524517974802508 -3.2523422743255006
    endloop
  endfacet
  facet normal 0.01657706693589097 -0.9498186675645224 0.3123614886597874
    outer loop
      vertex 2.2117136507756 10.5231917338588 -0.09844809518727712
      vertex -5.663237876168773 10.59267865502311 0.5307702322569493
      vertex 4.419347959913834 9.524517974802508 -3.2523422743255006
    endloop
  endfacet
  facet normal 0.16046674318301027 -0.8166521872019777 -0.5543731861034261
    outer loop
      vertex -14.563572336341256 5.845483078864118 2.371453205447844
      vertex -12.303197007261659 8.58000729058586 -1.002519702905879
      vertex -3.0924363652570923 11.454051706268402 -2.570189131203075
    endloop
  endfacet
  facet normal 0.49087322205987677 -0.8545694623769698 0.1695715596357238
    outer loop
      vertex -5.663237876168773 10.59267865502311 0.5307702322569493
      vertex -14.563572336341256 5.845483078864118 2.371453205447844
      vertex -3.0924363652570923 11.454051706268402 -2.570189131203075
    endloop
  endfacet
  facet normal 0.8317152689122163 -0.16471600024687144 -0.5302059512311725
    outer loop
      vertex -13.264798881880424 -4.343449276275196 1.503904659620871
      vertex -14.423156962103368 -1.289475619077998 -1.2619308132871132
      vertex -12.303197007261659 8.58000729058586 -1.002519702905879
    endloop
  endfacet
  facet normal 0.8090978451047646 0.05330299443763937 0.5852516277899681
    outer loop
      vertex -14.563572336341256 5.845483078864118 2.371453205447844
      vertex -13.264798881880424 -4.343449276275196 1.503904659620871
      vertex -12.303197007261659 8.58000729058586 -1.002519702905879
    endloop
  endfacet
  facet normal 0.7540172556587951 0.6541899479961201 -0.059105753608369234
    outer loop
      vertex -6.426598661024608 -10.337067580787386 0.6109702702126476
      vertex -8.362287660639895 -8.39411854630578 -2.577977809547814
      vertex -14.423156962103368 -1.289475619077998 -1.2619308132871132
    endloop
  endfacet
  facet normal 0.6214559113096328 0.6421658162966307 0.448793510067153
    outer loop
      vertex -13.264798881880424 -4.343449276275196 1.503904659620871
      vertex -6.426598661024608 -10.337067580787386 0.6109702702126476
      vertex -14.423156962103368 -1.289475619077998 -1.2619308132871132
    endloop
  endfacet
  facet normal 0.5136413556752194 0.7331747136033877 -0.4456763366757463
    outer loop
      vertex 1.8955382291062046 -13.267930525522551 1.2263253466776283
      vertex -1.119289579055386 -13.079660870729406 -1.9385402210101526
      vertex -8.362287660639895 -8.39411854630578 -2.577977809547814
    endloop
  endfacet
  facet normal 0.2847910947621644 0.885659895993156 0.36674320849002795
    outer loop
      vertex -6.426598661024608 -10.337067580787386 0.6109702702126476
      vertex 1.8955382291062046 -13.267930525522551 1.2263253466776283
      vertex -8.362287660639895 -8.39411854630578 -2.577977809547814
    endloop
  endfacet
  facet normal -0.15638699419368152 0.7517764128807422 -0.6406054425956974
    outer loop
      vertex 9.46061715200556 -8.479407857165777 0.8772365058494642
      vertex 7.776558376421531 -11.061295110841085 -1.7415939575224433
      vertex -1.119289579055386 -13.079660870729406 -1.9385402210101526
    endloop
  endfacet
  facet normal -0.4541350620258784 0.7522585496792857 0.47735565344213643
    outer loop
      vertex 1.8955382291062046 -13.267930525522551 1.2263253466776283
      vertex 9.46061715200556 -8.479407857165777 0.8772365058494642
      vertex -1.119289579055386 -13.079660870729406 -1.9385402210101526
    endloop
  endfacet
  facet normal -0.8728998702605519 0.3136037646559419 -0.3737626189076859
    outer loop
      vertex 10.888936407094041 -0.3553998609530895 -0.027632628073824515
      vertex 11.119660491829158 -2.9568758069804733 -2.7492308364237497
      vertex 7.776558376421531 -11.061295110841085 -1.7415939575224433
    endloop
  endfacet
  facet normal -0.902092562509882 0.20112753585398155 0.38180718037467515
    outer loop
      vertex 9.46061715200556 -8.479407857165777 0.8772365058494642
      vertex 10.888936407094041 -0.3553998609530895 -0.027632628073824515
      vertex 7.776558376421531 -11.061295110841085 -1.7415939575224433
    endloop
  endfacet
  facet normal -0.9376958649897958 -0.09026699126391333 -0.3355269513305883
    outer loop
      vertex 9.06389899343631 7.114826991765843 0.2864023485167106
      vertex 10.375512227545947 4.862197371055618 -2.773131926527478
      vertex 11.119660491829158 -2.9568758069804733 -2.7492308364237497
    endloop
  endfacet
  facet normal -0.9591778970550818 -0.24058401059364629 0.14865091875823402
    outer loop
      vertex 10.888936407094041 -0.3553998609530895 -0.027632628073824515
      vertex 9.06389899343631 7.114826991765843 0.2864023485167106
      vertex 11.119660491829158 -2.9568758069804733 -2.7492308364237497
    endloop
  endfacet
  facet normal -0.598693270306835 -0.7824447443525069 -0.1713084648359419
    outer loop
      vertex 2.2117136507756 10.5231917338588 -0.09844809518727712
      vertex 4.419347959913834 9.524517974802508 -3.2523422743255006
      vertex 10.375512227545947 4.862197371055618 -2.773131926527478
    endloop
  endfacet
  facet normal -0.42426918578090367 -0.8064456023992164 0.4118751611444592
    outer loop
      vertex 9.06389899343631 7.114826991765843 0.2864023485167106
      vertex 2.2117136507756 10.5231917338588 -0.09844809518727712
      vertex 10.375512227545947 4.862197371055618 -2.773131926527478
    endloop
  endfacet
  facet normal -0.06017599265120638 -0.7384882565601629 -0.6715757178689332
    outer loop
      vertex -6.791287555554862 7.770648009557538 3.735052256292443
      vertex -5.663237876168773 10.59267865502311 0.5307702322569493
      vertex 2.2117136507756 10.5231917338588 -0.09844809518727712
    endloop
  endfacet
  facet normal 0.21342990987641233 -0.9588487521437669 -0.18723446286003986
    outer loop
      vertex -0.18780567831013273 9.336377269578062 3.24413298945049
      vertex -6.791287555554862 7.770648009557538 3.735052256292443
      vertex 2.2117136507756 10.5231917338588 -0.09844809518727712
    endloop
  endfacet
  facet normal 0.15107853992985118 -0.5906094496679177 -0.7926889381943107
    outer loop
      vertex -13.447672193171123 2.093256526128093 5.379807313568212
      vertex -14.563572336341256 5.845483078864118 2.371453205447844
      vertex -5.663237876168773 10.59267865502311 0.5307702322569493
    endloop
  endfacet
  facet normal 0.5063668691855571 -0.7277098365325818 -0.4626348318111595
    outer loop
      vertex -6.791287555554862 7.770648009557538 3.735052256292443
      vertex -13.447672193171123 2.093256526128093 5.379807313568212
      vertex -5.663237876168773 10.59267865502311 0.5307702322569493
    endloop
  endfacet
  facet normal 0.6703598615135528 0.14737304806845028 -0.7272543164358287
    outer loop
      vertex -9.847093401549566 -5.952430602167401 4.3281877801020014
      vertex -13.264798881880424 -4.343449276275196 1.503904659620871
      vertex -14.563572336341256 5.845483078864118 2.371453205447844
    endloop
  endfacet
  facet normal 0.9099189103954527 0.3880565626414169 0.1464912307808229
    outer loop
      vertex -13.447672193171123 2.093256526128093 5.379807313568212
      vertex -9.847093401549566 -5.952430602167401 4.3281877801020014
      vertex -14.563572336341256 5.845483078864118 2.371453205447844
    endloop
  endfacet
  facet normal 0.49876289977459676 0.6538154404427773 -0.5689999469657732
    outer loop
      vertex -3.3757540253421365 -9.889260834906716 3.799777390005089
      vertex -6.426598661024608 -10.337067580787386 0.6109702702126476
      vertex -13.264798881880424 -4.343449276275196 1.503904659620871
    endloop
  endfacet
  facet normal 0.5076714559971944 0.8518297976875999 -0.129056919757103
    outer loop
      vertex -9.847093401549566 -5.952430602167401 4.3281877801020014
      vertex -3.3757540253421365 -9.889260834906716 3.799777390005089
      vertex -13.264798881880424 -4.343449276275196 1.503904659620871
    endloop
  endfacet
  facet normal 0.2790686436864486 0.642589216792173 -0.7135823642533687
    outer loop
      vertex 4.171651869263771 -10.781732502594336 4.355320818860989
      vertex 1.8955382291062046 -13.267930525522551 1.2263253466776283
      vertex -6.426598661024608 -10.337067580787386 0.6109702702126476
    endloop
  endfacet
  facet normal 0.13227850490696189 0.9562749440517506 -0.2608459862033538
    outer loop
      vertex -3.3757540253421365 -9.889260834906716 3.799777390005089
      vertex 4.171651869263771 -10.781732502594336 4.355320818860989
      vertex -6.426598661024608 -10.337067580787386 0.6109702702126476
    endloop
  endfacet
  facet normal -0.3606598250876586 0.5129971187194352 -0.7789470115183043
    outer loop
      vertex 8.78332894944101 -4.838187346174674 3.5888539126796797
      vertex 9.46061715200556 -8.479407857165777 0.8772365058494642
      vertex 1.8955382291062046 -13.267930525522551 1.2263253466776283
    endloop
  endfacet
  facet normal -0.7826692239490601 0.6174375706756298 0.07873837819737318
    outer loop
      vertex 4.171651869263771 -10.781732502594336 4.355320818860989
      vertex 8.78332894944101 -4.838187346174674 3.5888539126796797
      vertex 1.8955382291062046 -13.267930525522551 1.2263253466776283
    endloop
  endfacet
  facet normal -0.767112697216013 0.06377053041463494 -0.6383348879864
    outer loop
      vertex 8.582378882235016 1.6919447579871674 2.948782811889322
      vertex 10.888936407094041 -0.3553998609530895 -0.027632628073824515
      vertex 9.46061715200556 -8.479407857165777 0.8772365058494642
    endloop
  endfacet
  facet normal -0.9823221830289884 -0.04796500806421467 -0.18094885114463266
    outer loop
      vertex 8.78332894944101 -4.838187346174674 3.5888539126796797
      vertex 8.582378882235016 1.6919447579871674 2.948782811889322
      vertex 9.46061715200556 -8.479407857165777 0.8772365058494642
    endloop
  endfacet
  facet normal -0.6983398359626299 -0.1411111249462197 -0.7017186928706539
    outer loop
      vertex 5.956128552189072 7.39533402541624 3.3228003506276753
      vertex 9.06389899343631 7.114826991765843 0.2864023485167106
      vertex 10.888936407094041 -0.3553998609530895 -0.027632628073824515
    endloop
  endfacet
  facet normal -0.8408700462624606 -0.3607366917610011 -0.4034930042961038
    outer loop
      vertex 8.582378882235016 1.6919447579871674 2.948782811889322
      vertex 5.956128552189072 7.39533402541624 3.3228003506276753
      vertex 10.888936407094041 -0.3553998609530895 -0.027632628073824515
    endloop
  endfacet
  facet normal -0.354180455343173 -0.7716918542451293 -0.5282498340223276
    outer loop
      vertex -0.18780567831013273 9.336377269578062 3.24413298945049
      vertex 2.2117136507756 10.5231917338588 -0.09844809518727712
      vertex 9.06389899343631 7.114826991765843 0.2864023485167106
    endloop
  endfacet
  facet normal -0.2918887163105006 -0.9325242491845285 -0.21260174499152074
    outer loop
      vertex 5.956128552189072 7.39533402541624 3.3228003506276753
      vertex -0.18780567831013273 9.336377269578062 3.24413298945049
      vertex 9.06389899343631 7.114826991765843 0.2864023485167106
    endloop
  endfacet
  facet normal 0.12995661964307686 -0.7510554460474806 -0.6473229441116424
    outer loop
      vertex -6.942086635779114 5.011554555827344 6.906011735696857
      vertex -6.791287555554862 7.770648009557538 3.735052256292443
      vertex -0.18780567831013273 9.336377269578062 3.24413298945049
    endloop
  endfacet
  facet normal 0.4311937452338173 -0.8714256364176479 -0.23385746570364457
    outer loop
      vertex -1.9182258547515336 7.595165393863121 6.541826770166549
      vertex -6.942086635779114 5.011554555827344 6.906011735696857
      vertex -0.18780567831013273 9.336377269578062 3.24413298945049
    endloop
  endfacet
  facet normal 0.2276005785004 -0.5075886205721386 -0.8309944457888732
    outer loop
      vertex -10.56140064138306 -0.7707892757776121 7.919745027276109
      vertex -13.447672193171123 2.093256526128093 5.379807313568212
      vertex -6.791287555554862 7.770648009557538 3.735052256292443
    endloop
  endfacet
  facet normal 0.7302740312661992 -0.5321908795891673 -0.42833714167735054
    outer loop
      vertex -6.942086635779114 5.011554555827344 6.906011735696857
      vertex -10.56140064138306 -0.7707892757776121 7.919745027276109
      vertex -6.791287555554862 7.770648009557538 3.735052256292443
    endloop
  endfacet
  facet normal 0.47501600480080153 0.3197349069552241 -0.819834973916958
    outer loop
      vertex -5.877601060191901 -5.710558953737079 6.722458901162883
      vertex -9.847093401549566 -5.952430602167401 4.3281877801020014
      vertex -13.447672193171123 2.093256526128093 5.379807313568212
    endloop
  endfacet
  facet normal 0.720516676714231 0.6923948002313388 -0.03801524943078229
    outer loop
      vertex -10.56140064138306 -0.7707892757776121 7.919745027276109
      vertex -5.877601060191901 -5.710558953737079 6.722458901162883
      vertex -13.447672193171123 2.093256526128093 5.379807313568212
    endloop
  endfacet
  facet normal 0.4484257728907082 0.7925799453684043 -0.4131965106425614
    outer loop
      vertex -0.9595687497696941 -9.404564629265344 7.3516956759337555
      vertex -3.3757540253421365 -9.889260834906716 3.799777390005089
      vertex -9.847093401549566 -5.952430602167401 4.3281877801020014
    endloop
  endfacet
  facet normal 0.4398708991369917 0.45359541804895775 -0.7750901810869533
    outer loop
      vertex -5.877601060191901 -5.710558953737079 6.722458901162883
      vertex -0.9595687497696941 -9.404564629265344 7.3516956759337555
      vertex -9.847093401549566 -5.952430602167401 4.3281877801020014
    endloop
  endfacet
  facet normal 0.12781064210991686 0.5801123794988412 -0.8044464350816922
    outer loop
      vertex 4.930616325234363 -7.262228814612132 7.013933375617885
      vertex 4.171651869263771 -10.781732502594336 4.355320818860989
      vertex -3.3757540253421365 -9.889260834906716 3.799777390005089
    endloop
  endfacet
  facet normal -0.3350196745725091 0.9368842207671374 0.1000488606975796
    outer loop
      vertex -0.9595687497696941 -9.404564629265344 7.3516956759337555
      vertex 4.930616325234363 -7.262228814612132 7.013933375617885
      vertex -3.3757540253421365 -9.889260834906716 3.799777390005089
    endloop
  endfacet
  facet normal -0.5042598622770195 0.28619382148956984 -0.8147484813349195
    outer loop
      vertex 6.5414200818744295 -1.8542239748225282 6.0245706801137695
      vertex 8.78332894944101 -4.838187346174674 3.5888539126796797
      vertex 4.171651869263771 -10.781732502594336 4.355320818860989
    endloop
  endfacet
  facet normal -0.9591018780411193 0.27030106242899377 -0.08402929957910693
    outer loop
      vertex 4.930616325234363 -7.262228814612132 7.013933375617885
      vertex 6.5414200818744295 -1.8542239748225282 6.0245706801137695
      vertex 4.171651869263771 -10.781732502594336 4.355320818860989
    endloop
  endfacet
  facet normal -0.7792306400743128 -0.08484513550937528 -0.6209677226311949
    outer loop
      vertex 6.074631895866924 2.7267535682194 5.954276861875604
      vertex 8.582378882235016 1.6919447579871674 2.948782811889322
      vertex 8.78332894944101 -4.838187346174674 3.5888539126796797
    endloop
  endfacet
  facet normal -0.7849957280514371 -0.08939534258597479 -0.6130172751765892
    outer loop
      vertex 6.5414200818744295 -1.8542239748225282 6.0245706801137695
      vertex 6.074631895866924 2.7267535682194 5.954276861875604
      vertex 8.78332894944101 -4.838187346174674 3.5888539126796797
    endloop
  endfacet
  facet normal -0.7111528948615797 -0.2853298090546804 -0.6425328475609746
    outer loop
      vertex 3.3334743268721256 6.887689042498378 6.450974105834612
      vertex 5.956128552189072 7.39533402541624 3.3228003506276753
      vertex 8.582378882235016 1.6919447579871674 2.948782811889322
    endloop
  endfacet
  facet normal -0.7577671942710977 -0.44189152742102783 -0.48012577235555626
    outer loop
      vertex 6.074631895866924 2.7267535682194 5.954276861875604
      vertex 3.3334743268721256 6.887689042498378 6.450974105834612
      vertex 8.582378882235016 1.6919447579871674 2.948782811889322
    endloop
  endfacet
  facet normal -0.24515440386220985 -0.798277173072551 -0.5501389580990071
    outer loop
      vertex -1.9182258547515336 7.595165393863121 6.541826770166549
      vertex -0.18780567831013273 9.336377269578062 3.24413298945049
      vertex 5.956128552189072 7.39533402541624 3.3228003506276753
    endloop
  endfacet
  facet normal -0.13320448511944277 -0.9545618786454978 -0.2665861680223528
    outer loop
      vertex 3.3334743268721256 6.887689042498378 6.450974105834612
      vertex -1.9182258547515336 7.595165393863121 6.541826770166549
      vertex 5.956128552189072 7.39533402541624 3.3228003506276753
    endloop
  endfacet
  facet normal 0.32747560387359087 -0.7225940125656062 -0.6087837233960542
    outer loop
      vertex -6.277056849817526 2.639158668382177 10.079651273358918
      vertex -6.942086635779114 5.011554555827344 6.906011735696857
      vertex -1.9182258547515336 7.595165393863121 6.541826770166549
    endloop
  endfacet
  facet normal 0.5846031940335716 -0.744433544963342 -0.3225799167013626
    outer loop
      vertex -2.821360084929857 5.490736422392933 9.761594368759354
      vertex -6.277056849817526 2.639158668382177 10.079651273358918
      vertex -1.9182258547515336 7.595165393863121 6.541826770166549
    endloop
  endfacet
  facet normal 0.4380525014760538 -0.4140731109829656 -0.797905674068972
    outer loop
      vertex -7.285589052232524 -2.254697017398377 10.488248827387075
      vertex -10.56140064138306 -0.7707892757776121 7.919745027276109
      vertex -6.942086635779114 5.011554555827344 6.906011735696857
    endloop
  endfacet
  facet normal 0.9101237538653418 -0.21702797074282026 -0.35294987259568783
    outer loop
      vertex -6.277056849817526 2.639158668382177 10.079651273358918
      vertex -7.285589052232524 -2.254697017398377 10.488248827387075
      vertex -6.942086635779114 5.011554555827344 6.906011735696857
    endloop
  endfacet
  facet normal 0.5396752003600526 0.6433277814652096 -0.5430285846172269
    outer loop
      vertex -3.370161634964146 -5.228647998056168 9.785335566034677
      vertex -5.877601060191901 -5.710558953737079 6.722458901162883
      vertex -10.56140064138306 -0.7707892757776121 7.919745027276109
    endloop
  endfacet
  facet normal 0.5562580867506413 0.7919009560895339 -0.2519321668009032
    outer loop
      vertex -7.285589052232524 -2.254697017398377 10.488248827387075
      vertex -3.370161634964146 -5.228647998056168 9.785335566034677
      vertex -10.56140064138306 -0.7707892757776121 7.919745027276109
    endloop
  endfacet
  facet normal 0.4943292364241943 0.5424192625325504 -0.679278992498603
    outer loop
      vertex 0.926607456223659 -7.339063735997302 10.373663876961517
      vertex -0.9595687497696941 -9.404564629265344 7.3516956759337555
      vertex -5.877601060191901 -5.710558953737079 6.722458901162883
    endloop
  endfacet
  facet normal 0.4389632629270557 0.7601976415827992 -0.4789684744660994
    outer loop
      vertex -3.370161634964146 -5.228647998056168 9.785335566034677
      vertex 0.926607456223659 -7.339063735997302 10.373663876961517
      vertex -5.877601060191901 -5.710558953737079 6.722458901162883
    endloop
  endfacet
  facet normal -0.2932068019403769 0.7042009852486524 -0.6466302990664171
    outer loop
      vertex 4.890742302575258 -4.529525142879991 10.008015087356387
      vertex 4.930616325234363 -7.262228814612132 7.013933375617885
      vertex -0.9595687497696941 -9.404564629265344 7.3516956759337555
    endloop
  endfacet
  facet normal -0.5797397951794911 0.7944138974058536 -0.18113069727046188
    outer loop
      vertex 0.926607456223659 -7.339063735997302 10.373663876961517
      vertex 4.890742302575258 -4.529525142879991 10.008015087356387
      vertex -0.9595687497696941 -9.404564629265344 7.3516956759337555
    endloop
  endfacet
  facet normal -0.7831341878801084 0.12169624228936737 -0.6098285565517663
    outer loop
      vertex 4.524786361144501 -0.22162253461786632 8.940105304497441
      vertex 6.5414200818744295 -1.8542239748225282 6.0245706801137695
      vertex 4.930616325234363 -7.262228814612132 7.013933375617885
    endloop
  endfacet
  facet normal -0.9960624753679893 -0.07168477873337983 0.052161649338762564
    outer loop
      vertex 4.890742302575258 -4.529525142879991 10.008015087356387
      vertex 4.524786361144501 -0.22162253461786632 8.940105304497441
      vertex 4.930616325234363 -7.262228814612132 7.013933375617885
    endloop
  endfacet
  facet normal -0.9458253926565248 -0.10111114458502987 -0.30853016553788687
    outer loop
      vertex 4.767944561847418 3.61853082805747 9.667785520984285
      vertex 6.074631895866924 2.7267535682194 5.954276861875604
      vertex 6.5414200818744295 -1.8542239748225282 6.0245706801137695
    endloop
  endfacet
  facet normal -0.7649416535233162 0.1663474014390679 -0.6222481890206546
    outer loop
      vertex 4.524786361144501 -0.22162253461786632 8.940105304497441
      vertex 4.767944561847418 3.61853082805747 9.667785520984285
      vertex 6.5414200818744295 -1.8542239748225282 6.0245706801137695
    endloop
  endfacet
  facet normal -0.7312735806197278 -0.4173506874275306 -0.5394973160186898
    outer loop
      vertex 1.371637329853164 6.035291355486415 9.769597336902486
      vertex 3.3334743268721256 6.887689042498378 6.450974105834612
      vertex 6.074631895866924 2.7267535682194 5.954276861875604
    endloop
  endfacet
  facet normal -0.5799272832549519 -0.8146245839411469 -0.008434060424499292
    outer loop
      vertex 4.767944561847418 3.61853082805747 9.667785520984285
      vertex 1.371637329853164 6.035291355486415 9.769597336902486
      vertex 6.074631895866924 2.7267535682194 5.954276861875604
    endloop
  endfacet
  facet normal -0.11963887330183505 -0.8153519555185965 -0.5664695301841643
    outer loop
      vertex -2.821360084929857 5.490736422392933 9.761594368759354
      vertex -1.9182258547515336 7.595165393863121 6.541826770166549
      vertex 3.3334743268721256 6.887689042498378 6.450974105834612
    endloop
  endfacet
  facet normal 0.12711931294197235 -0.9762204326959059 -0.17559711576270115
    outer loop
      vertex 1.371637329853164 6.035291355486415 9.769597336902486
      vertex -2.821360084929857 5.490736422392933 9.761594368759354
      vertex 3.3334743268721256 6.887689042498378 6.450974105834612
    endloop
  endfacet
  facet normal 0.4862685100123385 -0.6539316228956572 -0.5795829265492836
    outer loop
      vertex -4.931388444953222 0.8502316105888841 13.22707342951115
      vertex -6.277056849817526 2.639158668382177 10.079651273358918
      vertex -2.821360084929857 5.490736422392933 9.761594368759354
    endloop
  endfacet
  facet normal 0.6536497853196448 -0.6206321918160618 -0.4330792544479282
    outer loop
      vertex -2.806015577211719 3.3183933781998234 12.897870108407036
      vertex -4.931388444953222 0.8502316105888841 13.22707342951115
      vertex -2.821360084929857 5.490736422392933 9.761594368759354
    endloop
  endfacet
  facet normal 0.6575786941431252 -0.19624485700797478 -0.7273776303316879
    outer loop
      vertex -4.331413266930394 -2.522732423681896 13.231258155619477
      vertex -7.285589052232524 -2.254697017398377 10.488248827387075
      vertex -6.277056849817526 2.639158668382177 10.079651273358918
    endloop
  endfacet
  facet normal 0.9373208196340603 0.1663486064513975 -0.30619899120051236
    outer loop
      vertex -4.931388444953222 0.8502316105888841 13.22707342951115
      vertex -4.331413266930394 -2.522732423681896 13.231258155619477
      vertex -6.277056849817526 2.639158668382177 10.079651273358918
    endloop
  endfacet
  facet normal 0.5211057888114928 0.7720653923975785 -0.36381834303553856
    outer loop
      vertex -1.7007585130360818 -4.728616384175587 13.237587930220476
      vertex -3.370161634964146 -5.228647998056168 9.785335566034677
      vertex -7.285589052232524 -2.254697017398377 10.488248827387075
    endloop
  endfacet
  facet normal 0.5472885584591032 0.6511671205860836 -0.5257914176243138
    outer loop
      vertex -4.331413266930394 -2.522732423681896 13.231258155619477
      vertex -1.7007585130360818 -4.728616384175587 13.237587930220476
      vertex -7.285589052232524 -2.254697017398377 10.488248827387075
    endloop
  endfacet
  facet normal 0.40914520587284264 0.656284110306745 -0.6339490256086472
    outer loop
      vertex 1.8403928814403163 -4.997282164953143 13.3876995227689
      vertex 0.926607456223659 -7.339063735997302 10.373663876961517
      vertex -3.370161634964146 -5.228647998056168 9.785335566034677
    endloop
  endfacet
  facet normal 0.08204642935506497 0.9799415687878399 -0.1816119632395172
    outer loop
      vertex -1.7007585130360818 -4.728616384175587 13.237587930220476
      vertex 1.8403928814403163 -4.997282164953143 13.3876995227689
      vertex -3.370161634964146 -5.228647998056168 9.785335566034677
    endloop
  endfacet
  facet normal -0.4479026908051265 0.5391465923595117 -0.7132349763693965
    outer loop
      vertex 3.64525884059342 -2.086165857518409 12.637140535091621
      vertex 4.890742302575258 -4.529525142879991 10.008015087356387
      vertex 0.926607456223659 -7.339063735997302 10.373663876961517
    endloop
  endfacet
  facet normal -0.8573570406771424 0.4986758287188238 -0.12751989120496957
    outer loop
      vertex 1.8403928814403163 -4.997282164953143 13.3876995227689
      vertex 3.64525884059342 -2.086165857518409 12.637140535091621
      vertex 0.926607456223659 -7.339063735997302 10.373663876961517
    endloop
  endfacet
  facet normal -0.991396839246873 -0.10394005079035953 -0.07955358554463458
    outer loop
      vertex 4.133391843530846 0.7450314542572517 12.554690630749183
      vertex 4.524786361144501 -0.22162253461786632 8.940105304497441
      vertex 4.890742302575258 -4.529525142879991 10.008015087356387
    endloop
  endfacet
  facet normal -0.8436946215261474 0.13029742061419794 -0.5207705519603981
    outer loop
      vertex 3.64525884059342 -2.086165857518409 12.637140535091621
      vertex 4.133391843530846 0.7450314542572517 12.554690630749183
      vertex 4.890742302575258 -4.529525142879991 10.008015087356387
    endloop
  endfacet
  facet normal -0.8647522994649135 0.14581902125779037 -0.480562455472298
    outer loop
      vertex 2.8985721703380745 3.4811581752301417 12.989960422812615
      vertex 4.767944561847418 3.61853082805747 9.667785520984285
      vertex 4.524786361144501 -0.22162253461786632 8.940105304497441
    endloop
  endfacet
  facet normal -0.9107079113359694 -0.4128822534071457 0.011804450496048923
    outer loop
      vertex 4.133391843530846 0.7450314542572517 12.554690630749183
      vertex 2.8985721703380745 3.4811581752301417 12.989960422812615
      vertex 4.524786361144501 -0.22162253461786632 8.940105304497441
    endloop
  endfacet
  facet normal -0.5323867064114269 -0.7301252981541212 -0.4283473401712082
    outer loop
      vertex -0.019061341155205937 5.01711491821501 13.233575563806191
      vertex 1.371637329853164 6.035291355486415 9.769597336902486
      vertex 4.767944561847418 3.61853082805747 9.667785520984285
    endloop
  endfacet
  facet normal -0.46421371337108486 -0.834893450175524 -0.29573392631255246
    outer loop
      vertex 2.8985721703380745 3.4811581752301417 12.989960422812615
      vertex -0.019061341155205937 5.01711491821501 13.233575563806191
      vertex 4.767944561847418 3.61853082805747 9.667785520984285
    endloop
  endfacet
  facet normal 0.10719711519652365 -0.8170778146928763 -0.5664738504381795
    outer loop
      vertex -2.806015577211719 3.3183933781998234 12.897870108407036
      vertex -2.821360084929857 5.490736422392933 9.761594368759354
      vertex 1.371637329853164 6.035291355486415 9.769597336902486
    endloop
  endfacet
  facet normal 0.523553706532149 -0.8510550839145619 -0.039959485978006824
    outer loop
      vertex -0.019061341155205937 5.01711491821501 13.233575563806191
      vertex -2.806015577211719 3.3183933781998234 12.897870108407036
      vertex 1.371637329853164 6.035291355486415 9.769597336902486
    endloop
  endfacet
  facet normal 0.6730791087597122 -0.6310413651404507 -0.38568291229053403
    outer loop
      vertex -4.19328879397065 -0.23733750306297902 16.29462067031667
      vertex -4.931388444953222 0.8502316105888841 13.22707342951115
      vertex -2.806015577211719 3.3183933781998234 12.897870108407036
    endloop
  endfacet
  facet normal 0.9565772729159183 -0.2712237785069545 0.1067594628740474
    outer loop
      vertex -3.3648031852971214 2.5135830052366175 15.86004139918961
      vertex -4.19328879397065 -0.23733750306297902 16.29462067031667
      vertex -2.806015577211719 3.3183933781998234 12.897870108407036
    endloop
  endfacet
  facet normal 0.9148020059418747 0.16226401002352955 -0.3698752235224821
    outer loop
      vertex -3.059687972731473 -2.8772051559668745 16.22107367400988
      vertex -4.331413266930394 -2.522732423681896 13.231258155619477
      vertex -4.931388444953222 0.8502316105888841 13.22707342951115
    endloop
  endfacet
  facet normal 0.9151023322240589 0.39519033287980565 -0.0800769776929456
    outer loop
      vertex -4.19328879397065 -0.23733750306297902 16.29462067031667
      vertex -3.059687972731473 -2.8772051559668745 16.22107367400988
      vertex -4.931388444953222 0.8502316105888841 13.22707342951115
    endloop
  endfacet
  facet normal 0.5955575709423924 0.7091568365235734 -0.3773695283208162
    outer loop
      vertex -0.4944251444071862 -4.170796539820413 16.189661808303427
      vertex -1.7007585130360818 -4.728616384175587 13.237587930220476
      vertex -4.331413266930394 -2.522732423681896 13.231258155619477
    endloop
  endfacet
  facet normal 0.44780591376164963 0.8900864763497868 -0.08494661982277173
    outer loop
      vertex -3.059687972731473 -2.8772051559668745 16.22107367400988
      vertex -0.4944251444071862 -4.170796539820413 16.189661808303427
      vertex -4.331413266930394 -2.522732423681896 13.231258155619477
    endloop
  endfacet
  facet normal 0.08658198244241426 0.8714765579795972 -0.482734056399976
    outer loop
      vertex 2.3021847039086327 -3.5128258694517043 16.15040436337108
      vertex 1.8403928814403163 -4.997282164953143 13.3876995227689
      vertex -1.7007585130360818 -4.728616384175587 13.237587930220476
    endloop
  endfacet
  facet normal -0.22929270001283406 0.969238828244895 -0.08944803823051255
    outer loop
      vertex -0.4944251444071862 -4.170796539820413 16.189661808303427
      vertex 2.3021847039086327 -3.5128258694517043 16.15040436337108
      vertex -1.7007585130360818 -4.728616384175587 13.237587930220476
    endloop
  endfacet
  facet normal -0.854128226420979 0.5181930405032499 -0.04405616421058563
    outer loop
      vertex 4.021576743332617 -1.2111649340557304 15.633217213584398
      vertex 3.64525884059342 -2.086165857518409 12.637140535091621
      vertex 1.8403928814403163 -4.997282164953143 13.3876995227689
    endloop
  endfacet
  facet normal -0.8074592392930676 0.5652689909502261 -0.16876179884788475
    outer loop
      vertex 2.3021847039086327 -3.5128258694517043 16.15040436337108
      vertex 4.021576743332617 -1.2111649340557304 15.633217213584398
      vertex 1.8403928814403163 -4.997282164953143 13.3876995227689
    endloop
  endfacet
  facet normal -0.9791338976991211 0.16537532127482088 -0.11810086151157756
    outer loop
      vertex 3.8592283297043055 1.6572135345837948 16.10500507493213
      vertex 4.133391843530846 0.7450314542572517 12.554690630749183
      vertex 3.64525884059342 -2.086165857518409 12.637140535091621
    endloop
  endfacet
  facet normal -0.985866126361303 -0.0800098960269517 0.1471950998882624
    outer loop
      vertex 4.021576743332617 -1.2111649340557304 15.633217213584398
      vertex 3.8592283297043055 1.6572135345837948 16.10500507493213
      vertex 3.64525884059342 -2.086165857518409 12.637140535091621
    endloop
  endfacet
  facet normal -0.8974709661184853 -0.36583283631342944 -0.24639845951065564
    outer loop
      vertex 1.89110409006202 3.750163372514683 16.260120547325826
      vertex 2.8985721703380745 3.4811581752301417 12.989960422812615
      vertex 4.133391843530846 0.7450314542572517 12.554690630749183
    endloop
  endfacet
  facet normal -0.7187239042061956 -0.6847847213567348 0.12044017153334834
    outer loop
      vertex 3.8592283297043055 1.6572135345837948 16.10500507493213
      vertex 1.89110409006202 3.750163372514683 16.260120547325826
      vertex 4.133391843530846 0.7450314542572517 12.554690630749183
    endloop
  endfacet
  facet normal -0.4582539008663394 -0.8137876847099399 -0.35742546993075186
    outer loop
      vertex -0.9618887706011461 4.088370090022601 16.556940994475006
      vertex -0.019061341155205937 5.01711491821501 13.233575563806191
      vertex 2.8985721703380745 3.4811581752301417 12.989960422812615
    endloop
  endfacet
  facet normal -0.11277754574391487 -0.992512766707789 0.04690024624699935
    outer loop
      vertex 1.89110409006202 3.750163372514683 16.260120547325826
      vertex -0.9618887706011461 4.088370090022601 16.556940994475006
      vertex 2.8985721703380745 3.4811581752301417 12.989960422812615
    endloop
  endfacet
  facet normal 0.5273929399216906 -0.8398191502021997 -0.12868753581606598
    outer loop
      vertex -3.3648031852971214 2.5135830052366175 15.86004139918961
      vertex -2.806015577211719 3.3183933781998234 12.897870108407036
      vertex -0.019061341155205937 5.01711491821501 13.233575563806191
    endloop
  endfacet
  facet normal 0.5611226745644666 -0.8246586913907717 -0.0712698169162775
    outer loop
      vertex -0.9618887706011461 4.088370090022601 16.556940994475006
      vertex -3.3648031852971214 2.5135830052366175 15.86004139918961
      vertex -0.019061341155205937 5.01711491821501 13.233575563806191
    endloop
  endfacet
  facet normal 0.0809804103605178 0.14111300883240804 0.9866758798491563
    outer loop
      vertex 4.2 0 -16.994710690167242
      vertex 3.2173866610997077 2.6997079606834644 -17.30017217761848
      vertex 0 0 -16.65
    endloop
  endfacet
  facet normal 0.11483504037158557 0.10113911543958255 0.988222542158878
    outer loop
      vertex 3.2173866610997077 2.6997079606834644 -17.30017217761848
      vertex 0.7293223462011077 4.136192562651273 -17.158066348139943
      vertex 0 0 -16.65
    endloop
  endfacet
  facet normal 0.2644291835935746 0.07150992578165417 0.9617502468825979
    outer loop
      vertex 0.7293223462011077 4.136192562651273 -17.158066348139943
      vertex -2.195964293916684 3.803521728670814 -16.329035706083314
      vertex 0 0 -16.65
    endloop
  endfacet
  facet normal -0.2943756476091279 -0.24784559706788012 0.9229927075057379
    outer loop
      vertex -2.195964293916684 3.803521728670814 -16.329035706083314
      vertex -3.946709007300815 1.4364846019678092 -17.523017337561594
      vertex 0 0 -16.65
    endloop
  endfacet
  facet normal -0.13006910891788045 0.22893772372632715 0.9647121568428152
    outer loop
      vertex -3.946709007300815 1.4364846019678092 -17.523017337561594
      vertex -3.946709007300815 -1.4364846019678084 -16.84122741170703
      vertex 0 0 -16.65
    endloop
  endfacet
  facet normal 0.057895379987233014 -0.2863793450583715 0.9563655136505459
    outer loop
      vertex -3.946709007300815 -1.4364846019678084 -16.84122741170703
      vertex -2.100000000000002 -3.637306695894641 -17.61204766717439
      vertex 0 0 -16.65
    endloop
  endfacet
  facet normal -0.17252985926934805 -0.15756329140024378 0.9723205525255655
    outer loop
      vertex -2.100000000000002 -3.637306695894641 -17.61204766717439
      vertex 0.7293223462011058 -4.136192562651274 -17.19085273721564
      vertex 0 0 -16.65
    endloop
  endfacet
  facet normal 0.09504323946791678 -0.11257536396562884 0.9890872408738526
    outer loop
      vertex 0.7293223462011058 -4.136192562651274 -17.19085273721564
      vertex 3.2173866610997064 -2.699707960683466 -17.266438502055642
      vertex 0 0 -16.65
    endloop
  endfacet
  facet normal 0.08111547922338963 -0.12899899410198046 0.9883215764876515
    outer loop
      vertex 3.2173866610997064 -2.699707960683466 -17.266438502055642
      vertex 4.2 0 -16.994710690167242
      vertex 0 0 -16.65
    endloop
  endfacet
  facet normal 0.09328833063145886 -0.18271125418357112 -0.9787307520266554
    outer loop
      vertex -4.19328879397065 -0.23733750306297902 16.29462067031667
      vertex -3.3648031852971214 2.5135830052366175 15.86004139918961
      vertex 0 0 16.65
    endloop
  endfacet
  facet normal 0.08077507258155936 0.0624006883314122 -0.9947771316959442
    outer loop
      vertex -3.059687972731473 -2.8772051559668745 16.22107367400988
      vertex -4.19328879397065 -0.23733750306297902 16.29462067031667
      vertex 0 0 16.65
    endloop
  endfacet
  facet normal 0.04070369362542381 0.10484627113266028 -0.9936551055345231
    outer loop
      vertex -0.4944251444071862 -4.170796539820413 16.189661808303427
      vertex -3.059687972731473 -2.8772051559668745 16.22107367400988
      vertex 0 0 16.65
    endloop
  endfacet
  facet normal -0.04084820008708546 0.11439679487483548 -0.9925949817886499
    outer loop
      vertex 2.3021847039086327 -3.5128258694517043 16.15040436337108
      vertex -0.4944251444071862 -4.170796539820413 16.189661808303427
      vertex 0 0 16.65
    endloop
  endfacet
  facet normal -0.25301932038403796 -0.028286182511056003 -0.9670476282951893
    outer loop
      vertex 4.021576743332617 -1.2111649340557304 15.633217213584398
      vertex 2.3021847039086327 -3.5128258694517043 16.15040436337108
      vertex 0 0 16.65
    endloop
  endfacet
  facet normal -0.20030611817050298 0.14796006514437285 -0.9684964006881686
    outer loop
      vertex 3.8592283297043055 1.6572135345837948 16.10500507493213
      vertex 4.021576743332617 -1.2111649340557304 15.633217213584398
      vertex 0 0 16.65
    endloop
  endfacet
  facet normal -0.12223672959120196 -0.04145304818148018 -0.9916349261372912
    outer loop
      vertex 1.89110409006202 3.750163372514683 16.260120547325826
      vertex 3.8592283297043055 1.6572135345837948 16.10500507493213
      vertex 0 0 16.65
    endloop
  endfacet
  facet normal -0.10901587243736681 -0.04824819785931695 -0.9928683955892885
    outer loop
      vertex -0.9618887706011461 4.088370090022601 16.556940994475006
      vertex 1.89110409006202 3.750163372514683 16.260120547325826
      vertex 0 0 16.65
    endloop
  endfacet
  facet normal 0.2552525506218366 0.03806356502360857 -0.966124888624002
    outer loop
      vertex -3.3648031852971214 2.5135830052366175 15.86004139918961
      vertex -0.9618887706011461 4.088370090022601 16.556940994475006
      vertex 0 0 16.65
    endloop
  endfacet
endsolid OpenSCAD_Model
