solid chiralShape
 facet normal 0.9247942013871828 0.35273248458676754 0.14260252241067944
  outer loop
   vertex 28 0 -113.29807126778162
   vertex 21.449244407331385 17.998053071223097 -115.33448118412322
   vertex 16.842323638503295 22.368194707126307 -96.26775887044725
  endloop
 endfacet
 facet normal 0.7332491076534373 0.6038099009251044 -0.312664915956769
  outer loop
   vertex 28 0 -113.29807126778162
   vertex 16.842323638503295 22.368194707126307 -96.26775887044725
   vertex 30.205709612306514 6.985626156597965 -94.63488091709826
  endloop
 endfacet
 facet normal 0.4914359381366482 0.8628726390097978 -0.11807424594728363
  outer loop
   vertex 21.449244407331385 17.998053071223097 -115.33448118412322
   vertex 4.862148974674051 27.574617084341824 -114.38710898759963
   vertex -1.8110481182452045 34.307460404387896 -92.95874931797498
  endloop
 endfacet
 facet normal 0.5296031410118066 0.8456841560724379 -0.06586972899957289
  outer loop
   vertex 21.449244407331385 17.998053071223097 -115.33448118412322
   vertex -1.8110481182452045 34.307460404387896 -92.95874931797498
   vertex 16.842323638503295 22.368194707126307 -96.26775887044725
  endloop
 endfacet
 facet normal -0.22461609555387135 0.867095634352029 -0.4446265517327847
  outer loop
   vertex 4.862148974674051 27.574617084341824 -114.38710898759963
   vertex -14.63976195944456 25.356811524472093 -108.86023804055543
   vertex -29.843335256421017 31.97869198412332 -88.2659418283453
  endloop
 endfacet
 facet normal -0.13352138165322336 0.9328254179567356 -0.33467712837189206
  outer loop
   vertex 4.862148974674051 27.574617084341824 -114.38710898759963
   vertex -29.843335256421017 31.97869198412332 -88.2659418283453
   vertex -1.8110481182452045 34.307460404387896 -92.95874931797498
  endloop
 endfacet
 facet normal -0.7925124490357489 0.6082787291723248 -0.04382927970958403
  outer loop
   vertex -14.63976195944456 25.356811524472093 -108.86023804055543
   vertex -26.311393382005434 9.576564013118729 -116.82011558374396
   vertex -31.92175213137996 3.907188196070144 -94.05637313001716
  endloop
 endfacet
 facet normal -0.7614068018466771 0.18456316969828962 -0.6214467945790174
  outer loop
   vertex -14.63976195944456 25.356811524472093 -108.86023804055543
   vertex -31.92175213137996 3.907188196070144 -94.05637313001716
   vertex -29.843335256421017 31.97869198412332 -88.2659418283453
  endloop
 endfacet
 facet normal -0.9545762865939535 -0.06880026524792342 -0.28991487815273215
  outer loop
   vertex -26.311393382005434 9.576564013118729 -116.82011558374396
   vertex -26.311393382005434 -9.576564013118723 -112.2748494113802
   vertex -31.93951699779394 -20.759021255166886 -91.08990917939948
  endloop
 endfacet
 facet normal -0.9688455300098368 -0.02888431553748229 -0.24597568029357983
  outer loop
   vertex -26.311393382005434 9.576564013118729 -116.82011558374396
   vertex -31.93951699779394 -20.759021255166886 -91.08990917939948
   vertex -31.92175213137996 3.907188196070144 -94.05637313001716
  endloop
 endfacet
 facet normal -0.7372204511404847 -0.6634224095024907 0.12797153195195304
  outer loop
   vertex -26.311393382005434 -9.576564013118723 -112.2748494113802
   vertex -14.000000000000012 -24.248711305964274 -117.41365111449593
   vertex -8.176234080321816 -26.779641451367194 -96.98470474322335
  endloop
 endfacet
 facet normal -0.32779760796043933 -0.7967645202664165 -0.5076564068935221
  outer loop
   vertex -26.311393382005434 -9.576564013118723 -112.2748494113802
   vertex -8.176234080321816 -26.779641451367194 -96.98470474322335
   vertex -31.93951699779394 -20.759021255166886 -91.08990917939948
  endloop
 endfacet
 facet normal -0.16773074786417447 -0.9850209292269768 -0.04000206501854587
  outer loop
   vertex -14.000000000000012 -24.248711305964274 -117.41365111449593
   vertex 4.862148974674039 -27.574617084341828 -114.60568491477093
   vertex 12.635435192538141 -29.735804463732677 -93.98185737951555
  endloop
 endfacet
 facet normal -0.12794702533866406 -0.9880510072736867 -0.0859346596690791
  outer loop
   vertex -14.000000000000012 -24.248711305964274 -117.41365111449593
   vertex 12.635435192538141 -29.735804463732677 -93.98185737951555
   vertex -8.176234080321816 -26.779641451367194 -96.98470474322335
  endloop
 endfacet
 facet normal 0.49607764500542695 -0.8638434075507618 -0.08764438006488427
  outer loop
   vertex 4.862148974674039 -27.574617084341828 -114.60568491477093
   vertex 21.449244407331378 -17.998053071223108 -115.10959001370429
   vertex 30.027776818176164 -15.285549196324304 -93.28914283532757
  endloop
 endfacet
 facet normal 0.6152252447095354 -0.7257240849952047 -0.30793254249910834
  outer loop
   vertex 4.862148974674039 -27.574617084341828 -114.60568491477093
   vertex 30.027776818176164 -15.285549196324304 -93.28914283532757
   vertex 12.635435192538141 -29.735804463732677 -93.98185737951555
  endloop
 endfacet
 facet normal 0.9389758955172021 -0.34353183478586935 0.01761096608146718
  outer loop
   vertex 21.449244407331378 -17.998053071223108 -115.10959001370429
   vertex 28 0 -113.29807126778162
   vertex 30.205709612306514 6.985626156597965 -94.63488091709826
  endloop
 endfacet
 facet normal 0.931497327037581 -0.029349937791898494 -0.3625621476015575
  outer loop
   vertex 21.449244407331378 -17.998053071223108 -115.10959001370429
   vertex 30.205709612306514 6.985626156597965 -94.63488091709826
   vertex 30.027776818176164 -15.285549196324304 -93.28914283532757
  endloop
 endfacet
 facet normal 0.691430509288213 0.5510813552290696 -0.4671543543030871
  outer loop
   vertex 30.205709612306514 6.985626156597965 -94.63488091709826
   vertex 16.842323638503295 22.368194707126307 -96.26775887044725
   vertex 17.49853483256472 39.38286169945253 -75.2250561867103
  endloop
 endfacet
 facet normal 0.6700523768101884 0.5568805898511153 -0.49082972707252676
  outer loop
   vertex 30.205709612306514 6.985626156597965 -94.63488091709826
   vertex 17.49853483256472 39.38286169945253 -75.2250561867103
   vertex 34.49782843915703 16.85817600499015 -77.57443135074021
  endloop
 endfacet
 facet normal 0.48945857128641895 0.8346800976214345 -0.25246671390290293
  outer loop
   vertex 16.842323638503295 22.368194707126307 -96.26775887044725
   vertex -1.8110481182452045 34.307460404387896 -92.95874931797498
   vertex -13.692161381876396 47.61366551315927 -72.00108811165055
  endloop
 endfacet
 facet normal 0.13804178645620638 0.7680508300686288 -0.6253338209491546
  outer loop
   vertex 16.842323638503295 22.368194707126307 -96.26775887044725
   vertex -13.692161381876396 47.61366551315927 -72.00108811165055
   vertex 17.49853483256472 39.38286169945253 -75.2250561867103
  endloop
 endfacet
 facet normal -0.11466489561001716 0.9725859855987253 -0.20230784050970438
  outer loop
   vertex -1.8110481182452045 34.307460404387896 -92.95874931797498
   vertex -29.843335256421017 31.97869198412332 -88.2659418283453
   vertex -50.648792736040654 34.107075904793966 -66.24162496543339
  endloop
 endfacet
 facet normal -0.3504746534366642 0.6879802704734135 -0.6354924584428825
  outer loop
   vertex -1.8110481182452045 34.307460404387896 -92.95874931797498
   vertex -50.648792736040654 34.107075904793966 -66.24162496543339
   vertex -13.692161381876396 47.61366551315927 -72.00108811165055
  endloop
 endfacet
 facet normal -0.8064227957606961 0.17614835863366335 -0.56449449087495
  outer loop
   vertex -29.843335256421017 31.97869198412332 -88.2659418283453
   vertex -31.92175213137996 3.907188196070144 -94.05637313001716
   vertex -49.40443342320193 -5.230572842721768 -71.9324528472574
  endloop
 endfacet
 facet normal -0.721072354784281 0.07680609426351101 -0.6885894880477313
  outer loop
   vertex -29.843335256421017 31.97869198412332 -88.2659418283453
   vertex -49.40443342320193 -5.230572842721768 -71.9324528472574
   vertex -50.648792736040654 34.107075904793966 -66.24162496543339
  endloop
 endfacet
 facet normal -0.985601114821605 -0.019489759066512485 -0.16796008976521462
  outer loop
   vertex -31.92175213137996 3.907188196070144 -94.05637313001716
   vertex -31.93951699779394 -20.759021255166886 -91.08990917939948
   vertex -34.95576185722093 -36.252837582695264 -71.59250924440181
  endloop
 endfacet
 facet normal -0.6739874122961498 -0.3212007174723137 -0.6652601499876653
  outer loop
   vertex -31.92175213137996 3.907188196070144 -94.05637313001716
   vertex -34.95576185722093 -36.252837582695264 -71.59250924440181
   vertex -49.40443342320193 -5.230572842721768 -71.9324528472574
  endloop
 endfacet
 facet normal -0.3266643610359647 -0.8059316064174096 -0.49372526875421185
  outer loop
   vertex -31.93951699779394 -20.759021255166886 -91.08990917939948
   vertex -8.176234080321816 -26.779641451367194 -96.98470474322335
   vertex -2.899271068370793 -41.91921983584189 -75.76304638287596
  endloop
 endfacet
 facet normal -0.21396348445057997 -0.7483815252294118 -0.6278094615542726
  outer loop
   vertex -31.93951699779394 -20.759021255166886 -91.08990917939948
   vertex -2.899271068370793 -41.91921983584189 -75.76304638287596
   vertex -34.95576185722093 -36.252837582695264 -71.59250924440181
  endloop
 endfacet
 facet normal -0.08658112617623058 -0.9412162944346513 -0.3265204368500683
  outer loop
   vertex -8.176234080321816 -26.779641451367194 -96.98470474322335
   vertex 12.635435192538141 -29.735804463732677 -93.98185737951555
   vertex 27.957493955642914 -38.41876575922486 -73.01550189421347
  endloop
 endfacet
 facet normal 0.14271761003243189 -0.7886187416339802 -0.5980904313983532
  outer loop
   vertex -8.176234080321816 -26.779641451367194 -96.98470474322335
   vertex 27.957493955642914 -38.41876575922486 -73.01550189421347
   vertex -2.899271068370793 -41.91921983584189 -75.76304638287596
  endloop
 endfacet
 facet normal 0.6057111708468751 -0.7120075632645123 -0.3551889741608531
  outer loop
   vertex 12.635435192538141 -29.735804463732677 -93.98185737951555
   vertex 30.027776818176164 -15.285549196324304 -93.28914283532757
   vertex 46.416468117173125 -11.53547036556529 -72.85852861885542
  endloop
 endfacet
 facet normal 0.6338577721708424 -0.431479892395654 -0.6419107625806344
  outer loop
   vertex 12.635435192538141 -29.735804463732677 -93.98185737951555
   vertex 46.416468117173125 -11.53547036556529 -72.85852861885542
   vertex 27.957493955642914 -38.41876575922486 -73.01550189421347
  endloop
 endfacet
 facet normal 0.972460991551323 -0.021790687202491974 -0.23204479279281562
  outer loop
   vertex 30.027776818176164 -15.285549196324304 -93.28914283532757
   vertex 30.205709612306514 6.985626156597965 -94.63488091709826
   vertex 34.49782843915703 16.85817600499015 -77.57443135074021
  endloop
 endfacet
 facet normal 0.7442678032625847 0.20694818894578396 -0.6350101448943527
  outer loop
   vertex 30.027776818176164 -15.285549196324304 -93.28914283532757
   vertex 34.49782843915703 16.85817600499015 -77.57443135074021
   vertex 46.416468117173125 -11.53547036556529 -72.85852861885542
  endloop
 endfacet
 facet normal 0.7664439274468765 0.6018376546216158 -0.22439951773424005
  outer loop
   vertex 34.49782843915703 16.85817600499015 -77.57443135074021
   vertex 17.49853483256472 39.38286169945253 -75.2250561867103
   vertex 10.722265180623465 55.49891842691174 -55.14649673781652
  endloop
 endfacet
 facet normal 0.5224930852191288 0.6450971663670356 -0.5575397939550301
  outer loop
   vertex 34.49782843915703 16.85817600499015 -77.57443135074021
   vertex 10.722265180623465 55.49891842691174 -55.14649673781652
   vertex 37.328617428965615 30.2986293146558 -59.37041052983031
  endloop
 endfacet
 facet normal 0.21588795362380447 0.9320671029642746 -0.2909352282758318
  outer loop
   vertex 17.49853483256472 39.38286169945253 -75.2250561867103
   vertex -13.692161381876396 47.61366551315927 -72.00108811165055
   vertex -32.80149414834799 59.01672500603995 -49.64923364931177
  endloop
 endfacet
 facet normal -0.016681145743859108 0.7769954686762202 -0.6292851349215974
  outer loop
   vertex 17.49853483256472 39.38286169945253 -75.2250561867103
   vertex -32.80149414834799 59.01672500603995 -49.64923364931177
   vertex 10.722265180623465 55.49891842691174 -55.14649673781652
  endloop
 endfacet
 facet normal -0.3394837172650336 0.940235730414809 0.02660031885608398
  outer loop
   vertex -13.692161381876396 47.61366551315927 -72.00108811165055
   vertex -50.648792736040654 34.107075904793966 -66.24162496543339
   vertex -69.69241515290658 26.66131327541818 -46.10004925892564
  endloop
 endfacet
 facet normal -0.5107857710392041 0.5061592776372361 -0.6949105566658468
  outer loop
   vertex -13.692161381876396 47.61366551315927 -72.00108811165055
   vertex -69.69241515290658 26.66131327541818 -46.10004925892564
   vertex -32.80149414834799 59.01672500603995 -49.64923364931177
  endloop
 endfacet
 facet normal -0.8965496471575184 0.035512279737887315 -0.4415173928279012
  outer loop
   vertex -50.648792736040654 34.107075904793966 -66.24162496543339
   vertex -49.40443342320193 -5.230572842721768 -71.9324528472574
   vertex -59.997386768556936 -20.735278130707076 -51.66937533769051
  endloop
 endfacet
 facet normal -0.7132543616234477 -0.06388006402765713 -0.6979882184141438
  outer loop
   vertex -50.648792736040654 34.107075904793966 -66.24162496543339
   vertex -59.997386768556936 -20.735278130707076 -51.66937533769051
   vertex -69.69241515290658 26.66131327541818 -46.10004925892564
  endloop
 endfacet
 facet normal -0.9050984760020575 -0.420889178506 0.06040735183152401
  outer loop
   vertex -49.40443342320193 -5.230572842721768 -71.9324528472574
   vertex -34.95576185722093 -36.252837582695264 -71.59250924440181
   vertex -28.575369504268686 -47.680415732384056 -55.61532458137606
  endloop
 endfacet
 facet normal -0.5285734475059864 -0.5178964393111121 -0.6726019541604884
  outer loop
   vertex -49.40443342320193 -5.230572842721768 -71.9324528472574
   vertex -28.575369504268686 -47.680415732384056 -55.61532458137606
   vertex -59.997386768556936 -20.735278130707076 -51.66937533769051
  endloop
 endfacet
 facet normal -0.21354687563655547 -0.8356909861780499 -0.5059825170167682
  outer loop
   vertex -34.95576185722093 -36.252837582695264 -71.59250924440181
   vertex -2.899271068370793 -41.91921983584189 -75.76304638287596
   vertex 9.297098061115237 -58.26964742228937 -53.905752779838885
  endloop
 endfacet
 facet normal -0.20978940429602122 -0.8329729798067412 -0.5120004108953418
  outer loop
   vertex -34.95576185722093 -36.252837582695264 -71.59250924440181
   vertex 9.297098061115237 -58.26964742228937 -53.905752779838885
   vertex -28.575369504268686 -47.680415732384056 -55.61532458137606
  endloop
 endfacet
 facet normal 0.1293206317704024 -0.9667259709726679 -0.22071944011676048
  outer loop
   vertex -2.899271068370793 -41.91921983584189 -75.76304638287596
   vertex 27.957493955642914 -38.41876575922486 -73.01550189421347
   vertex 46.809529108148176 -40.59732712723013 -52.42814924650621
  endloop
 endfacet
 facet normal 0.33527677803815986 -0.6550666557565425 -0.6771094140715294
  outer loop
   vertex -2.899271068370793 -41.91921983584189 -75.76304638287596
   vertex 46.809529108148176 -40.59732712723013 -52.42814924650621
   vertex 9.297098061115237 -58.26964742228937 -53.905752779838885
  endloop
 endfacet
 facet normal 0.8225987884507375 -0.5644211211903124 -0.06899297930695333
  outer loop
   vertex 27.957493955642914 -38.41876575922486 -73.01550189421347
   vertex 46.416468117173125 -11.53547036556529 -72.85852861885542
   vertex 55.14202416761634 -0.899640266603615 -55.834409669268396
  endloop
 endfacet
 facet normal 0.7105544000125326 -0.20685270122226612 -0.6725506706709032
  outer loop
   vertex 27.957493955642914 -38.41876575922486 -73.01550189421347
   vertex 55.14202416761634 -0.899640266603615 -55.834409669268396
   vertex 46.809529108148176 -40.59732712723013 -52.42814924650621
  endloop
 endfacet
 facet normal 0.8787441342387532 0.30835640974919776 -0.36431452222985694
  outer loop
   vertex 46.416468117173125 -11.53547036556529 -72.85852861885542
   vertex 34.49782843915703 16.85817600499015 -77.57443135074021
   vertex 37.328617428965615 30.2986293146558 -59.37041052983031
  endloop
 endfacet
 facet normal 0.7277028234620011 0.3485461881337905 -0.5907318811972448
  outer loop
   vertex 46.416468117173125 -11.53547036556529 -72.85852861885542
   vertex 37.328617428965615 30.2986293146558 -59.37041052983031
   vertex 55.14202416761634 -0.899640266603615 -55.834409669268396
  endloop
 endfacet
 facet normal 0.6906055176675828 0.721963985855141 0.04280212722806951
  outer loop
   vertex 37.328617428965615 30.2986293146558 -59.37041052983031
   vertex 10.722265180623465 55.49891842691174 -55.14649673781652
   vertex -2.4411631845606916 66.98688903720753 -36.52977694311145
  endloop
 endfacet
 facet normal 0.2473864767387037 0.6910063837543596 -0.6791981365827895
  outer loop
   vertex 37.328617428965615 30.2986293146558 -59.37041052983031
   vertex -2.4411631845606916 66.98688903720753 -36.52977694311145
   vertex 39.38704892815642 50.57134781897295 -37.99549025726645
  endloop
 endfacet
 facet normal 0.06481046562168194 0.990564466161694 -0.12075446958062906
  outer loop
   vertex 10.722265180623465 55.49891842691174 -55.14649673781652
   vertex -32.80149414834799 59.01672500603995 -49.64923364931177
   vertex -57.194884879372786 63.327551858524004 -27.379210040111815
  endloop
 endfacet
 facet normal -0.1521476893406676 0.7894125273394194 -0.5947091241168966
  outer loop
   vertex 10.722265180623465 55.49891842691174 -55.14649673781652
   vertex -57.194884879372786 63.327551858524004 -27.379210040111815
   vertex -2.4411631845606916 66.98688903720753 -36.52977694311145
  endloop
 endfacet
 facet normal -0.6564727283263603 0.7531536226592963 0.042463839191988983
  outer loop
   vertex -32.80149414834799 59.01672500603995 -49.64923364931177
   vertex -69.69241515290658 26.66131327541818 -46.10004925892564
   vertex -85.41891859967505 11.8724993290819 -26.925424701259846
  endloop
 endfacet
 facet normal -0.6054358275656124 0.3256881276841549 -0.7262056886210211
  outer loop
   vertex -32.80149414834799 59.01672500603995 -49.64923364931177
   vertex -85.41891859967505 11.8724993290819 -26.925424701259846
   vertex -57.194884879372786 63.327551858524004 -27.379210040111815
  endloop
 endfacet
 facet normal -0.9415531624237464 -0.15761253063798558 -0.2977178740279665
  outer loop
   vertex -69.69241515290658 26.66131327541818 -46.10004925892564
   vertex -59.997386768556936 -20.735278130707076 -51.66937533769051
   vertex -62.78422739327124 -39.364733904516726 -32.99332409137875
  endloop
 endfacet
 facet normal -0.6694628579837918 -0.21140807361806685 -0.7121278734814918
  outer loop
   vertex -69.69241515290658 26.66131327541818 -46.10004925892564
   vertex -62.78422739327124 -39.364733904516726 -32.99332409137875
   vertex -85.41891859967505 11.8724993290819 -26.925424701259846
  endloop
 endfacet
 facet normal -0.6467963924405205 -0.7156560747035647 -0.2636110951113667
  outer loop
   vertex -59.997386768556936 -20.735278130707076 -51.66937533769051
   vertex -28.575369504268686 -47.680415732384056 -55.61532458137606
   vertex -20.064125666834286 -62.07184019997098 -37.42842492676742
  endloop
 endfacet
 facet normal -0.3991094705631011 -0.6186936143434077 -0.6767051367305643
  outer loop
   vertex -59.997386768556936 -20.735278130707076 -51.66937533769051
   vertex -20.064125666834286 -62.07184019997098 -37.42842492676742
   vertex -62.78422739327124 -39.364733904516726 -32.99332409137875
  endloop
 endfacet
 facet normal -0.25087785335710594 -0.9366986398744951 -0.24424569751011246
  outer loop
   vertex -28.575369504268686 -47.680415732384056 -55.61532458137606
   vertex 9.297098061115237 -58.26964742228937 -53.905752779838885
   vertex 27.880269780311366 -68.70529234598938 -32.97212639916178
  endloop
 endfacet
 facet normal -0.05387570546311461 -0.7951595155509178 -0.6040022791262308
  outer loop
   vertex -28.575369504268686 -47.680415732384056 -55.61532458137606
   vertex 27.880269780311366 -68.70529234598938 -32.97212639916178
   vertex -20.064125666834286 -62.07184019997098 -37.42842492676742
  endloop
 endfacet
 facet normal 0.42734284317788274 -0.8994936570989238 -0.09104534707192341
  outer loop
   vertex 9.297098061115237 -58.26964742228937 -53.905752779838885
   vertex 46.809529108148176 -40.59732712723013 -52.42814924650621
   vertex 64.43029872698719 -34.13270230842185 -33.58895731613974
  endloop
 endfacet
 facet normal 0.4873849636347916 -0.5276744196780684 -0.695712299761997
  outer loop
   vertex 9.297098061115237 -58.26964742228937 -53.905752779838885
   vertex 64.43029872698719 -34.13270230842185 -33.58895731613974
   vertex 27.880269780311366 -68.70529234598938 -32.97212639916178
  endloop
 endfacet
 facet normal 0.9768224283005419 -0.20900023595544365 -0.046226020157498944
  outer loop
   vertex 46.809529108148176 -40.59732712723013 -52.42814924650621
   vertex 55.14202416761634 -0.899640266603615 -55.834409669268396
   vertex 58.77737700555178 12.586906942873243 -39.9904621396939
  endloop
 endfacet
 facet normal 0.731175657913575 -0.005000932243832702 -0.6821709081684321
  outer loop
   vertex 46.809529108148176 -40.59732712723013 -52.42814924650621
   vertex 58.77737700555178 12.586906942873243 -39.9904621396939
   vertex 64.43029872698719 -34.13270230842185 -33.58895731613974
  endloop
 endfacet
 facet normal 0.7936957764914476 0.4013712985898045 -0.457108406232014
  outer loop
   vertex 55.14202416761634 -0.899640266603615 -55.834409669268396
   vertex 37.328617428965615 30.2986293146558 -59.37041052983031
   vertex 39.38704892815642 50.57134781897295 -37.99549025726645
  endloop
 endfacet
 facet normal 0.7490513204753388 0.4097200092731297 -0.5206261934395714
  outer loop
   vertex 55.14202416761634 -0.899640266603615 -55.834409669268396
   vertex 39.38704892815642 50.57134781897295 -37.99549025726645
   vertex 58.77737700555178 12.586906942873243 -39.9904621396939
  endloop
 endfacet
 facet normal 0.3597185994754085 0.926474985193436 -0.11066449747897168
  outer loop
   vertex 39.38704892815642 50.57134781897295 -37.99549025726645
   vertex -2.4411631845606916 66.98688903720753 -36.52977694311145
   vertex -20.616242435047283 76.36034470845601 -17.134594208020502
  endloop
 endfacet
 facet normal 0.1602626242222742 0.8187988490150521 -0.5512570508655796
  outer loop
   vertex 39.38704892815642 50.57134781897295 -37.99549025726645
   vertex -20.616242435047283 76.36034470845601 -17.134594208020502
   vertex 29.462319732758896 63.49678649868339 -21.682281828836672
  endloop
 endfacet
 facet normal -0.02094769297886329 0.9652072740297692 0.2606455683852793
  outer loop
   vertex -2.4411631845606916 66.98688903720753 -36.52977694311145
   vertex -57.194884879372786 63.327551858524004 -27.379210040111815
   vertex -82.02131338174439 57.20004860390573 -6.683464686039194
  endloop
 endfacet
 facet normal -0.3259114020360974 0.6947504764038889 -0.6411735596228486
  outer loop
   vertex -2.4411631845606916 66.98688903720753 -36.52977694311145
   vertex -82.02131338174439 57.20004860390573 -6.683464686039194
   vertex -20.616242435047283 76.36034470845601 -17.134594208020502
  endloop
 endfacet
 facet normal -0.8764336838482919 0.48094735160998814 0.02352961528480286
  outer loop
   vertex -57.194884879372786 63.327551858524004 -27.379210040111815
   vertex -85.41891859967505 11.8724993290819 -26.925424701259846
   vertex -96.15437974735579 -8.596504127186654 -8.412872088580755
  endloop
 endfacet
 facet normal -0.6550691977147269 0.16011698004702335 -0.7384083551166016
  outer loop
   vertex -57.194884879372786 63.327551858524004 -27.379210040111815
   vertex -96.15437974735579 -8.596504127186654 -8.412872088580755
   vertex -82.02131338174439 57.20004860390573 -6.683464686039194
  endloop
 endfacet
 facet normal -0.9152792785104389 -0.40253156023481923 -0.015237629222830557
  outer loop
   vertex -85.41891859967505 11.8724993290819 -26.925424701259846
   vertex -62.78422739327124 -39.364733904516726 -32.99332409137875
   vertex -55.74858440426597 -55.96079030870521 -17.18651873031876
  endloop
 endfacet
 facet normal -0.5791597789395635 -0.3584452296479055 -0.7321823323471662
  outer loop
   vertex -85.41891859967505 11.8724993290819 -26.925424701259846
   vertex -55.74858440426597 -55.96079030870521 -17.18651873031876
   vertex -96.15437974735579 -8.596504127186654 -8.412872088580755
  endloop
 endfacet
 facet normal -0.44213249579301794 -0.73001898642603 -0.5211440641716537
  outer loop
   vertex -62.78422739327124 -39.364733904516726 -32.99332409137875
   vertex -20.064125666834286 -62.07184019997098 -37.42842492676742
   vertex -7.461930527035907 -87.19773913819604 -12.923601473401018
  endloop
 endfacet
 facet normal -0.41186056115734576 -0.713940516504032 -0.5662683260231955
  outer loop
   vertex -62.78422739327124 -39.364733904516726 -32.99332409137875
   vertex -7.461930527035907 -87.19773913819604 -12.923601473401018
   vertex -55.74858440426597 -55.96079030870521 -17.18651873031876
  endloop
 endfacet
 facet normal -0.12840188493610263 -0.9877341981498031 -0.08884880275063423
  outer loop
   vertex -20.064125666834286 -62.07184019997098 -37.42842492676742
   vertex 27.880269780311366 -68.70529234598938 -32.97212639916178
   vertex 51.843722509476876 -73.74196740560724 -11.610626383482956
  endloop
 endfacet
 facet normal 0.16302614516834565 -0.6457422225070906 -0.7459486966696521
  outer loop
   vertex -20.064125666834286 -62.07184019997098 -37.42842492676742
   vertex 51.843722509476876 -73.74196740560724 -11.610626383482956
   vertex -7.461930527035907 -87.19773913819604 -12.923601473401018
  endloop
 endfacet
 facet normal 0.6693684160905022 -0.7033872922234509 0.23914899263650324
  outer loop
   vertex 27.880269780311366 -68.70529234598938 -32.97212639916178
   vertex 64.43029872698719 -34.13270230842185 -33.58895731613974
   vertex 74.13106994552773 -19.71250537986982 -18.328205576158332
  endloop
 endfacet
 facet normal 0.5871588530376736 -0.3338877870627932 -0.7374031644560488
  outer loop
   vertex 27.880269780311366 -68.70529234598938 -32.97212639916178
   vertex 74.13106994552773 -19.71250537986982 -18.328205576158332
   vertex 51.843722509476876 -73.74196740560724 -11.610626383482956
  endloop
 endfacet
 facet normal 0.8834300951757201 0.04296026471635565 -0.4665894154321534
  outer loop
   vertex 64.43029872698719 -34.13270230842185 -33.58895731613974
   vertex 58.77737700555178 12.586906942873243 -39.9904621396939
   vertex 69.17008151697299 32.41464914037079 -18.487546176849854
  endloop
 endfacet
 facet normal 0.807896776684348 0.07510152769275566 -0.58451908331658
  outer loop
   vertex 64.43029872698719 -34.13270230842185 -33.58895731613974
   vertex 69.17008151697299 32.41464914037079 -18.487546176849854
   vertex 74.13106994552773 -19.71250537986982 -18.328205576158332
  endloop
 endfacet
 facet normal 0.8788927713134793 0.43883634669040017 0.18700309451005073
  outer loop
   vertex 58.77737700555178 12.586906942873243 -39.9904621396939
   vertex 39.38704892815642 50.57134781897295 -37.99549025726645
   vertex 29.462319732758896 63.49678649868339 -21.682281828836672
  endloop
 endfacet
 facet normal 0.46826217615442906 0.5251739938743313 -0.7105792077884084
  outer loop
   vertex 58.77737700555178 12.586906942873243 -39.9904621396939
   vertex 29.462319732758896 63.49678649868339 -21.682281828836672
   vertex 69.17008151697299 32.41464914037079 -18.487546176849854
  endloop
 endfacet
 facet normal 0.26018537135289677 0.8529010779230776 0.4526182981405056
  outer loop
   vertex 29.462319732758896 63.49678649868339 -21.682281828836672
   vertex -20.616242435047283 76.36034470845601 -17.134594208020502
   vertex -37.754919174458486 70.61785770015408 3.538468215046329
  endloop
 endfacet
 facet normal -0.016577066935890825 0.9498186675645225 -0.3123614886597871
  outer loop
   vertex 29.462319732758896 63.49678649868339 -21.682281828836672
   vertex -37.754919174458486 70.61785770015408 3.538468215046329
   vertex 14.744757671837336 70.15461155905867 -0.6563206345818475
  endloop
 endfacet
 facet normal -0.16046674318301027 0.8166521872019779 0.5543731861034259
  outer loop
   vertex -20.616242435047283 76.36034470845601 -17.134594208020502
   vertex -82.02131338174439 57.20004860390573 -6.683464686039194
   vertex -97.09048224227504 38.96988719242745 15.80968803631896
  endloop
 endfacet
 facet normal -0.4908732220598768 0.8545694623769696 -0.16957155963572407
  outer loop
   vertex -20.616242435047283 76.36034470845601 -17.134594208020502
   vertex -97.09048224227504 38.96988719242745 15.80968803631896
   vertex -37.754919174458486 70.61785770015408 3.538468215046329
  endloop
 endfacet
 facet normal -0.8317152689122161 0.16471600024687144 0.5302059512311725
  outer loop
   vertex -82.02131338174439 57.20004860390573 -6.683464686039194
   vertex -96.15437974735579 -8.596504127186654 -8.412872088580755
   vertex -88.43199254586949 -28.956328508501308 10.02603106413914
  endloop
 endfacet
 facet normal -0.8090978451047645 -0.05330299443763944 -0.5852516277899683
  outer loop
   vertex -82.02131338174439 57.20004860390573 -6.683464686039194
   vertex -88.43199254586949 -28.956328508501308 10.02603106413914
   vertex -97.09048224227504 38.96988719242745 15.80968803631896
  endloop
 endfacet
 facet normal -0.7540172556587951 -0.65418994799612 0.05910575360836929
  outer loop
   vertex -96.15437974735579 -8.596504127186654 -8.412872088580755
   vertex -55.74858440426597 -55.96079030870521 -17.18651873031876
   vertex -42.843991073497385 -68.91378387191591 4.073135134750984
  endloop
 endfacet
 facet normal -0.6214559113096328 -0.6421658162966306 -0.4487935100671528
  outer loop
   vertex -96.15437974735579 -8.596504127186654 -8.412872088580755
   vertex -42.843991073497385 -68.91378387191591 4.073135134750984
   vertex -88.43199254586949 -28.956328508501308 10.02603106413914
  endloop
 endfacet
 facet normal -0.5136413556752195 -0.7331747136033878 0.44567633667574624
  outer loop
   vertex -55.74858440426597 -55.96079030870521 -17.18651873031876
   vertex -7.461930527035907 -87.19773913819604 -12.923601473401018
   vertex 12.636921527374698 -88.45287017015035 8.17550231118419
  endloop
 endfacet
 facet normal -0.2847910947621643 -0.885659895993156 -0.3667432084900279
  outer loop
   vertex -55.74858440426597 -55.96079030870521 -17.18651873031876
   vertex 12.636921527374698 -88.45287017015035 8.17550231118419
   vertex -42.843991073497385 -68.91378387191591 4.073135134750984
  endloop
 endfacet
 facet normal 0.15638699419368146 -0.7517764128807422 0.6406054425956974
  outer loop
   vertex -7.461930527035907 -87.19773913819604 -12.923601473401018
   vertex 51.843722509476876 -73.74196740560724 -11.610626383482956
   vertex 63.07078101337039 -56.52938571443852 5.848243372329762
  endloop
 endfacet
 facet normal 0.45413506202587856 -0.7522585496792857 -0.4773556534421366
  outer loop
   vertex -7.461930527035907 -87.19773913819604 -12.923601473401018
   vertex 63.07078101337039 -56.52938571443852 5.848243372329762
   vertex 12.636921527374698 -88.45287017015035 8.17550231118419
  endloop
 endfacet
 facet normal 0.872899870260552 -0.313603764655942 0.37376261890768586
  outer loop
   vertex 51.843722509476876 -73.74196740560724 -11.610626383482956
   vertex 74.13106994552773 -19.71250537986982 -18.328205576158332
   vertex 72.59290938062695 -2.36933240635393 -0.18421752049216344
  endloop
 endfacet
 facet normal 0.9020925625098822 -0.20112753585398166 -0.3818071803746749
  outer loop
   vertex 51.843722509476876 -73.74196740560724 -11.610626383482956
   vertex 72.59290938062695 -2.36933240635393 -0.18421752049216344
   vertex 63.07078101337039 -56.52938571443852 5.848243372329762
  endloop
 endfacet
 facet normal 0.9376958649897958 0.09026699126391331 0.33552695133058846
  outer loop
   vertex 74.13106994552773 -19.71250537986982 -18.328205576158332
   vertex 69.17008151697299 32.41464914037079 -18.487546176849854
   vertex 60.425993289575395 47.43217994510562 1.909348990111404
  endloop
 endfacet
 facet normal 0.9591778970550818 0.2405840105936464 -0.14865091875823422
  outer loop
   vertex 74.13106994552773 -19.71250537986982 -18.328205576158332
   vertex 60.425993289575395 47.43217994510562 1.909348990111404
   vertex 72.59290938062695 -2.36933240635393 -0.18421752049216344
  endloop
 endfacet
 facet normal 0.598693270306835 0.7824447443525069 0.17130846483594225
  outer loop
   vertex 69.17008151697299 32.41464914037079 -18.487546176849854
   vertex 29.462319732758896 63.49678649868339 -21.682281828836672
   vertex 14.744757671837336 70.15461155905867 -0.6563206345818475
  endloop
 endfacet
 facet normal 0.4242691857809035 0.8064456023992164 -0.41187516114445893
  outer loop
   vertex 69.17008151697299 32.41464914037079 -18.487546176849854
   vertex 14.744757671837336 70.15461155905867 -0.6563206345818475
   vertex 60.425993289575395 47.43217994510562 1.909348990111404
  endloop
 endfacet
 facet normal 0.06017599265120649 0.7384882565601628 0.6715757178689333
  outer loop
   vertex 14.744757671837336 70.15461155905867 -0.6563206345818475
   vertex -37.754919174458486 70.61785770015408 3.538468215046329
   vertex -45.27525037036575 51.80432006371692 24.900348375282952
  endloop
 endfacet
 facet normal -0.2134299098764125 0.958848752143767 0.18723446286003936
  outer loop
   vertex 14.744757671837336 70.15461155905867 -0.6563206345818475
   vertex -45.27525037036575 51.80432006371692 24.900348375282952
   vertex -1.2520378554008849 62.24251513052042 21.627553263003268
  endloop
 endfacet
 facet normal -0.15107853992985124 0.5906094496679177 0.7926889381943109
  outer loop
   vertex -37.754919174458486 70.61785770015408 3.538468215046329
   vertex -97.09048224227504 38.96988719242745 15.80968803631896
   vertex -89.65114795447415 13.95504350752062 35.865382090454744
  endloop
 endfacet
 facet normal -0.506366869185557 0.7277098365325818 0.4626348318111598
  outer loop
   vertex -37.754919174458486 70.61785770015408 3.538468215046329
   vertex -89.65114795447415 13.95504350752062 35.865382090454744
   vertex -45.27525037036575 51.80432006371692 24.900348375282952
  endloop
 endfacet
 facet normal -0.670359861513553 -0.14737304806845034 0.7272543164358286
  outer loop
   vertex -97.09048224227504 38.96988719242745 15.80968803631896
   vertex -88.43199254586949 -28.956328508501308 10.02603106413914
   vertex -65.64728934366377 -39.68287068111601 28.854585200680013
  endloop
 endfacet
 facet normal -0.9099189103954526 -0.38805656264141697 -0.146491230780823
  outer loop
   vertex -97.09048224227504 38.96988719242745 15.80968803631896
   vertex -65.64728934366377 -39.68287068111601 28.854585200680013
   vertex -89.65114795447415 13.95504350752062 35.865382090454744
  endloop
 endfacet
 facet normal -0.4987628997745968 -0.6538154404427772 0.5689999469657735
  outer loop
   vertex -88.43199254586949 -28.956328508501308 10.02603106413914
   vertex -42.843991073497385 -68.91378387191591 4.073135134750984
   vertex -22.505026835614245 -65.92840556604477 25.331849266700594
  endloop
 endfacet
 facet normal -0.5076714559971943 -0.8518297976875998 0.12905691975710304
  outer loop
   vertex -88.43199254586949 -28.956328508501308 10.02603106413914
   vertex -22.505026835614245 -65.92840556604477 25.331849266700594
   vertex -65.64728934366377 -39.68287068111601 28.854585200680013
  endloop
 endfacet
 facet normal -0.27906864368644857 -0.642589216792173 0.713582364253369
  outer loop
   vertex -42.843991073497385 -68.91378387191591 4.073135134750984
   vertex 12.636921527374698 -88.45287017015035 8.17550231118419
   vertex 27.811012461758473 -71.87821668396224 29.035472125739926
  endloop
 endfacet
 facet normal -0.13227850490696189 -0.9562749440517504 0.2608459862033542
  outer loop
   vertex -42.843991073497385 -68.91378387191591 4.073135134750984
   vertex 27.811012461758473 -71.87821668396224 29.035472125739926
   vertex -22.505026835614245 -65.92840556604477 25.331849266700594
  endloop
 endfacet
 facet normal 0.36065982508765865 -0.5129971187194352 0.7789470115183043
  outer loop
   vertex 12.636921527374698 -88.45287017015035 8.17550231118419
   vertex 63.07078101337039 -56.52938571443852 5.848243372329762
   vertex 58.55552632960674 -32.254582307831164 23.925692751197865
  endloop
 endfacet
 facet normal 0.78266922394906 -0.6174375706756299 -0.07873837819737264
  outer loop
   vertex 12.636921527374698 -88.45287017015035 8.17550231118419
   vertex 58.55552632960674 -32.254582307831164 23.925692751197865
   vertex 27.811012461758473 -71.87821668396224 29.035472125739926
  endloop
 endfacet
 facet normal 0.7671126972160129 -0.06377053041463505 0.6383348879864001
  outer loop
   vertex 63.07078101337039 -56.52938571443852 5.848243372329762
   vertex 72.59290938062695 -2.36933240635393 -0.18421752049216344
   vertex 57.215859214900114 11.27963171991445 19.658552079262147
  endloop
 endfacet
 facet normal 0.9823221830289884 0.04796500806421462 0.18094885114463216
  outer loop
   vertex 63.07078101337039 -56.52938571443852 5.848243372329762
   vertex 57.215859214900114 11.27963171991445 19.658552079262147
   vertex 58.55552632960674 -32.254582307831164 23.925692751197865
  endloop
 endfacet
 facet normal 0.69833983596263 0.14111112494621975 0.701718692870654
  outer loop
   vertex 72.59290938062695 -2.36933240635393 -0.18421752049216344
   vertex 60.425993289575395 47.43217994510562 1.909348990111404
   vertex 39.70752368126048 49.30222683610827 22.152002337517835
  endloop
 endfacet
 facet normal 0.8408700462624608 0.36073669176100126 0.40349300429610385
  outer loop
   vertex 72.59290938062695 -2.36933240635393 -0.18421752049216344
   vertex 39.70752368126048 49.30222683610827 22.152002337517835
   vertex 57.215859214900114 11.27963171991445 19.658552079262147
  endloop
 endfacet
 facet normal 0.354180455343173 0.7716918542451294 0.5282498340223275
  outer loop
   vertex 60.425993289575395 47.43217994510562 1.909348990111404
   vertex 14.744757671837336 70.15461155905867 -0.6563206345818475
   vertex -1.2520378554008849 62.24251513052042 21.627553263003268
  endloop
 endfacet
 facet normal 0.2918887163105008 0.9325242491845284 0.2126017449915206
  outer loop
   vertex 60.425993289575395 47.43217994510562 1.909348990111404
   vertex -1.2520378554008849 62.24251513052042 21.627553263003268
   vertex 39.70752368126048 49.30222683610827 22.152002337517835
  endloop
 endfacet
 facet normal -0.12995661964307692 0.7510554460474806 0.6473229441116424
  outer loop
   vertex -1.2520378554008849 62.24251513052042 21.627553263003268
   vertex -45.27525037036575 51.80432006371692 24.900348375282952
   vertex -46.28057757186076 33.41036370551563 46.040078237979046
  endloop
 endfacet
 facet normal -0.4311937452338172 0.8714256364176478 0.2338574657036448
  outer loop
   vertex -1.2520378554008849 62.24251513052042 21.627553263003268
   vertex -46.28057757186076 33.41036370551563 46.040078237979046
   vertex -12.788172365010224 50.634435959087476 43.61217846777699
  endloop
 endfacet
 facet normal -0.22760057850040002 0.5075886205721387 0.8309944457888732
  outer loop
   vertex -45.27525037036575 51.80432006371692 24.900348375282952
   vertex -89.65114795447415 13.95504350752062 35.865382090454744
   vertex -70.4093376092204 -5.138595171850747 52.79830018184073
  endloop
 endfacet
 facet normal -0.7302740312661992 0.5321908795891673 0.42833714167735054
  outer loop
   vertex -45.27525037036575 51.80432006371692 24.900348375282952
   vertex -70.4093376092204 -5.138595171850747 52.79830018184073
   vertex -46.28057757186076 33.41036370551563 46.040078237979046
  endloop
 endfacet
 facet normal -0.47501600480080153 -0.31973490695522405 0.8198349739169579
  outer loop
   vertex -89.65114795447415 13.95504350752062 35.865382090454744
   vertex -65.64728934366377 -39.68287068111601 28.854585200680013
   vertex -39.184007067946006 -38.07039302491386 44.81639267441922
  endloop
 endfacet
 facet normal -0.7205166767142311 -0.6923948002313388 0.038015249430782314
  outer loop
   vertex -89.65114795447415 13.95504350752062 35.865382090454744
   vertex -39.184007067946006 -38.07039302491386 44.81639267441922
   vertex -70.4093376092204 -5.138595171850747 52.79830018184073
  endloop
 endfacet
 facet normal -0.4484257728907082 -0.7925799453684043 0.4131965106425614
  outer loop
   vertex -65.64728934366377 -39.68287068111601 28.854585200680013
   vertex -22.505026835614245 -65.92840556604477 25.331849266700594
   vertex -6.397124998464627 -62.69709752843563 49.01130450622504
  endloop
 endfacet
 facet normal -0.4398708991369916 -0.45359541804895787 0.775090181086953
  outer loop
   vertex -65.64728934366377 -39.68287068111601 28.854585200680013
   vertex -6.397124998464627 -62.69709752843563 49.01130450622504
   vertex -39.184007067946006 -38.07039302491386 44.81639267441922
  endloop
 endfacet
 facet normal -0.1278106421099168 -0.5801123794988412 0.8044464350816922
  outer loop
   vertex -22.505026835614245 -65.92840556604477 25.331849266700594
   vertex 27.811012461758473 -71.87821668396224 29.035472125739926
   vertex 32.87077550156242 -48.41485876408088 46.75955583745257
  endloop
 endfacet
 facet normal 0.33501967457250903 -0.9368842207671376 -0.10004886069757955
  outer loop
   vertex -22.505026835614245 -65.92840556604477 25.331849266700594
   vertex 32.87077550156242 -48.41485876408088 46.75955583745257
   vertex -6.397124998464627 -62.69709752843563 49.01130450622504
  endloop
 endfacet
 facet normal 0.5042598622770194 -0.2861938214895698 0.8147484813349196
  outer loop
   vertex 27.811012461758473 -71.87821668396224 29.035472125739926
   vertex 58.55552632960674 -32.254582307831164 23.925692751197865
   vertex 43.6094672124962 -12.361493165483521 40.163804534091796
  endloop
 endfacet
 facet normal 0.9591018780411192 -0.2703010624289937 0.0840292995791067
  outer loop
   vertex 27.811012461758473 -71.87821668396224 29.035472125739926
   vertex 43.6094672124962 -12.361493165483521 40.163804534091796
   vertex 32.87077550156242 -48.41485876408088 46.75955583745257
  endloop
 endfacet
 facet normal 0.7792306400743128 0.0848451355093753 0.620967722631195
  outer loop
   vertex 58.55552632960674 -32.254582307831164 23.925692751197865
   vertex 57.215859214900114 11.27963171991445 19.658552079262147
   vertex 40.49754597244616 18.178357121462668 39.69517907917069
  endloop
 endfacet
 facet normal 0.7849957280514371 0.08939534258597473 0.6130172751765894
  outer loop
   vertex 58.55552632960674 -32.254582307831164 23.925692751197865
   vertex 40.49754597244616 18.178357121462668 39.69517907917069
   vertex 43.6094672124962 -12.361493165483521 40.163804534091796
  endloop
 endfacet
 facet normal 0.7111528948615795 0.28532980905468036 0.6425328475609746
  outer loop
   vertex 57.215859214900114 11.27963171991445 19.658552079262147
   vertex 39.70752368126048 49.30222683610827 22.152002337517835
   vertex 22.223162179147504 45.91792694998919 43.006494038897415
  endloop
 endfacet
 facet normal 0.7577671942710977 0.4418915274210279 0.4801257723555562
  outer loop
   vertex 57.215859214900114 11.27963171991445 19.658552079262147
   vertex 22.223162179147504 45.91792694998919 43.006494038897415
   vertex 40.49754597244616 18.178357121462668 39.69517907917069
  endloop
 endfacet
 facet normal 0.24515440386220988 0.7982771730725509 0.5501389580990074
  outer loop
   vertex 39.70752368126048 49.30222683610827 22.152002337517835
   vertex -1.2520378554008849 62.24251513052042 21.627553263003268
   vertex -12.788172365010224 50.634435959087476 43.61217846777699
  endloop
 endfacet
 facet normal 0.13320448511944277 0.9545618786454978 0.26658616802235285
  outer loop
   vertex 39.70752368126048 49.30222683610827 22.152002337517835
   vertex -12.788172365010224 50.634435959087476 43.61217846777699
   vertex 22.223162179147504 45.91792694998919 43.006494038897415
  endloop
 endfacet
 facet normal -0.32747560387359076 0.7225940125656062 0.6087837233960544
  outer loop
   vertex -12.788172365010224 50.634435959087476 43.61217846777699
   vertex -46.28057757186076 33.41036370551563 46.040078237979046
   vertex -41.847045665450175 17.594391122547847 67.19767515572612
  endloop
 endfacet
 facet normal -0.5846031940335715 0.7444335449633421 0.3225799167013626
  outer loop
   vertex -12.788172365010224 50.634435959087476 43.61217846777699
   vertex -41.847045665450175 17.594391122547847 67.19767515572612
   vertex -18.80906723286571 36.604909482619554 65.07729579172903
  endloop
 endfacet
 facet normal -0.4380525014760537 0.41407311098296573 0.7979056740689721
  outer loop
   vertex -46.28057757186076 33.41036370551563 46.040078237979046
   vertex -70.4093376092204 -5.138595171850747 52.79830018184073
   vertex -48.570593681550164 -15.031313449322514 69.92165884924717
  endloop
 endfacet
 facet normal -0.9101237538653418 0.2170279707428203 0.3529498725956879
  outer loop
   vertex -46.28057757186076 33.41036370551563 46.040078237979046
   vertex -48.570593681550164 -15.031313449322514 69.92165884924717
   vertex -41.847045665450175 17.594391122547847 67.19767515572612
  endloop
 endfacet
 facet normal -0.5396752003600526 -0.6433277814652096 0.5430285846172269
  outer loop
   vertex -70.4093376092204 -5.138595171850747 52.79830018184073
   vertex -39.184007067946006 -38.07039302491386 44.81639267441922
   vertex -22.467744233094308 -34.85765332037445 65.23557044023119
  endloop
 endfacet
 facet normal -0.5562580867506413 -0.7919009560895338 0.2519321668009033
  outer loop
   vertex -70.4093376092204 -5.138595171850747 52.79830018184073
   vertex -22.467744233094308 -34.85765332037445 65.23557044023119
   vertex -48.570593681550164 -15.031313449322514 69.92165884924717
  endloop
 endfacet
 facet normal -0.49432923642419424 -0.5424192625325504 0.6792789924986029
  outer loop
   vertex -39.184007067946006 -38.07039302491386 44.81639267441922
   vertex -6.397124998464627 -62.69709752843563 49.01130450622504
   vertex 6.17738304149106 -48.927091573315344 69.15775917974345
  endloop
 endfacet
 facet normal -0.43896326292705556 -0.7601976415827993 0.47896847446609925
  outer loop
   vertex -39.184007067946006 -38.07039302491386 44.81639267441922
   vertex 6.17738304149106 -48.927091573315344 69.15775917974345
   vertex -22.467744233094308 -34.85765332037445 65.23557044023119
  endloop
 endfacet
 facet normal 0.29320680194037685 -0.7042009852486525 0.6466302990664171
  outer loop
   vertex -6.397124998464627 -62.69709752843563 49.01130450622504
   vertex 32.87077550156242 -48.41485876408088 46.75955583745257
   vertex 32.604948683835055 -30.196834285866608 66.72010058237592
  endloop
 endfacet
 facet normal 0.5797397951794909 -0.7944138974058536 0.18113069727046183
  outer loop
   vertex -6.397124998464627 -62.69709752843563 49.01130450622504
   vertex 32.604948683835055 -30.196834285866608 66.72010058237592
   vertex 6.17738304149106 -48.927091573315344 69.15775917974345
  endloop
 endfacet
 facet normal 0.7831341878801084 -0.12169624228936735 0.6098285565517663
  outer loop
   vertex 32.87077550156242 -48.41485876408088 46.75955583745257
   vertex 43.6094672124962 -12.361493165483521 40.163804534091796
   vertex 30.165242407630007 -1.4774835641191089 59.60070202998294
  endloop
 endfacet
 facet normal 0.9960624753679893 0.07168477873337985 -0.05216164933876263
  outer loop
   vertex 32.87077550156242 -48.41485876408088 46.75955583745257
   vertex 30.165242407630007 -1.4774835641191089 59.60070202998294
   vertex 32.604948683835055 -30.196834285866608 66.72010058237592
  endloop
 endfacet
 facet normal 0.9458253926565248 0.10111114458502987 0.30853016553788704
  outer loop
   vertex 43.6094672124962 -12.361493165483521 40.163804534091796
   vertex 40.49754597244616 18.178357121462668 39.69517907917069
   vertex 31.786297078982788 24.123538853716468 64.45190347322857
  endloop
 endfacet
 facet normal 0.7649416535233162 -0.1663474014390678 0.6222481890206547
  outer loop
   vertex 43.6094672124962 -12.361493165483521 40.163804534091796
   vertex 31.786297078982788 24.123538853716468 64.45190347322857
   vertex 30.165242407630007 -1.4774835641191089 59.60070202998294
  endloop
 endfacet
 facet normal 0.7312735806197278 0.4173506874275306 0.5394973160186898
  outer loop
   vertex 40.49754597244616 18.178357121462668 39.69517907917069
   vertex 22.223162179147504 45.91792694998919 43.006494038897415
   vertex 9.144248865687759 40.23527570324277 65.13064891268324
  endloop
 endfacet
 facet normal 0.5799272832549518 0.814624583941147 0.008434060424499328
  outer loop
   vertex 40.49754597244616 18.178357121462668 39.69517907917069
   vertex 9.144248865687759 40.23527570324277 65.13064891268324
   vertex 31.786297078982788 24.123538853716468 64.45190347322857
  endloop
 endfacet
 facet normal 0.11963887330183501 0.8153519555185965 0.5664695301841642
  outer loop
   vertex 22.223162179147504 45.91792694998919 43.006494038897415
   vertex -12.788172365010224 50.634435959087476 43.61217846777699
   vertex -18.80906723286571 36.604909482619554 65.07729579172903
  endloop
 endfacet
 facet normal -0.12711931294197243 0.9762204326959057 0.17559711576270104
  outer loop
   vertex 22.223162179147504 45.91792694998919 43.006494038897415
   vertex -18.80906723286571 36.604909482619554 65.07729579172903
   vertex 9.144248865687759 40.23527570324277 65.13064891268324
  endloop
 endfacet
 facet normal -0.4862685100123385 0.6539316228956572 0.5795829265492837
  outer loop
   vertex -18.80906723286571 36.604909482619554 65.07729579172903
   vertex -41.847045665450175 17.594391122547847 67.19767515572612
   vertex -32.875922966354814 5.668210737259227 88.18048953007433
  endloop
 endfacet
 facet normal -0.6536497853196451 0.6206321918160617 0.4330792544479279
  outer loop
   vertex -18.80906723286571 36.604909482619554 65.07729579172903
   vertex -32.875922966354814 5.668210737259227 88.18048953007433
   vertex -18.706770514744793 22.122622521332158 85.98580072271358
  endloop
 endfacet
 facet normal -0.6575786941431252 0.1962448570079749 0.727377630331688
  outer loop
   vertex -41.847045665450175 17.594391122547847 67.19767515572612
   vertex -48.570593681550164 -15.031313449322514 69.92165884924717
   vertex -28.876088446202626 -16.81821615787931 88.20838770412985
  endloop
 endfacet
 facet normal -0.9373208196340603 -0.16634860645139754 0.30619899120051247
  outer loop
   vertex -41.847045665450175 17.594391122547847 67.19767515572612
   vertex -28.876088446202626 -16.81821615787931 88.20838770412985
   vertex -32.875922966354814 5.668210737259227 88.18048953007433
  endloop
 endfacet
 facet normal -0.5211057888114929 -0.7720653923975784 0.3638183430355387
  outer loop
   vertex -48.570593681550164 -15.031313449322514 69.92165884924717
   vertex -22.467744233094308 -34.85765332037445 65.23557044023119
   vertex -11.338390086907213 -31.524109227837247 88.25058620146984
  endloop
 endfacet
 facet normal -0.547288558459103 -0.6511671205860836 0.5257914176243138
  outer loop
   vertex -48.570593681550164 -15.031313449322514 69.92165884924717
   vertex -11.338390086907213 -31.524109227837247 88.25058620146984
   vertex -28.876088446202626 -16.81821615787931 88.20838770412985
  endloop
 endfacet
 facet normal -0.4091452058728426 -0.6562841103067453 0.6339490256086471
  outer loop
   vertex -22.467744233094308 -34.85765332037445 65.23557044023119
   vertex 6.17738304149106 -48.927091573315344 69.15775917974345
   vertex 12.269285876268777 -33.315214433020955 89.25133015179267
  endloop
 endfacet
 facet normal -0.0820464293550651 -0.9799415687878397 0.18161196323951725
  outer loop
   vertex -22.467744233094308 -34.85765332037445 65.23557044023119
   vertex 12.269285876268777 -33.315214433020955 89.25133015179267
   vertex -11.338390086907213 -31.524109227837247 88.25058620146984
  endloop
 endfacet
 facet normal 0.44790269080512646 -0.5391465923595117 0.7132349763693966
  outer loop
   vertex 6.17738304149106 -48.927091573315344 69.15775917974345
   vertex 32.604948683835055 -30.196834285866608 66.72010058237592
   vertex 24.301725603956132 -13.90777238345606 84.24760356727748
  endloop
 endfacet
 facet normal 0.8573570406771424 -0.4986758287188237 0.12751989120496932
  outer loop
   vertex 6.17738304149106 -48.927091573315344 69.15775917974345
   vertex 24.301725603956132 -13.90777238345606 84.24760356727748
   vertex 12.269285876268777 -33.315214433020955 89.25133015179267
  endloop
 endfacet
 facet normal 0.991396839246873 0.10394005079035958 0.0795535855446345
  outer loop
   vertex 32.604948683835055 -30.196834285866608 66.72010058237592
   vertex 30.165242407630007 -1.4774835641191089 59.60070202998294
   vertex 27.555945623538975 4.966876361715012 83.69793753832789
  endloop
 endfacet
 facet normal 0.8436946215261473 -0.13029742061419805 0.5207705519603983
  outer loop
   vertex 32.604948683835055 -30.196834285866608 66.72010058237592
   vertex 27.555945623538975 4.966876361715012 83.69793753832789
   vertex 24.301725603956132 -13.90777238345606 84.24760356727748
  endloop
 endfacet
 facet normal 0.8647522994649136 -0.14581902125779025 0.48056245547229787
  outer loop
   vertex 30.165242407630007 -1.4774835641191089 59.60070202998294
   vertex 31.786297078982788 24.123538853716468 64.45190347322857
   vertex 19.323814468920496 23.207721168200944 86.5997361520841
  endloop
 endfacet
 facet normal 0.9107079113359693 0.4128822534071458 -0.011804450496049066
  outer loop
   vertex 30.165242407630007 -1.4774835641191089 59.60070202998294
   vertex 19.323814468920496 23.207721168200944 86.5997361520841
   vertex 27.555945623538975 4.966876361715012 83.69793753832789
  endloop
 endfacet
 facet normal 0.5323867064114272 0.730125298154121 0.4283473401712084
  outer loop
   vertex 31.786297078982788 24.123538853716468 64.45190347322857
   vertex 9.144248865687759 40.23527570324277 65.13064891268324
   vertex -0.1270756077013729 33.447432788100066 88.22383709204128
  endloop
 endfacet
 facet normal 0.4642137133710849 0.8348934501755239 0.29573392631255246
  outer loop
   vertex 31.786297078982788 24.123538853716468 64.45190347322857
   vertex -0.1270756077013729 33.447432788100066 88.22383709204128
   vertex 19.323814468920496 23.207721168200944 86.5997361520841
  endloop
 endfacet
 facet normal -0.10719711519652386 0.8170778146928763 0.5664738504381793
  outer loop
   vertex 9.144248865687759 40.23527570324277 65.13064891268324
   vertex -18.80906723286571 36.604909482619554 65.07729579172903
   vertex -18.706770514744793 22.122622521332158 85.98580072271358
  endloop
 endfacet
 facet normal -0.5235537065321489 0.8510550839145617 0.03995948597800695
  outer loop
   vertex 9.144248865687759 40.23527570324277 65.13064891268324
   vertex -18.706770514744793 22.122622521332158 85.98580072271358
   vertex -0.1270756077013729 33.447432788100066 88.22383709204128
  endloop
 endfacet
 facet normal -0.6730791087597126 0.6310413651404506 0.38568291229053375
  outer loop
   vertex -18.706770514744793 22.122622521332158 85.98580072271358
   vertex -32.875922966354814 5.668210737259227 88.18048953007433
   vertex -27.955258626471 -1.5822500204198602 108.63080446877782
  endloop
 endfacet
 facet normal -0.9565772729159183 0.27122377850695456 -0.10675946287404735
  outer loop
   vertex -18.706770514744793 22.122622521332158 85.98580072271358
   vertex -27.955258626471 -1.5822500204198602 108.63080446877782
   vertex -22.432021235314142 16.757220034910784 105.73360932793074
  endloop
 endfacet
 facet normal -0.9148020059418748 -0.16226401002352947 0.3698752235224819
  outer loop
   vertex -32.875922966354814 5.668210737259227 88.18048953007433
   vertex -28.876088446202626 -16.81821615787931 88.20838770412985
   vertex -20.39791981820982 -19.18136770644583 108.14049116006588
  endloop
 endfacet
 facet normal -0.9151023322240589 -0.39519033287980554 0.08007697769294558
  outer loop
   vertex -32.875922966354814 5.668210737259227 88.18048953007433
   vertex -20.39791981820982 -19.18136770644583 108.14049116006588
   vertex -27.955258626471 -1.5822500204198602 108.63080446877782
  endloop
 endfacet
 facet normal -0.5955575709423921 -0.7091568365235734 0.37736952832081616
  outer loop
   vertex -28.876088446202626 -16.81821615787931 88.20838770412985
   vertex -11.338390086907213 -31.524109227837247 88.25058620146984
   vertex -3.2961676293812414 -27.805310265469423 107.93107872202285
  endloop
 endfacet
 facet normal -0.4478059137616495 -0.8900864763497868 0.08494661982277171
  outer loop
   vertex -28.876088446202626 -16.81821615787931 88.20838770412985
   vertex -3.2961676293812414 -27.805310265469423 107.93107872202285
   vertex -20.39791981820982 -19.18136770644583 108.14049116006588
  endloop
 endfacet
 facet normal -0.08658198244241447 -0.8714765579795971 0.4827340563999763
  outer loop
   vertex -11.338390086907213 -31.524109227837247 88.25058620146984
   vertex 12.269285876268777 -33.315214433020955 89.25133015179267
   vertex 15.347898026057551 -23.41883912967803 107.66936242247387
  endloop
 endfacet
 facet normal 0.22929270001283406 -0.9692388282448952 0.0894480382305126
  outer loop
   vertex -11.338390086907213 -31.524109227837247 88.25058620146984
   vertex 15.347898026057551 -23.41883912967803 107.66936242247387
   vertex -3.2961676293812414 -27.805310265469423 107.93107872202285
  endloop
 endfacet
 facet normal 0.8541282264209791 -0.5181930405032498 0.04405616421058569
  outer loop
   vertex 12.269285876268777 -33.315214433020955 89.25133015179267
   vertex 24.301725603956132 -13.90777238345606 84.24760356727748
   vertex 26.810511622217447 -8.07443289370487 104.22144809056266
  endloop
 endfacet
 facet normal 0.8074592392930675 -0.565268990950226 0.1687617988478849
  outer loop
   vertex 12.269285876268777 -33.315214433020955 89.25133015179267
   vertex 26.810511622217447 -8.07443289370487 104.22144809056266
   vertex 15.347898026057551 -23.41883912967803 107.66936242247387
  endloop
 endfacet
 facet normal 0.9791338976991211 -0.16537532127482105 0.11810086151157766
  outer loop
   vertex 24.301725603956132 -13.90777238345606 84.24760356727748
   vertex 27.555945623538975 4.966876361715012 83.69793753832789
   vertex 25.728188864695372 11.048090230558632 107.36670049954753
  endloop
 endfacet
 facet normal 0.9858661263613031 0.08000989602695147 -0.1471950998882623
  outer loop
   vertex 24.301725603956132 -13.90777238345606 84.24760356727748
   vertex 25.728188864695372 11.048090230558632 107.36670049954753
   vertex 26.810511622217447 -8.07443289370487 104.22144809056266
  endloop
 endfacet
 facet normal 0.8974709661184852 0.3658328363134296 0.24639845951065553
  outer loop
   vertex 27.555945623538975 4.966876361715012 83.69793753832789
   vertex 19.323814468920496 23.207721168200944 86.5997361520841
   vertex 12.607360600413466 25.001089150097886 108.40080364883885
  endloop
 endfacet
 facet normal 0.7187239042061955 0.684784721356735 -0.12044017153334832
  outer loop
   vertex 27.555945623538975 4.966876361715012 83.69793753832789
   vertex 12.607360600413466 25.001089150097886 108.40080364883885
   vertex 25.728188864695372 11.048090230558632 107.36670049954753
  endloop
 endfacet
 facet normal 0.4582539008663395 0.8137876847099399 0.35742546993075175
  outer loop
   vertex 19.323814468920496 23.207721168200944 86.5997361520841
   vertex -0.1270756077013729 33.447432788100066 88.22383709204128
   vertex -6.412591804007641 27.25580060015068 110.37960662983338
  endloop
 endfacet
 facet normal 0.11277754574391498 0.992512766707789 -0.04690024624699939
  outer loop
   vertex 19.323814468920496 23.207721168200944 86.5997361520841
   vertex -6.412591804007641 27.25580060015068 110.37960662983338
   vertex 12.607360600413466 25.001089150097886 108.40080364883885
  endloop
 endfacet
 facet normal -0.5273929399216905 0.8398191502021997 0.12868753581606615
  outer loop
   vertex -0.1270756077013729 33.447432788100066 88.22383709204128
   vertex -18.706770514744793 22.122622521332158 85.98580072271358
   vertex -22.432021235314142 16.757220034910784 105.73360932793074
  endloop
 endfacet
 facet normal -0.5611226745644666 0.8246586913907717 0.07126981691627729
  outer loop
   vertex -0.1270756077013729 33.447432788100066 88.22383709204128
   vertex -22.432021235314142 16.757220034910784 105.73360932793074
   vertex -6.412591804007641 27.25580060015068 110.37960662983338
  endloop
 endfacet
 facet normal -0.08098041036051783 -0.14111300883240804 -0.9866758798491564
  outer loop
   vertex 0 0 -111
   vertex 21.449244407331385 17.998053071223097 -115.33448118412322
   vertex 28 0 -113.29807126778162
  endloop
 endfacet
 facet normal -0.11483504037158555 -0.10113911543958255 -0.9882225421588778
  outer loop
   vertex 0 0 -111
   vertex 4.862148974674051 27.574617084341824 -114.38710898759963
   vertex 21.449244407331385 17.998053071223097 -115.33448118412322
  endloop
 endfacet
 facet normal -0.2644291835935747 -0.07150992578165412 -0.9617502468825977
  outer loop
   vertex 0 0 -111
   vertex -14.63976195944456 25.356811524472093 -108.86023804055543
   vertex 4.862148974674051 27.574617084341824 -114.38710898759963
  endloop
 endfacet
 facet normal 0.2943756476091273 0.24784559706788004 -0.922992707505738
  outer loop
   vertex 0 0 -111
   vertex -26.311393382005434 9.576564013118729 -116.82011558374396
   vertex -14.63976195944456 25.356811524472093 -108.86023804055543
  endloop
 endfacet
 facet normal 0.1300691089178799 -0.22893772372632717 -0.9647121568428153
  outer loop
   vertex 0 0 -111
   vertex -26.311393382005434 -9.576564013118723 -112.2748494113802
   vertex -26.311393382005434 9.576564013118729 -116.82011558374396
  endloop
 endfacet
 facet normal -0.0578953799872334 0.2863793450583712 -0.9563655136505458
  outer loop
   vertex 0 0 -111
   vertex -14.000000000000012 -24.248711305964274 -117.41365111449593
   vertex -26.311393382005434 -9.576564013118723 -112.2748494113802
  endloop
 endfacet
 facet normal 0.17252985926934755 0.15756329140024353 -0.9723205525255656
  outer loop
   vertex 0 0 -111
   vertex 4.862148974674039 -27.574617084341828 -114.60568491477093
   vertex -14.000000000000012 -24.248711305964274 -117.41365111449593
  endloop
 endfacet
 facet normal -0.09504323946791693 0.11257536396562863 -0.9890872408738526
  outer loop
   vertex 0 0 -111
   vertex 21.449244407331378 -17.998053071223108 -115.10959001370429
   vertex 4.862148974674039 -27.574617084341828 -114.60568491477093
  endloop
 endfacet
 facet normal -0.08111547922338964 0.12899899410198046 -0.9883215764876516
  outer loop
   vertex 0 0 -111
   vertex 28 0 -113.29807126778162
   vertex 21.449244407331378 -17.998053071223108 -115.10959001370429
  endloop
 endfacet
 facet normal -0.0932883306314587 0.18271125418357168 0.9787307520266552
  outer loop
   vertex 0 0 111
   vertex -22.432021235314142 16.757220034910784 105.73360932793074
   vertex -27.955258626471 -1.5822500204198602 108.63080446877782
  endloop
 endfacet
 facet normal -0.0807750725815592 -0.06240068833141213 0.9947771316959442
  outer loop
   vertex 0 0 111
   vertex -27.955258626471 -1.5822500204198602 108.63080446877782
   vertex -20.39791981820982 -19.18136770644583 108.14049116006588
  endloop
 endfacet
 facet normal -0.0407036936254232 -0.10484627113266069 0.9936551055345231
  outer loop
   vertex 0 0 111
   vertex -20.39791981820982 -19.18136770644583 108.14049116006588
   vertex -3.2961676293812414 -27.805310265469423 107.93107872202285
  endloop
 endfacet
 facet normal 0.0408482000870858 -0.11439679487483584 0.9925949817886498
  outer loop
   vertex 0 0 111
   vertex -3.2961676293812414 -27.805310265469423 107.93107872202285
   vertex 15.347898026057551 -23.41883912967803 107.66936242247387
  endloop
 endfacet
 facet normal 0.2530193203840381 0.028286182511055424 0.9670476282951893
  outer loop
   vertex 0 0 111
   vertex 15.347898026057551 -23.41883912967803 107.66936242247387
   vertex 26.810511622217447 -8.07443289370487 104.22144809056266
  endloop
 endfacet
 facet normal 0.20030611817050323 -0.14796006514437265 0.9684964006881686
  outer loop
   vertex 0 0 111
   vertex 26.810511622217447 -8.07443289370487 104.22144809056266
   vertex 25.728188864695372 11.048090230558632 107.36670049954753
  endloop
 endfacet
 facet normal 0.12223672959120231 0.04145304818148018 0.9916349261372913
  outer loop
   vertex 0 0 111
   vertex 25.728188864695372 11.048090230558632 107.36670049954753
   vertex 12.607360600413466 25.001089150097886 108.40080364883885
  endloop
 endfacet
 facet normal 0.10901587243736659 0.04824819785931724 0.9928683955892885
  outer loop
   vertex 0 0 111
   vertex 12.607360600413466 25.001089150097886 108.40080364883885
   vertex -6.412591804007641 27.25580060015068 110.37960662983338
  endloop
 endfacet
 facet normal -0.2552525506218366 -0.03806356502360824 0.9661248886240021
  outer loop
   vertex 0 0 111
   vertex -6.412591804007641 27.25580060015068 110.37960662983338
   vertex -22.432021235314142 16.757220034910784 105.73360932793074
  endloop
 endfacet
endsolid chiralShape