solid OpenSCAD_Model
  facet normal -0.9134579913377083 -0.16371748461553914 0.372546753163197
    outer loop
      vertex -15.619169235229492 2.5399999618530273 31.039999961853027
      vertex -15.525970458984375 2.0199995040893555 31.039999961853027
      vertex -15.489999771118164 2.5399999618530273 31.356714248657227
    endloop
  endfacet
  facet normal -0.9603135115928113 -0.1721153178922332 -0.21948639319816401
    outer loop
      vertex -15.644820213317871 2.0199995040893555 29.479999542236328
      vertex -15.619169235229492 2.5399999618530273 28.959999084472656
      vertex -15.525970458984375 2.0199995040893555 28.959999084472656
    endloop
  endfacet
  facet normal -0.9247142618948563 -0.14930375355964842 0.35015985352585854
    outer loop
      vertex -15.525970458984375 2.0199995040893555 31.039999961853027
      vertex -15.489999771118164 2.0199995040893555 31.134992599487305
      vertex -15.489999771118164 2.5399999618530273 31.356714248657227
    endloop
  endfacet
  facet normal -0.9806462628135127 -0.1821603578642604 -0.07176706244967614
    outer loop
      vertex -15.682875633239746 2.0199995040893555 30
      vertex -15.741413116455078 2.5399999618530273 29.479999542236328
      vertex -15.644820213317871 2.0199995040893555 29.479999542236328
    endloop
  endfacet
  facet normal -0.9711668182153564 -0.22756008831701738 -0.07107332412805924
    outer loop
      vertex -15.682875633239746 2.0199995040893555 30
      vertex -15.644820213317871 2.0199995040893555 29.479999542236328
      vertex -15.561031341552734 1.5 30
    endloop
  endfacet
  facet normal -0.9690361137994903 -0.05936381416066532 -0.23967675673848596
    outer loop
      vertex -15.81238079071045 3.059999465942383 29.479999542236328
      vertex -15.715621948242188 3.5799999237060547 28.959999084472656
      vertex -15.68376636505127 3.059999465942383 28.959999084472656
    endloop
  endfacet
  facet normal -0.9198860389655087 -0.11427318182612067 -0.3751683825053504
    outer loop
      vertex -15.619169235229492 2.5399999618530273 28.959999084472656
      vertex -15.68376636505127 3.059999465942383 28.959999084472656
      vertex -15.489999771118164 2.5399999618530273 28.643284797668457
    endloop
  endfacet
  facet normal -0.9664219952446487 -0.12005412812607638 -0.2271905223094479
    outer loop
      vertex -15.741413116455078 2.5399999618530273 29.479999542236328
      vertex -15.68376636505127 3.059999465942383 28.959999084472656
      vertex -15.619169235229492 2.5399999618530273 28.959999084472656
    endloop
  endfacet
  facet normal -0.9000447276412311 -0.023770935953886213 -0.43514874565957146
    outer loop
      vertex -15.489999771118164 3.059999465942383 28.521737098693848
      vertex -15.715621948242188 3.5799999237060547 28.959999084472656
      vertex -15.489999771118164 3.5799999237060547 28.49333095550537
    endloop
  endfacet
  facet normal -0.9131649341580939 -0.05594110753710672 -0.4037330745821625
    outer loop
      vertex -15.68376636505127 3.059999465942383 28.959999084472656
      vertex -15.715621948242188 3.5799999237060547 28.959999084472656
      vertex -15.489999771118164 3.059999465942383 28.521737098693848
    endloop
  endfacet
  facet normal -0.9623393246751247 -0.13133663239983093 -0.23802040495238358
    outer loop
      vertex -15.741413116455078 2.5399999618530273 29.479999542236328
      vertex -15.81238079071045 3.059999465942383 29.479999542236328
      vertex -15.68376636505127 3.059999465942383 28.959999084472656
    endloop
  endfacet
  facet normal -0.9802028099969441 -0.18384690088320704 -0.07350352583199767
    outer loop
      vertex -15.780406951904297 2.5399999618530273 30
      vertex -15.741413116455078 2.5399999618530273 29.479999542236328
      vertex -15.682875633239746 2.0199995040893555 30
    endloop
  endfacet
  facet normal -0.9880916288557554 -0.13485121485624454 -0.07409509320444214
    outer loop
      vertex -15.780406951904297 2.5399999618530273 30
      vertex -15.81238079071045 3.059999465942383 29.479999542236328
      vertex -15.741413116455078 2.5399999618530273 29.479999542236328
    endloop
  endfacet
  facet normal -0.9873370549362753 -0.13834260598565348 -0.07763287524535621
    outer loop
      vertex -15.81238079071045 3.059999465942383 29.479999542236328
      vertex -15.780406951904297 2.5399999618530273 30
      vertex -15.853267669677734 3.059999465942383 30
    endloop
  endfacet
  facet normal -0.963022285369156 -0.07852925186950956 -0.257723174129109
    outer loop
      vertex -15.715621948242188 3.5799999237060547 28.959999084472656
      vertex -15.81238079071045 3.059999465942383 29.479999542236328
      vertex -15.85478401184082 3.5799999237060547 29.479999542236328
    endloop
  endfacet
  facet normal -0.9936451107256737 -0.08102637743130917 -0.07812886848868762
    outer loop
      vertex -15.853267669677734 3.059999465942383 30
      vertex -15.85478401184082 3.5799999237060547 29.479999542236328
      vertex -15.81238079071045 3.059999465942383 29.479999542236328
    endloop
  endfacet
  facet normal -0.9926320846516599 -0.08711335970867334 -0.08421880479065966
    outer loop
      vertex -15.853267669677734 3.059999465942383 30
      vertex -15.898902893066406 3.5799999237060547 30
      vertex -15.85478401184082 3.5799999237060547 29.479999542236328
    endloop
  endfacet
  facet normal -0.9579275111899836 -0.1779402266274392 -0.22519360349072823
    outer loop
      vertex -15.619169235229492 2.5399999618530273 28.959999084472656
      vertex -15.644820213317871 2.0199995040893555 29.479999542236328
      vertex -15.741413116455078 2.5399999618530273 29.479999542236328
    endloop
  endfacet
  facet normal -0.9511245181324538 -0.21922961259186313 -0.2174868455105486
    outer loop
      vertex -15.489999771118164 1.8639411926269531 28.959999084472656
      vertex -15.489999771118164 1.5 29.32685661315918
      vertex -15.525970458984375 2.0199995040893555 28.959999084472656
    endloop
  endfacet
  facet normal 1 0 0
    outer loop
      vertex -15.489999771118164 2.0199995040893555 28.86500644683838
      vertex -15.489999771118164 2.5399999618530273 28.643284797668457
      vertex -15.489999771118164 1.8639411926269531 28.959999084472656
    endloop
  endfacet
  facet normal -0.9141983926362184 -0.21071831882040884 -0.3461778286009305
    outer loop
      vertex -15.525970458984375 2.0199995040893555 28.959999084472656
      vertex -15.489999771118164 2.0199995040893555 28.86500644683838
      vertex -15.489999771118164 1.8639411926269531 28.959999084472656
    endloop
  endfacet
  facet normal -0.9223301429954947 -0.1653076249025744 -0.34925706359496894
    outer loop
      vertex -15.525970458984375 2.0199995040893555 28.959999084472656
      vertex -15.619169235229492 2.5399999618530273 28.959999084472656
      vertex -15.489999771118164 2.0199995040893555 28.86500644683838
    endloop
  endfacet
  facet normal -0.9431731979489097 -0.2618163792285834 -0.2046374898166542
    outer loop
      vertex -15.523226737976074 1.5 29.479999542236328
      vertex -15.489999771118164 1.5 29.32685661315918
      vertex -15.489999771118164 1.3803024291992188 29.479999542236328
    endloop
  endfacet
  facet normal -0.9549974576210807 -0.21224228490702757 -0.20720296434828359
    outer loop
      vertex -15.523226737976074 1.5 29.479999542236328
      vertex -15.525970458984375 2.0199995040893555 28.959999084472656
      vertex -15.489999771118164 1.5 29.32685661315918
    endloop
  endfacet
  facet normal 1 0 0
    outer loop
      vertex -15.489999771118164 1.5 29.32685661315918
      vertex -15.489999771118164 1.8639411926269531 28.959999084472656
      vertex -15.489999771118164 1.3803024291992188 29.479999542236328
    endloop
  endfacet
  facet normal -0.9612476643510528 -0.26683368820236336 -0.0693015917563905
    outer loop
      vertex -15.489999771118164 1.245248794555664 30
      vertex -15.523226737976074 1.5 29.479999542236328
      vertex -15.489999771118164 1.3803024291992188 29.479999542236328
    endloop
  endfacet
  facet normal -0.960903428504299 -0.2679260317672455 -0.06985873309859318
    outer loop
      vertex -15.561031341552734 1.5 30
      vertex -15.523226737976074 1.5 29.479999542236328
      vertex -15.490000000000002 1.2452496154290273 30
    endloop
  endfacet
  facet normal -0.960903429176718 -0.2679260296468433 -0.06985873198178562
    outer loop
      vertex -15.523226737976074 1.5 29.479999542236328
      vertex -15.489999771118164 1.245248794555664 30
      vertex -15.489999785200553 1.245248845061453 30
    endloop
  endfacet
  facet normal -0.9609034284658559 -0.26792603188901765 -0.06985873316035092
    outer loop
      vertex -15.523226737976074 1.5 29.479999542236328
      vertex -15.489999785200553 1.245248845061453 30
      vertex -15.490000000000002 1.2452496154290273 30
    endloop
  endfacet
  facet normal -0.9141760532540203 -0.15897411585112392 -0.37283960914347086
    outer loop
      vertex -15.489999771118164 2.0199995040893555 28.86500644683838
      vertex -15.619169235229492 2.5399999618530273 28.959999084472656
      vertex -15.489999771118164 2.5399999618530273 28.643284797668457
    endloop
  endfacet
  facet normal 1 0 0
    outer loop
      vertex -15.489999771118164 1.8639411926269531 28.959999084472656
      vertex -15.489999771118164 2.5399999618530273 28.643284797668457
      vertex -15.489999771118164 3.059999465942383 28.521737098693848
    endloop
  endfacet
  facet normal 1 0 0
    outer loop
      vertex -15.489999771118164 1.8639411926269531 28.959999084472656
      vertex -15.489999771118164 3.059999465942383 28.521737098693848
      vertex -15.489999771118164 3.5799999237060547 28.49333095550537
    endloop
  endfacet
  facet normal -0.9105388748459183 -0.09409951989097136 -0.402572028028051
    outer loop
      vertex -15.489999771118164 2.5399999618530273 28.643284797668457
      vertex -15.68376636505127 3.059999465942383 28.959999084472656
      vertex -15.489999771118164 3.059999465942383 28.521737098693848
    endloop
  endfacet
  facet normal 1 0 0
    outer loop
      vertex -15.489999771118164 1.3803024291992188 29.479999542236328
      vertex -15.489999771118164 1.8639411926269531 28.959999084472656
      vertex -15.489999771118164 5.1399993896484375 28.992865562438965
    endloop
  endfacet
  facet normal 1 0 0
    outer loop
      vertex -15.489999771118164 1.8639411926269531 28.959999084472656
      vertex -15.489999771118164 3.5799999237060547 28.49333095550537
      vertex -15.489999771118164 4.09999942779541 28.55647850036621
    endloop
  endfacet
  facet normal 1 0 0
    outer loop
      vertex -15.489999771118164 1.245248794555664 30
      vertex -15.489999771118164 1.3803024291992188 29.479999542236328
      vertex -15.489999771118164 5.659999847412109 29.789457321166992
    endloop
  endfacet
  facet normal 1 0 0
    outer loop
      vertex -15.489999771118164 1.245248794555664 30
      vertex -15.489999771118164 5.659999847412109 29.789457321166992
      vertex -15.489999771118164 1.245248845061453 30
    endloop
  endfacet
  facet normal 1 0 0
    outer loop
      vertex -15.489999771118164 1.245248845061453 30
      vertex -15.489999771118164 5.659999847412109 29.789457321166992
      vertex -15.489999771118164 2.245248845061453 30
    endloop
  endfacet
  facet normal -0.9711990374193616 -0.22756763779746855 0.07060736465118579
    outer loop
      vertex -15.523226737976074 1.5 30.519999504089355
      vertex -15.682875633239746 2.0199995040893555 30
      vertex -15.561031341552734 1.5 30
    endloop
  endfacet
  facet normal -0.9803287390075606 -0.18387052013638303 0.07174395654424355
    outer loop
      vertex -15.780406951904297 2.5399999618530273 30
      vertex -15.682875633239746 2.0199995040893555 30
      vertex -15.644820213317871 2.0199995040893555 30.519999504089355
    endloop
  endfacet
  facet normal -0.9712702421434642 -0.22711584012972127 0.07108102340812861
    outer loop
      vertex -15.644820213317871 2.0199995040893555 30.519999504089355
      vertex -15.682875633239746 2.0199995040893555 30
      vertex -15.523226737976074 1.5 30.519999504089355
    endloop
  endfacet
  facet normal -0.9504790647843099 -0.2222541595095166 0.21723866135534434
    outer loop
      vertex -15.525970458984375 2.0199995040893555 31.039999961853027
      vertex -15.644820213317871 2.0199995040893555 30.519999504089355
      vertex -15.523226737976074 1.5 30.519999504089355
    endloop
  endfacet
  facet normal -0.9592603572204599 -0.1781878100008698 0.2192456873746201
    outer loop
      vertex -15.741413116455078 2.5399999618530273 30.519999504089355
      vertex -15.644820213317871 2.0199995040893555 30.519999504089355
      vertex -15.525970458984375 2.0199995040893555 31.039999961853027
    endloop
  endfacet
  facet normal -0.9876062846507373 -0.13838032961824806 0.07405883399778701
    outer loop
      vertex -15.853267669677734 3.059999465942383 30
      vertex -15.780406951904297 2.5399999618530273 30
      vertex -15.741413116455078 2.5399999618530273 30.519999504089355
    endloop
  endfacet
  facet normal -0.9878219812578689 -0.13481441431559005 0.07767114674396684
    outer loop
      vertex -15.81238079071045 3.059999465942383 30.519999504089355
      vertex -15.853267669677734 3.059999465942383 30
      vertex -15.741413116455078 2.5399999618530273 30.519999504089355
    endloop
  endfacet
  facet normal -0.993129322326417 -0.0871569972709601 0.07808845601099748
    outer loop
      vertex -15.898902893066406 3.5799999237060547 30
      vertex -15.853267669677734 3.059999465942383 30
      vertex -15.81238079071045 3.059999465942383 30.519999504089355
    endloop
  endfacet
  facet normal -0.9931470742663443 -0.08098576525529924 0.08426265306892618
    outer loop
      vertex -15.898902893066406 3.5799999237060547 30
      vertex -15.81238079071045 3.059999465942383 30.519999504089355
      vertex -15.85478401184082 3.5799999237060547 30.519999504089355
    endloop
  endfacet
  facet normal -0.9677208867443993 -0.07891239736513998 0.23935145477042727
    outer loop
      vertex -15.85478401184082 3.5799999237060547 30.519999504089355
      vertex -15.81238079071045 3.059999465942383 30.519999504089355
      vertex -15.68376636505127 3.059999465942383 31.039999961853027
    endloop
  endfacet
  facet normal -0.9805201924340524 -0.1821369396080457 0.07352746057973097
    outer loop
      vertex -15.741413116455078 2.5399999618530273 30.519999504089355
      vertex -15.780406951904297 2.5399999618530273 30
      vertex -15.644820213317871 2.0199995040893555 30.519999504089355
    endloop
  endfacet
  facet normal -0.964983800268069 -0.13169754097951314 0.2268524254226637
    outer loop
      vertex -15.81238079071045 3.059999465942383 30.519999504089355
      vertex -15.741413116455078 2.5399999618530273 30.519999504089355
      vertex -15.619169235229492 2.5399999618530273 31.039999961853027
    endloop
  endfacet
  facet normal -0.9643184221092517 -0.059074805145646725 0.2580700450996336
    outer loop
      vertex -15.85478401184082 3.5799999237060547 30.519999504089355
      vertex -15.68376636505127 3.059999465942383 31.039999961853027
      vertex -15.715621948242188 3.5799999237060547 31.039999961853027
    endloop
  endfacet
  facet normal -0.9637657107220229 -0.11972415020340099 0.2383732004537165
    outer loop
      vertex -15.68376636505127 3.059999465942383 31.039999961853027
      vertex -15.81238079071045 3.059999465942383 30.519999504089355
      vertex -15.619169235229492 2.5399999618530273 31.039999961853027
    endloop
  endfacet
  facet normal -0.958976276939429 -0.171875647654665 0.2254401517269741
    outer loop
      vertex -15.619169235229492 2.5399999618530273 31.039999961853027
      vertex -15.741413116455078 2.5399999618530273 30.519999504089355
      vertex -15.525970458984375 2.0199995040893555 31.039999961853027
    endloop
  endfacet
  facet normal -0.9087505725467183 -0.1128898744109716 0.40178137481905096
    outer loop
      vertex -15.68376636505127 3.059999465942383 31.039999961853027
      vertex -15.619169235229492 2.5399999618530273 31.039999961853027
      vertex -15.489999771118164 3.059999465942383 31.478261947631836
    endloop
  endfacet
  facet normal -0.8989329539322995 -0.05506924670836042 0.43461123133384827
    outer loop
      vertex -15.715621948242188 3.5799999237060547 31.039999961853027
      vertex -15.68376636505127 3.059999465942383 31.039999961853027
      vertex -15.489999771118164 3.5799999237060547 31.506668090820312
    endloop
  endfacet
  facet normal -0.9609217398958297 -0.2679311374816424 0.06958674703824295
    outer loop
      vertex -15.490000000000002 1.3803028148953231 30.519997828518317
      vertex -15.561031341552734 1.5 30
      vertex -15.490000000000002 1.2452496154290273 30
    endloop
  endfacet
  facet normal -0.9609217405477652 -0.2679311352718026 0.06958674654426855
    outer loop
      vertex -15.489999771118164 1.245248794555664 30
      vertex -15.489999771118164 1.245248845061453 30.00000019446337
      vertex -15.489999785200553 1.245248845061453 30
    endloop
  endfacet
  facet normal 1 0 0
    outer loop
      vertex -15.489999771118164 1.245248845061453 30
      vertex -15.489999771118164 1.245248845061453 30.00000019446337
      vertex -15.489999771118164 1.245248794555664 30
    endloop
  endfacet
  facet normal -0.961208713539115 -0.26682287580802094 0.06988105581641763
    outer loop
      vertex -15.561031341552734 1.5 30
      vertex -15.490000000000002 1.3803028148953231 30.519997828518317
      vertex -15.523226737976074 1.5 30.519999504089355
    endloop
  endfacet
  facet normal -0.9612087135410425 -0.26682287580855574 0.06988105578786083
    outer loop
      vertex -15.490000000000002 1.3803032537282862 30.519999504089355
      vertex -15.523226737976074 1.5 30.519999504089355
      vertex -15.490000000000002 1.3803028148953231 30.519997828518317
    endloop
  endfacet
  facet normal -0.9431731979489099 -0.2618163792285833 0.20463748981665378
    outer loop
      vertex -15.523226737976074 1.5 30.519999504089355
      vertex -15.490000000000002 1.3803032537282862 30.519999504089355
      vertex -15.490000000000002 1.5 30.673141378251223
    endloop
  endfacet
  facet normal -0.9556776160927412 -0.20901207905242733 0.20735053631345432
    outer loop
      vertex -15.490000000000002 1.5 30.673141378251223
      vertex -15.490000000000002 1.8242602572327182 31
      vertex -15.523226737976074 1.5 30.519999504089355
    endloop
  endfacet
  facet normal -0.9517978190775446 -0.21938480521126888 0.21436235406816043
    outer loop
      vertex -15.525970458984375 2.0199995040893555 31.039999961853027
      vertex -15.523226737976074 1.5 30.519999504089355
      vertex -15.489999771118164 1.8639411926269531 31.039999961853027
    endloop
  endfacet
  facet normal -0.9556776160927514 -0.20901207905239888 0.20735053631343583
    outer loop
      vertex -15.490000000000002 1.8242602572327182 31
      vertex -15.489999771118164 1.8639411926269531 31.039999961853027
      vertex -15.523226737976074 1.5 30.519999504089355
    endloop
  endfacet
  facet normal -0.9556776159599132 -0.20901207935851876 0.20735053661711342
    outer loop
      vertex -15.490000000000002 1.8242602572327182 31
      vertex -15.489999771118164 1.8242592107034943 31
      vertex -15.489999771118164 1.8639411926269531 31.039999961853027
    endloop
  endfacet
  facet normal 1 0 0
    outer loop
      vertex -15.489999771118164 1.8639411926269531 31.039999961853027
      vertex -15.489999771118164 1.8242592107034943 31
      vertex -15.489999771118164 2.245248845061453 31
    endloop
  endfacet
  facet normal -0.9141983926362184 -0.21071831882040884 0.3461778286009305
    outer loop
      vertex -15.489999771118164 1.8639411926269531 31.039999961853027
      vertex -15.489999771118164 2.0199995040893555 31.134992599487305
      vertex -15.525970458984375 2.0199995040893555 31.039999961853027
    endloop
  endfacet
  facet normal 1 0 0
    outer loop
      vertex -15.489999771118164 2.0199995040893555 31.134992599487305
      vertex -15.489999771118164 1.8639411926269531 31.039999961853027
      vertex -15.489999771118164 2.5399999618530273 31.356714248657227
    endloop
  endfacet
  facet normal 1 0 0
    outer loop
      vertex -15.489999771118164 5.659999847412109 30.21054172515869
      vertex -15.489999771118164 5.570128440856934 30.519999504089355
      vertex -15.489999771118164 2.245248845061453 30
    endloop
  endfacet
  facet normal 1 0 0
    outer loop
      vertex -15.489999771118164 2.245248845061453 31
      vertex -15.489999771118164 2.245248845061453 30
      vertex -15.489999771118164 5.099142074584961 31.039999961853027
    endloop
  endfacet
  facet normal -0.971302489525985 -0.22712338065866514 -0.07061475623977473
    outer loop
      vertex -15.561031341552734 1.5 30
      vertex -15.644820213317871 2.0199995040893555 29.479999542236328
      vertex -15.523226737976074 1.5 29.479999542236328
    endloop
  endfacet
  facet normal 1 0 0
    outer loop
      vertex -15.489999771118164 2.5399999618530273 31.356714248657227
      vertex -15.489999771118164 1.8639411926269531 31.039999961853027
      vertex -15.489999771118164 3.059999465942383 31.478261947631836
    endloop
  endfacet
  facet normal -0.9223650519592826 -0.08793036070724577 0.37617942871725923
    outer loop
      vertex -15.489999771118164 3.059999465942383 31.478261947631836
      vertex -15.619169235229492 2.5399999618530273 31.039999961853027
      vertex -15.489999771118164 2.5399999618530273 31.356714248657227
    endloop
  endfacet
  facet normal 1 0 0
    outer loop
      vertex -15.489999771118164 3.5799999237060547 31.506668090820312
      vertex -15.489999771118164 3.059999465942383 31.478261947631836
      vertex -15.489999771118164 1.8639411926269531 31.039999961853027
    endloop
  endfacet
  facet normal -0.8980045740178035 0.27578031345178006 0.34283086756524855
    outer loop
      vertex -15.489999771118164 5.1399993896484375 31.00713348388672
      vertex -15.63714599609375 4.619999885559082 31.039999961853027
      vertex -15.489999771118164 5.099142074584961 31.039999961853027
    endloop
  endfacet
  facet normal -0.828517712690667 0.2544406577840594 0.4988169518212472
    outer loop
      vertex -15.489999771118164 4.619999885559082 31.284404754638672
      vertex -15.489999771118164 5.099142074584961 31.039999961853027
      vertex -15.63714599609375 4.619999885559082 31.039999961853027
    endloop
  endfacet
  facet normal -0.7996057351729707 0.5845331074391169 0.13766522649551996
    outer loop
      vertex -15.489999771118164 5.709585189819336 30
      vertex -15.52624797821045 5.659999847412109 30
      vertex -15.489999771118164 5.659999847412109 30.21054172515869
    endloop
  endfacet
  facet normal 1 0 0
    outer loop
      vertex -15.489999771118164 4.09999942779541 31.443520545959473
      vertex -15.489999771118164 1.8639411926269531 31.039999961853027
      vertex -15.489999771118164 4.619999885559082 31.284404754638672
    endloop
  endfacet
  facet normal 1 0 0
    outer loop
      vertex -15.489999771118164 5.099142074584961 31.039999961853027
      vertex -15.489999771118164 4.619999885559082 31.284404754638672
      vertex -15.489999771118164 1.8639411926269531 31.039999961853027
    endloop
  endfacet
  facet normal -0.9504790647843099 -0.2222541595095166 -0.21723866135534434
    outer loop
      vertex -15.523226737976074 1.5 29.479999542236328
      vertex -15.644820213317871 2.0199995040893555 29.479999542236328
      vertex -15.525970458984375 2.0199995040893555 28.959999084472656
    endloop
  endfacet
  facet normal 1 0 0
    outer loop
      vertex -15.489999771118164 2.245248845061453 30
      vertex -15.489999771118164 5.570128440856934 30.519999504089355
      vertex -15.489999771118164 5.1399993896484375 31.00713348388672
    endloop
  endfacet
  facet normal 1 0 0
    outer loop
      vertex -15.489999771118164 2.245248845061453 30
      vertex -15.489999771118164 5.1399993896484375 31.00713348388672
      vertex -15.489999771118164 5.099142074584961 31.039999961853027
    endloop
  endfacet
  facet normal 1 0 0
    outer loop
      vertex -15.489999771118164 5.099142074584961 31.039999961853027
      vertex -15.489999771118164 1.8639411926269531 31.039999961853027
      vertex -15.489999771118164 2.245248845061453 31
    endloop
  endfacet
  facet normal 1 0 0
    outer loop
      vertex -15.489999771118164 3.5799999237060547 31.506668090820312
      vertex -15.489999771118164 1.8639411926269531 31.039999961853027
      vertex -15.489999771118164 4.09999942779541 31.443520545959473
    endloop
  endfacet
  facet normal -0.9143740761629967 -0.022083990601199987 0.404267666528245
    outer loop
      vertex -15.489999771118164 3.5799999237060547 31.506668090820312
      vertex -15.68376636505127 3.059999465942383 31.039999961853027
      vertex -15.489999771118164 3.059999465942383 31.478261947631836
    endloop
  endfacet
  facet normal -0.9658477447601429 0.018071372855914303 -0.2584793210778153
    outer loop
      vertex -15.715621948242188 3.5799999237060547 28.959999084472656
      vertex -15.85478401184082 3.5799999237060547 29.479999542236328
      vertex -15.705892562866211 4.09999942779541 28.959999084472656
    endloop
  endfacet
  facet normal -0.9503678045354514 0.12564320426538267 -0.2846310266369307
    outer loop
      vertex -15.705892562866211 4.09999942779541 28.959999084472656
      vertex -15.8616304397583 4.09999942779541 29.479999542236328
      vertex -15.63714599609375 4.619999885559082 28.959999084472656
    endloop
  endfacet
  facet normal -0.9001714203558113 0.016842544241305483 -0.4352099983663989
    outer loop
      vertex -15.489999771118164 3.5799999237060547 28.49333095550537
      vertex -15.715621948242188 3.5799999237060547 28.959999084472656
      vertex -15.705892562866211 4.09999942779541 28.959999084472656
    endloop
  endfacet
  facet normal -0.8802902298223909 0.05719418438490176 -0.47097551587294645
    outer loop
      vertex -15.489999771118164 4.09999942779541 28.55647850036621
      vertex -15.489999771118164 3.5799999237060547 28.49333095550537
      vertex -15.705892562866211 4.09999942779541 28.959999084472656
    endloop
  endfacet
  facet normal -0.8758032452672682 0.11578541014990333 -0.4685748759544627
    outer loop
      vertex -15.63714599609375 4.619999885559082 28.959999084472656
      vertex -15.489999771118164 4.09999942779541 28.55647850036621
      vertex -15.705892562866211 4.09999942779541 28.959999084472656
    endloop
  endfacet
  facet normal -0.957882970815416 -0.01261169801412516 -0.28688178627273203
    outer loop
      vertex -15.85478401184082 3.5799999237060547 29.479999542236328
      vertex -15.8616304397583 4.09999942779541 29.479999542236328
      vertex -15.705892562866211 4.09999942779541 28.959999084472656
    endloop
  endfacet
  facet normal -0.9963343339202421 -0.013117957123520048 -0.08453291815981044
    outer loop
      vertex -15.898902893066406 3.5799999237060547 30
      vertex -15.8616304397583 4.09999942779541 29.479999542236328
      vertex -15.85478401184082 3.5799999237060547 29.479999542236328
    endloop
  endfacet
  facet normal -0.9952762258425772 -0.02298452338395099 -0.09432362353815643
    outer loop
      vertex -15.8616304397583 4.09999942779541 29.479999542236328
      vertex -15.898902893066406 3.5799999237060547 30
      vertex -15.910911560058594 4.09999942779541 30
    endloop
  endfacet
  facet normal -0.9413206010141374 0.07798877260538763 -0.32837977625592035
    outer loop
      vertex -15.63714599609375 4.619999885559082 28.959999084472656
      vertex -15.8616304397583 4.09999942779541 29.479999542236328
      vertex -15.818548202514648 4.619999885559082 29.479999542236328
    endloop
  endfacet
  facet normal -0.9921700391728585 0.0822016680475991 -0.09402924618394429
    outer loop
      vertex -15.8616304397583 4.09999942779541 29.479999542236328
      vertex -15.910911560058594 4.09999942779541 30
      vertex -15.818548202514648 4.619999885559082 29.479999542236328
    endloop
  endfacet
  facet normal -0.9917555288517509 0.06680335447982083 -0.10935393373000948
    outer loop
      vertex -15.818548202514648 4.619999885559082 29.479999542236328
      vertex -15.910911560058594 4.09999942779541 30
      vertex -15.875885009765625 4.619999885559082 30
    endloop
  endfacet
  facet normal -0.8866421756818941 0.27229088158772924 -0.37379583746512585
    outer loop
      vertex -15.63714599609375 4.619999885559082 28.959999084472656
      vertex -15.696677207946777 5.1399993896484375 29.479999542236328
      vertex -15.489999771118164 5.099142074584961 28.959999084472656
    endloop
  endfacet
  facet normal -0.8782450634993034 0.29973930968370893 -0.3726150220662583
    outer loop
      vertex -15.489999771118164 5.099142074584961 28.959999084472656
      vertex -15.696677207946777 5.1399993896484375 29.479999542236328
      vertex -15.489999771118164 5.1399993896484375 28.992865562438965
    endloop
  endfacet
  facet normal -0.968055543436638 0.2268807776695321 -0.1067407023850962
    outer loop
      vertex -15.875885009765625 4.619999885559082 30
      vertex -15.696677207946777 5.1399993896484375 29.479999542236328
      vertex -15.818548202514648 4.619999885559082 29.479999542236328
    endloop
  endfacet
  facet normal -0.970271362400422 0.20370824645446128 -0.13067682897927116
    outer loop
      vertex -15.696677207946777 5.1399993896484375 29.479999542236328
      vertex -15.875885009765625 4.619999885559082 30
      vertex -15.766711235046387 5.1399993896484375 30
    endloop
  endfacet
  facet normal -0.9218941364717443 0.2160620431645524 -0.32160285235453984
    outer loop
      vertex -15.63714599609375 4.619999885559082 28.959999084472656
      vertex -15.818548202514648 4.619999885559082 29.479999542236328
      vertex -15.696677207946777 5.1399993896484375 29.479999542236328
    endloop
  endfacet
  facet normal -0.8418868101896031 0.404527449473442 -0.3571892235934436
    outer loop
      vertex -15.489999771118164 5.570128440856934 29.479999542236328
      vertex -15.489999771118164 5.1399993896484375 28.992865562438965
      vertex -15.696677207946777 5.1399993896484375 29.479999542236328
    endloop
  endfacet
  facet normal -0.9009449914076361 0.41662303105580273 -0.12133990461249893
    outer loop
      vertex -15.696677207946777 5.1399993896484375 29.479999542236328
      vertex -15.766711235046387 5.1399993896484375 30
      vertex -15.52624797821045 5.659999847412109 30
    endloop
  endfacet
  facet normal -0.8929231277169164 0.4290504507961389 -0.13639647598039104
    outer loop
      vertex -15.489999771118164 5.570128440856934 29.479999542236328
      vertex -15.696677207946777 5.1399993896484375 29.479999542236328
      vertex -15.52624797821045 5.659999847412109 30
    endloop
  endfacet
  facet normal 1 0 0
    outer loop
      vertex -15.489999771118164 1.8639411926269531 28.959999084472656
      vertex -15.489999771118164 4.09999942779541 28.55647850036621
      vertex -15.489999771118164 4.619999885559082 28.71559429168701
    endloop
  endfacet
  facet normal 1 0 0
    outer loop
      vertex -15.489999771118164 1.8639411926269531 28.959999084472656
      vertex -15.489999771118164 4.619999885559082 28.71559429168701
      vertex -15.489999771118164 5.099142074584961 28.959999084472656
    endloop
  endfacet
  facet normal 1 0 0
    outer loop
      vertex -15.489999771118164 5.1399993896484375 28.992865562438965
      vertex -15.489999771118164 1.8639411926269531 28.959999084472656
      vertex -15.489999771118164 5.099142074584961 28.959999084472656
    endloop
  endfacet
  facet normal -0.8462385752090558 0.1558984445524137 -0.509485965277048
    outer loop
      vertex -15.489999771118164 4.09999942779541 28.55647850036621
      vertex -15.63714599609375 4.619999885559082 28.959999084472656
      vertex -15.489999771118164 4.619999885559082 28.71559429168701
    endloop
  endfacet
  facet normal 1 0 0
    outer loop
      vertex -15.489999771118164 1.3803024291992188 29.479999542236328
      vertex -15.489999771118164 5.1399993896484375 28.992865562438965
      vertex -15.489999771118164 5.570128440856934 29.479999542236328
    endloop
  endfacet
  facet normal 1 0 0
    outer loop
      vertex -15.489999771118164 5.659999847412109 29.789457321166992
      vertex -15.489999771118164 1.3803024291992188 29.479999542236328
      vertex -15.489999771118164 5.570128440856934 29.479999542236328
    endloop
  endfacet
  facet normal 1 0 0
    outer loop
      vertex -15.489999771118164 2.245248845061453 30
      vertex -15.489999771118164 5.659999847412109 29.789457321166992
      vertex -15.489999771118164 5.709585189819336 30
    endloop
  endfacet
  facet normal -0.828517712690667 0.2544406577840594 -0.4988169518212472
    outer loop
      vertex -15.489999771118164 5.099142074584961 28.959999084472656
      vertex -15.489999771118164 4.619999885559082 28.71559429168701
      vertex -15.63714599609375 4.619999885559082 28.959999084472656
    endloop
  endfacet
  facet normal -0.8509229921696556 0.5044481224745724 -0.14649966938160275
    outer loop
      vertex -15.489999771118164 5.659999847412109 29.789457321166992
      vertex -15.489999771118164 5.570128440856934 29.479999542236328
      vertex -15.52624797821045 5.659999847412109 30
    endloop
  endfacet
  facet normal -0.7996058038139423 0.5845331576174969 -0.13766461474459452
    outer loop
      vertex -15.489999771118164 5.709585189819336 30
      vertex -15.489999771118164 5.659999847412109 29.789457321166992
      vertex -15.52624797821045 5.659999847412109 30
    endloop
  endfacet
  facet normal -0.996156357795329 -0.023004848810122863 0.08451797297124396
    outer loop
      vertex -15.910911560058594 4.09999942779541 30
      vertex -15.898902893066406 3.5799999237060547 30
      vertex -15.85478401184082 3.5799999237060547 30.519999504089355
    endloop
  endfacet
  facet normal -0.9954537012882287 -0.01310636252046861 0.09434061613667857
    outer loop
      vertex -15.910911560058594 4.09999942779541 30
      vertex -15.85478401184082 3.5799999237060547 30.519999504089355
      vertex -15.8616304397583 4.09999942779541 30.519999504089355
    endloop
  endfacet
  facet normal -0.9659273711341373 -0.012717612359212725 0.25850063061775225
    outer loop
      vertex -15.8616304397583 4.09999942779541 30.519999504089355
      vertex -15.85478401184082 3.5799999237060547 30.519999504089355
      vertex -15.715621948242188 3.5799999237060547 31.039999961853027
    endloop
  endfacet
  facet normal -0.993308358494046 0.06690795105228574 0.09413729883446183
    outer loop
      vertex -15.875885009765625 4.619999885559082 30
      vertex -15.910911560058594 4.09999942779541 30
      vertex -15.8616304397583 4.09999942779541 30.519999504089355
    endloop
  endfacet
  facet normal -0.9906224959894484 0.08207345350167504 0.10922920245952403
    outer loop
      vertex -15.875885009765625 4.619999885559082 30
      vertex -15.8616304397583 4.09999942779541 30.519999504089355
      vertex -15.818548202514648 4.619999885559082 30.519999504089355
    endloop
  endfacet
  facet normal -0.9549561660164417 0.07911848439238667 0.2860052209569434
    outer loop
      vertex -15.818548202514648 4.619999885559082 30.519999504089355
      vertex -15.8616304397583 4.09999942779541 30.519999504089355
      vertex -15.705892562866211 4.09999942779541 31.039999961853027
    endloop
  endfacet
  facet normal -0.9578053171840998 0.017920896025397447 0.28685852934767825
    outer loop
      vertex -15.705892562866211 4.09999942779541 31.039999961853027
      vertex -15.8616304397583 4.09999942779541 30.519999504089355
      vertex -15.715621948242188 3.5799999237060547 31.039999961853027
    endloop
  endfacet
  facet normal -0.8990440307948613 0.052784710781992164 0.43466493417319735
    outer loop
      vertex -15.489999771118164 4.09999942779541 31.443520545959473
      vertex -15.715621948242188 3.5799999237060547 31.039999961853027
      vertex -15.489999771118164 3.5799999237060547 31.506668090820312
    endloop
  endfacet
  facet normal -0.8816135973420194 0.016495320425858686 0.47168354792775213
    outer loop
      vertex -15.705892562866211 4.09999942779541 31.039999961853027
      vertex -15.715621948242188 3.5799999237060547 31.039999961853027
      vertex -15.489999771118164 4.09999942779541 31.443520545959473
    endloop
  endfacet
  facet normal -0.9369250976123042 0.1238660136200722 0.3268464044991873
    outer loop
      vertex -15.818548202514648 4.619999885559082 30.519999504089355
      vertex -15.705892562866211 4.09999942779541 31.039999961853027
      vertex -15.63714599609375 4.619999885559082 31.039999961853027
    endloop
  endfacet
  facet normal -0.8512707976100183 0.11254210233011001 0.5125156625309341
    outer loop
      vertex -15.63714599609375 4.619999885559082 31.039999961853027
      vertex -15.705892562866211 4.09999942779541 31.039999961853027
      vertex -15.489999771118164 4.619999885559082 31.284404754638672
    endloop
  endfacet
  facet normal -0.8726882627925001 0.14287003159595685 0.46690828869916046
    outer loop
      vertex -15.489999771118164 4.619999885559082 31.284404754638672
      vertex -15.705892562866211 4.09999942779541 31.039999961853027
      vertex -15.489999771118164 4.09999942779541 31.443520545959473
    endloop
  endfacet
  facet normal -0.973014555249134 0.20428417915386105 0.10728769463812324
    outer loop
      vertex -15.766711235046387 5.1399993896484375 30
      vertex -15.875885009765625 4.619999885559082 30
      vertex -15.818548202514648 4.619999885559082 30.519999504089355
    endloop
  endfacet
  facet normal -0.9653539135669309 0.226247603374968 0.1300147819599514
    outer loop
      vertex -15.766711235046387 5.1399993896484375 30
      vertex -15.818548202514648 4.619999885559082 30.519999504089355
      vertex -15.696677207946777 5.1399993896484375 30.519999504089355
    endloop
  endfacet
  facet normal -0.9218941364717443 0.2160620431645524 0.32160285235453984
    outer loop
      vertex -15.696677207946777 5.1399993896484375 30.519999504089355
      vertex -15.818548202514648 4.619999885559082 30.519999504089355
      vertex -15.63714599609375 4.619999885559082 31.039999961853027
    endloop
  endfacet
  facet normal -0.9009449670798206 0.416623019805917 0.12134012387227668
    outer loop
      vertex -15.52624797821045 5.659999847412109 30
      vertex -15.766711235046387 5.1399993896484375 30
      vertex -15.696677207946777 5.1399993896484375 30.519999504089355
    endloop
  endfacet
  facet normal -0.8840369645084266 0.4419427171980356 0.1522014457826995
    outer loop
      vertex -15.52624797821045 5.659999847412109 30
      vertex -15.696677207946777 5.1399993896484375 30.519999504089355
      vertex -15.489999771118164 5.659999847412109 30.21054172515869
    endloop
  endfacet
  facet normal -0.8418868101896031 0.404527449473442 0.3571892235934436
    outer loop
      vertex -15.489999771118164 5.1399993896484375 31.00713348388672
      vertex -15.489999771118164 5.570128440856934 30.519999504089355
      vertex -15.696677207946777 5.1399993896484375 30.519999504089355
    endloop
  endfacet
  facet normal -0.894300557817097 0.42971230732900056 0.12479521312139981
    outer loop
      vertex -15.489999771118164 5.570128440856934 30.519999504089355
      vertex -15.489999771118164 5.659999847412109 30.21054172515869
      vertex -15.696677207946777 5.1399993896484375 30.519999504089355
    endloop
  endfacet
  facet normal -0.8852758738868235 0.2742494659537325 0.3755979999121583
    outer loop
      vertex -15.696677207946777 5.1399993896484375 30.519999504089355
      vertex -15.63714599609375 4.619999885559082 31.039999961853027
      vertex -15.489999771118164 5.1399993896484375 31.00713348388672
    endloop
  endfacet
  facet normal 1 0 0
    outer loop
      vertex -15.489999771118164 2.245248845061453 30
      vertex -15.489999771118164 5.709585189819336 30
      vertex -15.489999771118164 5.659999847412109 30.21054172515869
    endloop
  endfacet
  facet normal -1 0 0
    outer loop
      vertex -15.490000000000002 1.245248845061453 31
      vertex -15.490000000000002 1.5 30.673141378251223
      vertex -15.490000000000002 1.3803032537282862 30.519999504089355
    endloop
  endfacet
  facet normal 0 0 1
    outer loop
      vertex -15.489999771118164 1.8242592107034943 31
      vertex -15.490000000000002 1.8242602572327182 31
      vertex -15.490000000000002 1.245248845061453 31
    endloop
  endfacet
  facet normal -1 0 0
    outer loop
      vertex -15.490000000000002 1.245248845061453 31
      vertex -15.490000000000002 1.8242602572327182 31
      vertex -15.490000000000002 1.5 30.673141378251223
    endloop
  endfacet
  facet normal -1 0 0
    outer loop
      vertex -15.490000000000002 1.3803028148953231 30.519997828518317
      vertex -15.490000000000002 1.245248845061453 31
      vertex -15.490000000000002 1.3803032537282862 30.519999504089355
    endloop
  endfacet
  facet normal -1 0 0
    outer loop
      vertex -15.490000000000002 1.3803028148953231 30.519997828518317
      vertex -15.490000000000002 1.245248845061453 30
      vertex -15.490000000000002 1.245248845061453 31
    endloop
  endfacet
  facet normal -1 0 0
    outer loop
      vertex -15.490000000000002 1.245248845061453 30
      vertex -15.490000000000002 1.3803028148953231 30.519997828518317
      vertex -15.490000000000002 1.2452496154290273 30
    endloop
  endfacet
  facet normal 0 0 -1
    outer loop
      vertex -15.490000000000002 1.245248845061453 30
      vertex -15.490000000000002 1.2452496154290273 30
      vertex -15.489999785200553 1.245248845061453 30
    endloop
  endfacet
  facet normal 0 -1 0
    outer loop
      vertex -15.490000000000002 1.245248845061453 30
      vertex -15.489999785200553 1.245248845061453 30
      vertex -15.489999771118164 1.245248845061453 30.00000019446337
    endloop
  endfacet
  facet normal 0 -1 0
    outer loop
      vertex -15.489999771118164 1.245248845061453 30.00000019446337
      vertex -15.489999771118164 1.245248845061453 30
      vertex -14.490000000000002 1.245248845061453 30
    endloop
  endfacet
  facet normal 0 -1 0
    outer loop
      vertex -14.490000000000002 1.245248845061453 31
      vertex -15.490000000000002 1.245248845061453 30
      vertex -15.489999771118164 1.245248845061453 30.00000019446337
    endloop
  endfacet
  facet normal 0 -1 0
    outer loop
      vertex -15.490000000000002 1.245248845061453 31
      vertex -15.490000000000002 1.245248845061453 30
      vertex -14.490000000000002 1.245248845061453 31
    endloop
  endfacet
  facet normal 0 0 -1
    outer loop
      vertex -14.490000000000002 2.245248845061453 30
      vertex -15.489999771118164 1.245248845061453 30
      vertex -15.489999771118164 2.245248845061453 30
    endloop
  endfacet
  facet normal 0 1 0
    outer loop
      vertex -15.489999771118164 2.245248845061453 31
      vertex -14.490000000000002 2.245248845061453 31
      vertex -15.489999771118164 2.245248845061453 30
    endloop
  endfacet
  facet normal 0 0 1
    outer loop
      vertex -15.489999771118164 1.8242592107034943 31
      vertex -15.490000000000002 1.245248845061453 31
      vertex -14.490000000000002 1.245248845061453 31
    endloop
  endfacet
  facet normal 0 0 1
    outer loop
      vertex -15.489999771118164 1.8242592107034943 31
      vertex -14.490000000000002 1.245248845061453 31
      vertex -15.489999771118164 2.245248845061453 31
    endloop
  endfacet
  facet normal 0 -1 0
    outer loop
      vertex -15.489999771118164 1.245248845061453 30.00000019446337
      vertex -14.490000000000002 1.245248845061453 30
      vertex -14.490000000000002 1.245248845061453 31
    endloop
  endfacet
  facet normal 0 0 -1
    outer loop
      vertex -14.490000000000002 1.245248845061453 30
      vertex -15.489999771118164 1.245248845061453 30
      vertex -14.490000000000002 2.245248845061453 30
    endloop
  endfacet
  facet normal 0 1 0
    outer loop
      vertex -14.490000000000002 2.245248845061453 30
      vertex -15.489999771118164 2.245248845061453 30
      vertex -14.490000000000002 2.245248845061453 31
    endloop
  endfacet
  facet normal 1 0 0
    outer loop
      vertex -14.490000000000002 1.245248845061453 31
      vertex -14.490000000000002 1.245248845061453 30
      vertex -14.490000000000002 2.245248845061453 30
    endloop
  endfacet
  facet normal 1 0 0
    outer loop
      vertex -14.490000000000002 2.245248845061453 31
      vertex -14.490000000000002 1.245248845061453 31
      vertex -14.490000000000002 2.245248845061453 30
    endloop
  endfacet
  facet normal 0 0 1
    outer loop
      vertex -15.489999771118164 2.245248845061453 31
      vertex -14.490000000000002 1.245248845061453 31
      vertex -14.490000000000002 2.245248845061453 31
    endloop
  endfacet
  facet normal -0.9431731162630799 -0.2618169765014407 -0.20463710214483313
    outer loop
      vertex -15.490000000000002 1.380302776709917 29.48
      vertex -15.523226949069112 1.5000000000000004 29.48
      vertex -15.490000000000002 1.5000000000000004 29.326856876055412
    endloop
  endfacet
  facet normal 1 0 0
    outer loop
      vertex -15.490000000000002 1.5000000000000004 29.326856876055412
      vertex -15.490000000000002 1.5000000000000004 29.48
      vertex -15.490000000000002 1.380302776709917 29.48
    endloop
  endfacet
  facet normal -0.9609032251305176 -0.26792665973240354 -0.06985912208442582
    outer loop
      vertex -15.523226949069112 1.5000000000000004 29.48
      vertex -15.490000000000002 1.245248845061453 30
      vertex -15.56103173786974 1.5000000000000004 30
    endloop
  endfacet
  facet normal -0.9612474771428379 -0.266834268063443 -0.06930195577020805
    outer loop
      vertex -15.490000000000002 1.380302776709917 29.48
      vertex -15.490000000000002 1.245248845061453 30
      vertex -15.523226949069112 1.5000000000000004 29.48
    endloop
  endfacet
  facet normal 1 0 0
    outer loop
      vertex -15.490000000000002 1.5000000000000004 29.48
      vertex -15.490000000000002 1.5000000000000004 30
      vertex -15.490000000000002 1.245248845061453 30
    endloop
  endfacet
  facet normal 1 0 0
    outer loop
      vertex -15.490000000000002 1.380302776709917 29.48
      vertex -15.490000000000002 1.5000000000000004 29.48
      vertex -15.490000000000002 1.245248845061453 30
    endloop
  endfacet
  facet normal -0.9612085329774361 -0.26682345748851505 0.06988131842802896
    outer loop
      vertex -15.56103173786974 1.5000000000000004 30
      vertex -15.490000000000002 1.3803027767099207 30.52
      vertex -15.52322694906911 1.5000000000000004 30.52
    endloop
  endfacet
  facet normal -0.9609215459300777 -0.26793176808306923 0.06958699748681536
    outer loop
      vertex -15.490000000000002 1.245248845061453 30
      vertex -15.490000000000002 1.3803027767099207 30.52
      vertex -15.56103173786974 1.5000000000000004 30
    endloop
  endfacet
  facet normal 1 0 0
    outer loop
      vertex -15.490000000000002 1.5000000000000004 30
      vertex -15.490000000000002 1.5000000000000004 30.52
      vertex -15.490000000000002 1.3803027767099207 30.52
    endloop
  endfacet
  facet normal 1 0 0
    outer loop
      vertex -15.490000000000002 1.245248845061453 30
      vertex -15.490000000000002 1.5000000000000004 30
      vertex -15.490000000000002 1.3803027767099207 30.52
    endloop
  endfacet
  facet normal -0.9431731162630824 -0.2618169765014357 0.2046371021448275
    outer loop
      vertex -15.490000000000002 1.3803027767099207 30.52
      vertex -15.490000000000002 1.5000000000000004 30.673143123944584
      vertex -15.52322694906911 1.5000000000000004 30.52
    endloop
  endfacet
  facet normal 1 0 0
    outer loop
      vertex -15.490000000000002 1.3803027767099207 30.52
      vertex -15.490000000000002 1.5000000000000004 30.52
      vertex -15.490000000000002 1.5000000000000004 30.673143123944584
    endloop
  endfacet
  facet normal -0.914198023860887 -0.21071884885030234 -0.3461784798453718
    outer loop
      vertex -15.490000000000002 1.8639418316918062 28.96
      vertex -15.525970759858692 2.02 28.96
      vertex -15.490000000000002 2.02 28.865007389268456
    endloop
  endfacet
  facet normal 1 0 0
    outer loop
      vertex -15.490000000000002 2.02 28.865007389268456
      vertex -15.490000000000002 2.02 28.96
      vertex -15.490000000000002 1.8639418316918062 28.96
    endloop
  endfacet
  facet normal -0.9511240943657675 -0.2192301547886945 -0.21748815220196172
    outer loop
      vertex -15.490000000000002 1.8639418316918062 28.96
      vertex -15.490000000000002 1.5000000000000004 29.326856876055412
      vertex -15.525970759858692 2.02 28.96
    endloop
  endfacet
  facet normal -0.954997652246051 -0.2122417336469454 -0.2072026319887601
    outer loop
      vertex -15.490000000000002 1.5000000000000004 29.326856876055412
      vertex -15.523226949069112 1.5000000000000004 29.48
      vertex -15.525970759858692 2.02 28.96
    endloop
  endfacet
  facet normal -0.9504785889222652 -0.22225506921857882 -0.21723981266559853
    outer loop
      vertex -15.523226949069112 1.5000000000000004 29.48
      vertex -15.644821098943343 2.02 29.48
      vertex -15.525970759858692 2.02 28.96
    endloop
  endfacet
  facet normal 1 0 0
    outer loop
      vertex -15.490000000000002 2.02 29.48
      vertex -15.490000000000002 1.5000000000000004 29.48
      vertex -15.490000000000002 1.5000000000000004 29.326856876055412
    endloop
  endfacet
  facet normal 1 0 0
    outer loop
      vertex -15.490000000000002 2.02 28.96
      vertex -15.490000000000002 2.02 29.48
      vertex -15.490000000000002 1.5000000000000004 29.326856876055412
    endloop
  endfacet
  facet normal 1 0 0
    outer loop
      vertex -15.490000000000002 1.8639418316918062 28.96
      vertex -15.490000000000002 2.02 28.96
      vertex -15.490000000000002 1.5000000000000004 29.326856876055412
    endloop
  endfacet
  facet normal -0.9713022313629701 -0.22712436364139124 -0.07061514561203021
    outer loop
      vertex -15.56103173786974 1.5000000000000004 30
      vertex -15.644821098943343 2.02 29.48
      vertex -15.523226949069112 1.5000000000000004 29.48
    endloop
  endfacet
  facet normal -0.9711669070576643 -0.2275599537556753 -0.07107254098992835
    outer loop
      vertex -15.68287606256101 2.02 30
      vertex -15.644821098943343 2.02 29.48
      vertex -15.56103173786974 1.5000000000000004 30
    endloop
  endfacet
  facet normal 1 0 0
    outer loop
      vertex -15.490000000000002 2.02 30
      vertex -15.490000000000002 1.5000000000000004 30
      vertex -15.490000000000002 1.5000000000000004 29.48
    endloop
  endfacet
  facet normal 1 0 0
    outer loop
      vertex -15.490000000000002 2.02 29.48
      vertex -15.490000000000002 2.02 30
      vertex -15.490000000000002 1.5000000000000004 29.48
    endloop
  endfacet
  facet normal -0.971199052656219 -0.2275674859840363 0.07060764436353843
    outer loop
      vertex -15.52322694906911 1.5000000000000004 30.52
      vertex -15.68287606256101 2.02 30
      vertex -15.56103173786974 1.5000000000000004 30
    endloop
  endfacet
  facet normal -0.9712700755183669 -0.22711684448257147 0.07108009112842552
    outer loop
      vertex -15.644821098943343 2.02 30.52
      vertex -15.68287606256101 2.02 30
      vertex -15.52322694906911 1.5000000000000004 30.52
    endloop
  endfacet
  facet normal 1 0 0
    outer loop
      vertex -15.490000000000002 2.02 30.52
      vertex -15.490000000000002 1.5000000000000004 30.52
      vertex -15.490000000000002 1.5000000000000004 30
    endloop
  endfacet
  facet normal 1 0 0
    outer loop
      vertex -15.490000000000002 2.02 30
      vertex -15.490000000000002 2.02 30.52
      vertex -15.490000000000002 1.5000000000000004 30
    endloop
  endfacet
  facet normal -0.9556779134317237 -0.209011027383427 0.2073502259726549
    outer loop
      vertex -15.490000000000002 1.5000000000000004 30.673143123944584
      vertex -15.490000000000002 1.8639418316918193 31.040000000000003
      vertex -15.52322694906911 1.5000000000000004 30.52
    endloop
  endfacet
  facet normal -0.9517975070649874 -0.219385373619926 0.21436315771727327
    outer loop
      vertex -15.490000000000002 1.8639418316918193 31.040000000000003
      vertex -15.525970759858689 2.02 31.040000000000003
      vertex -15.52322694906911 1.5000000000000004 30.52
    endloop
  endfacet
  facet normal -0.9504785889222636 -0.22225506921858165 0.2172398126656031
    outer loop
      vertex -15.525970759858689 2.02 31.040000000000003
      vertex -15.644821098943343 2.02 30.52
      vertex -15.52322694906911 1.5000000000000004 30.52
    endloop
  endfacet
  facet normal 1 0 0
    outer loop
      vertex -15.490000000000002 1.8639418316918193 31.040000000000003
      vertex -15.490000000000002 1.5000000000000004 30.673143123944584
      vertex -15.490000000000002 1.5000000000000004 30.52
    endloop
  endfacet
  facet normal 1 0 0
    outer loop
      vertex -15.490000000000002 2.02 31.040000000000003
      vertex -15.490000000000002 1.8639418316918193 31.040000000000003
      vertex -15.490000000000002 1.5000000000000004 30.52
    endloop
  endfacet
  facet normal 1 0 0
    outer loop
      vertex -15.490000000000002 2.02 30.52
      vertex -15.490000000000002 2.02 31.040000000000003
      vertex -15.490000000000002 1.5000000000000004 30.52
    endloop
  endfacet
  facet normal -0.9141980238608819 -0.21071884885029807 0.34617847984538747
    outer loop
      vertex -15.490000000000002 1.8639418316918193 31.040000000000003
      vertex -15.490000000000002 2.02 31.134992610731533
      vertex -15.525970759858689 2.02 31.040000000000003
    endloop
  endfacet
  facet normal 1 0 0
    outer loop
      vertex -15.490000000000002 1.8639418316918193 31.040000000000003
      vertex -15.490000000000002 2.02 31.040000000000003
      vertex -15.490000000000002 2.02 31.134992610731533
    endloop
  endfacet
  facet normal -0.9223299449904131 -0.1653072022488786 -0.3492577865397276
    outer loop
      vertex -15.619169235779705 2.540000000000003 28.96
      vertex -15.490000000000002 2.02 28.865007389268456
      vertex -15.525970759858692 2.02 28.96
    endloop
  endfacet
  facet normal -0.9141764018819876 -0.1589741164778325 -0.3728387540642675
    outer loop
      vertex -15.490000000000002 2.540000000000003 28.64328542590672
      vertex -15.490000000000002 2.02 28.865007389268456
      vertex -15.619169235779705 2.540000000000003 28.96
    endloop
  endfacet
  facet normal 1 0 0
    outer loop
      vertex -15.490000000000002 2.540000000000003 28.96
      vertex -15.490000000000002 2.02 28.96
      vertex -15.490000000000002 2.02 28.865007389268456
    endloop
  endfacet
  facet normal 1 0 0
    outer loop
      vertex -15.490000000000002 2.540000000000003 28.64328542590672
      vertex -15.490000000000002 2.540000000000003 28.96
      vertex -15.490000000000002 2.02 28.865007389268456
    endloop
  endfacet
  facet normal -0.9603133098791392 -0.17211487862961114 -0.21948762020507423
    outer loop
      vertex -15.644821098943343 2.02 29.48
      vertex -15.619169235779705 2.540000000000003 28.96
      vertex -15.525970759858692 2.02 28.96
    endloop
  endfacet
  facet normal -0.9579273580920148 -0.17793966061328748 -0.22519470197959995
    outer loop
      vertex -15.741413625231774 2.540000000000003 29.48
      vertex -15.619169235779705 2.540000000000003 28.96
      vertex -15.644821098943343 2.02 29.48
    endloop
  endfacet
  facet normal 1 0 0
    outer loop
      vertex -15.490000000000002 2.540000000000003 29.48
      vertex -15.490000000000002 2.02 29.48
      vertex -15.490000000000002 2.02 28.96
    endloop
  endfacet
  facet normal 1 0 0
    outer loop
      vertex -15.490000000000002 2.540000000000003 28.96
      vertex -15.490000000000002 2.540000000000003 29.48
      vertex -15.490000000000002 2.02 28.96
    endloop
  endfacet
  facet normal -0.9806464172361071 -0.18215983622410314 -0.07176627640330133
    outer loop
      vertex -15.68287606256101 2.02 30
      vertex -15.741413625231774 2.540000000000003 29.48
      vertex -15.644821098943343 2.02 29.48
    endloop
  endfacet
  facet normal -0.9802027822489511 -0.1838470762000278 -0.07350345736165599
    outer loop
      vertex -15.780407391134341 2.540000000000003 30
      vertex -15.741413625231774 2.540000000000003 29.48
      vertex -15.68287606256101 2.02 30
    endloop
  endfacet
  facet normal 1 0 0
    outer loop
      vertex -15.490000000000002 2.540000000000003 30
      vertex -15.490000000000002 2.02 30
      vertex -15.490000000000002 2.02 29.48
    endloop
  endfacet
  facet normal 1 0 0
    outer loop
      vertex -15.490000000000002 2.540000000000003 29.48
      vertex -15.490000000000002 2.540000000000003 30
      vertex -15.490000000000002 2.02 29.48
    endloop
  endfacet
  facet normal -0.980328771778954 -0.18387070682742684 0.07174303027577193
    outer loop
      vertex -15.644821098943343 2.02 30.52
      vertex -15.780407391134341 2.540000000000003 30
      vertex -15.68287606256101 2.02 30
    endloop
  endfacet
  facet normal -0.9805203052130504 -0.182136410303137 0.0735272677772921
    outer loop
      vertex -15.741413625231774 2.540000000000003 30.52
      vertex -15.780407391134341 2.540000000000003 30
      vertex -15.644821098943343 2.02 30.52
    endloop
  endfacet
  facet normal 1 0 0
    outer loop
      vertex -15.490000000000002 2.540000000000003 30.52
      vertex -15.490000000000002 2.02 30.52
      vertex -15.490000000000002 2.02 30
    endloop
  endfacet
  facet normal 1 0 0
    outer loop
      vertex -15.490000000000002 2.540000000000003 30
      vertex -15.490000000000002 2.540000000000003 30.52
      vertex -15.490000000000002 2.02 30
    endloop
  endfacet
  facet normal -0.9592601817755256 -0.17818723908768624 0.21924691898928306
    outer loop
      vertex -15.525970759858689 2.02 31.040000000000003
      vertex -15.741413625231774 2.540000000000003 30.52
      vertex -15.644821098943343 2.02 30.52
    endloop
  endfacet
  facet normal -0.9589760977549792 -0.17187521299123654 0.22544124532536122
    outer loop
      vertex -15.619169235779701 2.540000000000003 31.040000000000003
      vertex -15.741413625231774 2.540000000000003 30.52
      vertex -15.525970759858689 2.02 31.040000000000003
    endloop
  endfacet
  facet normal 1 0 0
    outer loop
      vertex -15.490000000000002 2.540000000000003 31.040000000000003
      vertex -15.490000000000002 2.02 31.040000000000003
      vertex -15.490000000000002 2.02 30.52
    endloop
  endfacet
  facet normal 1 0 0
    outer loop
      vertex -15.490000000000002 2.540000000000003 30.52
      vertex -15.490000000000002 2.540000000000003 31.040000000000003
      vertex -15.490000000000002 2.02 30.52
    endloop
  endfacet
  facet normal -0.9247139084103301 -0.149304380596764 0.35016051965792533
    outer loop
      vertex -15.490000000000002 2.540000000000003 31.35671457409326
      vertex -15.525970759858689 2.02 31.040000000000003
      vertex -15.490000000000002 2.02 31.134992610731533
    endloop
  endfacet
  facet normal -0.9134583877889105 -0.16371717222921298 0.3725459183716211
    outer loop
      vertex -15.619169235779701 2.540000000000003 31.040000000000003
      vertex -15.525970759858689 2.02 31.040000000000003
      vertex -15.490000000000002 2.540000000000003 31.35671457409326
    endloop
  endfacet
  facet normal 1 0 0
    outer loop
      vertex -15.490000000000002 2.540000000000003 31.35671457409326
      vertex -15.490000000000002 2.02 31.134992610731533
      vertex -15.490000000000002 2.02 31.040000000000003
    endloop
  endfacet
  facet normal 1 0 0
    outer loop
      vertex -15.490000000000002 2.540000000000003 31.040000000000003
      vertex -15.490000000000002 2.540000000000003 31.35671457409326
      vertex -15.490000000000002 2.02 31.040000000000003
    endloop
  endfacet
  facet normal -0.9198862941751749 -0.11427408024155557 -0.3751674830973627
    outer loop
      vertex -15.683766917147368 3.0600000000000027 28.96
      vertex -15.490000000000002 2.540000000000003 28.64328542590672
      vertex -15.619169235779705 2.540000000000003 28.96
    endloop
  endfacet
  facet normal -0.9105387396481421 -0.09409953992469096 -0.40257232913593866
    outer loop
      vertex -15.490000000000002 3.0600000000000027 28.521737676050527
      vertex -15.490000000000002 2.540000000000003 28.64328542590672
      vertex -15.683766917147368 3.0600000000000027 28.96
    endloop
  endfacet
  facet normal 1 0 0
    outer loop
      vertex -15.490000000000002 3.0600000000000027 28.96
      vertex -15.490000000000002 2.540000000000003 28.96
      vertex -15.490000000000002 2.540000000000003 28.64328542590672
    endloop
  endfacet
  facet normal 1 0 0
    outer loop
      vertex -15.490000000000002 3.0600000000000027 28.521737676050527
      vertex -15.490000000000002 3.0600000000000027 28.96
      vertex -15.490000000000002 2.540000000000003 28.64328542590672
    endloop
  endfacet
  facet normal -0.9664216383008273 -0.12005499434186995 -0.2271915829372174
    outer loop
      vertex -15.741413625231774 2.540000000000003 29.48
      vertex -15.683766917147368 3.0600000000000027 28.96
      vertex -15.619169235779705 2.540000000000003 28.96
    endloop
  endfacet
  facet normal -0.9623395503019737 -0.13133586434243505 -0.23801991652385027
    outer loop
      vertex -15.81238093550873 3.0600000000000027 29.48
      vertex -15.683766917147368 3.0600000000000027 28.96
      vertex -15.741413625231774 2.540000000000003 29.48
    endloop
  endfacet
  facet normal 1 0 0
    outer loop
      vertex -15.490000000000002 3.0600000000000027 29.48
      vertex -15.490000000000002 2.540000000000003 29.48
      vertex -15.490000000000002 2.540000000000003 28.96
    endloop
  endfacet
  facet normal 1 0 0
    outer loop
      vertex -15.490000000000002 3.0600000000000027 28.96
      vertex -15.490000000000002 3.0600000000000027 29.48
      vertex -15.490000000000002 2.540000000000003 28.96
    endloop
  endfacet
  facet normal -0.9880917430465964 -0.134850410213242 -0.07409503484349815
    outer loop
      vertex -15.780407391134341 2.540000000000003 30
      vertex -15.81238093550873 3.0600000000000027 29.48
      vertex -15.741413625231774 2.540000000000003 29.48
    endloop
  endfacet
  facet normal -0.9873371366322335 -0.13834196137591984 -0.07763298493247373
    outer loop
      vertex -15.853267832868413 3.0600000000000027 30
      vertex -15.81238093550873 3.0600000000000027 29.48
      vertex -15.780407391134341 2.540000000000003 30
    endloop
  endfacet
  facet normal 1 0 0
    outer loop
      vertex -15.490000000000002 3.0600000000000027 30
      vertex -15.490000000000002 2.540000000000003 30
      vertex -15.490000000000002 2.540000000000003 29.48
    endloop
  endfacet
  facet normal 1 0 0
    outer loop
      vertex -15.490000000000002 3.0600000000000027 29.48
      vertex -15.490000000000002 3.0600000000000027 30
      vertex -15.490000000000002 2.540000000000003 29.48
    endloop
  endfacet
  facet normal -0.9876063891618371 -0.13837968802639086 0.07405863912087851
    outer loop
      vertex -15.741413625231774 2.540000000000003 30.52
      vertex -15.853267832868413 3.0600000000000027 30
      vertex -15.780407391134341 2.540000000000003 30
    endloop
  endfacet
  facet normal -0.9878220934621229 -0.13481360962530473 0.07767111643271904
    outer loop
      vertex -15.81238093550873 3.0600000000000027 30.52
      vertex -15.853267832868413 3.0600000000000027 30
      vertex -15.741413625231774 2.540000000000003 30.52
    endloop
  endfacet
  facet normal 1 0 0
    outer loop
      vertex -15.490000000000002 3.0600000000000027 30.52
      vertex -15.490000000000002 2.540000000000003 30.52
      vertex -15.490000000000002 2.540000000000003 30
    endloop
  endfacet
  facet normal 1 0 0
    outer loop
      vertex -15.490000000000002 3.0600000000000027 30
      vertex -15.490000000000002 3.0600000000000027 30.52
      vertex -15.490000000000002 2.540000000000003 30
    endloop
  endfacet
  facet normal -0.9649836518916243 -0.13169671968458224 0.22685353337831202
    outer loop
      vertex -15.619169235779701 2.540000000000003 31.040000000000003
      vertex -15.81238093550873 3.0600000000000027 30.52
      vertex -15.741413625231774 2.540000000000003 30.52
    endloop
  endfacet
  facet normal -0.9637657311600222 -0.11972506079720543 0.2383726604682117
    outer loop
      vertex -15.683766917147363 3.0600000000000027 31.040000000000003
      vertex -15.81238093550873 3.0600000000000027 30.52
      vertex -15.619169235779701 2.540000000000003 31.040000000000003
    endloop
  endfacet
  facet normal 1 0 0
    outer loop
      vertex -15.490000000000002 3.0600000000000027 31.040000000000003
      vertex -15.490000000000002 2.540000000000003 31.040000000000003
      vertex -15.490000000000002 2.540000000000003 30.52
    endloop
  endfacet
  facet normal 1 0 0
    outer loop
      vertex -15.490000000000002 3.0600000000000027 30.52
      vertex -15.490000000000002 3.0600000000000027 31.040000000000003
      vertex -15.490000000000002 2.540000000000003 30.52
    endloop
  endfacet
  facet normal -0.9223654239750204 -0.08793011392958003 0.37617857424328666
    outer loop
      vertex -15.490000000000002 3.0600000000000027 31.47826232394945
      vertex -15.619169235779701 2.540000000000003 31.040000000000003
      vertex -15.490000000000002 2.540000000000003 31.35671457409326
    endloop
  endfacet
  facet normal -0.908750353201679 -0.1128907033824467 0.4017816380145314
    outer loop
      vertex -15.683766917147363 3.0600000000000027 31.040000000000003
      vertex -15.619169235779701 2.540000000000003 31.040000000000003
      vertex -15.490000000000002 3.0600000000000027 31.47826232394945
    endloop
  endfacet
  facet normal 1 0 0
    outer loop
      vertex -15.490000000000002 3.0600000000000027 31.47826232394945
      vertex -15.490000000000002 2.540000000000003 31.35671457409326
      vertex -15.490000000000002 2.540000000000003 31.040000000000003
    endloop
  endfacet
  facet normal 1 0 0
    outer loop
      vertex -15.490000000000002 3.0600000000000027 31.040000000000003
      vertex -15.490000000000002 3.0600000000000027 31.47826232394945
      vertex -15.490000000000002 2.540000000000003 31.040000000000003
    endloop
  endfacet
  facet normal -0.9131648441418214 -0.055940252118410645 -0.4037333967067521
    outer loop
      vertex -15.715621988319004 3.5800000000000023 28.96
      vertex -15.490000000000002 3.0600000000000027 28.521737676050527
      vertex -15.683766917147368 3.0600000000000027 28.96
    endloop
  endfacet
  facet normal -0.90004491839624 -0.02377075401806652 -0.4351483610477217
    outer loop
      vertex -15.490000000000002 3.5800000000000023 28.493331750173585
      vertex -15.490000000000002 3.0600000000000027 28.521737676050527
      vertex -15.715621988319004 3.5800000000000023 28.96
    endloop
  endfacet
  facet normal 1 0 0
    outer loop
      vertex -15.490000000000002 3.5800000000000023 28.96
      vertex -15.490000000000002 3.0600000000000027 28.96
      vertex -15.490000000000002 3.0600000000000027 28.521737676050527
    endloop
  endfacet
  facet normal 1 0 0
    outer loop
      vertex -15.490000000000002 3.5800000000000023 28.493331750173585
      vertex -15.490000000000002 3.5800000000000023 28.96
      vertex -15.490000000000002 3.0600000000000027 28.521737676050527
    endloop
  endfacet
  facet normal -0.9690362929625788 -0.059362923231194575 -0.2396762530306048
    outer loop
      vertex -15.81238093550873 3.0600000000000027 29.48
      vertex -15.715621988319004 3.5800000000000023 28.96
      vertex -15.683766917147368 3.0600000000000027 28.96
    endloop
  endfacet
  facet normal -0.9630222553411406 -0.07852907259818243 -0.25772334095795857
    outer loop
      vertex -15.85478402383257 3.5800000000000023 29.48
      vertex -15.715621988319004 3.5800000000000023 28.96
      vertex -15.81238093550873 3.0600000000000027 29.48
    endloop
  endfacet
  facet normal 1 0 0
    outer loop
      vertex -15.490000000000002 3.5800000000000023 29.48
      vertex -15.490000000000002 3.0600000000000027 29.48
      vertex -15.490000000000002 3.0600000000000027 28.96
    endloop
  endfacet
  facet normal 1 0 0
    outer loop
      vertex -15.490000000000002 3.5800000000000023 28.96
      vertex -15.490000000000002 3.5800000000000023 29.48
      vertex -15.490000000000002 3.0600000000000027 28.96
    endloop
  endfacet
  facet normal -0.9936451173467954 -0.08102619552578738 -0.07812897293251826
    outer loop
      vertex -15.853267832868413 3.0600000000000027 30
      vertex -15.85478402383257 3.5800000000000023 29.48
      vertex -15.81238093550873 3.0600000000000027 29.48
    endloop
  endfacet
  facet normal -0.9926318676618238 -0.08711447592127117 -0.08422020771264972
    outer loop
      vertex -15.89890361079862 3.5800000000000023 30
      vertex -15.85478402383257 3.5800000000000023 29.48
      vertex -15.853267832868413 3.0600000000000027 30
    endloop
  endfacet
  facet normal 1 0 0
    outer loop
      vertex -15.490000000000002 3.5800000000000023 30
      vertex -15.490000000000002 3.0600000000000027 30
      vertex -15.490000000000002 3.0600000000000027 29.48
    endloop
  endfacet
  facet normal 1 0 0
    outer loop
      vertex -15.490000000000002 3.5800000000000023 29.48
      vertex -15.490000000000002 3.5800000000000023 30
      vertex -15.490000000000002 3.0600000000000027 29.48
    endloop
  endfacet
  facet normal -0.9931292270620966 -0.08715812473500645 0.07808840917651953
    outer loop
      vertex -15.81238093550873 3.0600000000000027 30.52
      vertex -15.89890361079862 3.5800000000000023 30
      vertex -15.853267832868413 3.0600000000000027 30
    endloop
  endfacet
  facet normal -0.9931469828586262 -0.08098557544752008 0.08426391284673214
    outer loop
      vertex -15.85478402383257 3.5800000000000023 30.52
      vertex -15.89890361079862 3.5800000000000023 30
      vertex -15.81238093550873 3.0600000000000027 30.52
    endloop
  endfacet
  facet normal 1 0 0
    outer loop
      vertex -15.490000000000002 3.5800000000000023 30.52
      vertex -15.490000000000002 3.0600000000000027 30.52
      vertex -15.490000000000002 3.0600000000000027 30
    endloop
  endfacet
  facet normal 1 0 0
    outer loop
      vertex -15.490000000000002 3.5800000000000023 30
      vertex -15.490000000000002 3.5800000000000023 30.52
      vertex -15.490000000000002 3.0600000000000027 30
    endloop
  endfacet
  facet normal -0.9677210270765756 -0.07891223112301167 0.23935094220212752
    outer loop
      vertex -15.683766917147363 3.0600000000000027 31.040000000000003
      vertex -15.85478402383257 3.5800000000000023 30.52
      vertex -15.81238093550873 3.0600000000000027 30.52
    endloop
  endfacet
  facet normal -0.9643184296617106 -0.05907390809422246 0.25807022222109977
    outer loop
      vertex -15.715621988319 3.5800000000000023 31.040000000000003
      vertex -15.85478402383257 3.5800000000000023 30.52
      vertex -15.683766917147363 3.0600000000000027 31.040000000000003
    endloop
  endfacet
  facet normal 1 0 0
    outer loop
      vertex -15.490000000000002 3.5800000000000023 31.040000000000003
      vertex -15.490000000000002 3.0600000000000027 31.040000000000003
      vertex -15.490000000000002 3.0600000000000027 30.52
    endloop
  endfacet
  facet normal 1 0 0
    outer loop
      vertex -15.490000000000002 3.5800000000000023 30.52
      vertex -15.490000000000002 3.5800000000000023 31.040000000000003
      vertex -15.490000000000002 3.0600000000000027 30.52
    endloop
  endfacet
  facet normal -0.9143739448194693 -0.022083857720537586 0.4042679708602466
    outer loop
      vertex -15.490000000000002 3.5800000000000023 31.506668249826397
      vertex -15.683766917147363 3.0600000000000027 31.040000000000003
      vertex -15.490000000000002 3.0600000000000027 31.47826232394945
    endloop
  endfacet
  facet normal -0.8989331814131 -0.05506842398550191 0.43461086506698793
    outer loop
      vertex -15.715621988319 3.5800000000000023 31.040000000000003
      vertex -15.683766917147363 3.0600000000000027 31.040000000000003
      vertex -15.490000000000002 3.5800000000000023 31.506668249826397
    endloop
  endfacet
  facet normal 1 0 0
    outer loop
      vertex -15.490000000000002 3.5800000000000023 31.506668249826397
      vertex -15.490000000000002 3.0600000000000027 31.47826232394945
      vertex -15.490000000000002 3.0600000000000027 31.040000000000003
    endloop
  endfacet
  facet normal 1 0 0
    outer loop
      vertex -15.490000000000002 3.5800000000000023 31.040000000000003
      vertex -15.490000000000002 3.5800000000000023 31.506668249826397
      vertex -15.490000000000002 3.0600000000000027 31.040000000000003
    endloop
  endfacet
  facet normal -0.9001716117236871 0.01684224874858055 -0.43520961398373353
    outer loop
      vertex -15.705892766429312 4.100000000000001 28.96
      vertex -15.490000000000002 3.5800000000000023 28.493331750173585
      vertex -15.715621988319004 3.5800000000000023 28.96
    endloop
  endfacet
  facet normal -0.8802903992581731 0.05719395284509667 -0.4709752273016483
    outer loop
      vertex -15.490000000000002 4.100000000000001 28.556479138306596
      vertex -15.490000000000002 3.5800000000000023 28.493331750173585
      vertex -15.705892766429312 4.100000000000001 28.96
    endloop
  endfacet
  facet normal 1 0 0
    outer loop
      vertex -15.490000000000002 4.100000000000001 28.96
      vertex -15.490000000000002 3.5800000000000023 28.96
      vertex -15.490000000000002 3.5800000000000023 28.493331750173585
    endloop
  endfacet
  facet normal 1 0 0
    outer loop
      vertex -15.490000000000002 4.100000000000001 28.556479138306596
      vertex -15.490000000000002 4.100000000000001 28.96
      vertex -15.490000000000002 3.5800000000000023 28.493331750173585
    endloop
  endfacet
  facet normal -0.9658477065776159 0.0180710512479697 -0.2584794862374051
    outer loop
      vertex -15.85478402383257 3.5800000000000023 29.48
      vertex -15.705892766429312 4.100000000000001 28.96
      vertex -15.715621988319004 3.5800000000000023 28.96
    endloop
  endfacet
  facet normal -0.9578825448208044 -0.012613261919588073 -0.28688313988690134
    outer loop
      vertex -15.86163131031216 4.100000000000001 29.48
      vertex -15.705892766429312 4.100000000000001 28.96
      vertex -15.85478402383257 3.5800000000000023 29.48
    endloop
  endfacet
  facet normal 1 0 0
    outer loop
      vertex -15.490000000000002 4.100000000000001 29.48
      vertex -15.490000000000002 3.5800000000000023 29.48
      vertex -15.490000000000002 3.5800000000000023 28.96
    endloop
  endfacet
  facet normal 1 0 0
    outer loop
      vertex -15.490000000000002 4.100000000000001 28.96
      vertex -15.490000000000002 4.100000000000001 29.48
      vertex -15.490000000000002 3.5800000000000023 28.96
    endloop
  endfacet
  facet normal -0.996334192425681 -0.013119587778747293 -0.08453433278841041
    outer loop
      vertex -15.89890361079862 3.5800000000000023 30
      vertex -15.86163131031216 4.100000000000001 29.48
      vertex -15.85478402383257 3.5800000000000023 29.48
    endloop
  endfacet
  facet normal -0.9952762901107308 -0.02298412520722892 -0.09432304242272252
    outer loop
      vertex -15.910912080433146 4.100000000000001 30
      vertex -15.86163131031216 4.100000000000001 29.48
      vertex -15.89890361079862 3.5800000000000023 30
    endloop
  endfacet
  facet normal 1 0 0
    outer loop
      vertex -15.490000000000002 4.100000000000001 30
      vertex -15.490000000000002 3.5800000000000023 30
      vertex -15.490000000000002 3.5800000000000023 29.48
    endloop
  endfacet
  facet normal 1 0 0
    outer loop
      vertex -15.490000000000002 4.100000000000001 29.48
      vertex -15.490000000000002 4.100000000000001 30
      vertex -15.490000000000002 3.5800000000000023 29.48
    endloop
  endfacet
  facet normal -0.996156259920417 -0.023004446535572997 0.08451923604102562
    outer loop
      vertex -15.85478402383257 3.5800000000000023 30.52
      vertex -15.910912080433146 4.100000000000001 30
      vertex -15.89890361079862 3.5800000000000023 30
    endloop
  endfacet
  facet normal -0.9954537514102734 -0.013107994255934511 0.09433986055639539
    outer loop
      vertex -15.861631310312157 4.100000000000001 30.52
      vertex -15.910912080433146 4.100000000000001 30
      vertex -15.85478402383257 3.5800000000000023 30.52
    endloop
  endfacet
  facet normal 1 0 0
    outer loop
      vertex -15.490000000000002 4.100000000000001 30.52
      vertex -15.490000000000002 3.5800000000000023 30.52
      vertex -15.490000000000002 3.5800000000000023 30
    endloop
  endfacet
  facet normal 1 0 0
    outer loop
      vertex -15.490000000000002 4.100000000000001 30
      vertex -15.490000000000002 4.100000000000001 30.52
      vertex -15.490000000000002 3.5800000000000023 30
    endloop
  endfacet
  facet normal -0.96592730789639 -0.012719194222351998 0.2585007890865449
    outer loop
      vertex -15.715621988319 3.5800000000000023 31.040000000000003
      vertex -15.861631310312157 4.100000000000001 30.52
      vertex -15.85478402383257 3.5800000000000023 30.52
    endloop
  endfacet
  facet normal -0.9578049157123301 0.01792057029231768 0.28685989018629676
    outer loop
      vertex -15.705892766429306 4.100000000000001 31.040000000000003
      vertex -15.861631310312157 4.100000000000001 30.52
      vertex -15.715621988319 3.5800000000000023 31.040000000000003
    endloop
  endfacet
  facet normal 1 0 0
    outer loop
      vertex -15.490000000000002 4.100000000000001 31.040000000000003
      vertex -15.490000000000002 3.5800000000000023 31.040000000000003
      vertex -15.490000000000002 3.5800000000000023 30.52
    endloop
  endfacet
  facet normal 1 0 0
    outer loop
      vertex -15.490000000000002 4.100000000000001 30.52
      vertex -15.490000000000002 4.100000000000001 31.040000000000003
      vertex -15.490000000000002 3.5800000000000023 30.52
    endloop
  endfacet
  facet normal -0.8990442282782328 0.05278448318789943 0.434664553344511
    outer loop
      vertex -15.490000000000002 4.100000000000001 31.443520861693386
      vertex -15.715621988319 3.5800000000000023 31.040000000000003
      vertex -15.490000000000002 3.5800000000000023 31.506668249826397
    endloop
  endfacet
  facet normal -0.8816137595358359 0.016495030552945638 0.47168325491175417
    outer loop
      vertex -15.705892766429306 4.100000000000001 31.040000000000003
      vertex -15.715621988319 3.5800000000000023 31.040000000000003
      vertex -15.490000000000002 4.100000000000001 31.443520861693386
    endloop
  endfacet
  facet normal 1 0 0
    outer loop
      vertex -15.490000000000002 4.100000000000001 31.443520861693386
      vertex -15.490000000000002 3.5800000000000023 31.506668249826397
      vertex -15.490000000000002 3.5800000000000023 31.040000000000003
    endloop
  endfacet
  facet normal 1 0 0
    outer loop
      vertex -15.490000000000002 4.100000000000001 31.040000000000003
      vertex -15.490000000000002 4.100000000000001 31.443520861693386
      vertex -15.490000000000002 3.5800000000000023 31.040000000000003
    endloop
  endfacet
  facet normal -0.8758034058365304 0.11578537480179807 -0.4685745845723399
    outer loop
      vertex -15.63714629376696 4.620000000000001 28.96
      vertex -15.490000000000002 4.100000000000001 28.556479138306596
      vertex -15.705892766429312 4.100000000000001 28.96
    endloop
  endfacet
  facet normal -0.8462385677541079 0.15589869424531771 -0.5094859012554528
    outer loop
      vertex -15.490000000000002 4.620000000000001 28.715595064395625
      vertex -15.490000000000002 4.100000000000001 28.556479138306596
      vertex -15.63714629376696 4.620000000000001 28.96
    endloop
  endfacet
  facet normal 1 0 0
    outer loop
      vertex -15.490000000000002 4.620000000000001 28.96
      vertex -15.490000000000002 4.100000000000001 28.96
      vertex -15.490000000000002 4.100000000000001 28.556479138306596
    endloop
  endfacet
  facet normal 1 0 0
    outer loop
      vertex -15.490000000000002 4.620000000000001 28.715595064395625
      vertex -15.490000000000002 4.620000000000001 28.96
      vertex -15.490000000000002 4.100000000000001 28.556479138306596
    endloop
  endfacet
  facet normal -0.9503674143385995 0.12564309128657267 -0.2846323793515394
    outer loop
      vertex -15.86163131031216 4.100000000000001 29.48
      vertex -15.63714629376696 4.620000000000001 28.96
      vertex -15.705892766429312 4.100000000000001 28.96
    endloop
  endfacet
  facet normal -0.9413205270575808 0.07799028191407377 -0.3283796297991114
    outer loop
      vertex -15.818548273844138 4.620000000000001 29.48
      vertex -15.63714629376696 4.620000000000001 28.96
      vertex -15.86163131031216 4.100000000000001 29.48
    endloop
  endfacet
  facet normal 1 0 0
    outer loop
      vertex -15.490000000000002 4.620000000000001 29.48
      vertex -15.490000000000002 4.100000000000001 29.48
      vertex -15.490000000000002 4.100000000000001 28.96
    endloop
  endfacet
  facet normal 1 0 0
    outer loop
      vertex -15.490000000000002 4.620000000000001 28.96
      vertex -15.490000000000002 4.620000000000001 29.48
      vertex -15.490000000000002 4.100000000000001 28.96
    endloop
  endfacet
  facet normal -0.9921699635101336 0.0822032590776577 -0.09402865363979032
    outer loop
      vertex -15.910912080433146 4.100000000000001 30
      vertex -15.818548273844138 4.620000000000001 29.48
      vertex -15.86163131031216 4.100000000000001 29.48
    endloop
  endfacet
  facet normal -0.991755387901189 0.06680260448524433 -0.10935567019112469
    outer loop
      vertex -15.875885949235775 4.620000000000001 30
      vertex -15.818548273844138 4.620000000000001 29.48
      vertex -15.910912080433146 4.100000000000001 30
    endloop
  endfacet
  facet normal 1 0 0
    outer loop
      vertex -15.490000000000002 4.620000000000001 30
      vertex -15.490000000000002 4.100000000000001 30
      vertex -15.490000000000002 4.100000000000001 29.48
    endloop
  endfacet
  facet normal 1 0 0
    outer loop
      vertex -15.490000000000002 4.620000000000001 29.48
      vertex -15.490000000000002 4.620000000000001 30
      vertex -15.490000000000002 4.100000000000001 29.48
    endloop
  endfacet
  facet normal -0.9933084787276604 0.0669072174911086 0.09413655153732099
    outer loop
      vertex -15.861631310312157 4.100000000000001 30.52
      vertex -15.875885949235775 4.620000000000001 30
      vertex -15.910912080433146 4.100000000000001 30
    endloop
  endfacet
  facet normal -0.9906221986406196 0.08207502367319817 0.10923071934885582
    outer loop
      vertex -15.818548273844138 4.620000000000001 30.52
      vertex -15.875885949235775 4.620000000000001 30
      vertex -15.861631310312157 4.100000000000001 30.52
    endloop
  endfacet
  facet normal 1 0 0
    outer loop
      vertex -15.490000000000002 4.620000000000001 30.52
      vertex -15.490000000000002 4.100000000000001 30.52
      vertex -15.490000000000002 4.100000000000001 30
    endloop
  endfacet
  facet normal 1 0 0
    outer loop
      vertex -15.490000000000002 4.620000000000001 30
      vertex -15.490000000000002 4.620000000000001 30.52
      vertex -15.490000000000002 4.100000000000001 30
    endloop
  endfacet
  facet normal -0.9549556465453933 0.07911997874126135 0.28600654204939485
    outer loop
      vertex -15.705892766429306 4.100000000000001 31.040000000000003
      vertex -15.818548273844138 4.620000000000001 30.52
      vertex -15.861631310312157 4.100000000000001 30.52
    endloop
  endfacet
  facet normal -0.9369251414127151 0.12386595888615119 0.3268462996853082
    outer loop
      vertex -15.637146293766955 4.620000000000001 31.040000000000003
      vertex -15.818548273844138 4.620000000000001 30.52
      vertex -15.705892766429306 4.100000000000001 31.040000000000003
    endloop
  endfacet
  facet normal 1 0 0
    outer loop
      vertex -15.490000000000002 4.620000000000001 31.040000000000003
      vertex -15.490000000000002 4.100000000000001 31.040000000000003
      vertex -15.490000000000002 4.100000000000001 30.52
    endloop
  endfacet
  facet normal 1 0 0
    outer loop
      vertex -15.490000000000002 4.620000000000001 30.52
      vertex -15.490000000000002 4.620000000000001 31.040000000000003
      vertex -15.490000000000002 4.100000000000001 30.52
    endloop
  endfacet
  facet normal -0.8726883995527116 0.14287018572714585 0.46690798592058547
    outer loop
      vertex -15.490000000000002 4.620000000000001 31.28440493560436
      vertex -15.705892766429306 4.100000000000001 31.040000000000003
      vertex -15.490000000000002 4.100000000000001 31.443520861693386
    endloop
  endfacet
  facet normal -0.8512708290065938 0.11254205148953601 0.5125156215462637
    outer loop
      vertex -15.637146293766955 4.620000000000001 31.040000000000003
      vertex -15.705892766429306 4.100000000000001 31.040000000000003
      vertex -15.490000000000002 4.620000000000001 31.28440493560436
    endloop
  endfacet
  facet normal 1 0 0
    outer loop
      vertex -15.490000000000002 4.620000000000001 31.28440493560436
      vertex -15.490000000000002 4.100000000000001 31.443520861693386
      vertex -15.490000000000002 4.100000000000001 31.040000000000003
    endloop
  endfacet
  facet normal 1 0 0
    outer loop
      vertex -15.490000000000002 4.620000000000001 31.040000000000003
      vertex -15.490000000000002 4.620000000000001 31.28440493560436
      vertex -15.490000000000002 4.100000000000001 31.040000000000003
    endloop
  endfacet
  facet normal -0.8285177303127103 0.2544406938709086 -0.4988169041441615
    outer loop
      vertex -15.490000000000002 4.620000000000001 28.715595064395625
      vertex -15.63714629376696 4.620000000000001 28.96
      vertex -15.490000000000002 5.099142355261699 28.96
    endloop
  endfacet
  facet normal 1 0 0
    outer loop
      vertex -15.490000000000002 5.099142355261699 28.96
      vertex -15.490000000000002 4.620000000000001 28.96
      vertex -15.490000000000002 4.620000000000001 28.715595064395625
    endloop
  endfacet
  facet normal -0.8782472402876409 0.299732127036833 -0.3726156692211411
    outer loop
      vertex -15.490000000000002 5.140000000000001 28.992865898497303
      vertex -15.490000000000002 5.099142355261699 28.96
      vertex -15.696677335157261 5.140000000000001 29.48
    endloop
  endfacet
  facet normal -0.8866420580856728 0.2722908783005777 -0.3737961187972693
    outer loop
      vertex -15.490000000000002 5.099142355261699 28.96
      vertex -15.63714629376696 4.620000000000001 28.96
      vertex -15.696677335157261 5.140000000000001 29.48
    endloop
  endfacet
  facet normal -0.9218942322825928 0.21606176049672607 -0.3216027676111388
    outer loop
      vertex -15.63714629376696 4.620000000000001 28.96
      vertex -15.818548273844138 4.620000000000001 29.48
      vertex -15.696677335157261 5.140000000000001 29.48
    endloop
  endfacet
  facet normal 1 0 0
    outer loop
      vertex -15.490000000000002 5.140000000000001 29.48
      vertex -15.490000000000002 4.620000000000001 29.48
      vertex -15.490000000000002 4.620000000000001 28.96
    endloop
  endfacet
  facet normal 1 0 0
    outer loop
      vertex -15.490000000000002 5.140000000000001 28.992865898497303
      vertex -15.490000000000002 5.140000000000001 29.48
      vertex -15.490000000000002 4.620000000000001 28.96
    endloop
  endfacet
  facet normal 1 0 0
    outer loop
      vertex -15.490000000000002 5.099142355261699 28.96
      vertex -15.490000000000002 5.140000000000001 28.992865898497303
      vertex -15.490000000000002 4.620000000000001 28.96
    endloop
  endfacet
  facet normal -0.9680554370960002 0.22688043234581673 -0.10674240079484455
    outer loop
      vertex -15.875885949235775 4.620000000000001 30
      vertex -15.696677335157261 5.140000000000001 29.48
      vertex -15.818548273844138 4.620000000000001 29.48
    endloop
  endfacet
  facet normal -0.97027118704792 0.20370811412332493 -0.13067833724431346
    outer loop
      vertex -15.766712121590311 5.140000000000001 30
      vertex -15.696677335157261 5.140000000000001 29.48
      vertex -15.875885949235775 4.620000000000001 30
    endloop
  endfacet
  facet normal 1 0 0
    outer loop
      vertex -15.490000000000002 5.140000000000001 30
      vertex -15.490000000000002 4.620000000000001 30
      vertex -15.490000000000002 4.620000000000001 29.48
    endloop
  endfacet
  facet normal 1 0 0
    outer loop
      vertex -15.490000000000002 5.140000000000001 29.48
      vertex -15.490000000000002 5.140000000000001 30
      vertex -15.490000000000002 4.620000000000001 29.48
    endloop
  endfacet
  facet normal -0.9730144153884573 0.20428405400417488 0.1072892013479351
    outer loop
      vertex -15.818548273844138 4.620000000000001 30.52
      vertex -15.766712121590311 5.140000000000001 30
      vertex -15.875885949235775 4.620000000000001 30
    endloop
  endfacet
  facet normal -0.9653538219841208 0.22624726240417506 0.13001605529805424
    outer loop
      vertex -15.69667733515726 5.140000000000001 30.52
      vertex -15.766712121590311 5.140000000000001 30
      vertex -15.818548273844138 4.620000000000001 30.52
    endloop
  endfacet
  facet normal 1 0 0
    outer loop
      vertex -15.490000000000002 5.140000000000001 30.52
      vertex -15.490000000000002 4.620000000000001 30.52
      vertex -15.490000000000002 4.620000000000001 30
    endloop
  endfacet
  facet normal 1 0 0
    outer loop
      vertex -15.490000000000002 5.140000000000001 30
      vertex -15.490000000000002 5.140000000000001 30.52
      vertex -15.490000000000002 4.620000000000001 30
    endloop
  endfacet
  facet normal -0.8980018404846232 0.27577950722191635 0.342838676176808
    outer loop
      vertex -15.490000000000002 5.099142355261683 31.040000000000003
      vertex -15.490000000000002 5.140000000000001 31.007134101502686
      vertex -15.637146293766955 4.620000000000001 31.040000000000003
    endloop
  endfacet
  facet normal -0.8852761074860219 0.2742489577279492 0.37559782041371176
    outer loop
      vertex -15.490000000000002 5.140000000000001 31.007134101502686
      vertex -15.69667733515726 5.140000000000001 30.52
      vertex -15.637146293766955 4.620000000000001 31.040000000000003
    endloop
  endfacet
  facet normal -0.92189423228259 0.21606176049672854 0.321602767611145
    outer loop
      vertex -15.69667733515726 5.140000000000001 30.52
      vertex -15.818548273844138 4.620000000000001 30.52
      vertex -15.637146293766955 4.620000000000001 31.040000000000003
    endloop
  endfacet
  facet normal 1 0 0
    outer loop
      vertex -15.490000000000002 5.099142355261683 31.040000000000003
      vertex -15.490000000000002 4.620000000000001 31.040000000000003
      vertex -15.490000000000002 4.620000000000001 30.52
    endloop
  endfacet
  facet normal 1 0 0
    outer loop
      vertex -15.490000000000002 5.140000000000001 31.007134101502686
      vertex -15.490000000000002 5.099142355261683 31.040000000000003
      vertex -15.490000000000002 4.620000000000001 30.52
    endloop
  endfacet
  facet normal 1 0 0
    outer loop
      vertex -15.490000000000002 5.140000000000001 30.52
      vertex -15.490000000000002 5.140000000000001 31.007134101502686
      vertex -15.490000000000002 4.620000000000001 30.52
    endloop
  endfacet
  facet normal -0.8285177303127029 0.2544406938709056 0.4988169041441753
    outer loop
      vertex -15.637146293766955 4.620000000000001 31.040000000000003
      vertex -15.490000000000002 4.620000000000001 31.28440493560436
      vertex -15.490000000000002 5.099142355261683 31.040000000000003
    endloop
  endfacet
  facet normal 1 0 0
    outer loop
      vertex -15.490000000000002 5.099142355261683 31.040000000000003
      vertex -15.490000000000002 4.620000000000001 31.28440493560436
      vertex -15.490000000000002 4.620000000000001 31.040000000000003
    endloop
  endfacet
  facet normal -0.8418869275419426 0.4045273952291827 -0.35718900842982343
    outer loop
      vertex -15.490000000000002 5.140000000000001 28.992865898497303
      vertex -15.696677335157261 5.140000000000001 29.48
      vertex -15.490000000000002 5.570128957247811 29.48
    endloop
  endfacet
  facet normal 1 0 0
    outer loop
      vertex -15.490000000000002 5.570128957247811 29.48
      vertex -15.490000000000002 5.140000000000001 29.48
      vertex -15.490000000000002 5.140000000000001 28.992865898497303
    endloop
  endfacet
  facet normal -0.850921748217285 0.5044502613104355 -0.14649952994693527
    outer loop
      vertex -15.490000000000002 5.66 29.789458132848647
      vertex -15.490000000000002 5.570128957247811 29.48
      vertex -15.526248085839203 5.66 30
    endloop
  endfacet
  facet normal -0.8929232224334089 0.4290503789686645 -0.13639608185715013
    outer loop
      vertex -15.490000000000002 5.570128957247811 29.48
      vertex -15.696677335157261 5.140000000000001 29.48
      vertex -15.526248085839203 5.66 30
    endloop
  endfacet
  facet normal -0.9009441916859778 0.4166243775371738 -0.12134121933235449
    outer loop
      vertex -15.696677335157261 5.140000000000001 29.48
      vertex -15.766712121590311 5.140000000000001 30
      vertex -15.526248085839203 5.66 30
    endloop
  endfacet
  facet normal 1 0 0
    outer loop
      vertex -15.490000000000002 5.66 30
      vertex -15.490000000000002 5.140000000000001 30
      vertex -15.490000000000002 5.140000000000001 29.48
    endloop
  endfacet
  facet normal 1 0 0
    outer loop
      vertex -15.490000000000002 5.66 29.789458132848647
      vertex -15.490000000000002 5.66 30
      vertex -15.490000000000002 5.140000000000001 29.48
    endloop
  endfacet
  facet normal 1 0 0
    outer loop
      vertex -15.490000000000002 5.570128957247811 29.48
      vertex -15.490000000000002 5.66 29.789458132848647
      vertex -15.490000000000002 5.140000000000001 29.48
    endloop
  endfacet
  facet normal -0.8943006790963289 0.4297122480839374 0.12479454801590194
    outer loop
      vertex -15.490000000000002 5.570128957247808 30.52
      vertex -15.490000000000002 5.66 30.21054186715135
      vertex -15.69667733515726 5.140000000000001 30.52
    endloop
  endfacet
  facet normal -0.8840370641242756 0.4419427227146862 0.15220085116076534
    outer loop
      vertex -15.490000000000002 5.66 30.21054186715135
      vertex -15.526248085839203 5.66 30
      vertex -15.69667733515726 5.140000000000001 30.52
    endloop
  endfacet
  facet normal -0.9009441916859775 0.41662437753717363 0.12134121933235752
    outer loop
      vertex -15.526248085839203 5.66 30
      vertex -15.766712121590311 5.140000000000001 30
      vertex -15.69667733515726 5.140000000000001 30.52
    endloop
  endfacet
  facet normal 1 0 0
    outer loop
      vertex -15.490000000000002 5.570128957247808 30.52
      vertex -15.490000000000002 5.140000000000001 30.52
      vertex -15.490000000000002 5.140000000000001 30
    endloop
  endfacet
  facet normal 1 0 0
    outer loop
      vertex -15.490000000000002 5.66 30.21054186715135
      vertex -15.490000000000002 5.570128957247808 30.52
      vertex -15.490000000000002 5.140000000000001 30
    endloop
  endfacet
  facet normal 1 0 0
    outer loop
      vertex -15.490000000000002 5.66 30
      vertex -15.490000000000002 5.66 30.21054186715135
      vertex -15.490000000000002 5.140000000000001 30
    endloop
  endfacet
  facet normal -0.8418869275419412 0.4045273952291819 0.3571890084298276
    outer loop
      vertex -15.69667733515726 5.140000000000001 30.52
      vertex -15.490000000000002 5.140000000000001 31.007134101502686
      vertex -15.490000000000002 5.570128957247808 30.52
    endloop
  endfacet
  facet normal 1 0 0
    outer loop
      vertex -15.490000000000002 5.570128957247808 30.52
      vertex -15.490000000000002 5.140000000000001 31.007134101502686
      vertex -15.490000000000002 5.140000000000001 30.52
    endloop
  endfacet
  facet normal -0.7996066319556164 0.5845319746508065 -0.13766482754655998
    outer loop
      vertex -15.490000000000002 5.66 29.789458132848647
      vertex -15.526248085839203 5.66 30
      vertex -15.490000000000002 5.709585328244938 30
    endloop
  endfacet
  facet normal 1 0 0
    outer loop
      vertex -15.490000000000002 5.709585328244938 30
      vertex -15.490000000000002 5.66 30
      vertex -15.490000000000002 5.66 29.789458132848647
    endloop
  endfacet
  facet normal -0.7996066319556162 0.5845319746508064 0.13766482754656226
    outer loop
      vertex -15.526248085839203 5.66 30
      vertex -15.490000000000002 5.66 30.21054186715135
      vertex -15.490000000000002 5.709585328244938 30
    endloop
  endfacet
  facet normal 1 0 0
    outer loop
      vertex -15.490000000000002 5.709585328244938 30
      vertex -15.490000000000002 5.66 30.21054186715135
      vertex -15.490000000000002 5.66 30
    endloop
  endfacet
endsolid OpenSCAD_Model
