solid OpenSCAD_Model
  facet normal 0 -1 0
    outer loop
      vertex -36.3653 -23.5 -1.97538
      vertex -32.5538 -23.5 10.0246
      vertex -35.9462 -23.5 10.0246
    endloop
  endfacet
  facet normal 0 -1 -0
    outer loop
      vertex -32.5538 -23.5 10.0246
      vertex -36.3653 -23.5 -1.97538
      vertex -32.1347 -23.5 -1.97538
    endloop
  endfacet
  facet normal 0.969551 0.242536 0.0338616
    outer loop
      vertex -32.073 -22.8846 10.0246
      vertex -32.388 -19.95 -1.97538
      vertex -32.8071 -19.95 10.0246
    endloop
  endfacet
  facet normal 0.969551 0.242536 0.0338616
    outer loop
      vertex -32.388 -19.95 -1.97538
      vertex -32.073 -22.8846 10.0246
      vertex -31.6539 -22.8846 -1.97538
    endloop
  endfacet
  facet normal -0.969551 0.242536 0.0338616
    outer loop
      vertex -36.8461 -22.8846 -1.97538
      vertex -35.6929 -19.95 10.0246
      vertex -36.112 -19.95 -1.97538
    endloop
  endfacet
  facet normal -0.969551 0.242536 0.0338616
    outer loop
      vertex -35.6929 -19.95 10.0246
      vertex -36.8461 -22.8846 -1.97538
      vertex -36.427 -22.8846 10.0246
    endloop
  endfacet
  facet normal 0 0 1
    outer loop
      vertex -32.8071 -19.95 10.0246
      vertex -32.306 -23.1828 10.0246
      vertex -32.073 -22.8846 10.0246
    endloop
  endfacet
  facet normal -0 0 1
    outer loop
      vertex -35.6929 -19.95 10.0246
      vertex -32.306 -23.1828 10.0246
      vertex -32.8071 -19.95 10.0246
    endloop
  endfacet
  facet normal 0 0 1
    outer loop
      vertex -36.194 -23.1828 10.0246
      vertex -32.306 -23.1828 10.0246
      vertex -35.6929 -19.95 10.0246
    endloop
  endfacet
  facet normal 0 0 1
    outer loop
      vertex -32.306 -23.1828 10.0246
      vertex -36.194 -23.1828 10.0246
      vertex -32.5538 -23.5 10.0246
    endloop
  endfacet
  facet normal 0 0 1
    outer loop
      vertex -32.5538 -23.5 10.0246
      vertex -36.194 -23.1828 10.0246
      vertex -35.9462 -23.5 10.0246
    endloop
  endfacet
  facet normal 0 -0 1
    outer loop
      vertex -36.194 -23.1828 10.0246
      vertex -35.6929 -19.95 10.0246
      vertex -36.427 -22.8846 10.0246
    endloop
  endfacet
  facet normal 0 0 -1
    outer loop
      vertex -31.8943 -23.1923 -1.97538
      vertex -32.388 -19.95 -1.97538
      vertex -31.6539 -22.8846 -1.97538
    endloop
  endfacet
  facet normal 0 0 -1
    outer loop
      vertex -32.1347 -23.5 -1.97538
      vertex -32.388 -19.95 -1.97538
      vertex -31.8943 -23.1923 -1.97538
    endloop
  endfacet
  facet normal 0 0 -1
    outer loop
      vertex -32.1347 -23.5 -1.97538
      vertex -36.112 -19.95 -1.97538
      vertex -32.388 -19.95 -1.97538
    endloop
  endfacet
  facet normal 0 0 -1
    outer loop
      vertex -36.3653 -23.5 -1.97538
      vertex -36.112 -19.95 -1.97538
      vertex -32.1347 -23.5 -1.97538
    endloop
  endfacet
  facet normal 0 0 -1
    outer loop
      vertex -36.6057 -23.1923 -1.97538
      vertex -36.112 -19.95 -1.97538
      vertex -36.3653 -23.5 -1.97538
    endloop
  endfacet
  facet normal 0 0 -1
    outer loop
      vertex -36.112 -19.95 -1.97538
      vertex -36.6057 -23.1923 -1.97538
      vertex -36.8461 -22.8846 -1.97538
    endloop
  endfacet
  facet normal 0 1 0
    outer loop
      vertex -32.388 -19.95 -1.97538
      vertex -35.6929 -19.95 10.0246
      vertex -32.8071 -19.95 10.0246
    endloop
  endfacet
  facet normal 0 1 0
    outer loop
      vertex -35.6929 -19.95 10.0246
      vertex -32.388 -19.95 -1.97538
      vertex -36.112 -19.95 -1.97538
    endloop
  endfacet
  facet normal 0.787686 -0.615462 0.02751
    outer loop
      vertex -32.306 -23.1828 10.0246
      vertex -31.6539 -22.8846 -1.97538
      vertex -32.073 -22.8846 10.0246
    endloop
  endfacet
  facet normal 0.787714 -0.615426 0.0275124
    outer loop
      vertex -31.6539 -22.8846 -1.97538
      vertex -32.306 -23.1828 10.0246
      vertex -31.8943 -23.1923 -1.97538
    endloop
  endfacet
  facet normal 0.787741 -0.615392 0.0275133
    outer loop
      vertex -32.5538 -23.5 10.0246
      vertex -31.8943 -23.1923 -1.97538
      vertex -32.306 -23.1828 10.0246
    endloop
  endfacet
  facet normal 0.787714 -0.615426 0.027511
    outer loop
      vertex -31.8943 -23.1923 -1.97538
      vertex -32.5538 -23.5 10.0246
      vertex -32.1347 -23.5 -1.97538
    endloop
  endfacet
  facet normal -0.787714 -0.615426 0.0275124
    outer loop
      vertex -36.3653 -23.5 -1.97538
      vertex -36.194 -23.1828 10.0246
      vertex -36.6057 -23.1923 -1.97538
    endloop
  endfacet
  facet normal -0.787741 -0.615392 0.0275119
    outer loop
      vertex -36.194 -23.1828 10.0246
      vertex -36.3653 -23.5 -1.97538
      vertex -35.9462 -23.5 10.0246
    endloop
  endfacet
  facet normal -0.787686 -0.615462 0.02751
    outer loop
      vertex -36.8461 -22.8846 -1.97538
      vertex -36.194 -23.1828 10.0246
      vertex -36.427 -22.8846 10.0246
    endloop
  endfacet
  facet normal -0.787714 -0.615426 0.0275124
    outer loop
      vertex -36.194 -23.1828 10.0246
      vertex -36.8461 -22.8846 -1.97538
      vertex -36.6057 -23.1923 -1.97538
    endloop
  endfacet
  facet normal 0 1 0
    outer loop
      vertex -32.1347 23.5 -1.97538
      vertex -35.9462 23.5 10.0246
      vertex -32.5538 23.5 10.0246
    endloop
  endfacet
  facet normal 0 1 0
    outer loop
      vertex -35.9462 23.5 10.0246
      vertex -32.1347 23.5 -1.97538
      vertex -36.3653 23.5 -1.97538
    endloop
  endfacet
  facet normal 0.969551 -0.242536 0.0338616
    outer loop
      vertex -32.8071 19.95 10.0246
      vertex -31.6539 22.8846 -1.97538
      vertex -32.073 22.8846 10.0246
    endloop
  endfacet
  facet normal 0.969551 -0.242536 0.0338616
    outer loop
      vertex -31.6539 22.8846 -1.97538
      vertex -32.8071 19.95 10.0246
      vertex -32.388 19.95 -1.97538
    endloop
  endfacet
  facet normal -0.969551 -0.242536 0.0338616
    outer loop
      vertex -36.112 19.95 -1.97538
      vertex -36.427 22.8846 10.0246
      vertex -36.8461 22.8846 -1.97538
    endloop
  endfacet
  facet normal -0.969551 -0.242536 0.0338616
    outer loop
      vertex -36.427 22.8846 10.0246
      vertex -36.112 19.95 -1.97538
      vertex -35.6929 19.95 10.0246
    endloop
  endfacet
  facet normal 0 0 1
    outer loop
      vertex -36.194 23.1828 10.0246
      vertex -32.306 23.1828 10.0246
      vertex -32.5538 23.5 10.0246
    endloop
  endfacet
  facet normal 0 0 1
    outer loop
      vertex -32.306 23.1828 10.0246
      vertex -32.8071 19.95 10.0246
      vertex -32.073 22.8846 10.0246
    endloop
  endfacet
  facet normal 0 0 1
    outer loop
      vertex -32.306 23.1828 10.0246
      vertex -35.6929 19.95 10.0246
      vertex -32.8071 19.95 10.0246
    endloop
  endfacet
  facet normal 0 0 1
    outer loop
      vertex -36.194 23.1828 10.0246
      vertex -32.5538 23.5 10.0246
      vertex -35.9462 23.5 10.0246
    endloop
  endfacet
  facet normal 0 0 1
    outer loop
      vertex -32.306 23.1828 10.0246
      vertex -36.194 23.1828 10.0246
      vertex -35.6929 19.95 10.0246
    endloop
  endfacet
  facet normal 0 0 1
    outer loop
      vertex -35.6929 19.95 10.0246
      vertex -36.194 23.1828 10.0246
      vertex -36.427 22.8846 10.0246
    endloop
  endfacet
  facet normal 0 0 -1
    outer loop
      vertex -32.388 19.95 -1.97538
      vertex -31.8943 23.1923 -1.97538
      vertex -31.6539 22.8846 -1.97538
    endloop
  endfacet
  facet normal 0 0 -1
    outer loop
      vertex -32.388 19.95 -1.97538
      vertex -32.1347 23.5 -1.97538
      vertex -31.8943 23.1923 -1.97538
    endloop
  endfacet
  facet normal 0 0 -1
    outer loop
      vertex -36.112 19.95 -1.97538
      vertex -32.1347 23.5 -1.97538
      vertex -32.388 19.95 -1.97538
    endloop
  endfacet
  facet normal 0 0 -1
    outer loop
      vertex -36.112 19.95 -1.97538
      vertex -36.3653 23.5 -1.97538
      vertex -32.1347 23.5 -1.97538
    endloop
  endfacet
  facet normal 0 0 -1
    outer loop
      vertex -36.112 19.95 -1.97538
      vertex -36.6057 23.1923 -1.97538
      vertex -36.3653 23.5 -1.97538
    endloop
  endfacet
  facet normal 0 -0 -1
    outer loop
      vertex -36.6057 23.1923 -1.97538
      vertex -36.112 19.95 -1.97538
      vertex -36.8461 22.8846 -1.97538
    endloop
  endfacet
  facet normal 0 -1 0
    outer loop
      vertex -36.112 19.95 -1.97538
      vertex -32.8071 19.95 10.0246
      vertex -35.6929 19.95 10.0246
    endloop
  endfacet
  facet normal 0 -1 -0
    outer loop
      vertex -32.8071 19.95 10.0246
      vertex -36.112 19.95 -1.97538
      vertex -32.388 19.95 -1.97538
    endloop
  endfacet
  facet normal 0.787686 0.615462 0.0275115
    outer loop
      vertex -32.073 22.8846 10.0246
      vertex -31.8943 23.1923 -1.97538
      vertex -32.306 23.1828 10.0246
    endloop
  endfacet
  facet normal 0.787714 0.615426 0.027511
    outer loop
      vertex -31.8943 23.1923 -1.97538
      vertex -32.073 22.8846 10.0246
      vertex -31.6539 22.8846 -1.97538
    endloop
  endfacet
  facet normal 0.787714 0.615426 0.027511
    outer loop
      vertex -32.5538 23.5 10.0246
      vertex -31.8943 23.1923 -1.97538
      vertex -32.1347 23.5 -1.97538
    endloop
  endfacet
  facet normal 0.787741 0.615392 0.0275133
    outer loop
      vertex -31.8943 23.1923 -1.97538
      vertex -32.5538 23.5 10.0246
      vertex -32.306 23.1828 10.0246
    endloop
  endfacet
  facet normal -0.787714 0.615426 0.027511
    outer loop
      vertex -36.6057 23.1923 -1.97538
      vertex -35.9462 23.5 10.0246
      vertex -36.3653 23.5 -1.97538
    endloop
  endfacet
  facet normal -0.787741 0.615392 0.0275133
    outer loop
      vertex -35.9462 23.5 10.0246
      vertex -36.6057 23.1923 -1.97538
      vertex -36.194 23.1828 10.0246
    endloop
  endfacet
  facet normal -0.787714 0.615426 0.0275124
    outer loop
      vertex -36.8461 22.8846 -1.97538
      vertex -36.194 23.1828 10.0246
      vertex -36.6057 23.1923 -1.97538
    endloop
  endfacet
  facet normal -0.787686 0.615462 0.02751
    outer loop
      vertex -36.194 23.1828 10.0246
      vertex -36.8461 22.8846 -1.97538
      vertex -36.427 22.8846 10.0246
    endloop
  endfacet
  facet normal -1 0 0
    outer loop
      vertex -40 -19.95 -1.97538
      vertex -40 19.95 10.0246
      vertex -40 19.95 -1.97538
    endloop
  endfacet
  facet normal -1 -0 0
    outer loop
      vertex -40 19.95 10.0246
      vertex -40 -19.95 -1.97538
      vertex -40 -19.95 10.0246
    endloop
  endfacet
  facet normal 0 0 1
    outer loop
      vertex -28 19.95 10.0246
      vertex -33.5 9.975 10.0246
      vertex -28 -19.95 10.0246
    endloop
  endfacet
  facet normal 0 0 1
    outer loop
      vertex -28 19.95 10.0246
      vertex -34.5 9.975 10.0246
      vertex -33.5 9.975 10.0246
    endloop
  endfacet
  facet normal 0 0 1
    outer loop
      vertex -34.5 9.975 10.0246
      vertex -40 19.95 10.0246
      vertex -34.5 -9.975 10.0246
    endloop
  endfacet
  facet normal -0 0 1
    outer loop
      vertex -40 19.95 10.0246
      vertex -34.5 9.975 10.0246
      vertex -28 19.95 10.0246
    endloop
  endfacet
  facet normal -0 0 1
    outer loop
      vertex -33.5 -9.975 10.0246
      vertex -28 -19.95 10.0246
      vertex -33.5 9.975 10.0246
    endloop
  endfacet
  facet normal -0 0 1
    outer loop
      vertex -34.5 -9.975 10.0246
      vertex -28 -19.95 10.0246
      vertex -33.5 -9.975 10.0246
    endloop
  endfacet
  facet normal 0 0 1
    outer loop
      vertex -34.5 -9.975 10.0246
      vertex -40 -19.95 10.0246
      vertex -28 -19.95 10.0246
    endloop
  endfacet
  facet normal 0 0 1
    outer loop
      vertex -40 -19.95 10.0246
      vertex -34.5 -9.975 10.0246
      vertex -40 19.95 10.0246
    endloop
  endfacet
  facet normal 1 -0 0
    outer loop
      vertex -28 -19.95 10.0246
      vertex -28 19.95 -1.97538
      vertex -28 19.95 10.0246
    endloop
  endfacet
  facet normal 1 0 0
    outer loop
      vertex -28 19.95 -1.97538
      vertex -28 -19.95 10.0246
      vertex -28 -19.95 -1.97538
    endloop
  endfacet
  facet normal 0 1 -0
    outer loop
      vertex -28 19.95 -1.97538
      vertex -40 19.95 10.0246
      vertex -28 19.95 10.0246
    endloop
  endfacet
  facet normal 0 1 0
    outer loop
      vertex -40 19.95 10.0246
      vertex -28 19.95 -1.97538
      vertex -40 19.95 -1.97538
    endloop
  endfacet
  facet normal 0 0 -1
    outer loop
      vertex -40 -19.95 -1.97538
      vertex -28 19.95 -1.97538
      vertex -28 -19.95 -1.97538
    endloop
  endfacet
  facet normal -0 0 -1
    outer loop
      vertex -28 19.95 -1.97538
      vertex -40 -19.95 -1.97538
      vertex -40 19.95 -1.97538
    endloop
  endfacet
  facet normal 0 -1 0
    outer loop
      vertex -40 -19.95 -1.97538
      vertex -28 -19.95 10.0246
      vertex -40 -19.95 10.0246
    endloop
  endfacet
  facet normal 0 -1 -0
    outer loop
      vertex -28 -19.95 10.0246
      vertex -40 -19.95 -1.97538
      vertex -28 -19.95 -1.97538
    endloop
  endfacet
  facet normal 1 -0 0
    outer loop
      vertex -34.5 -9.975 10.0246
      vertex -34.5 9.975 9.02462
      vertex -34.5 9.975 10.0246
    endloop
  endfacet
  facet normal 1 0 0
    outer loop
      vertex -34.5 9.975 9.02462
      vertex -34.5 -9.975 10.0246
      vertex -34.5 -9.975 9.02462
    endloop
  endfacet
  facet normal -1 0 0
    outer loop
      vertex -33.5 -9.975 9.02462
      vertex -33.5 9.975 10.0246
      vertex -33.5 9.975 9.02462
    endloop
  endfacet
  facet normal -1 -0 0
    outer loop
      vertex -33.5 9.975 10.0246
      vertex -33.5 -9.975 9.02462
      vertex -33.5 -9.975 10.0246
    endloop
  endfacet
  facet normal 0 -1 0
    outer loop
      vertex -34.5 9.975 9.02462
      vertex -33.5 9.975 10.0246
      vertex -34.5 9.975 10.0246
    endloop
  endfacet
  facet normal 0 -1 -0
    outer loop
      vertex -33.5 9.975 10.0246
      vertex -34.5 9.975 9.02462
      vertex -33.5 9.975 9.02462
    endloop
  endfacet
  facet normal -0 0 1
    outer loop
      vertex -34.5 9.975 9.02462
      vertex -33.5 -9.975 9.02462
      vertex -33.5 9.975 9.02462
    endloop
  endfacet
  facet normal 0 0 1
    outer loop
      vertex -33.5 -9.975 9.02462
      vertex -34.5 9.975 9.02462
      vertex -34.5 -9.975 9.02462
    endloop
  endfacet
  facet normal 0 1 -0
    outer loop
      vertex -33.5 -9.975 9.02462
      vertex -34.5 -9.975 10.0246
      vertex -33.5 -9.975 10.0246
    endloop
  endfacet
  facet normal 0 1 0
    outer loop
      vertex -34.5 -9.975 10.0246
      vertex -33.5 -9.975 9.02462
      vertex -34.5 -9.975 9.02462
    endloop
  endfacet
  facet normal 0 -1 0
    outer loop
      vertex -37.3653 -81.4 -1.97538
      vertex -32.5538 -81.4 10.0246
      vertex -36.9462 -81.4 10.0246
    endloop
  endfacet
  facet normal 0 -1 -0
    outer loop
      vertex -32.5538 -81.4 10.0246
      vertex -37.3653 -81.4 -1.97538
      vertex -32.1347 -81.4 -1.97538
    endloop
  endfacet
  facet normal 0.969551 0.242536 0.0338616
    outer loop
      vertex -32.073 -80.7846 10.0246
      vertex -32.388 -77.85 -1.97538
      vertex -32.8071 -77.85 10.0246
    endloop
  endfacet
  facet normal 0.969551 0.242536 0.0338616
    outer loop
      vertex -32.388 -77.85 -1.97538
      vertex -32.073 -80.7846 10.0246
      vertex -31.6539 -80.7846 -1.97538
    endloop
  endfacet
  facet normal -0.969551 0.242536 0.0338616
    outer loop
      vertex -37.8461 -80.7846 -1.97538
      vertex -36.6929 -77.85 10.0246
      vertex -37.112 -77.85 -1.97538
    endloop
  endfacet
  facet normal -0.969551 0.242536 0.0338616
    outer loop
      vertex -36.6929 -77.85 10.0246
      vertex -37.8461 -80.7846 -1.97538
      vertex -37.427 -80.7846 10.0246
    endloop
  endfacet
  facet normal 0 0 1
    outer loop
      vertex -32.8071 -77.85 10.0246
      vertex -32.306 -81.0828 10.0246
      vertex -32.073 -80.7846 10.0246
    endloop
  endfacet
  facet normal 0 0 1
    outer loop
      vertex -32.8071 -77.85 10.0246
      vertex -32.5538 -81.4 10.0246
      vertex -32.306 -81.0828 10.0246
    endloop
  endfacet
  facet normal -0 0 1
    outer loop
      vertex -36.6929 -77.85 10.0246
      vertex -32.5538 -81.4 10.0246
      vertex -32.8071 -77.85 10.0246
    endloop
  endfacet
  facet normal 0 0 1
    outer loop
      vertex -36.6929 -77.85 10.0246
      vertex -36.9462 -81.4 10.0246
      vertex -32.5538 -81.4 10.0246
    endloop
  endfacet
  facet normal 0 0 1
    outer loop
      vertex -36.6929 -77.85 10.0246
      vertex -37.194 -81.0828 10.0246
      vertex -36.9462 -81.4 10.0246
    endloop
  endfacet
  facet normal 0 -0 1
    outer loop
      vertex -37.194 -81.0828 10.0246
      vertex -36.6929 -77.85 10.0246
      vertex -37.427 -80.7846 10.0246
    endloop
  endfacet
  facet normal 0 0 -1
    outer loop
      vertex -31.8943 -81.0923 -1.97538
      vertex -32.388 -77.85 -1.97538
      vertex -31.6539 -80.7846 -1.97538
    endloop
  endfacet
  facet normal 0 0 -1
    outer loop
      vertex -32.1347 -81.4 -1.97538
      vertex -32.388 -77.85 -1.97538
      vertex -31.8943 -81.0923 -1.97538
    endloop
  endfacet
  facet normal 0 0 -1
    outer loop
      vertex -32.1347 -81.4 -1.97538
      vertex -37.112 -77.85 -1.97538
      vertex -32.388 -77.85 -1.97538
    endloop
  endfacet
  facet normal 0 0 -1
    outer loop
      vertex -37.3653 -81.4 -1.97538
      vertex -37.112 -77.85 -1.97538
      vertex -32.1347 -81.4 -1.97538
    endloop
  endfacet
  facet normal 0 0 -1
    outer loop
      vertex -37.6057 -81.0923 -1.97538
      vertex -37.112 -77.85 -1.97538
      vertex -37.3653 -81.4 -1.97538
    endloop
  endfacet
  facet normal 0 0 -1
    outer loop
      vertex -37.112 -77.85 -1.97538
      vertex -37.6057 -81.0923 -1.97538
      vertex -37.8461 -80.7846 -1.97538
    endloop
  endfacet
  facet normal 0 1 0
    outer loop
      vertex -32.388 -77.85 -1.97538
      vertex -36.6929 -77.85 10.0246
      vertex -32.8071 -77.85 10.0246
    endloop
  endfacet
  facet normal 0 1 0
    outer loop
      vertex -36.6929 -77.85 10.0246
      vertex -32.388 -77.85 -1.97538
      vertex -37.112 -77.85 -1.97538
    endloop
  endfacet
  facet normal 0.787686 -0.615462 0.02751
    outer loop
      vertex -32.306 -81.0828 10.0246
      vertex -31.6539 -80.7846 -1.97538
      vertex -32.073 -80.7846 10.0246
    endloop
  endfacet
  facet normal 0.787714 -0.615426 0.0275124
    outer loop
      vertex -31.6539 -80.7846 -1.97538
      vertex -32.306 -81.0828 10.0246
      vertex -31.8943 -81.0923 -1.97538
    endloop
  endfacet
  facet normal 0.787741 -0.615392 0.0275133
    outer loop
      vertex -32.5538 -81.4 10.0246
      vertex -31.8943 -81.0923 -1.97538
      vertex -32.306 -81.0828 10.0246
    endloop
  endfacet
  facet normal 0.787714 -0.615426 0.027511
    outer loop
      vertex -31.8943 -81.0923 -1.97538
      vertex -32.5538 -81.4 10.0246
      vertex -32.1347 -81.4 -1.97538
    endloop
  endfacet
  facet normal -0.787714 -0.615426 0.0275124
    outer loop
      vertex -37.3653 -81.4 -1.97538
      vertex -37.194 -81.0828 10.0246
      vertex -37.6057 -81.0923 -1.97538
    endloop
  endfacet
  facet normal -0.787741 -0.615392 0.0275119
    outer loop
      vertex -37.194 -81.0828 10.0246
      vertex -37.3653 -81.4 -1.97538
      vertex -36.9462 -81.4 10.0246
    endloop
  endfacet
  facet normal -0.787686 -0.615462 0.02751
    outer loop
      vertex -37.8461 -80.7846 -1.97538
      vertex -37.194 -81.0828 10.0246
      vertex -37.427 -80.7846 10.0246
    endloop
  endfacet
  facet normal -0.787714 -0.615426 0.0275124
    outer loop
      vertex -37.194 -81.0828 10.0246
      vertex -37.8461 -80.7846 -1.97538
      vertex -37.6057 -81.0923 -1.97538
    endloop
  endfacet
  facet normal 0 1 0
    outer loop
      vertex -32.1347 -34.4 -1.97538
      vertex -36.9462 -34.4 10.0246
      vertex -32.5538 -34.4 10.0246
    endloop
  endfacet
  facet normal 0 1 0
    outer loop
      vertex -36.9462 -34.4 10.0246
      vertex -32.1347 -34.4 -1.97538
      vertex -37.3653 -34.4 -1.97538
    endloop
  endfacet
  facet normal 0.969551 -0.242536 0.0338616
    outer loop
      vertex -32.8071 -37.95 10.0246
      vertex -31.6539 -35.0154 -1.97538
      vertex -32.073 -35.0154 10.0246
    endloop
  endfacet
  facet normal 0.969551 -0.242536 0.0338616
    outer loop
      vertex -31.6539 -35.0154 -1.97538
      vertex -32.8071 -37.95 10.0246
      vertex -32.388 -37.95 -1.97538
    endloop
  endfacet
  facet normal -0.969551 -0.242536 0.0338616
    outer loop
      vertex -37.112 -37.95 -1.97538
      vertex -37.427 -35.0154 10.0246
      vertex -37.8461 -35.0154 -1.97538
    endloop
  endfacet
  facet normal -0.969551 -0.242536 0.0338616
    outer loop
      vertex -37.427 -35.0154 10.0246
      vertex -37.112 -37.95 -1.97538
      vertex -36.6929 -37.95 10.0246
    endloop
  endfacet
  facet normal 0 0 1
    outer loop
      vertex -32.306 -34.7172 10.0246
      vertex -32.8071 -37.95 10.0246
      vertex -32.073 -35.0154 10.0246
    endloop
  endfacet
  facet normal 0 0 1
    outer loop
      vertex -32.5538 -34.4 10.0246
      vertex -32.8071 -37.95 10.0246
      vertex -32.306 -34.7172 10.0246
    endloop
  endfacet
  facet normal 0 0 1
    outer loop
      vertex -32.5538 -34.4 10.0246
      vertex -36.6929 -37.95 10.0246
      vertex -32.8071 -37.95 10.0246
    endloop
  endfacet
  facet normal -0 0 1
    outer loop
      vertex -36.9462 -34.4 10.0246
      vertex -36.6929 -37.95 10.0246
      vertex -32.5538 -34.4 10.0246
    endloop
  endfacet
  facet normal -0 0 1
    outer loop
      vertex -37.194 -34.7172 10.0246
      vertex -36.6929 -37.95 10.0246
      vertex -36.9462 -34.4 10.0246
    endloop
  endfacet
  facet normal 0 0 1
    outer loop
      vertex -36.6929 -37.95 10.0246
      vertex -37.194 -34.7172 10.0246
      vertex -37.427 -35.0154 10.0246
    endloop
  endfacet
  facet normal 0 0 -1
    outer loop
      vertex -32.388 -37.95 -1.97538
      vertex -31.8943 -34.7077 -1.97538
      vertex -31.6539 -35.0154 -1.97538
    endloop
  endfacet
  facet normal 0 0 -1
    outer loop
      vertex -32.388 -37.95 -1.97538
      vertex -32.1347 -34.4 -1.97538
      vertex -31.8943 -34.7077 -1.97538
    endloop
  endfacet
  facet normal 0 0 -1
    outer loop
      vertex -37.112 -37.95 -1.97538
      vertex -32.1347 -34.4 -1.97538
      vertex -32.388 -37.95 -1.97538
    endloop
  endfacet
  facet normal 0 0 -1
    outer loop
      vertex -37.112 -37.95 -1.97538
      vertex -37.3653 -34.4 -1.97538
      vertex -32.1347 -34.4 -1.97538
    endloop
  endfacet
  facet normal 0 0 -1
    outer loop
      vertex -37.112 -37.95 -1.97538
      vertex -37.6057 -34.7077 -1.97538
      vertex -37.3653 -34.4 -1.97538
    endloop
  endfacet
  facet normal 0 -0 -1
    outer loop
      vertex -37.6057 -34.7077 -1.97538
      vertex -37.112 -37.95 -1.97538
      vertex -37.8461 -35.0154 -1.97538
    endloop
  endfacet
  facet normal 0 -1 0
    outer loop
      vertex -37.112 -37.95 -1.97538
      vertex -32.8071 -37.95 10.0246
      vertex -36.6929 -37.95 10.0246
    endloop
  endfacet
  facet normal 0 -1 -0
    outer loop
      vertex -32.8071 -37.95 10.0246
      vertex -37.112 -37.95 -1.97538
      vertex -32.388 -37.95 -1.97538
    endloop
  endfacet
  facet normal 0.787686 0.615462 0.0275115
    outer loop
      vertex -32.073 -35.0154 10.0246
      vertex -31.8943 -34.7077 -1.97538
      vertex -32.306 -34.7172 10.0246
    endloop
  endfacet
  facet normal 0.787714 0.615426 0.027511
    outer loop
      vertex -31.8943 -34.7077 -1.97538
      vertex -32.073 -35.0154 10.0246
      vertex -31.6539 -35.0154 -1.97538
    endloop
  endfacet
  facet normal 0.787714 0.615426 0.027511
    outer loop
      vertex -32.5538 -34.4 10.0246
      vertex -31.8943 -34.7077 -1.97538
      vertex -32.1347 -34.4 -1.97538
    endloop
  endfacet
  facet normal 0.787741 0.615392 0.0275133
    outer loop
      vertex -31.8943 -34.7077 -1.97538
      vertex -32.5538 -34.4 10.0246
      vertex -32.306 -34.7172 10.0246
    endloop
  endfacet
  facet normal -0.787714 0.615426 0.027511
    outer loop
      vertex -37.6057 -34.7077 -1.97538
      vertex -36.9462 -34.4 10.0246
      vertex -37.3653 -34.4 -1.97538
    endloop
  endfacet
  facet normal -0.787741 0.615392 0.0275133
    outer loop
      vertex -36.9462 -34.4 10.0246
      vertex -37.6057 -34.7077 -1.97538
      vertex -37.194 -34.7172 10.0246
    endloop
  endfacet
  facet normal -0.787714 0.615426 0.0275124
    outer loop
      vertex -37.8461 -35.0154 -1.97538
      vertex -37.194 -34.7172 10.0246
      vertex -37.6057 -34.7077 -1.97538
    endloop
  endfacet
  facet normal -0.787686 0.615462 0.02751
    outer loop
      vertex -37.194 -34.7172 10.0246
      vertex -37.8461 -35.0154 -1.97538
      vertex -37.427 -35.0154 10.0246
    endloop
  endfacet
  facet normal -1 0 0
    outer loop
      vertex -41 -77.85 -1.97538
      vertex -41 -37.95 10.0246
      vertex -41 -37.95 -1.97538
    endloop
  endfacet
  facet normal -1 -0 0
    outer loop
      vertex -41 -37.95 10.0246
      vertex -41 -77.85 -1.97538
      vertex -41 -77.85 10.0246
    endloop
  endfacet
  facet normal 0 0 1
    outer loop
      vertex -28.5 -37.95 10.0246
      vertex -34 -47.925 10.0246
      vertex -28.5 -77.85 10.0246
    endloop
  endfacet
  facet normal 0 0 1
    outer loop
      vertex -28.5 -37.95 10.0246
      vertex -35 -47.925 10.0246
      vertex -34 -47.925 10.0246
    endloop
  endfacet
  facet normal 0 0 1
    outer loop
      vertex -35 -47.925 10.0246
      vertex -41 -37.95 10.0246
      vertex -35 -67.875 10.0246
    endloop
  endfacet
  facet normal -0 0 1
    outer loop
      vertex -41 -37.95 10.0246
      vertex -35 -47.925 10.0246
      vertex -28.5 -37.95 10.0246
    endloop
  endfacet
  facet normal -0 0 1
    outer loop
      vertex -34 -67.875 10.0246
      vertex -28.5 -77.85 10.0246
      vertex -34 -47.925 10.0246
    endloop
  endfacet
  facet normal -0 0 1
    outer loop
      vertex -35 -67.875 10.0246
      vertex -28.5 -77.85 10.0246
      vertex -34 -67.875 10.0246
    endloop
  endfacet
  facet normal 0 0 1
    outer loop
      vertex -35 -67.875 10.0246
      vertex -41 -77.85 10.0246
      vertex -28.5 -77.85 10.0246
    endloop
  endfacet
  facet normal 0 0 1
    outer loop
      vertex -41 -77.85 10.0246
      vertex -35 -67.875 10.0246
      vertex -41 -37.95 10.0246
    endloop
  endfacet
  facet normal 0 0 -1
    outer loop
      vertex -41 -77.85 -1.97538
      vertex -28.5 -37.95 -1.97538
      vertex -28.5 -77.85 -1.97538
    endloop
  endfacet
  facet normal -0 0 -1
    outer loop
      vertex -28.5 -37.95 -1.97538
      vertex -41 -77.85 -1.97538
      vertex -41 -37.95 -1.97538
    endloop
  endfacet
  facet normal 0 -1 0
    outer loop
      vertex -41 -77.85 -1.97538
      vertex -28.5 -77.85 10.0246
      vertex -41 -77.85 10.0246
    endloop
  endfacet
  facet normal 0 -1 -0
    outer loop
      vertex -28.5 -77.85 10.0246
      vertex -41 -77.85 -1.97538
      vertex -28.5 -77.85 -1.97538
    endloop
  endfacet
  facet normal 0 1 -0
    outer loop
      vertex -28.5 -37.95 -1.97538
      vertex -41 -37.95 10.0246
      vertex -28.5 -37.95 10.0246
    endloop
  endfacet
  facet normal 0 1 0
    outer loop
      vertex -41 -37.95 10.0246
      vertex -28.5 -37.95 -1.97538
      vertex -41 -37.95 -1.97538
    endloop
  endfacet
  facet normal 1 -0 0
    outer loop
      vertex -35 -67.875 10.0246
      vertex -35 -47.925 9.02462
      vertex -35 -47.925 10.0246
    endloop
  endfacet
  facet normal 1 0 0
    outer loop
      vertex -35 -47.925 9.02462
      vertex -35 -67.875 10.0246
      vertex -35 -67.875 9.02462
    endloop
  endfacet
  facet normal -1 0 0
    outer loop
      vertex -34 -67.875 9.02462
      vertex -34 -47.925 10.0246
      vertex -34 -47.925 9.02462
    endloop
  endfacet
  facet normal -1 -0 0
    outer loop
      vertex -34 -47.925 10.0246
      vertex -34 -67.875 9.02462
      vertex -34 -67.875 10.0246
    endloop
  endfacet
  facet normal -0 0 1
    outer loop
      vertex -35 -47.925 9.02462
      vertex -34 -67.875 9.02462
      vertex -34 -47.925 9.02462
    endloop
  endfacet
  facet normal 0 0 1
    outer loop
      vertex -34 -67.875 9.02462
      vertex -35 -47.925 9.02462
      vertex -35 -67.875 9.02462
    endloop
  endfacet
  facet normal 0 1 -0
    outer loop
      vertex -34 -67.875 9.02462
      vertex -35 -67.875 10.0246
      vertex -34 -67.875 10.0246
    endloop
  endfacet
  facet normal 0 1 0
    outer loop
      vertex -35 -67.875 10.0246
      vertex -34 -67.875 9.02462
      vertex -35 -67.875 9.02462
    endloop
  endfacet
  facet normal 0 -1 0
    outer loop
      vertex -35 -47.925 9.02462
      vertex -34 -47.925 10.0246
      vertex -35 -47.925 10.0246
    endloop
  endfacet
  facet normal 0 -1 -0
    outer loop
      vertex -34 -47.925 10.0246
      vertex -35 -47.925 9.02462
      vertex -34 -47.925 9.02462
    endloop
  endfacet
  facet normal 1 -0 0
    outer loop
      vertex -28.5 -77.85 10.0246
      vertex -28.5 -37.95 -1.97538
      vertex -28.5 -37.95 10.0246
    endloop
  endfacet
  facet normal 1 0 0
    outer loop
      vertex -28.5 -37.95 -1.97538
      vertex -28.5 -77.85 10.0246
      vertex -28.5 -77.85 -1.97538
    endloop
  endfacet
endsolid OpenSCAD_Model
