solid OpenSCAD_Model
  facet normal 0.587785252292473 0.8090169943749473 0
    outer loop
      vertex 7.75 13.423393758658799 7.375948740673266e-10
      vertex 9.020942474893893 12.5 8.585541166894473e-10
      vertex 7.75 13.423393758658799 0
    endloop
  endfacet
  facet normal 0 0 -1
    outer loop
      vertex -12.539763412811686 -9.110671410533334 0
      vertex -8.364132579485728 -9.289310318467429 0
      vertex -10.371524398562302 -11.518744794899611 0
    endloop
  endfacet
  facet normal 0 0 -1
    outer loop
      vertex -3.8627124296868423 11.888206453689419 0
      vertex -4.789763412811685 14.74137600257488 0
      vertex -1.3066057908456683 12.431523692103417 0
    endloop
  endfacet
  facet normal 0 0 -1
    outer loop
      vertex -1.3066057908456683 12.431523692103417 0
      vertex -4.789763412811685 14.74137600257488 0
      vertex -1.6201911806486289 15.415089378208236 0
    endloop
  endfacet
  facet normal 0 0 -1
    outer loop
      vertex -6.25 -10.825317547305483 0
      vertex -3.8627124296868423 -11.888206453689419 0
      vertex -7.75 -13.423393758658799 0
    endloop
  endfacet
  facet normal 0 0 -1
    outer loop
      vertex 0 12.5 0
      vertex 0 12.431523692103417 0
      vertex -1.3066057908456683 12.431523692103417 0
    endloop
  endfacet
  facet normal 0 0 -1
    outer loop
      vertex -6.25 -10.825317547305483 0
      vertex -10.371524398562302 -11.518744794899611 0
      vertex -8.364132579485728 -9.289310318467429 0
    endloop
  endfacet
  facet normal 0 0 -1
    outer loop
      vertex 0 12.5 0
      vertex -1.3066057908456683 12.431523692103417 0
      vertex -1.6201911806486289 15.415089378208236 0
    endloop
  endfacet
  facet normal -0.587785252292473 -0.8090169943749475 0
    outer loop
      vertex -10.371524398562302 -11.518744794899611 0
      vertex -7.75 -13.423393758658799 0
      vertex -10.371524398562302 -11.518744794899611 20
    endloop
  endfacet
  facet normal 0 0 -1
    outer loop
      vertex 0 12.5 0
      vertex -1.6201911806486289 15.415089378208236 0
      vertex 0 15.415089378208236 0
    endloop
  endfacet
  facet normal 0 0 1
    outer loop
      vertex 15.5 0 20
      vertex 12.539763412811686 -9.110671410533334 20
      vertex 14.159954593460313 -6.304417967674903 20
    endloop
  endfacet
  facet normal 0 0 -1
    outer loop
      vertex 1.6201911806486289 15.415089378208236 0
      vertex 4.789763412811685 14.74137600257488 0
      vertex 0 12.5 0
    endloop
  endfacet
  facet normal 0 0 -1
    outer loop
      vertex -15.161287811373988 -3.2226312076752697 0
      vertex -15.5 0 0
      vertex -12.226845009172571 -2.5988961352219917 0
    endloop
  endfacet
  facet normal 0 0 -1
    outer loop
      vertex -11.41931822053251 -5.084208038447502 0
      vertex -15.161287811373988 -3.2226312076752697 0
      vertex -12.226845009172571 -2.5988961352219917 0
    endloop
  endfacet
  facet normal 0 0 -1
    outer loop
      vertex -12.226845009172571 -2.5988961352219917 0
      vertex -15.5 0 0
      vertex -12.5 0 0
    endloop
  endfacet
  facet normal -0.8660254037844388 -0.49999999999999944 0
    outer loop
      vertex -14.159954593460313 -6.304417967674903 0
      vertex -12.539763412811686 -9.110671410533334 0
      vertex -14.159954593460313 -6.304417967674903 20
    endloop
  endfacet
  facet normal -0.9510565162951534 -0.30901699437494795 0
    outer loop
      vertex -15.161287811373988 -3.2226312076752697 0
      vertex -14.159954593460313 -6.304417967674903 0
      vertex -15.161287811373988 -3.2226312076752697 20
    endloop
  endfacet
  facet normal -0.9945218953682735 -0.10452846326765323 0
    outer loop
      vertex -15.5 0 0
      vertex -15.161287811373988 -3.2226312076752697 0
      vertex -15.5 0 20
    endloop
  endfacet
  facet normal 0 0 -1
    outer loop
      vertex -4.789763412811685 -14.74137600257488 0
      vertex -1.3066057908456683 -12.431523692103417 0
      vertex -1.6201911806486289 -15.415089378208236 0
    endloop
  endfacet
  facet normal 0 0 -1
    outer loop
      vertex -1.3066057908456683 -12.431523692103417 0
      vertex -4.789763412811685 -14.74137600257488 0
      vertex -3.8627124296868423 -11.888206453689419 0
    endloop
  endfacet
  facet normal 0 0 -1
    outer loop
      vertex -1.6201911806486289 -15.415089378208236 0
      vertex 1.3066057908456683 -12.431523692103417 0
      vertex 1.6201911806486289 -15.415089378208236 0
    endloop
  endfacet
  facet normal 0 0 -1
    outer loop
      vertex 1.3066057908456683 -12.431523692103417 0
      vertex -1.6201911806486289 -15.415089378208236 0
      vertex -1.3066057908456683 -12.431523692103417 0
    endloop
  endfacet
  facet normal 0 0 -1
    outer loop
      vertex 1.6201911806486289 -15.415089378208236 0
      vertex 6.25 -10.825317547305483 0
      vertex 4.789763412811685 -14.74137600257488 0
    endloop
  endfacet
  facet normal 0 0 -1
    outer loop
      vertex 1.6201911806486289 -15.415089378208236 0
      vertex 1.3066057908456683 -12.431523692103417 0
      vertex 3.8627124296868423 -11.888206453689419 0
    endloop
  endfacet
  facet normal 0 0 -1
    outer loop
      vertex 6.25 -10.825317547305483 0
      vertex 1.6201911806486289 -15.415089378208236 0
      vertex 3.8627124296868423 -11.888206453689419 0
    endloop
  endfacet
  facet normal 0 0 -1
    outer loop
      vertex 6.25 -10.825317547305483 0
      vertex 8.364132579485728 -9.289310318467429 0
      vertex 4.789763412811685 -14.74137600257488 0
    endloop
  endfacet
  facet normal 0 0 -1
    outer loop
      vertex 4.789763412811685 -14.74137600257488 0
      vertex 8.364132579485728 -9.289310318467429 0
      vertex 7.75 -13.423393758658799 0
    endloop
  endfacet
  facet normal -0.20791169081775945 -0.9781476007338057 0
    outer loop
      vertex -4.789763412811685 -14.74137600257488 0
      vertex -1.6201911806486289 -15.415089378208236 0
      vertex -4.789763412811685 -14.74137600257488 20
    endloop
  endfacet
  facet normal 0 -1 0
    outer loop
      vertex -1.6201911806486289 -15.415089378208236 0
      vertex 1.6201911806486289 -15.415089378208236 0
      vertex -1.6201911806486289 -15.415089378208236 20
    endloop
  endfacet
  facet normal 0.20791169081775945 -0.9781476007338057 0
    outer loop
      vertex 1.6201911806486289 -15.415089378208236 0
      vertex 4.789763412811685 -14.74137600257488 0
      vertex 1.6201911806486289 -15.415089378208236 20
    endloop
  endfacet
  facet normal 0.4067366430758 -0.9135454576426009 0
    outer loop
      vertex 4.789763412811685 -14.74137600257488 0
      vertex 7.75 -13.423393758658799 0
      vertex 4.789763412811685 -14.74137600257488 20
    endloop
  endfacet
  facet normal -0.8660254037844388 -0.49999999999999944 -3.4632323353936127e-18
    outer loop
      vertex -14.159954593460313 -6.304417967674903 20
      vertex -12.539763412811686 -9.110671410533334 0
      vertex -12.539763412811686 -9.110671410533334 20
    endloop
  endfacet
  facet normal -0.743144825477394 -0.6691306063588582 -1.0408096423959433e-18
    outer loop
      vertex -12.539763412811686 -9.110671410533334 20
      vertex -10.371524398562302 -11.518744794899611 0
      vertex -10.371524398562302 -11.518744794899611 20
    endloop
  endfacet
  facet normal -0.587785252292473 -0.8090169943749475 5.811019850346455e-18
    outer loop
      vertex -10.371524398562302 -11.518744794899611 20
      vertex -7.75 -13.423393758658799 0
      vertex -7.75 -13.423393758658799 20
    endloop
  endfacet
  facet normal -0.4067366430758 -0.9135454576426009 -3.271340873447067e-18
    outer loop
      vertex -7.75 -13.423393758658799 20
      vertex -4.789763412811685 -14.74137600257488 0
      vertex -4.789763412811685 -14.74137600257488 20
    endloop
  endfacet
  facet normal 0 0 1
    outer loop
      vertex -12.539763412811686 -9.110671410533334 20
      vertex -10.371524398562302 -11.518744794899611 20
      vertex -10.112712429686843 -7.347315653655914 20
    endloop
  endfacet
  facet normal 0 0 1
    outer loop
      vertex -7.75 -13.423393758658799 20
      vertex -4.789763412811685 -14.74137600257488 20
      vertex -6.25 -10.825317547305483 20
    endloop
  endfacet
  facet normal 0 0 1
    outer loop
      vertex -3.8627124296868423 -11.888206453689419 20
      vertex -6.25 -10.825317547305483 20
      vertex -4.789763412811685 -14.74137600257488 20
    endloop
  endfacet
  facet normal 0 0 1
    outer loop
      vertex -10.371524398562302 -11.518744794899611 20
      vertex -7.75 -13.423393758658799 20
      vertex -8.364132579485728 -9.289310318467429 20
    endloop
  endfacet
  facet normal 0 0 1
    outer loop
      vertex -6.25 -10.825317547305483 20
      vertex -8.364132579485728 -9.289310318467429 20
      vertex -7.75 -13.423393758658799 20
    endloop
  endfacet
  facet normal 0 0 1
    outer loop
      vertex -10.112712429686843 -7.347315653655914 20
      vertex -10.371524398562302 -11.518744794899611 20
      vertex -8.364132579485728 -9.289310318467429 20
    endloop
  endfacet
  facet normal -0.9510565162951534 -0.30901699437494795 8.324236144889242e-19
    outer loop
      vertex -15.161287811373988 -3.2226312076752697 20
      vertex -14.159954593460313 -6.304417967674903 0
      vertex -14.159954593460313 -6.304417967674903 20
    endloop
  endfacet
  facet normal -0.9945218953682735 -0.10452846326765323 7.295303415184628e-20
    outer loop
      vertex -15.5 0 20
      vertex -15.161287811373988 -3.2226312076752697 0
      vertex -15.161287811373988 -3.2226312076752697 20
    endloop
  endfacet
  facet normal 0 0 1
    outer loop
      vertex -14.159954593460313 -6.304417967674903 20
      vertex -12.539763412811686 -9.110671410533334 20
      vertex -11.41931822053251 -5.084208038447502 20
    endloop
  endfacet
  facet normal 0 0 1
    outer loop
      vertex -15.161287811373988 -3.2226312076752697 20
      vertex -14.159954593460313 -6.304417967674903 20
      vertex -12.226845009172571 -2.5988961352219917 20
    endloop
  endfacet
  facet normal 0 0 1
    outer loop
      vertex -11.41931822053251 -5.084208038447502 20
      vertex -12.539763412811686 -9.110671410533334 20
      vertex -10.112712429686843 -7.347315653655914 20
    endloop
  endfacet
  facet normal 0 0 1
    outer loop
      vertex -12.226845009172571 -2.5988961352219917 20
      vertex -14.159954593460313 -6.304417967674903 20
      vertex -11.41931822053251 -5.084208038447502 20
    endloop
  endfacet
  facet normal 0 0 1
    outer loop
      vertex -15.161287811373988 -3.2226312076752697 20
      vertex -12.226845009172571 -2.5988961352219917 20
      vertex -12.5 0 20
    endloop
  endfacet
  facet normal 0 0 1
    outer loop
      vertex -15.5 0 20
      vertex -15.161287811373988 -3.2226312076752697 20
      vertex -12.5 0 20
    endloop
  endfacet
  facet normal -0.20791169081775945 -0.9781476007338057 -2.0849289709538954e-18
    outer loop
      vertex -4.789763412811685 -14.74137600257488 20
      vertex -1.6201911806486289 -15.415089378208236 0
      vertex -1.6201911806486289 -15.415089378208236 20
    endloop
  endfacet
  facet normal 0 -1 0
    outer loop
      vertex -1.6201911806486289 -15.415089378208236 20
      vertex 1.6201911806486289 -15.415089378208236 0
      vertex 1.6201911806486289 -15.415089378208236 20
    endloop
  endfacet
  facet normal 0.20791169081775945 -0.9781476007338057 2.0849289709538954e-18
    outer loop
      vertex 1.6201911806486289 -15.415089378208236 20
      vertex 4.789763412811685 -14.74137600257488 0
      vertex 4.789763412811685 -14.74137600257488 20
    endloop
  endfacet
  facet normal 0.4067366430758 -0.9135454576426009 3.271340873447067e-18
    outer loop
      vertex 4.789763412811685 -14.74137600257488 20
      vertex 7.75 -13.423393758658799 0
      vertex 7.75 -13.423393758658799 20
    endloop
  endfacet
  facet normal 0 0 1
    outer loop
      vertex -3.8627124296868423 -11.888206453689419 20
      vertex -4.789763412811685 -14.74137600257488 20
      vertex -1.6201911806486289 -15.415089378208236 20
    endloop
  endfacet
  facet normal 0 0 1
    outer loop
      vertex -1.3066057908456683 -12.431523692103417 20
      vertex -3.8627124296868423 -11.888206453689419 20
      vertex -1.6201911806486289 -15.415089378208236 20
    endloop
  endfacet
  facet normal 0 0 1
    outer loop
      vertex -1.6201911806486289 -15.415089378208236 20
      vertex 1.6201911806486289 -15.415089378208236 20
      vertex 1.3066057908456683 -12.431523692103417 20
    endloop
  endfacet
  facet normal 0 0 1
    outer loop
      vertex 1.3066057908456683 -12.431523692103417 20
      vertex -1.3066057908456683 -12.431523692103417 20
      vertex -1.6201911806486289 -15.415089378208236 20
    endloop
  endfacet
  facet normal 0 0 1
    outer loop
      vertex 1.6201911806486289 -15.415089378208236 20
      vertex 4.789763412811685 -14.74137600257488 20
      vertex 3.8627124296868423 -11.888206453689419 20
    endloop
  endfacet
  facet normal 0 0 1
    outer loop
      vertex 3.8627124296868423 -11.888206453689419 20
      vertex 1.3066057908456683 -12.431523692103417 20
      vertex 1.6201911806486289 -15.415089378208236 20
    endloop
  endfacet
  facet normal 0 0 1
    outer loop
      vertex 6.25 -10.825317547305483 20
      vertex 3.8627124296868423 -11.888206453689419 20
      vertex 4.789763412811685 -14.74137600257488 20
    endloop
  endfacet
  facet normal 0 0 1
    outer loop
      vertex 6.25 -10.825317547305483 20
      vertex 4.789763412811685 -14.74137600257488 20
      vertex 8.364132579485728 -9.289310318467429 20
    endloop
  endfacet
  facet normal 0 0 -1
    outer loop
      vertex -12.5 0 0
      vertex -15.5 0 0
      vertex -15.161287811373988 3.2226312076752697 0
    endloop
  endfacet
  facet normal 0 0 -1
    outer loop
      vertex -12.5 0 0
      vertex -15.161287811373988 3.2226312076752697 0
      vertex -12.226845009172571 2.5988961352219917 0
    endloop
  endfacet
  facet normal 0 0 -1
    outer loop
      vertex -12.226845009172571 2.5988961352219917 0
      vertex -15.161287811373988 3.2226312076752697 0
      vertex -14.159954593460313 6.304417967674903 0
    endloop
  endfacet
  facet normal 0 0 -1
    outer loop
      vertex -14.159954593460313 6.304417967674903 0
      vertex -12.539763412811686 9.110671410533334 0
      vertex -11.41931822053251 5.084208038447502 0
    endloop
  endfacet
  facet normal 0 0 -1
    outer loop
      vertex -14.159954593460313 6.304417967674903 0
      vertex -11.41931822053251 5.084208038447502 0
      vertex -12.226845009172571 2.5988961352219917 0
    endloop
  endfacet
  facet normal 0 0 -1
    outer loop
      vertex -11.41931822053251 5.084208038447502 0
      vertex -12.539763412811686 9.110671410533334 0
      vertex -10.112712429686843 7.347315653655914 0
    endloop
  endfacet
  facet normal -0.9945218953682735 0.10452846326765323 0
    outer loop
      vertex -15.161287811373988 3.2226312076752697 0
      vertex -15.5 0 0
      vertex -15.161287811373988 3.2226312076752697 20
    endloop
  endfacet
  facet normal -0.9510565162951534 0.30901699437494795 0
    outer loop
      vertex -14.159954593460313 6.304417967674903 0
      vertex -15.161287811373988 3.2226312076752697 0
      vertex -14.159954593460313 6.304417967674903 20
    endloop
  endfacet
  facet normal 0 0 -1
    outer loop
      vertex -10.112712429686843 7.347315653655914 0
      vertex -12.539763412811686 9.110671410533334 0
      vertex -10.371524398562302 11.518744794899611 0
    endloop
  endfacet
  facet normal 0 0 -1
    outer loop
      vertex -10.371524398562302 11.518744794899611 0
      vertex -8.364132579485728 9.289310318467429 0
      vertex -10.112712429686843 7.347315653655914 0
    endloop
  endfacet
  facet normal 0 0 -1
    outer loop
      vertex -8.364132579485728 9.289310318467429 0
      vertex -10.371524398562302 11.518744794899611 0
      vertex -7.75 13.423393758658799 0
    endloop
  endfacet
  facet normal 0 0 -1
    outer loop
      vertex -8.364132579485728 9.289310318467429 0
      vertex -7.75 13.423393758658799 0
      vertex -6.25 10.825317547305483 0
    endloop
  endfacet
  facet normal 0 0 -1
    outer loop
      vertex -6.25 10.825317547305483 0
      vertex -7.75 13.423393758658799 0
      vertex -4.789763412811685 14.74137600257488 0
    endloop
  endfacet
  facet normal 0 0 -1
    outer loop
      vertex -6.25 10.825317547305483 0
      vertex -4.789763412811685 14.74137600257488 0
      vertex -3.8627124296868423 11.888206453689419 0
    endloop
  endfacet
  facet normal -0.8660254037844388 0.49999999999999944 0
    outer loop
      vertex -12.539763412811686 9.110671410533334 0
      vertex -14.159954593460313 6.304417967674903 0
      vertex -12.539763412811686 9.110671410533334 20
    endloop
  endfacet
  facet normal -0.743144825477394 0.6691306063588582 0
    outer loop
      vertex -10.371524398562302 11.518744794899611 0
      vertex -12.539763412811686 9.110671410533334 0
      vertex -10.371524398562302 11.518744794899611 20
    endloop
  endfacet
  facet normal -0.587785252292473 0.8090169943749475 0
    outer loop
      vertex -7.75 13.423393758658799 0
      vertex -10.371524398562302 11.518744794899611 0
      vertex -7.75 13.423393758658799 20
    endloop
  endfacet
  facet normal -0.4067366430758 0.9135454576426009 0
    outer loop
      vertex -4.789763412811685 14.74137600257488 0
      vertex -7.75 13.423393758658799 0
      vertex -4.789763412811685 14.74137600257488 20
    endloop
  endfacet
  facet normal 0 0 1
    outer loop
      vertex 12.226845009172571 -2.5988961352219917 20
      vertex 11.41931822053251 -5.084208038447502 20
      vertex 15.5 0 20
    endloop
  endfacet
  facet normal 0 0 -1
    outer loop
      vertex -7.75 -13.423393758658799 0
      vertex -3.8627124296868423 -11.888206453689419 0
      vertex -4.789763412811685 -14.74137600257488 0
    endloop
  endfacet
  facet normal -0.743144825477394 -0.6691306063588582 0
    outer loop
      vertex -12.539763412811686 -9.110671410533334 0
      vertex -10.371524398562302 -11.518744794899611 0
      vertex -12.539763412811686 -9.110671410533334 20
    endloop
  endfacet
  facet normal -0.4067366430758 -0.9135454576426009 0
    outer loop
      vertex -7.75 -13.423393758658799 0
      vertex -4.789763412811685 -14.74137600257488 0
      vertex -7.75 -13.423393758658799 20
    endloop
  endfacet
  facet normal 0 0 -1
    outer loop
      vertex -14.159954593460313 -6.304417967674903 0
      vertex -15.161287811373988 -3.2226312076752697 0
      vertex -11.41931822053251 -5.084208038447502 0
    endloop
  endfacet
  facet normal 0 0 -1
    outer loop
      vertex 0 12.5 0
      vertex 0 15.415089378208236 0
      vertex 1.6201911806486289 15.415089378208236 0
    endloop
  endfacet
  facet normal 0.5877852522924731 0.8090169943749475 0
    outer loop
      vertex 7.75 13.423393758658799 20
      vertex 9.020942474893893 12.5 19.999999999039836
      vertex 7.75 13.423393758658799 19.999999999175113
    endloop
  endfacet
  facet normal 0 0.9994331660285318 0.03366521412652843
    outer loop
      vertex 1.6201911806486289 15.415089378208236 0
      vertex 0 15.415089378208236 0
      vertex 1.620191180673066 15.415089378203042 1.5419843180097814e-10
    endloop
  endfacet
  facet normal 0 0 -1
    outer loop
      vertex 4.789763412811685 14.74137600257488 0
      vertex 7.75 13.423393758658799 0
      vertex 0 12.5 0
    endloop
  endfacet
  facet normal 0 0 1
    outer loop
      vertex 0 15.415089378208236 20
      vertex 0 12.5 20
      vertex 1.6201911806486289 15.415089378208236 20
    endloop
  endfacet
  facet normal 0 0 1
    outer loop
      vertex 11.41931822053251 -5.084208038447502 20
      vertex 10.112712429686843 -7.347315653655914 20
      vertex 15.5 0 20
    endloop
  endfacet
  facet normal 0 0 -1
    outer loop
      vertex -10.112712429686843 -7.347315653655914 0
      vertex -12.539763412811686 -9.110671410533334 0
      vertex -14.159954593460313 -6.304417967674903 0
    endloop
  endfacet
  facet normal 0 0 1
    outer loop
      vertex 15.5 0 20
      vertex 10.371524398562302 -11.518744794899611 20
      vertex 12.539763412811686 -9.110671410533334 20
    endloop
  endfacet
  facet normal 0.20791169081743502 0.9781476007322795 -0.0000017663907902245222
    outer loop
      vertex 4.789763412811685 14.74137600257488 0
      vertex 1.6201911806486289 15.415089378208236 0
      vertex 1.620191180673066 15.415089378203042 1.5419843180097814e-10
    endloop
  endfacet
  facet normal 0.20791169081775948 0.9781476007338056 0
    outer loop
      vertex 4.789763412811685 14.74137600257488 0
      vertex 1.620191180673066 15.415089378203042 1.5419843180097814e-10
      vertex 4.789763412811685 14.74137600257488 4.558575739110893e-10
    endloop
  endfacet
  facet normal 0 0 -1
    outer loop
      vertex 7.75 13.423393758658799 0
      vertex 9.020942474893893 12.5 0
      vertex 0 12.5 0
    endloop
  endfacet
  facet normal 0.5877852522924726 0.8090169943749467 4.071207400202092e-8
    outer loop
      vertex 7.75 13.423393758658799 20
      vertex 9.020942474893893 12.5 20
      vertex 9.020942474893893 12.5 19.999999999039836
    endloop
  endfacet
  facet normal 0.40673664307580004 0.913545457642601 0
    outer loop
      vertex 4.789763412811685 14.74137600257488 0
      vertex 4.789763412811685 14.74137600257488 4.558575739110893e-10
      vertex 7.75 13.423393758658799 7.375948740673266e-10
    endloop
  endfacet
  facet normal 0 0 1
    outer loop
      vertex 10.112712429686843 -7.347315653655914 20
      vertex 4.789763412811685 -14.74137600257488 20
      vertex 15.5 0 20
    endloop
  endfacet
  facet normal 0.9945218953682735 -0.10452846326765323 -7.295303415184628e-20
    outer loop
      vertex 15.161287811373988 -3.2226312076752697 20
      vertex 15.5 0 0
      vertex 15.5 0 20
    endloop
  endfacet
  facet normal 0.9510565162951534 -0.30901699437494795 -8.324236144889242e-19
    outer loop
      vertex 14.159954593460313 -6.304417967674903 20
      vertex 15.161287811373988 -3.2226312076752697 0
      vertex 15.161287811373988 -3.2226312076752697 20
    endloop
  endfacet
  facet normal 0.8660254037844388 -0.49999999999999944 3.4632323353936127e-18
    outer loop
      vertex 12.539763412811686 -9.110671410533334 20
      vertex 14.159954593460313 -6.304417967674903 0
      vertex 14.159954593460313 -6.304417967674903 20
    endloop
  endfacet
  facet normal 0 0 1
    outer loop
      vertex 15.5 0 20
      vertex 7.75 -13.423393758658799 20
      vertex 10.371524398562302 -11.518744794899611 20
    endloop
  endfacet
  facet normal 0 0 1
    outer loop
      vertex 4.789763412811685 -14.74137600257488 20
      vertex 7.75 -13.423393758658799 20
      vertex 15.5 0 20
    endloop
  endfacet
  facet normal 0 0 1
    outer loop
      vertex 8.364132579485728 -9.289310318467429 20
      vertex 4.789763412811685 -14.74137600257488 20
      vertex 10.112712429686843 -7.347315653655914 20
    endloop
  endfacet
  facet normal 0.743144825477394 -0.6691306063588582 1.0408096423959433e-18
    outer loop
      vertex 10.371524398562302 -11.518744794899611 20
      vertex 12.539763412811686 -9.110671410533334 0
      vertex 12.539763412811686 -9.110671410533334 20
    endloop
  endfacet
  facet normal 0.587785252292473 -0.8090169943749475 -5.811019850346455e-18
    outer loop
      vertex 7.75 -13.423393758658799 20
      vertex 10.371524398562302 -11.518744794899611 0
      vertex 10.371524398562302 -11.518744794899611 20
    endloop
  endfacet
  facet normal 0.9945218953682735 -0.10452846326765323 0
    outer loop
      vertex 15.161287811373988 -3.2226312076752697 0
      vertex 15.5 0 0
      vertex 15.161287811373988 -3.2226312076752697 20
    endloop
  endfacet
  facet normal 0.9510565162951534 -0.30901699437494795 0
    outer loop
      vertex 14.159954593460313 -6.304417967674903 0
      vertex 15.161287811373988 -3.2226312076752697 0
      vertex 14.159954593460313 -6.304417967674903 20
    endloop
  endfacet
  facet normal 0 0 -1
    outer loop
      vertex 15.161287811373988 -3.2226312076752697 0
      vertex 15.161287811373988 3.2226312076752697 0
      vertex 15.5 0 0
    endloop
  endfacet
  facet normal 0 0 -1
    outer loop
      vertex 14.159954593460313 -6.304417967674903 0
      vertex 15.161287811373988 3.2226312076752697 0
      vertex 15.161287811373988 -3.2226312076752697 0
    endloop
  endfacet
  facet normal 0 0 -1
    outer loop
      vertex 14.159954593460313 -6.304417967674903 0
      vertex 12.539763412811686 -9.110671410533334 0
      vertex 15.161287811373988 3.2226312076752697 0
    endloop
  endfacet
  facet normal 0 0 -1
    outer loop
      vertex -10.112712429686843 -7.347315653655914 0
      vertex -14.159954593460313 -6.304417967674903 0
      vertex -11.41931822053251 -5.084208038447502 0
    endloop
  endfacet
  facet normal 0 0 -1
    outer loop
      vertex 15.161287811373988 3.2226312076752697 0
      vertex 11.41931822053251 -5.084208038447502 0
      vertex 12.226845009172571 -2.5988961352219917 0
    endloop
  endfacet
  facet normal 0 0 -1
    outer loop
      vertex 15.161287811373988 3.2226312076752697 0
      vertex 7.75 -13.423393758658799 0
      vertex 11.41931822053251 -5.084208038447502 0
    endloop
  endfacet
  facet normal 0 0 -1
    outer loop
      vertex 12.539763412811686 -9.110671410533334 0
      vertex 10.371524398562302 -11.518744794899611 0
      vertex 15.161287811373988 3.2226312076752697 0
    endloop
  endfacet
  facet normal 0 0 -1
    outer loop
      vertex 10.371524398562302 -11.518744794899611 0
      vertex 7.75 -13.423393758658799 0
      vertex 15.161287811373988 3.2226312076752697 0
    endloop
  endfacet
  facet normal 0.8660254037844388 -0.49999999999999944 0
    outer loop
      vertex 12.539763412811686 -9.110671410533334 0
      vertex 14.159954593460313 -6.304417967674903 0
      vertex 12.539763412811686 -9.110671410533334 20
    endloop
  endfacet
  facet normal 0.743144825477394 -0.6691306063588582 0
    outer loop
      vertex 10.371524398562302 -11.518744794899611 0
      vertex 12.539763412811686 -9.110671410533334 0
      vertex 10.371524398562302 -11.518744794899611 20
    endloop
  endfacet
  facet normal 0.587785252292473 -0.8090169943749475 0
    outer loop
      vertex 7.75 -13.423393758658799 20
      vertex 7.75 -13.423393758658799 0
      vertex 10.371524398562302 -11.518744794899611 0
    endloop
  endfacet
  facet normal 0 0 -1
    outer loop
      vertex 7.75 -13.423393758658799 0
      vertex 10.112712429686843 -7.347315653655914 0
      vertex 11.41931822053251 -5.084208038447502 0
    endloop
  endfacet
  facet normal 0 0 -1
    outer loop
      vertex 7.75 -13.423393758658799 0
      vertex 8.364132579485728 -9.289310318467429 0
      vertex 10.112712429686843 -7.347315653655914 0
    endloop
  endfacet
  facet normal 0.4067366430757985 0.9135454576425974 -8.870291777945441e-8
    outer loop
      vertex 4.789763412811685 14.74137600257488 0
      vertex 7.75 13.423393758658799 7.375948740673266e-10
      vertex 7.75 13.423393758658799 0
    endloop
  endfacet
  facet normal 0.40673664307580004 0.913545457642601 0
    outer loop
      vertex 7.75 13.423393758658799 20
      vertex 7.75 13.423393758658799 19.999999999175113
      vertex 4.789763412811685 14.74137600257488 19.999999999490193
    endloop
  endfacet
  facet normal -0.20791169081775945 0.9781476007338057 0
    outer loop
      vertex -1.6201911806486289 15.415089378208236 0
      vertex -4.789763412811685 14.74137600257488 0
      vertex -1.6201911806486289 15.415089378208236 20
    endloop
  endfacet
  facet normal 0.4067366430758001 0.913545457642601 0
    outer loop
      vertex 4.789763412811685 14.74137600257488 19.999999999490193
      vertex 4.789763412811685 14.74137600257488 20
      vertex 7.75 13.423393758658799 20
    endloop
  endfacet
  facet normal 0 0 1
    outer loop
      vertex 12.5 0 20
      vertex 15.5 0 20
      vertex 12.5 9.15483315443431 20
    endloop
  endfacet
  facet normal 0 1 0
    outer loop
      vertex 0 15.415089378208236 0
      vertex -1.6201911806486289 15.415089378208236 0
      vertex -1.6201911806486289 15.415089378208236 20
    endloop
  endfacet
  facet normal 0 0 -1
    outer loop
      vertex -10.371524398562302 -11.518744794899611 0
      vertex -6.25 -10.825317547305483 0
      vertex -7.75 -13.423393758658799 0
    endloop
  endfacet
  facet normal 0 0 -1
    outer loop
      vertex -8.364132579485728 -9.289310318467429 0
      vertex -12.539763412811686 -9.110671410533334 0
      vertex -10.112712429686843 -7.347315653655914 0
    endloop
  endfacet
  facet normal 0.587785252292473 0.8090169943749475 0
    outer loop
      vertex 9.020942474893893 12.5 0
      vertex 7.75 13.423393758658799 0
      vertex 9.020942474893893 12.5 8.585541166894473e-10
    endloop
  endfacet
  facet normal -0.9945218953682735 0.10452846326765323 -7.295303415184628e-20
    outer loop
      vertex -15.161287811373988 3.2226312076752697 20
      vertex -15.5 0 0
      vertex -15.5 0 20
    endloop
  endfacet
  facet normal 0 0 1
    outer loop
      vertex 15.5 0 20
      vertex 14.159954593460313 -6.304417967674903 20
      vertex 15.161287811373988 -3.2226312076752697 20
    endloop
  endfacet
  facet normal 0 0 1
    outer loop
      vertex 7.75 13.423393758658799 20
      vertex 0 12.5 20
      vertex 9.020942474893893 12.5 20
    endloop
  endfacet
  facet normal -0.9510565162951534 0.30901699437494795 -8.324236144889242e-19
    outer loop
      vertex -14.159954593460313 6.304417967674903 20
      vertex -15.161287811373988 3.2226312076752697 0
      vertex -15.161287811373988 3.2226312076752697 20
    endloop
  endfacet
  facet normal -0.8660254037844388 0.49999999999999944 3.4632323353936127e-18
    outer loop
      vertex -12.539763412811686 9.110671410533334 20
      vertex -14.159954593460313 6.304417967674903 0
      vertex -14.159954593460313 6.304417967674903 20
    endloop
  endfacet
  facet normal 0 0 1
    outer loop
      vertex 12.226845009172571 -2.5988961352219917 20
      vertex 15.5 0 20
      vertex 12.5 0 20
    endloop
  endfacet
  facet normal 0 0 1
    outer loop
      vertex -15.161287811373988 3.2226312076752697 20
      vertex -15.5 0 20
      vertex -12.226845009172571 2.5988961352219917 20
    endloop
  endfacet
  facet normal 0 0 1
    outer loop
      vertex -12.226845009172571 2.5988961352219917 20
      vertex -15.5 0 20
      vertex -12.5 0 20
    endloop
  endfacet
  facet normal 0 0 1
    outer loop
      vertex -12.226845009172571 2.5988961352219917 20
      vertex -11.41931822053251 5.084208038447502 20
      vertex -15.161287811373988 3.2226312076752697 20
    endloop
  endfacet
  facet normal 0 0 1
    outer loop
      vertex -14.159954593460313 6.304417967674903 20
      vertex -15.161287811373988 3.2226312076752697 20
      vertex -11.41931822053251 5.084208038447502 20
    endloop
  endfacet
  facet normal 0 0 1
    outer loop
      vertex -11.41931822053251 5.084208038447502 20
      vertex -10.112712429686843 7.347315653655914 20
      vertex -14.159954593460313 6.304417967674903 20
    endloop
  endfacet
  facet normal 0 0 1
    outer loop
      vertex -12.539763412811686 9.110671410533334 20
      vertex -14.159954593460313 6.304417967674903 20
      vertex -10.112712429686843 7.347315653655914 20
    endloop
  endfacet
  facet normal -0.743144825477394 0.6691306063588582 1.0408096423959433e-18
    outer loop
      vertex -10.371524398562302 11.518744794899611 20
      vertex -12.539763412811686 9.110671410533334 0
      vertex -12.539763412811686 9.110671410533334 20
    endloop
  endfacet
  facet normal 0.20791169081600588 0.9781476007341783 0
    outer loop
      vertex 4.789763412811685 14.74137600257488 20
      vertex 4.789763412811685 14.74137600257488 19.999999999490193
      vertex 1.6201911806206888 15.415089378208236 19.99999999982755
    endloop
  endfacet
  facet normal 0.20779382900732202 0.9775931045116641 -0.03366669924008593
    outer loop
      vertex 1.6201911806206888 15.415089378208236 19.99999999982755
      vertex 1.6201911806486289 15.415089378208236 20
      vertex 4.789763412811685 14.74137600257488 20
    endloop
  endfacet
  facet normal 0 0 1
    outer loop
      vertex 1.6201911806486289 15.415089378208236 20
      vertex 0 12.5 20
      vertex 4.789763412811685 14.74137600257488 20
    endloop
  endfacet
  facet normal -0.587785252292473 0.8090169943749475 -5.811019850346455e-18
    outer loop
      vertex -7.75 13.423393758658799 20
      vertex -10.371524398562302 11.518744794899611 0
      vertex -10.371524398562302 11.518744794899611 20
    endloop
  endfacet
  facet normal -0.4067366430758 0.9135454576426009 3.271340873447067e-18
    outer loop
      vertex -4.789763412811685 14.74137600257488 20
      vertex -7.75 13.423393758658799 0
      vertex -7.75 13.423393758658799 20
    endloop
  endfacet
  facet normal 0 0 1
    outer loop
      vertex -12.539763412811686 9.110671410533334 20
      vertex -10.112712429686843 7.347315653655914 20
      vertex -8.364132579485728 9.289310318467429 20
    endloop
  endfacet
  facet normal 0 0 1
    outer loop
      vertex -10.371524398562302 11.518744794899611 20
      vertex -12.539763412811686 9.110671410533334 20
      vertex -8.364132579485728 9.289310318467429 20
    endloop
  endfacet
  facet normal 0 0 1
    outer loop
      vertex -8.364132579485728 9.289310318467429 20
      vertex -6.25 10.825317547305483 20
      vertex -10.371524398562302 11.518744794899611 20
    endloop
  endfacet
  facet normal 0 0 1
    outer loop
      vertex -7.75 13.423393758658799 20
      vertex -10.371524398562302 11.518744794899611 20
      vertex -6.25 10.825317547305483 20
    endloop
  endfacet
  facet normal 0 0 1
    outer loop
      vertex -7.75 13.423393758658799 20
      vertex -6.25 10.825317547305483 20
      vertex -3.8627124296868423 11.888206453689419 20
    endloop
  endfacet
  facet normal 0 0 1
    outer loop
      vertex -4.789763412811685 14.74137600257488 20
      vertex -7.75 13.423393758658799 20
      vertex -3.8627124296868423 11.888206453689419 20
    endloop
  endfacet
  facet normal 0 0 1
    outer loop
      vertex 4.789763412811685 14.74137600257488 20
      vertex 0 12.5 20
      vertex 7.75 13.423393758658799 20
    endloop
  endfacet
  facet normal -0.20791169081775945 0.9781476007338057 2.0849289709538954e-18
    outer loop
      vertex -1.6201911806486289 15.415089378208236 20
      vertex -4.789763412811685 14.74137600257488 0
      vertex -4.789763412811685 14.74137600257488 20
    endloop
  endfacet
  facet normal 0 1 0
    outer loop
      vertex 0 15.415089378208236 20
      vertex 1.6201911806486289 15.415089378208236 20
      vertex 1.6201911806206888 15.415089378208236 19.99999999982755
    endloop
  endfacet
  facet normal 0 0 -1
    outer loop
      vertex 12.5 9.15483315443431 0
      vertex 15.161287811373988 3.2226312076752697 0
      vertex 12.5 0 0
    endloop
  endfacet
  facet normal 0 1 0
    outer loop
      vertex 0 15.415089378208236 0
      vertex -1.6201911806486289 15.415089378208236 20
      vertex 0 15.415089378208236 20
    endloop
  endfacet
  facet normal 0 0 -1
    outer loop
      vertex 12.5 0 0
      vertex 15.161287811373988 3.2226312076752697 0
      vertex 12.226845009172571 -2.5988961352219917 0
    endloop
  endfacet
  facet normal 0 0 1
    outer loop
      vertex -3.8627124296868423 11.888206453689419 20
      vertex -1.3066057908456683 12.431523692103417 20
      vertex -4.789763412811685 14.74137600257488 20
    endloop
  endfacet
  facet normal 0 0 1
    outer loop
      vertex -1.6201911806486289 15.415089378208236 20
      vertex -4.789763412811685 14.74137600257488 20
      vertex -1.3066057908456683 12.431523692103417 20
    endloop
  endfacet
  facet normal 0 0 1
    outer loop
      vertex -1.3066057908456683 12.431523692103417 20
      vertex 0 12.431523692103417 20
      vertex 0 12.5 20
    endloop
  endfacet
  facet normal 0 0 1
    outer loop
      vertex -1.6201911806486289 15.415089378208236 20
      vertex -1.3066057908456683 12.431523692103417 20
      vertex 0 12.5 20
    endloop
  endfacet
  facet normal 0 0 1
    outer loop
      vertex -1.6201911806486289 15.415089378208236 20
      vertex 0 12.5 20
      vertex 0 15.415089378208236 20
    endloop
  endfacet
  facet normal 0.8660254037844387 0.4999999999999996 0
    outer loop
      vertex -10.112712429686843 -7.347315653655914 20
      vertex -10.112712429686843 -7.347315653655914 0
      vertex -11.41931822053251 -5.084208038447502 20
    endloop
  endfacet
  facet normal 0.9945218953682734 -0.10452846326765323 0
    outer loop
      vertex -12.226845009172571 2.5988961352219917 0
      vertex -12.226845009172571 2.5988961352219917 20
      vertex -12.5 0 0
    endloop
  endfacet
  facet normal 0.2079116908177597 -0.9781476007338056 0
    outer loop
      vertex -3.8627124296868423 11.888206453689419 20
      vertex -3.8627124296868423 11.888206453689419 0
      vertex -1.3066057908456683 12.431523692103417 20
    endloop
  endfacet
  facet normal 0.40673664307579993 -0.913545457642601 0
    outer loop
      vertex -6.25 10.825317547305483 20
      vertex -6.25 10.825317547305483 0
      vertex -3.8627124296868423 11.888206453689419 20
    endloop
  endfacet
  facet normal 0.5877852522924727 -0.8090169943749478 0
    outer loop
      vertex -8.364132579485728 9.289310318467429 20
      vertex -8.364132579485728 9.289310318467429 0
      vertex -6.25 10.825317547305483 20
    endloop
  endfacet
  facet normal 0.7431448254773945 -0.6691306063588579 0
    outer loop
      vertex -10.112712429686843 7.347315653655914 20
      vertex -10.112712429686843 7.347315653655914 0
      vertex -8.364132579485728 9.289310318467429 20
    endloop
  endfacet
  facet normal 0.8660254037844387 -0.4999999999999996 0
    outer loop
      vertex -11.41931822053251 5.084208038447502 20
      vertex -11.41931822053251 5.084208038447502 0
      vertex -10.112712429686843 7.347315653655914 20
    endloop
  endfacet
  facet normal 0.9510565162951533 -0.309016994374948 0
    outer loop
      vertex -12.226845009172571 2.5988961352219917 20
      vertex -12.226845009172571 2.5988961352219917 0
      vertex -11.41931822053251 5.084208038447502 20
    endloop
  endfacet
  facet normal 0.9945218953682734 -0.10452846326765323 0
    outer loop
      vertex -12.5 0 20
      vertex -12.5 0 0
      vertex -12.226845009172571 2.5988961352219917 20
    endloop
  endfacet
  facet normal 0 -1 0
    outer loop
      vertex -1.3066057908456683 12.431523692103417 0
      vertex 0 12.431523692103417 0
      vertex 0 12.431523692103417 20
    endloop
  endfacet
  facet normal 0.2079116908177597 -0.9781476007338056 2.504226240234984e-19
    outer loop
      vertex -3.8627124296868423 11.888206453689419 0
      vertex -1.3066057908456683 12.431523692103417 0
      vertex -1.3066057908456683 12.431523692103417 20
    endloop
  endfacet
  facet normal 0.40673664307579993 -0.913545457642601 0
    outer loop
      vertex -3.8627124296868423 11.888206453689419 0
      vertex -3.8627124296868423 11.888206453689419 20
      vertex -6.25 10.825317547305483 0
    endloop
  endfacet
  facet normal 0.5877852522924727 -0.8090169943749478 0
    outer loop
      vertex -6.25 10.825317547305483 0
      vertex -6.25 10.825317547305483 20
      vertex -8.364132579485728 9.289310318467429 0
    endloop
  endfacet
  facet normal 0.7431448254773945 -0.6691306063588579 0
    outer loop
      vertex -8.364132579485728 9.289310318467429 0
      vertex -8.364132579485728 9.289310318467429 20
      vertex -10.112712429686843 7.347315653655914 0
    endloop
  endfacet
  facet normal -0.7431448254773945 0.6691306063588579 -1.871563566715962e-18
    outer loop
      vertex 10.112712429686843 -7.347315653655914 0
      vertex 8.364132579485728 -9.289310318467429 0
      vertex 8.364132579485728 -9.289310318467429 20
    endloop
  endfacet
  facet normal 0.8660254037844387 -0.4999999999999996 0
    outer loop
      vertex -10.112712429686843 7.347315653655914 0
      vertex -10.112712429686843 7.347315653655914 20
      vertex -11.41931822053251 5.084208038447502 0
    endloop
  endfacet
  facet normal -0.2079116908177597 0.9781476007338056 0
    outer loop
      vertex 3.8627124296868423 -11.888206453689419 20
      vertex 3.8627124296868423 -11.888206453689419 0
      vertex 1.3066057908456683 -12.431523692103417 20
    endloop
  endfacet
  facet normal 0 1 0
    outer loop
      vertex 1.3066057908456683 -12.431523692103417 20
      vertex 1.3066057908456683 -12.431523692103417 0
      vertex -1.3066057908456683 -12.431523692103417 20
    endloop
  endfacet
  facet normal 0.2079116908177597 0.9781476007338056 0
    outer loop
      vertex -1.3066057908456683 -12.431523692103417 20
      vertex -1.3066057908456683 -12.431523692103417 0
      vertex -3.8627124296868423 -11.888206453689419 20
    endloop
  endfacet
  facet normal 0.9945218953682734 0.10452846326765323 0
    outer loop
      vertex -12.226845009172571 -2.5988961352219917 20
      vertex -12.226845009172571 -2.5988961352219917 0
      vertex -12.5 0 20
    endloop
  endfacet
  facet normal 0.9510565162951533 0.309016994374948 0
    outer loop
      vertex -11.41931822053251 -5.084208038447502 20
      vertex -11.41931822053251 -5.084208038447502 0
      vertex -12.226845009172571 -2.5988961352219917 20
    endloop
  endfacet
  facet normal 0.40673664307579993 0.913545457642601 0
    outer loop
      vertex -3.8627124296868423 -11.888206453689419 20
      vertex -3.8627124296868423 -11.888206453689419 0
      vertex -6.25 -10.825317547305483 20
    endloop
  endfacet
  facet normal 0.5877852522924727 0.8090169943749478 0
    outer loop
      vertex -6.25 -10.825317547305483 20
      vertex -6.25 -10.825317547305483 0
      vertex -8.364132579485728 -9.289310318467429 20
    endloop
  endfacet
  facet normal 0.7431448254773945 0.6691306063588579 0
    outer loop
      vertex -8.364132579485728 -9.289310318467429 20
      vertex -8.364132579485728 -9.289310318467429 0
      vertex -10.112712429686843 -7.347315653655914 20
    endloop
  endfacet
  facet normal -0.8660254037844387 0.4999999999999996 4.219043246786687e-18
    outer loop
      vertex 11.41931822053251 -5.084208038447502 0
      vertex 10.112712429686843 -7.347315653655914 0
      vertex 10.112712429686843 -7.347315653655914 20
    endloop
  endfacet
  facet normal -0.9510565162951533 0.309016994374948 -8.22964242587456e-19
    outer loop
      vertex 12.226845009172571 -2.5988961352219917 0
      vertex 11.41931822053251 -5.084208038447502 0
      vertex 11.41931822053251 -5.084208038447502 20
    endloop
  endfacet
  facet normal -0.9945218953682734 0.10452846326765323 0
    outer loop
      vertex 12.226845009172571 -2.5988961352219917 0
      vertex 12.226845009172571 -2.5988961352219917 20
      vertex 12.5 0 0
    endloop
  endfacet
  facet normal -0.5877852522924727 0.8090169943749478 -2.9323132711748785e-18
    outer loop
      vertex 8.364132579485728 -9.289310318467429 0
      vertex 6.25 -10.825317547305483 0
      vertex 6.25 -10.825317547305483 20
    endloop
  endfacet
  facet normal -0.40673664307579993 0.913545457642601 2.5147367819546525e-18
    outer loop
      vertex 6.25 -10.825317547305483 0
      vertex 3.8627124296868423 -11.888206453689419 0
      vertex 3.8627124296868423 -11.888206453689419 20
    endloop
  endfacet
  facet normal -0.2079116908177597 0.9781476007338056 2.504226240234984e-19
    outer loop
      vertex 3.8627124296868423 -11.888206453689419 0
      vertex 1.3066057908456683 -12.431523692103417 0
      vertex 1.3066057908456683 -12.431523692103417 20
    endloop
  endfacet
  facet normal -0.5877852522924727 0.8090169943749478 0
    outer loop
      vertex 8.364132579485728 -9.289310318467429 0
      vertex 6.25 -10.825317547305483 20
      vertex 8.364132579485728 -9.289310318467429 20
    endloop
  endfacet
  facet normal -0.7431448254773945 0.6691306063588579 0
    outer loop
      vertex 10.112712429686843 -7.347315653655914 20
      vertex 10.112712429686843 -7.347315653655914 0
      vertex 8.364132579485728 -9.289310318467429 20
    endloop
  endfacet
  facet normal 0 1 0
    outer loop
      vertex 1.3066057908456683 -12.431523692103417 0
      vertex -1.3066057908456683 -12.431523692103417 0
      vertex -1.3066057908456683 -12.431523692103417 20
    endloop
  endfacet
  facet normal 0.2079116908177597 0.9781476007338056 -2.504226240234984e-19
    outer loop
      vertex -1.3066057908456683 -12.431523692103417 0
      vertex -3.8627124296868423 -11.888206453689419 0
      vertex -3.8627124296868423 -11.888206453689419 20
    endloop
  endfacet
  facet normal 0.9945218953682734 0.10452846326765323 0
    outer loop
      vertex -12.5 0 0
      vertex -12.5 0 20
      vertex -12.226845009172571 -2.5988961352219917 0
    endloop
  endfacet
  facet normal 0.9510565162951533 0.309016994374948 8.22964242587456e-19
    outer loop
      vertex -11.41931822053251 -5.084208038447502 0
      vertex -12.226845009172571 -2.5988961352219917 0
      vertex -12.226845009172571 -2.5988961352219917 20
    endloop
  endfacet
  facet normal -0.8660254037844387 0.4999999999999996 0
    outer loop
      vertex 11.41931822053251 -5.084208038447502 20
      vertex 11.41931822053251 -5.084208038447502 0
      vertex 10.112712429686843 -7.347315653655914 20
    endloop
  endfacet
  facet normal -0.9510565162951533 0.309016994374948 0
    outer loop
      vertex 12.226845009172571 -2.5988961352219917 20
      vertex 12.226845009172571 -2.5988961352219917 0
      vertex 11.41931822053251 -5.084208038447502 20
    endloop
  endfacet
  facet normal -0.9945218953682734 0.10452846326765323 0
    outer loop
      vertex 12.5 0 20
      vertex 12.5 0 0
      vertex 12.226845009172571 -2.5988961352219917 20
    endloop
  endfacet
  facet normal 0.8660254037844387 0.4999999999999996 0
    outer loop
      vertex -11.41931822053251 -5.084208038447502 0
      vertex -11.41931822053251 -5.084208038447502 20
      vertex -10.112712429686843 -7.347315653655914 0
    endloop
  endfacet
  facet normal 0.40673664307579993 0.913545457642601 -2.5147367819546525e-18
    outer loop
      vertex -3.8627124296868423 -11.888206453689419 0
      vertex -6.25 -10.825317547305483 0
      vertex -6.25 -10.825317547305483 20
    endloop
  endfacet
  facet normal 0.7431448254773945 0.6691306063588579 0
    outer loop
      vertex -10.112712429686843 -7.347315653655914 0
      vertex -10.112712429686843 -7.347315653655914 20
      vertex -8.364132579485728 -9.289310318467429 0
    endloop
  endfacet
  facet normal 0.5877852522924727 0.8090169943749478 2.9323132711748785e-18
    outer loop
      vertex -6.25 -10.825317547305483 0
      vertex -8.364132579485728 -9.289310318467429 0
      vertex -8.364132579485728 -9.289310318467429 20
    endloop
  endfacet
  facet normal 0.9510565162951533 -0.309016994374948 0
    outer loop
      vertex -11.41931822053251 5.084208038447502 0
      vertex -11.41931822053251 5.084208038447502 20
      vertex -12.226845009172571 2.5988961352219917 0
    endloop
  endfacet
  facet normal -0.40673664307579993 0.913545457642601 0
    outer loop
      vertex 6.25 -10.825317547305483 20
      vertex 6.25 -10.825317547305483 0
      vertex 3.8627124296868423 -11.888206453689419 20
    endloop
  endfacet
  facet normal 0 -1 0
    outer loop
      vertex -1.3066057908456683 12.431523692103417 20
      vertex -1.3066057908456683 12.431523692103417 0
      vertex 0 12.431523692103417 20
    endloop
  endfacet
  facet normal 0.7933533402912354 0 0.6087614290087204
    outer loop
      vertex 28.04737854124365 12.5 18.04737854124365
      vertex 29.10683602522959 15.5 16.666666666666664
      vertex 28.04737854124365 15.5 18.04737854124365
    endloop
  endfacet
  facet normal 0 1 0
    outer loop
      vertex 22.5 15.5 7.5
      vertex 24.26776695296637 15.5 8.232233047033631
      vertex 29.10683602522959 15.5 3.333333333333334
    endloop
  endfacet
  facet normal 0 -1 0
    outer loop
      vertex 12.5 12.5 15.92468630498844
      vertex 20.73223304703363 12.5 8.232233047033631
      vertex 20 12.5 10
    endloop
  endfacet
  facet normal -1 0 0
    outer loop
      vertex 0 15.5 20
      vertex 0 15.415089378208236 0
      vertex 0 15.415089378208236 20
    endloop
  endfacet
  facet normal 0 -1 0
    outer loop
      vertex 25.0587936340168 12.5 19.772838841927122
      vertex 29.772838841927122 12.5 15.058793634016805
      vertex 26.666666666666664 12.5 19.10683602522959
    endloop
  endfacet
  facet normal 0.3826834323650898 0 0.9238795325112867
    outer loop
      vertex 26.666666666666664 15.5 19.10683602522959
      vertex 25.0587936340168 15.5 19.772838841927122
      vertex 26.666666666666664 12.5 19.10683602522959
    endloop
  endfacet
  facet normal 0.6087614290087204 0 0.7933533402912354
    outer loop
      vertex 26.666666666666664 12.5 19.10683602522959
      vertex 28.04737854124365 12.5 18.04737854124365
      vertex 26.666666666666664 15.5 19.10683602522959
    endloop
  endfacet
  facet normal 0.3826834323650898 0 0.9238795325112867
    outer loop
      vertex 25.0587936340168 15.5 19.772838841927122
      vertex 25.0587936340168 12.5 19.772838841927122
      vertex 26.666666666666664 12.5 19.10683602522959
    endloop
  endfacet
  facet normal 0.1305261922200511 0 0.9914448613738104
    outer loop
      vertex 25.0587936340168 15.5 19.772838841927122
      vertex 23.33333335219759 12.5 19.999999997516472
      vertex 25.0587936340168 12.5 19.772838841927122
    endloop
  endfacet
  facet normal 0 -1 0
    outer loop
      vertex 23.33333335219759 12.5 19.999999997516472
      vertex 29.772838841927122 12.5 15.058793634016805
      vertex 25.0587936340168 12.5 19.772838841927122
    endloop
  endfacet
  facet normal 0.9238795325112864 -1.61667880715168e-17 0.3826834323650905
    outer loop
      vertex 29.10683602522959 15.5 16.666666666666664
      vertex 29.772838841927122 12.5 15.058793634016805
      vertex 29.772838841927122 15.5 15.058793634016805
    endloop
  endfacet
  facet normal -1 0 0
    outer loop
      vertex 0 15.5 0
      vertex 0 15.415089378208236 0
      vertex 0 15.5 20
    endloop
  endfacet
  facet normal 9.517344966240545e-11 8.856092055672914e-15 -1
    outer loop
      vertex 1.620191180673066 15.415089378203042 1.5419843180097814e-10
      vertex 0 15.5 0
      vertex 26.094757084970826 15.5 2.483528049879169e-9
    endloop
  endfacet
  facet normal 0.7933533402912354 1.1788331832537594e-17 0.6087614290087204
    outer loop
      vertex 28.04737854124365 12.5 18.04737854124365
      vertex 29.10683602522959 12.5 16.666666666666664
      vertex 29.10683602522959 15.5 16.666666666666664
    endloop
  endfacet
  facet normal 0 -1 0
    outer loop
      vertex 28.04737854124365 12.5 18.04737854124365
      vertex 29.772838841927122 12.5 15.058793634016805
      vertex 29.10683602522959 12.5 16.666666666666664
    endloop
  endfacet
  facet normal 9.517347998915118e-11 1.147364825497825e-16 -1
    outer loop
      vertex 4.789763412811685 14.74137600257488 4.558575739110893e-10
      vertex 1.620191180673066 15.415089378203042 1.5419843180097814e-10
      vertex 26.094757084970826 15.5 2.483528049879169e-9
    endloop
  endfacet
  facet normal 9.517351585695164e-11 -8.925652430051931e-16 -1
    outer loop
      vertex 7.75 13.423393758658799 7.375948740673266e-10
      vertex 4.789763412811685 14.74137600257488 4.558575739110893e-10
      vertex 26.094757084970826 15.5 2.483528049879169e-9
    endloop
  endfacet
  facet normal 0 -1 0
    outer loop
      vertex 29.772838841927122 12.5 15.058793634016805
      vertex 28.04737854124365 12.5 18.04737854124365
      vertex 26.666666666666664 12.5 19.10683602522959
    endloop
  endfacet
  facet normal 0.9238795325112864 -1.61667880715168e-17 0.3826834323650905
    outer loop
      vertex 29.772838841927122 12.5 15.058793634016805
      vertex 29.10683602522959 15.5 16.666666666666664
      vertex 29.10683602522959 12.5 16.666666666666664
    endloop
  endfacet
  facet normal 0 -1 0
    outer loop
      vertex 20 12.5 17.385791255631194
      vertex 29.772838841927122 12.5 15.058793634016805
      vertex 23.33333335219759 12.5 19.999999997516472
    endloop
  endfacet
  facet normal 0.1305261922200511 0 0.9914448613738104
    outer loop
      vertex 23.33333335219759 15.5 19.999999997516472
      vertex 23.33333335219759 12.5 19.999999997516472
      vertex 25.0587936340168 15.5 19.772838841927122
    endloop
  endfacet
  facet normal 0 -1 0
    outer loop
      vertex 23.33333335219759 12.5 19.999999997516472
      vertex 20 12.5 19.99999999787126
      vertex 20 12.5 17.385791255631194
    endloop
  endfacet
  facet normal 9.517334134296523e-11 6.490927877451227e-16 -1
    outer loop
      vertex 26.094757084970826 15.5 2.483528049879169e-9
      vertex 9.020942474893893 12.5 8.585541166894473e-10
      vertex 7.75 13.423393758658799 7.375948740673266e-10
    endloop
  endfacet
  facet normal 0 -1 0
    outer loop
      vertex 12.500000000892252 12.5 1.1896680429516102e-9
      vertex 26.094757084970826 12.5 2.483528049879169e-9
      vertex 12.5 12.5 5.838412115247134e-9
    endloop
  endfacet
  facet normal 9.517345539353961e-11 -9.194517548040699e-26 -1
    outer loop
      vertex 12.5 12.5 1.1896680428666917e-9
      vertex 9.020942474893893 12.5 8.585541166894473e-10
      vertex 26.094757084970826 15.5 2.483528049879169e-9
    endloop
  endfacet
  facet normal 9.517334338789181e-11 5.075631912579975e-16 -1
    outer loop
      vertex 12.5 12.5 1.1896680428666917e-9
      vertex 26.094757084970826 15.5 2.483528049879169e-9
      vertex 12.500000000892252 12.5 1.1896680429516102e-9
    endloop
  endfacet
  facet normal 0 1 0
    outer loop
      vertex 26.094757084970826 15.5 2.483528049879169e-9
      vertex 0 15.5 0
      vertex 29.10683602522959 15.5 3.333333333333334
    endloop
  endfacet
  facet normal 0.9914448613738104 0 0.1305261922200511
    outer loop
      vertex 29.772838841927122 12.5 15.058793634016805
      vertex 29.999999997516472 15.5 13.333333352197595
      vertex 29.772838841927122 15.5 15.058793634016805
    endloop
  endfacet
  facet normal 0 1 0
    outer loop
      vertex 29.10683602522959 15.5 16.666666666666664
      vertex 29.10683602522959 15.5 3.333333333333334
      vertex 28.04737854124365 15.5 18.04737854124365
    endloop
  endfacet
  facet normal 0 1 0
    outer loop
      vertex 29.10683602522959 15.5 3.333333333333334
      vertex 0 15.5 0
      vertex 0 15.5 20
    endloop
  endfacet
  facet normal 0 1 0
    outer loop
      vertex 29.10683602522959 15.5 3.333333333333334
      vertex 26.666666666666664 15.5 19.10683602522959
      vertex 28.04737854124365 15.5 18.04737854124365
    endloop
  endfacet
  facet normal 0.9914448613738104 2.092739765463459e-18 0.1305261922200511
    outer loop
      vertex 29.772838841927122 12.5 15.058793634016805
      vertex 29.999999997516472 12.5 13.333333352197595
      vertex 29.999999997516472 15.5 13.333333352197595
    endloop
  endfacet
  facet normal 0 -1 0
    outer loop
      vertex 26.094757084970826 12.5 2.483528049879169e-9
      vertex 12.5 12.5 15.92468630498844
      vertex 12.5 12.5 5.838412115247134e-9
    endloop
  endfacet
  facet normal 0 1 0
    outer loop
      vertex 29.10683602522959 15.5 3.333333333333334
      vertex 25.0587936340168 15.5 19.772838841927122
      vertex 26.666666666666664 15.5 19.10683602522959
    endloop
  endfacet
  facet normal 0 1 0
    outer loop
      vertex 29.10683602522959 15.5 3.333333333333334
      vertex 23.33333335219759 15.5 19.999999997516472
      vertex 25.0587936340168 15.5 19.772838841927122
    endloop
  endfacet
  facet normal 0 -1 0
    outer loop
      vertex 24.26776695296637 12.5 11.767766952966369
      vertex 29.772838841927122 12.5 15.058793634016805
      vertex 20 12.5 17.385791255631194
    endloop
  endfacet
  facet normal 0 1 0
    outer loop
      vertex 29.772838841927122 15.5 15.058793634016805
      vertex 29.10683602522959 15.5 3.333333333333334
      vertex 29.10683602522959 15.5 16.666666666666664
    endloop
  endfacet
  facet normal 9.51734553935396e-11 0 -1
    outer loop
      vertex 26.094757084970826 15.5 2.483528049879169e-9
      vertex 26.094757084970826 12.5 2.483528049879169e-9
      vertex 12.500000000892252 12.5 1.1896680429516102e-9
    endloop
  endfacet
  facet normal 0 1 0
    outer loop
      vertex 29.999999997516472 15.5 13.333333352197595
      vertex 29.10683602522959 15.5 3.333333333333334
      vertex 29.772838841927122 15.5 15.058793634016805
    endloop
  endfacet
  facet normal 0 -1 0
    outer loop
      vertex 29.772838841927122 12.5 15.058793634016805
      vertex 29.999999997516472 12.5 6.666666647802405
      vertex 29.999999997516472 12.5 13.333333352197595
    endloop
  endfacet
  facet normal 1 0 0
    outer loop
      vertex 29.999999997516472 12.5 6.666666647802405
      vertex 29.999999997516472 15.5 13.333333352197595
      vertex 29.999999997516472 12.5 13.333333352197595
    endloop
  endfacet
  facet normal 0 1 0
    outer loop
      vertex 24.26776695296637 15.5 11.767766952966369
      vertex 23.33333335219759 15.5 19.999999997516472
      vertex 29.10683602522959 15.5 3.333333333333334
    endloop
  endfacet
  facet normal 0 -1 0
    outer loop
      vertex 24.26776695296637 12.5 11.767766952966369
      vertex 25 12.5 10
      vertex 29.772838841927122 12.5 15.058793634016805
    endloop
  endfacet
  facet normal 0 -1 0
    outer loop
      vertex 25 12.5 10
      vertex 24.26776695296637 12.5 8.232233047033631
      vertex 29.772838841927122 12.5 15.058793634016805
    endloop
  endfacet
  facet normal 0.7071067811865476 0 -0.7071067811865476
    outer loop
      vertex 26.094757084970826 12.5 2.483528049879169e-9
      vertex 26.094757084970826 15.5 2.483528049879169e-9
      vertex 28.04737854124365 15.5 1.9526214587563508
    endloop
  endfacet
  facet normal 0.7071067811865476 -1.469124290917934e-17 -0.7071067811865476
    outer loop
      vertex 26.094757084970826 12.5 2.483528049879169e-9
      vertex 28.04737854124365 15.5 1.9526214587563508
      vertex 28.04737854124365 12.5 1.9526214587563508
    endloop
  endfacet
  facet normal 0.7933533402912349 0 -0.6087614290087209
    outer loop
      vertex 28.04737854124365 12.5 1.9526214587563508
      vertex 28.04737854124365 15.5 1.9526214587563508
      vertex 29.10683602522959 15.5 3.333333333333334
    endloop
  endfacet
  facet normal 0 1 0
    outer loop
      vertex 28.04737854124365 15.5 1.9526214587563508
      vertex 26.094757084970826 15.5 2.483528049879169e-9
      vertex 29.10683602522959 15.5 3.333333333333334
    endloop
  endfacet
  facet normal 0.7933533402912349 1.0511195682367593e-17 -0.6087614290087209
    outer loop
      vertex 28.04737854124365 12.5 1.9526214587563508
      vertex 29.10683602522959 15.5 3.333333333333334
      vertex 29.10683602522959 12.5 3.333333333333334
    endloop
  endfacet
  facet normal 0.9238795325112865 0 -0.3826834323650901
    outer loop
      vertex 29.10683602522959 12.5 3.333333333333334
      vertex 29.10683602522959 15.5 3.333333333333334
      vertex 29.772838841927122 12.5 4.941206365983195
    endloop
  endfacet
  facet normal 0.9238795325112865 0 -0.3826834323650901
    outer loop
      vertex 29.772838841927122 12.5 4.941206365983195
      vertex 29.10683602522959 15.5 3.333333333333334
      vertex 29.772838841927122 15.5 4.941206365983195
    endloop
  endfacet
  facet normal 0 1 0
    outer loop
      vertex 29.772838841927122 15.5 4.941206365983195
      vertex 29.10683602522959 15.5 3.333333333333334
      vertex 29.999999997516472 15.5 6.666666647802405
    endloop
  endfacet
  facet normal 0 1 0
    outer loop
      vertex 24.26776695296637 15.5 11.767766952966369
      vertex 22.5 15.5 12.5
      vertex 23.33333335219759 15.5 19.999999997516472
    endloop
  endfacet
  facet normal 0 -1 0
    outer loop
      vertex 22.5 12.5 12.5
      vertex 24.26776695296637 12.5 11.767766952966369
      vertex 20 12.5 17.385791255631194
    endloop
  endfacet
  facet normal 0 -1 0
    outer loop
      vertex 20.73223304703363 12.5 11.767766952966369
      vertex 22.5 12.5 12.5
      vertex 20 12.5 17.385791255631194
    endloop
  endfacet
  facet normal 0 -1 0
    outer loop
      vertex 20 12.5 17.385791255631194
      vertex 20 12.5 10
      vertex 20.73223304703363 12.5 11.767766952966369
    endloop
  endfacet
  facet normal 1.0643689013999361e-10 0 1
    outer loop
      vertex 23.33333335219759 15.5 19.999999997516472
      vertex 1.6201911806206888 15.415089378208236 19.99999999982755
      vertex 23.33333335219759 12.5 19.999999997516472
    endloop
  endfacet
  facet normal 1.0643645904356652e-10 -6.9334055940025114e-15 1
    outer loop
      vertex 20 12.5 19.99999999787126
      vertex 23.33333335219759 12.5 19.999999997516472
      vertex 7.75 13.423393758658799 19.999999999175113
    endloop
  endfacet
  facet normal 1.0643693334107714e-10 -6.412420930013485e-16 1
    outer loop
      vertex 20 12.5 19.99999999787126
      vertex 7.75 13.423393758658799 19.999999999175113
      vertex 12.5 12.5 19.999999998669537
    endloop
  endfacet
  facet normal 0 1 0
    outer loop
      vertex 0 15.5 20
      vertex 23.33333335219759 15.5 19.999999997516472
      vertex 22.5 15.5 12.5
    endloop
  endfacet
  facet normal 1.0643680756884218e-10 -1.051640094307914e-15 1
    outer loop
      vertex 23.33333335219759 12.5 19.999999997516472
      vertex 4.789763412811685 14.74137600257488 19.999999999490193
      vertex 7.75 13.423393758658799 19.999999999175113
    endloop
  endfacet
  facet normal 1.0643733694019053e-10 3.3280064312134957e-15 1
    outer loop
      vertex 1.6201911806206888 15.415089378208236 19.99999999982755
      vertex 4.789763412811685 14.74137600257488 19.999999999490193
      vertex 23.33333335219759 12.5 19.999999997516472
    endloop
  endfacet
  facet normal 1.0643726742353443e-10 -9.647804934800935e-14 1
    outer loop
      vertex 23.33333335219759 15.5 19.999999997516472
      vertex 0 15.415089378208236 20
      vertex 1.6201911806206888 15.415089378208236 19.99999999982755
    endloop
  endfacet
  facet normal 0 -1 0
    outer loop
      vertex 26.094757084970826 12.5 2.483528049879169e-9
      vertex 22.5 12.5 7.5
      vertex 20.73223304703363 12.5 8.232233047033631
    endloop
  endfacet
  facet normal 0 -1 0
    outer loop
      vertex 24.26776695296637 12.5 8.232233047033631
      vertex 22.5 12.5 7.5
      vertex 26.094757084970826 12.5 2.483528049879169e-9
    endloop
  endfacet
  facet normal 0 1 0
    outer loop
      vertex 29.10683602522959 15.5 3.333333333333334
      vertex 20.73223304703363 15.5 8.232233047033631
      vertex 22.5 15.5 7.5
    endloop
  endfacet
  facet normal 0 -1 0
    outer loop
      vertex 12.5 12.5 15.92468630498844
      vertex 26.094757084970826 12.5 2.483528049879169e-9
      vertex 20.73223304703363 12.5 8.232233047033631
    endloop
  endfacet
  facet normal 1.0643691633734209e-10 0 1
    outer loop
      vertex 0 15.5 20
      vertex 0 15.415089378208236 20
      vertex 23.33333335219759 15.5 19.999999997516472
    endloop
  endfacet
  facet normal 1.0643668409308135e-10 -1.9233906551348902e-15 1
    outer loop
      vertex 7.75 13.423393758658799 19.999999999175113
      vertex 9.020942474893893 12.5 19.999999999039836
      vertex 12.5 12.5 19.999999998669537
    endloop
  endfacet
  facet normal 9.517298553428766e-11 0 -1
    outer loop
      vertex 0 15.415089378208236 0
      vertex 0 15.5 0
      vertex 1.620191180673066 15.415089378203042 1.5419843180097814e-10
    endloop
  endfacet
  facet normal 0 1 0
    outer loop
      vertex 0 15.5 20
      vertex 22.5 15.5 12.5
      vertex 20.73223304703363 15.5 11.767766952966369
    endloop
  endfacet
  facet normal 0 1 0
    outer loop
      vertex 0 15.5 20
      vertex 20.73223304703363 15.5 11.767766952966369
      vertex 20 15.5 10
    endloop
  endfacet
  facet normal 0 1 0
    outer loop
      vertex 29.10683602522959 15.5 3.333333333333334
      vertex 0 15.5 20
      vertex 20.73223304703363 15.5 8.232233047033631
    endloop
  endfacet
  facet normal 0.6087614290087204 0 0.7933533402912354
    outer loop
      vertex 28.04737854124365 15.5 18.04737854124365
      vertex 26.666666666666664 15.5 19.10683602522959
      vertex 28.04737854124365 12.5 18.04737854124365
    endloop
  endfacet
  facet normal 1 0 0
    outer loop
      vertex 29.999999997516472 15.5 6.666666647802405
      vertex 29.999999997516472 15.5 13.333333352197595
      vertex 29.999999997516472 12.5 6.666666647802405
    endloop
  endfacet
  facet normal 0 1 0
    outer loop
      vertex 29.999999997516472 15.5 6.666666647802405
      vertex 29.10683602522959 15.5 3.333333333333334
      vertex 29.999999997516472 15.5 13.333333352197595
    endloop
  endfacet
  facet normal 0 -1 0
    outer loop
      vertex 29.772838841927122 12.5 15.058793634016805
      vertex 29.772838841927122 12.5 4.941206365983195
      vertex 29.999999997516472 12.5 6.666666647802405
    endloop
  endfacet
  facet normal 0 -1 0
    outer loop
      vertex 29.772838841927122 12.5 15.058793634016805
      vertex 29.10683602522959 12.5 3.333333333333334
      vertex 29.772838841927122 12.5 4.941206365983195
    endloop
  endfacet
  facet normal 0 1 0
    outer loop
      vertex 25 15.5 10
      vertex 24.26776695296637 15.5 11.767766952966369
      vertex 29.10683602522959 15.5 3.333333333333334
    endloop
  endfacet
  facet normal 0 -1 0
    outer loop
      vertex 24.26776695296637 12.5 8.232233047033631
      vertex 26.094757084970826 12.5 2.483528049879169e-9
      vertex 29.772838841927122 12.5 15.058793634016805
    endloop
  endfacet
  facet normal 0.9914448613738104 0 -0.1305261922200511
    outer loop
      vertex 29.999999997516472 12.5 6.666666647802405
      vertex 29.772838841927122 15.5 4.941206365983195
      vertex 29.999999997516472 15.5 6.666666647802405
    endloop
  endfacet
  facet normal 0 -1 0
    outer loop
      vertex 29.772838841927122 12.5 15.058793634016805
      vertex 28.04737854124365 12.5 1.9526214587563508
      vertex 29.10683602522959 12.5 3.333333333333334
    endloop
  endfacet
  facet normal 0.9914448613738104 0 -0.1305261922200511
    outer loop
      vertex 29.772838841927122 12.5 4.941206365983195
      vertex 29.772838841927122 15.5 4.941206365983195
      vertex 29.999999997516472 12.5 6.666666647802405
    endloop
  endfacet
  facet normal 0 -1 0
    outer loop
      vertex 26.094757084970826 12.5 2.483528049879169e-9
      vertex 28.04737854124365 12.5 1.9526214587563508
      vertex 29.772838841927122 12.5 15.058793634016805
    endloop
  endfacet
  facet normal 0 1 0
    outer loop
      vertex 24.26776695296637 15.5 8.232233047033631
      vertex 25 15.5 10
      vertex 29.10683602522959 15.5 3.333333333333334
    endloop
  endfacet
  facet normal 0 1 0
    outer loop
      vertex 0 15.5 20
      vertex 20 15.5 10
      vertex 20.73223304703363 15.5 8.232233047033631
    endloop
  endfacet
  facet normal 0 1 0
    outer loop
      vertex 20.73223304703363 11 8.232233047033631
      vertex 12.5 11 0
      vertex 12.5 11 20
    endloop
  endfacet
  facet normal 0 -1 0
    outer loop
      vertex 26.666666666666664 8 19.10683602522959
      vertex 15.5 8 19.999999999313914
      vertex 22.5 8 12.5
    endloop
  endfacet
  facet normal 1 0 0
    outer loop
      vertex 29.999999997516472 8 6.666666647802405
      vertex 29.999999997516472 11 6.666666647802405
      vertex 29.999999997516472 11 13.333333352197595
    endloop
  endfacet
  facet normal 0 -1 0
    outer loop
      vertex 26.666666666666664 8 19.10683602522959
      vertex 28.04737854124365 8 1.9526214587563508
      vertex 29.10683602522959 8 3.333333333333334
    endloop
  endfacet
  facet normal 0 1 0
    outer loop
      vertex 25 11 10
      vertex 29.999999997516472 11 13.333333352197595
      vertex 26.094757084970826 11 2.483528049879169e-9
    endloop
  endfacet
  facet normal 0 -1 0
    outer loop
      vertex 26.094757084970826 8 2.483528049879169e-9
      vertex 26.666666666666664 8 19.10683602522959
      vertex 25 8 10
    endloop
  endfacet
  facet normal 0 1 0
    outer loop
      vertex 29.772838841927122 11 4.941206365983195
      vertex 29.10683602522959 11 3.333333333333334
      vertex 29.999999997516472 11 13.333333352197595
    endloop
  endfacet
  facet normal 0 1 0
    outer loop
      vertex 29.10683602522959 11 3.333333333333334
      vertex 28.04737854124365 11 1.9526214587563508
      vertex 29.999999997516472 11 13.333333352197595
    endloop
  endfacet
  facet normal 0.9914448613738104 -2.092739765463459e-18 -0.1305261922200511
    outer loop
      vertex 29.999999997516472 11 6.666666647802405
      vertex 29.772838841927122 8 4.941206365983195
      vertex 29.772838841927122 11 4.941206365983195
    endloop
  endfacet
  facet normal 0 1 0
    outer loop
      vertex 28.04737854124365 11 1.9526214587563508
      vertex 26.094757084970826 11 2.483528049879169e-9
      vertex 29.999999997516472 11 13.333333352197595
    endloop
  endfacet
  facet normal 0.9914448613738104 -2.092739765463459e-18 -0.1305261922200511
    outer loop
      vertex 29.772838841927122 8 4.941206365983195
      vertex 29.999999997516472 11 6.666666647802405
      vertex 29.999999997516472 8 6.666666647802405
    endloop
  endfacet
  facet normal 0 1 0
    outer loop
      vertex 25 11 10
      vertex 26.094757084970826 11 2.483528049879169e-9
      vertex 24.26776695296637 11 8.232233047033631
    endloop
  endfacet
  facet normal 1.8268274740396048e-10 -3.738767700836514e-27 -1
    outer loop
      vertex 15.5 8 5.480487175191229e-10
      vertex 26.094757084970826 11 2.483528049879169e-9
      vertex 26.094757084970826 8 2.483528049879169e-9
    endloop
  endfacet
  facet normal 0 -1 0
    outer loop
      vertex 15.5 8 5.480487175191229e-10
      vertex 26.094757084970826 8 2.483528049879169e-9
      vertex 20.73223304703363 8 8.232233047033631
    endloop
  endfacet
  facet normal 0 1 0
    outer loop
      vertex 26.094757084970826 11 2.483528049879169e-9
      vertex 12.5 11 0
      vertex 22.5 11 7.5
    endloop
  endfacet
  facet normal 0.7071067811865476 0 -0.7071067811865476
    outer loop
      vertex 26.094757084970826 8 2.483528049879169e-9
      vertex 26.094757084970826 11 2.483528049879169e-9
      vertex 28.04737854124365 11 1.9526214587563508
    endloop
  endfacet
  facet normal 0 -1 0
    outer loop
      vertex 26.094757084970826 8 2.483528049879169e-9
      vertex 28.04737854124365 8 1.9526214587563508
      vertex 26.666666666666664 8 19.10683602522959
    endloop
  endfacet
  facet normal 0.7071067811865476 -1.469124290917934e-17 -0.7071067811865476
    outer loop
      vertex 26.094757084970826 8 2.483528049879169e-9
      vertex 28.04737854124365 11 1.9526214587563508
      vertex 28.04737854124365 8 1.9526214587563508
    endloop
  endfacet
  facet normal 0.7933533402912349 0 -0.6087614290087209
    outer loop
      vertex 28.04737854124365 8 1.9526214587563508
      vertex 28.04737854124365 11 1.9526214587563508
      vertex 29.10683602522959 8 3.333333333333334
    endloop
  endfacet
  facet normal 0.9238795325112865 0 -0.3826834323650901
    outer loop
      vertex 29.10683602522959 8 3.333333333333334
      vertex 29.10683602522959 11 3.333333333333334
      vertex 29.772838841927122 8 4.941206365983195
    endloop
  endfacet
  facet normal 0 1 0
    outer loop
      vertex 20.73223304703363 11 8.232233047033631
      vertex 22.5 11 7.5
      vertex 12.5 11 0
    endloop
  endfacet
  facet normal 0.7933533402912349 0 -0.6087614290087209
    outer loop
      vertex 29.10683602522959 8 3.333333333333334
      vertex 28.04737854124365 11 1.9526214587563508
      vertex 29.10683602522959 11 3.333333333333334
    endloop
  endfacet
  facet normal 0.9238795325112865 0 -0.3826834323650901
    outer loop
      vertex 29.772838841927122 8 4.941206365983195
      vertex 29.10683602522959 11 3.333333333333334
      vertex 29.772838841927122 11 4.941206365983195
    endloop
  endfacet
  facet normal -1 0 0
    outer loop
      vertex 12.5 11 20
      vertex 12.5 10 0
      vertex 12.5 10 20
    endloop
  endfacet
  facet normal 1.8268290583970762e-10 0 -1
    outer loop
      vertex 12.5 10 0
      vertex 12.5 11 0
      vertex 15.5 10 5.480487175191229e-10
    endloop
  endfacet
  facet normal 0 -1 0
    outer loop
      vertex 20.73223304703363 8 11.767766952966369
      vertex 15.5 8 19.999999999313914
      vertex 15.5 8 5.480487175191229e-10
    endloop
  endfacet
  facet normal 0 1 0
    outer loop
      vertex 20 11 10
      vertex 20.73223304703363 11 8.232233047033631
      vertex 12.5 11 20
    endloop
  endfacet
  facet normal 0 1 0
    outer loop
      vertex 20.73223304703363 11 11.767766952966369
      vertex 20 11 10
      vertex 12.5 11 20
    endloop
  endfacet
  facet normal 0 1 0
    outer loop
      vertex 22.5 11 12.5
      vertex 20.73223304703363 11 11.767766952966369
      vertex 12.5 11 20
    endloop
  endfacet
  facet normal 0 -1 0
    outer loop
      vertex 26.094757084970826 8 2.483528049879169e-9
      vertex 25 8 10
      vertex 24.26776695296637 8 8.232233047033631
    endloop
  endfacet
  facet normal 0.6087614290087204 0 0.7933533402912354
    outer loop
      vertex 28.04737854124365 11 18.04737854124365
      vertex 26.666666666666664 11 19.10683602522959
      vertex 28.04737854124365 8 18.04737854124365
    endloop
  endfacet
  facet normal -1 0 0
    outer loop
      vertex 12.5 11 0
      vertex 12.5 10 0
      vertex 12.5 11 20
    endloop
  endfacet
  facet normal 0.7933533402912354 0 0.6087614290087204
    outer loop
      vertex 28.04737854124365 8 18.04737854124365
      vertex 29.10683602522959 11 16.666666666666664
      vertex 28.04737854124365 11 18.04737854124365
    endloop
  endfacet
  facet normal 0 -1 0
    outer loop
      vertex 26.666666666666664 8 19.10683602522959
      vertex 29.10683602522959 8 16.666666666666664
      vertex 28.04737854124365 8 18.04737854124365
    endloop
  endfacet
  facet normal 0.9914448613738104 0 0.1305261922200511
    outer loop
      vertex 29.772838841927122 8 15.058793634016805
      vertex 29.999999997516472 11 13.333333352197595
      vertex 29.772838841927122 11 15.058793634016805
    endloop
  endfacet
  facet normal 0.9914448613738104 0 0.1305261922200511
    outer loop
      vertex 29.999999997516472 8 13.333333352197595
      vertex 29.999999997516472 11 13.333333352197595
      vertex 29.772838841927122 8 15.058793634016805
    endloop
  endfacet
  facet normal 0 -1 0
    outer loop
      vertex 26.666666666666664 8 19.10683602522959
      vertex 29.999999997516472 8 6.666666647802405
      vertex 29.999999997516472 8 13.333333352197595
    endloop
  endfacet
  facet normal 0 0 1
    outer loop
      vertex 12.506666666666666 10 20
      vertex 12.51 10 20
      vertex 12.51 11 20
    endloop
  endfacet
  facet normal 0 0 1
    outer loop
      vertex 12.5 11 20
      vertex 12.5 10 20
      vertex 12.506666666666666 10 20
    endloop
  endfacet
  facet normal 0 0 1
    outer loop
      vertex 12.5 11 20
      vertex 12.506666666666666 10 20
      vertex 12.51 11 20
    endloop
  endfacet
  facet normal 0.3826834323650905 -1.61667880715168e-17 0.9238795325112864
    outer loop
      vertex 26.666666666666664 11 19.10683602522959
      vertex 25.058793634016805 11 19.772838841927122
      vertex 25.058793634016805 8 19.772838841927122
    endloop
  endfacet
  facet normal 0.1305261922200511 0 0.9914448613738104
    outer loop
      vertex 25.058793634016805 11 19.772838841927122
      vertex 23.333333352197595 11 19.999999997516472
      vertex 25.058793634016805 8 19.772838841927122
    endloop
  endfacet
  facet normal 0 1 0
    outer loop
      vertex 25.058793634016805 11 19.772838841927122
      vertex 29.999999997516472 11 13.333333352197595
      vertex 23.333333352197595 11 19.999999997516472
    endloop
  endfacet
  facet normal 0.6087614290087204 0 0.7933533402912354
    outer loop
      vertex 26.666666666666664 11 19.10683602522959
      vertex 26.666666666666664 8 19.10683602522959
      vertex 28.04737854124365 8 18.04737854124365
    endloop
  endfacet
  facet normal 0.3826834323650905 0 0.9238795325112864
    outer loop
      vertex 26.666666666666664 8 19.10683602522959
      vertex 26.666666666666664 11 19.10683602522959
      vertex 25.058793634016805 8 19.772838841927122
    endloop
  endfacet
  facet normal 0 -1 0
    outer loop
      vertex 25.058793634016805 8 19.772838841927122
      vertex 23.333333352197595 8 19.999999997516472
      vertex 26.666666666666664 8 19.10683602522959
    endloop
  endfacet
  facet normal 0 1 0
    outer loop
      vertex 26.666666666666664 11 19.10683602522959
      vertex 29.999999997516472 11 13.333333352197595
      vertex 25.058793634016805 11 19.772838841927122
    endloop
  endfacet
  facet normal 0 1 0
    outer loop
      vertex 28.04737854124365 11 18.04737854124365
      vertex 29.999999997516472 11 13.333333352197595
      vertex 26.666666666666664 11 19.10683602522959
    endloop
  endfacet
  facet normal 0 -1 0
    outer loop
      vertex 26.666666666666664 8 19.10683602522959
      vertex 22.5 8 12.5
      vertex 24.26776695296637 8 11.767766952966369
    endloop
  endfacet
  facet normal 0 -1 0
    outer loop
      vertex 26.666666666666664 8 19.10683602522959
      vertex 24.26776695296637 8 11.767766952966369
      vertex 25 8 10
    endloop
  endfacet
  facet normal 2.294601521054306e-10 0 1
    outer loop
      vertex 12.51 11 20
      vertex 12.51 10 20
      vertex 15.5 10 19.999999999313914
    endloop
  endfacet
  facet normal 0 1 0
    outer loop
      vertex 29.999999997516472 11 6.666666647802405
      vertex 29.772838841927122 11 4.941206365983195
      vertex 29.999999997516472 11 13.333333352197595
    endloop
  endfacet
  facet normal 2.294624898371309e-10 6.98981778409595e-15 1
    outer loop
      vertex 12.51 11 20
      vertex 15.5 10 19.999999999313914
      vertex 23.333333352197595 8 19.999999997516472
    endloop
  endfacet
  facet normal 2.294607052028074e-10 0 1
    outer loop
      vertex 15.5 10 19.999999999313914
      vertex 15.5 8 19.999999999313914
      vertex 23.333333352197595 8 19.999999997516472
    endloop
  endfacet
  facet normal 0 1 0
    outer loop
      vertex 29.999999997516472 11 13.333333352197595
      vertex 12.5 11 20
      vertex 12.51 11 20
    endloop
  endfacet
  facet normal 0 1 0
    outer loop
      vertex 29.10683602522959 11 16.666666666666664
      vertex 29.999999997516472 11 13.333333352197595
      vertex 28.04737854124365 11 18.04737854124365
    endloop
  endfacet
  facet normal 1 0 0
    outer loop
      vertex 29.999999997516472 8 6.666666647802405
      vertex 29.999999997516472 11 13.333333352197595
      vertex 29.999999997516472 8 13.333333352197595
    endloop
  endfacet
  facet normal 0 1 0
    outer loop
      vertex 29.772838841927122 11 15.058793634016805
      vertex 29.999999997516472 11 13.333333352197595
      vertex 29.10683602522959 11 16.666666666666664
    endloop
  endfacet
  facet normal 0 -1 0
    outer loop
      vertex 26.666666666666664 8 19.10683602522959
      vertex 29.772838841927122 8 4.941206365983195
      vertex 29.999999997516472 8 6.666666647802405
    endloop
  endfacet
  facet normal 0.9238795325112864 -1.61667880715168e-17 0.3826834323650905
    outer loop
      vertex 29.10683602522959 11 16.666666666666664
      vertex 29.772838841927122 8 15.058793634016805
      vertex 29.772838841927122 11 15.058793634016805
    endloop
  endfacet
  facet normal 0 1 0
    outer loop
      vertex 26.094757084970826 11 2.483528049879169e-9
      vertex 22.5 11 7.5
      vertex 24.26776695296637 11 8.232233047033631
    endloop
  endfacet
  facet normal 0.7933533402912354 0 0.6087614290087204
    outer loop
      vertex 29.10683602522959 8 16.666666666666664
      vertex 29.10683602522959 11 16.666666666666664
      vertex 28.04737854124365 8 18.04737854124365
    endloop
  endfacet
  facet normal 0 -1 0
    outer loop
      vertex 26.666666666666664 8 19.10683602522959
      vertex 29.772838841927122 8 15.058793634016805
      vertex 29.10683602522959 8 16.666666666666664
    endloop
  endfacet
  facet normal 0.9238795325112864 -1.61667880715168e-17 0.3826834323650905
    outer loop
      vertex 29.772838841927122 8 15.058793634016805
      vertex 29.10683602522959 11 16.666666666666664
      vertex 29.10683602522959 8 16.666666666666664
    endloop
  endfacet
  facet normal 0 -1 0
    outer loop
      vertex 26.666666666666664 8 19.10683602522959
      vertex 29.999999997516472 8 13.333333352197595
      vertex 29.772838841927122 8 15.058793634016805
    endloop
  endfacet
  facet normal 0 1 0
    outer loop
      vertex 29.999999997516472 11 13.333333352197595
      vertex 25 11 10
      vertex 24.26776695296637 11 11.767766952966369
    endloop
  endfacet
  facet normal 1.826827823665007e-10 -3.7041962076558303e-16 -1
    outer loop
      vertex 15.5 10 5.480487175191229e-10
      vertex 12.5 11 0
      vertex 26.094757084970826 11 2.483528049879169e-9
    endloop
  endfacet
  facet normal 0 -1 0
    outer loop
      vertex 15.5 8 19.999999999313914
      vertex 20.73223304703363 8 11.767766952966369
      vertex 22.5 8 12.5
    endloop
  endfacet
  facet normal 0 1 0
    outer loop
      vertex 12.5 11 20
      vertex 24.26776695296637 11 11.767766952966369
      vertex 22.5 11 12.5
    endloop
  endfacet
  facet normal 0 1 0
    outer loop
      vertex 29.999999997516472 11 13.333333352197595
      vertex 12.51 11 20
      vertex 23.333333352197595 11 19.999999997516472
    endloop
  endfacet
  facet normal 0.1305261922200511 0 0.9914448613738104
    outer loop
      vertex 23.333333352197595 11 19.999999997516472
      vertex 23.333333352197595 8 19.999999997516472
      vertex 25.058793634016805 8 19.772838841927122
    endloop
  endfacet
  facet normal 0 -1 0
    outer loop
      vertex 23.333333352197595 8 19.999999997516472
      vertex 15.5 8 19.999999999313914
      vertex 26.666666666666664 8 19.10683602522959
    endloop
  endfacet
  facet normal 0 -1 0
    outer loop
      vertex 26.666666666666664 8 19.10683602522959
      vertex 29.10683602522959 8 3.333333333333334
      vertex 29.772838841927122 8 4.941206365983195
    endloop
  endfacet
  facet normal 2.2946055240688927e-10 -4.581058852494454e-26 1
    outer loop
      vertex 12.51 11 20
      vertex 23.333333352197595 8 19.999999997516472
      vertex 23.333333352197595 11 19.999999997516472
    endloop
  endfacet
  facet normal 0 1 0
    outer loop
      vertex 12.5 11 20
      vertex 29.999999997516472 11 13.333333352197595
      vertex 24.26776695296637 11 11.767766952966369
    endloop
  endfacet
  facet normal 0 -1 0
    outer loop
      vertex 24.26776695296637 8 8.232233047033631
      vertex 22.5 8 7.5
      vertex 26.094757084970826 8 2.483528049879169e-9
    endloop
  endfacet
  facet normal 0 -1 0
    outer loop
      vertex 22.5 8 7.5
      vertex 20.73223304703363 8 8.232233047033631
      vertex 26.094757084970826 8 2.483528049879169e-9
    endloop
  endfacet
  facet normal 0 -1 0
    outer loop
      vertex 20 8 10
      vertex 20.73223304703363 8 11.767766952966369
      vertex 15.5 8 5.480487175191229e-10
    endloop
  endfacet
  facet normal 0 -1 0
    outer loop
      vertex 20 8 10
      vertex 15.5 8 5.480487175191229e-10
      vertex 20.73223304703363 8 8.232233047033631
    endloop
  endfacet
  facet normal 1.8268274740396048e-10 0 -1
    outer loop
      vertex 15.5 8 5.480487175191229e-10
      vertex 15.5 10 5.480487175191229e-10
      vertex 26.094757084970826 11 2.483528049879169e-9
    endloop
  endfacet
  facet normal -1 0 0
    outer loop
      vertex 12.5 10 0
      vertex 12.5 9.15483315443431 0
      vertex 12.5 10 20
    endloop
  endfacet
  facet normal 0 1 0
    outer loop
      vertex 15.5 10 5.480487175191229e-10
      vertex 15.5 10 0
      vertex 12.5 10 0
    endloop
  endfacet
  facet normal 0 0 1
    outer loop
      vertex 12.51 10 20
      vertex 12.5 9.15483315443431 20
      vertex 15.5 10 20
    endloop
  endfacet
  facet normal 1 0 0
    outer loop
      vertex 15.5 10 20
      vertex 15.5 8 19.999999999313914
      vertex 15.5 10 19.999999999313914
    endloop
  endfacet
  facet normal 0 0 1
    outer loop
      vertex 12.5 10 20
      vertex 12.5 9.15483315443431 20
      vertex 12.506666666666666 10 20
    endloop
  endfacet
  facet normal 0 0 1
    outer loop
      vertex 12.5 9.15483315443431 20
      vertex 12.51 10 20
      vertex 12.506666666666666 10 20
    endloop
  endfacet
  facet normal 1 0 0
    outer loop
      vertex 15.5 8 5.480487175191229e-10
      vertex 15.5 8 19.999999999313914
      vertex 15.5 0 0
    endloop
  endfacet
  facet normal -1 0 0
    outer loop
      vertex 12.5 10 20
      vertex 12.5 9.15483315443431 0
      vertex 12.5 9.15483315443431 20
    endloop
  endfacet
  facet normal 1 0 0
    outer loop
      vertex 15.5 10 20
      vertex 15.5 0 20
      vertex 15.5 8 19.999999999313914
    endloop
  endfacet
  facet normal 0 0 1
    outer loop
      vertex 12.5 9.15483315443431 20
      vertex 15.5 0 20
      vertex 15.5 10 20
    endloop
  endfacet
  facet normal 0 0 -1
    outer loop
      vertex 15.5 10 0
      vertex 12.5 9.15483315443431 0
      vertex 12.5 10 0
    endloop
  endfacet
  facet normal 1 0 0
    outer loop
      vertex 15.5 0 20
      vertex 15.5 0 0
      vertex 15.5 8 19.999999999313914
    endloop
  endfacet
  facet normal 1 0 0
    outer loop
      vertex 15.5 8 5.480487175191229e-10
      vertex 15.5 10 0
      vertex 15.5 10 5.480487175191229e-10
    endloop
  endfacet
  facet normal 0 0 -1
    outer loop
      vertex 15.161287811373988 3.2226312076752697 0
      vertex 12.5 9.15483315443431 0
      vertex 15.5 10 0
    endloop
  endfacet
  facet normal 1 0 0
    outer loop
      vertex 15.5 0 0
      vertex 15.5 10 0
      vertex 15.5 8 5.480487175191229e-10
    endloop
  endfacet
  facet normal 0 0 -1
    outer loop
      vertex 15.161287811373988 3.2226312076752697 0
      vertex 15.5 10 0
      vertex 15.5 0 0
    endloop
  endfacet
  facet normal 0 1 0
    outer loop
      vertex 15.5 10 19.999999999313914
      vertex 12.51 10 20
      vertex 15.5 10 20
    endloop
  endfacet
  facet normal 0 -1 0
    outer loop
      vertex 20 12.5 17.385791255631194
      vertex 20 12.5 19.99999999787126
      vertex 12.5 12.5 15.92468630498844
    endloop
  endfacet
  facet normal 0 -1 0
    outer loop
      vertex 20 12.5 19.99999999787126
      vertex 12.5 12.5 19.999999998669537
      vertex 12.5 12.5 15.92468630498844
    endloop
  endfacet
  facet normal 0 -1 0
    outer loop
      vertex 12.5 12.5 15.92468630498844
      vertex 20 12.5 10
      vertex 20 12.5 17.385791255631194
    endloop
  endfacet
  facet normal 0 -1 0
    outer loop
      vertex 12.500000000892252 12.5 1.1896680429516102e-9
      vertex 12.5 12.5 5.838412115247134e-9
      vertex 12.5 12.5 1.1896680428666917e-9
    endloop
  endfacet
  facet normal 0 -1 0
    outer loop
      vertex 9.020942474893893 12.5 19.999999999039836
      vertex 9.020942474893893 12.5 20
      vertex 0 12.5 20
    endloop
  endfacet
  facet normal 0 -1 0
    outer loop
      vertex 12.5 12.5 15.92468630498844
      vertex 12.5 12.5 19.999999998669537
      vertex 9.020942474893893 12.5 19.999999999039836
    endloop
  endfacet
  facet normal -1 0 0
    outer loop
      vertex 12.5 9.15483315443431 0
      vertex 12.5 0 0
      vertex 12.5 9.15483315443431 20
    endloop
  endfacet
  facet normal 0 -1 0
    outer loop
      vertex 0 12.5 20
      vertex 9.020942474893893 12.5 8.585541166894473e-10
      vertex 12.5 12.5 5.838412115247134e-9
    endloop
  endfacet
  facet normal 0 -1 0
    outer loop
      vertex 0 12.5 0
      vertex 9.020942474893893 12.5 8.585541166894473e-10
      vertex 0 12.5 20
    endloop
  endfacet
  facet normal 0 -1 0
    outer loop
      vertex 9.020942474893893 12.5 8.585541166894473e-10
      vertex 12.5 12.5 1.1896680428666917e-9
      vertex 12.5 12.5 5.838412115247134e-9
    endloop
  endfacet
  facet normal 1 0 0
    outer loop
      vertex 0 12.431523692103417 20
      vertex 0 12.5 0
      vertex 0 12.5 20
    endloop
  endfacet
  facet normal 0 -1 0
    outer loop
      vertex 0 12.5 20
      vertex 12.5 12.5 15.92468630498844
      vertex 9.020942474893893 12.5 19.999999999039836
    endloop
  endfacet
  facet normal -1 0 0
    outer loop
      vertex 12.5 9.15483315443431 20
      vertex 12.5 0 0
      vertex 12.5 0 20
    endloop
  endfacet
  facet normal 1 0 0
    outer loop
      vertex 0 12.431523692103417 20
      vertex 0 12.431523692103417 0
      vertex 0 12.5 0
    endloop
  endfacet
  facet normal 0 -1 0
    outer loop
      vertex 0 12.5 20
      vertex 12.5 12.5 5.838412115247134e-9
      vertex 12.5 12.5 15.92468630498844
    endloop
  endfacet
  facet normal 0 -1 0
    outer loop
      vertex 0 12.5 0
      vertex 9.020942474893893 12.5 0
      vertex 9.020942474893893 12.5 8.585541166894473e-10
    endloop
  endfacet
  facet normal -0.9238795325112867 0 -0.3826834323650897
    outer loop
      vertex 25 15.5 10
      vertex 25 12.5 10
      vertex 24.26776695296637 15.5 11.767766952966369
    endloop
  endfacet
  facet normal -0.3826834323650897 1.556008280467489e-18 -0.9238795325112867
    outer loop
      vertex 24.26776695296637 12.5 11.767766952966369
      vertex 22.5 12.5 12.5
      vertex 22.5 15.5 12.5
    endloop
  endfacet
  facet normal 0.3826834323650897 0 -0.9238795325112867
    outer loop
      vertex 20.73223304703363 11 11.767766952966369
      vertex 22.5 8 12.5
      vertex 20.73223304703363 8 11.767766952966369
    endloop
  endfacet
  facet normal 0.9238795325112867 0 -0.3826834323650897
    outer loop
      vertex 20 8 10
      vertex 20 11 10
      vertex 20.73223304703363 8 11.767766952966369
    endloop
  endfacet
  facet normal 0.9238795325112867 0 0.3826834323650897
    outer loop
      vertex 20.73223304703363 8 8.232233047033631
      vertex 20.73223304703363 11 8.232233047033631
      vertex 20 8 10
    endloop
  endfacet
  facet normal 0.3826834323650897 1.556008280467489e-18 0.9238795325112867
    outer loop
      vertex 22.5 11 7.5
      vertex 20.73223304703363 11 8.232233047033631
      vertex 20.73223304703363 8 8.232233047033631
    endloop
  endfacet
  facet normal 0.9238795325112867 0 0.3826834323650897
    outer loop
      vertex 20 11 10
      vertex 20 8 10
      vertex 20.73223304703363 11 8.232233047033631
    endloop
  endfacet
  facet normal 0.3826834323650897 0 0.9238795325112867
    outer loop
      vertex 22.5 8 7.5
      vertex 22.5 11 7.5
      vertex 20.73223304703363 8 8.232233047033631
    endloop
  endfacet
  facet normal -0.3826834323650897 1.556008280467489e-18 -0.9238795325112867
    outer loop
      vertex 24.26776695296637 8 11.767766952966369
      vertex 22.5 8 12.5
      vertex 22.5 11 12.5
    endloop
  endfacet
  facet normal -0.3826834323650897 -1.556008280467489e-18 0.9238795325112867
    outer loop
      vertex 22.5 8 7.5
      vertex 24.26776695296637 8 8.232233047033631
      vertex 24.26776695296637 11 8.232233047033631
    endloop
  endfacet
  facet normal -0.3826834323650897 -1.556008280467489e-18 0.9238795325112867
    outer loop
      vertex 24.26776695296637 11 8.232233047033631
      vertex 22.5 11 7.5
      vertex 22.5 8 7.5
    endloop
  endfacet
  facet normal 0.9238795325112867 0 0.3826834323650897
    outer loop
      vertex 20.73223304703363 15.5 8.232233047033631
      vertex 20 12.5 10
      vertex 20.73223304703363 12.5 8.232233047033631
    endloop
  endfacet
  facet normal 0.3826834323650897 1.556008280467489e-18 0.9238795325112867
    outer loop
      vertex 22.5 15.5 7.5
      vertex 20.73223304703363 15.5 8.232233047033631
      vertex 20.73223304703363 12.5 8.232233047033631
    endloop
  endfacet
  facet normal 0.9238795325112867 0 0.3826834323650897
    outer loop
      vertex 20 15.5 10
      vertex 20 12.5 10
      vertex 20.73223304703363 15.5 8.232233047033631
    endloop
  endfacet
  facet normal 0.3826834323650897 -1.556008280467489e-18 -0.9238795325112867
    outer loop
      vertex 20.73223304703363 11 11.767766952966369
      vertex 22.5 11 12.5
      vertex 22.5 8 12.5
    endloop
  endfacet
  facet normal 0.3826834323650897 0 0.9238795325112867
    outer loop
      vertex 22.5 15.5 7.5
      vertex 20.73223304703363 12.5 8.232233047033631
      vertex 22.5 12.5 7.5
    endloop
  endfacet
  facet normal -0.3826834323650897 -1.556008280467489e-18 0.9238795325112867
    outer loop
      vertex 22.5 12.5 7.5
      vertex 24.26776695296637 12.5 8.232233047033631
      vertex 24.26776695296637 15.5 8.232233047033631
    endloop
  endfacet
  facet normal -0.3826834323650897 -1.556008280467489e-18 0.9238795325112867
    outer loop
      vertex 24.26776695296637 15.5 8.232233047033631
      vertex 22.5 15.5 7.5
      vertex 22.5 12.5 7.5
    endloop
  endfacet
  facet normal -0.3826834323650897 1.556008280467489e-18 -0.9238795325112867
    outer loop
      vertex 22.5 11 12.5
      vertex 24.26776695296637 11 11.767766952966369
      vertex 24.26776695296637 8 11.767766952966369
    endloop
  endfacet
  facet normal 0.9238795325112867 0 -0.3826834323650897
    outer loop
      vertex 20 12.5 10
      vertex 20 15.5 10
      vertex 20.73223304703363 12.5 11.767766952966369
    endloop
  endfacet
  facet normal 0.3826834323650897 0 -0.9238795325112867
    outer loop
      vertex 20.73223304703363 15.5 11.767766952966369
      vertex 22.5 12.5 12.5
      vertex 20.73223304703363 12.5 11.767766952966369
    endloop
  endfacet
  facet normal -0.9238795325112867 0 0.3826834323650897
    outer loop
      vertex 24.26776695296637 15.5 8.232233047033631
      vertex 24.26776695296637 12.5 8.232233047033631
      vertex 25 15.5 10
    endloop
  endfacet
  facet normal -0.3826834323650897 1.556008280467489e-18 -0.9238795325112867
    outer loop
      vertex 22.5 15.5 12.5
      vertex 24.26776695296637 15.5 11.767766952966369
      vertex 24.26776695296637 12.5 11.767766952966369
    endloop
  endfacet
  facet normal -0.9238795325112867 1.556008280467489e-18 -0.3826834323650897
    outer loop
      vertex 25 8 10
      vertex 24.26776695296637 8 11.767766952966369
      vertex 24.26776695296637 11 11.767766952966369
    endloop
  endfacet
  facet normal -0.9238795325112867 0 -0.3826834323650897
    outer loop
      vertex 25 11 10
      vertex 25 8 10
      vertex 24.26776695296637 11 11.767766952966369
    endloop
  endfacet
  facet normal -0.9238795325112867 1.556008280467489e-18 -0.3826834323650897
    outer loop
      vertex 25 12.5 10
      vertex 24.26776695296637 12.5 11.767766952966369
      vertex 24.26776695296637 15.5 11.767766952966369
    endloop
  endfacet
  facet normal -0.9238795325112867 -1.556008280467489e-18 0.3826834323650897
    outer loop
      vertex 24.26776695296637 12.5 8.232233047033631
      vertex 25 12.5 10
      vertex 25 15.5 10
    endloop
  endfacet
  facet normal -0.9238795325112867 -1.556008280467489e-18 0.3826834323650897
    outer loop
      vertex 24.26776695296637 8 8.232233047033631
      vertex 25 8 10
      vertex 25 11 10
    endloop
  endfacet
  facet normal -0.9238795325112867 -1.556008280467489e-18 0.3826834323650897
    outer loop
      vertex 25 11 10
      vertex 24.26776695296637 11 8.232233047033631
      vertex 24.26776695296637 8 8.232233047033631
    endloop
  endfacet
  facet normal 0.3826834323650897 -1.556008280467489e-18 -0.9238795325112867
    outer loop
      vertex 20.73223304703363 15.5 11.767766952966369
      vertex 22.5 15.5 12.5
      vertex 22.5 12.5 12.5
    endloop
  endfacet
  facet normal 0.9238795325112867 -1.556008280467489e-18 -0.3826834323650897
    outer loop
      vertex 20 15.5 10
      vertex 20.73223304703363 15.5 11.767766952966369
      vertex 20.73223304703363 12.5 11.767766952966369
    endloop
  endfacet
  facet normal 0.9238795325112867 0 -0.3826834323650897
    outer loop
      vertex 20.73223304703363 8 11.767766952966369
      vertex 20 11 10
      vertex 20.73223304703363 11 11.767766952966369
    endloop
  endfacet
endsolid OpenSCAD_Model
