<?xml version="1.0" encoding="UTF-8" standalone="no"?>
<!DOCTYPE svg PUBLIC "-//W3C//DTD SVG 20010904//EN" "http://www.w3.org/TR/2001/REC-SVG-20010904/DTD/svg10.dtd">
<svg xmlns="http://www.w3.org/2000/svg" width="875" height="734" viewBox="0 0 875 734">
<title>Triquetra by Petr Vodicka, Aqua78@email.cz</title>
<g transform="translate(7.5,726) scale(1,-1)" style="stroke:none">
<path style="fill:#000000" d="M11.2718,3.35336
L19.3111,26.2356
C72.4414,177.46,146.554,268.665,280.907,314.978
L280.912,314.979
C280.038,324.601,279.628,334.043,279.628,343.31
C279.628,418.691,306.018,482.505,329.775,537.346
C347.956,579.315,357.081,609.3,357.081,638.395
C357.081,654.589,354.466,671.607,348.037,692.291
L340.831,715.471
L358.335,698.653
C470.871,590.524,534.004,461.792,534.004,322.714
C534.004,320.429,533.987,318.141,533.953,315.85
C603.224,290.115,651.029,242.241,696.401,202.54
C753.427,152.64,754.031,144.668,825.064,142.216
L848.573,141.405
L827.761,130.44
C749.605,89.2662,656.328,59.7455,565.844,59.7455
C511.311,59.7455,457.746,70.5159,409.411,96.1306
L408.69,96.5129
C363.265,71.1546,313.906,64.8966,265.98,64.8966
C240.26,64.8966,214.566,66.7136,189.455,68.6625
L189.138,68.6625
L188.825,68.744
C176.395,70.9964,164.636,72.0558,153.45,72.0558
C104.023,72.0558,65.3183,51.5763,29.3688,19.5004
L11.2718,3.35336Z
M366.221,329.753
C387.767,332.916,407.955,334.383,426.933,334.383
C436.045,334.383,444.865,334.035,453.41,333.367
C449.353,374.693,424.871,403.642,406.617,403.642
C390.73,403.642,374.035,382.717,366.221,329.753Z
M477.732,155.999
C493.155,148.188,509.828,144.543,524.38,144.543
C549.231,144.543,564.535,154.517,564.535,167.752
C564.535,179.031,554.065,198.111,518.829,222.759
C506.256,196.474,492.465,174.44,477.732,155.999Z
M234.904,182.787
C234.904,175.578,242.671,166.61,278.507,166.61
C291.514,166.61,307.725,167.875,327.503,170.728
C313.944,195.282,303.713,218.908,296.262,241.647
C259.363,223.266,234.904,196.641,234.904,182.787Z
M370.379,260.579
C378.847,234.304,394.23,215.683,407.267,202.549
C429.272,220.716,441.06,242.703,446.547,258.174
C432.017,261.951,418.561,263.289,405.533,263.289
C393.646,263.289,382.077,262.136,370.379,260.579Z"/>
<path style="fill:#eef5ff" d="M292.128,343.31
C292.128,315.497,295.924,286.061,305.241,254.701
L307.645,246.948
C315.139,223.75,325.669,199.508,339.914,174.104
L340.654,172.79
C363.799,176.914,382.364,185.03,397.158,195
C377.215,215.42,351.482,249.659,351.482,302.572
C351.482,307.599,351.684,315.776,353.307,327.708
C361.423,387.366,381.321,416.142,406.617,416.142
C437.562,416.142,462.756,373.719,466.069,332.125
C485.996,329.765,504.387,325.639,521.496,320.157
L521.504,322.714
C521.504,451.186,466.311,570.784,365.815,673.642
C368.292,661.699,369.581,650.107,369.581,638.395
C369.581,606.731,359.713,575.001,341.237,532.36
C317.459,477.486,292.128,415.648,292.128,343.31Z
M363.982,302.572
C363.982,291.775,365.123,281.858,367.104,272.751
C379.594,274.449,392.262,275.789,405.533,275.789
C437.742,275.789,473.257,267.647,517.46,238.767
C557.717,212.466,577.035,188.259,577.035,167.752
C577.035,146.327,555.973,132.043,524.38,132.043
C506.958,132.043,487.49,136.515,469.514,146.19
C454.247,128.824,438.066,115.02,421.256,104.093
C472.178,78.6762,524.286,72.2455,565.844,72.2455
C645.832,72.2455,729.043,96.2124,801.244,131.064
C747.686,135.747,738.405,149.001,688.193,193.12
C622.202,251.104,555.188,321.883,426.933,321.883
C407.612,321.883,386.911,320.31,364.634,316.873
C364.191,311.937,363.982,307.172,363.982,302.572Z
M38.9799,43.6467
C71.7729,68.5619,108.706,84.5558,153.45,84.5558
C165.329,84.5558,177.61,82.5788,190.733,81.1012
C215.6,78.3015,240.954,77.3966,265.98,77.3966
C356.785,77.3966,447.082,100.318,508.33,229.788
C490.055,241.51,473.669,249.406,458.53,254.571
C448.025,224.546,415.644,172.254,339.914,159.985
C314.864,155.927,294.665,154.11,278.507,154.11
C229.323,154.11,222.404,171.316,222.404,182.787
C222.404,208.501,262.279,238.759,292.54,253.722
C287.732,270.372,284.403,286.538,282.331,302.238
C159.85,259.2,89.8282,177.389,38.9799,43.6467Z"/>
</g>
</svg>
