<svg xmlns="http://www.w3.org/2000/svg" viewBox="0 0 93 51.32"><defs><style>.cls-1{fill:none;stroke:#231f20;stroke-linecap:round;stroke-linejoin:round;stroke-width:2px;}</style></defs><title>Asset 5</title><g id="Layer_2" data-name="Layer 2"><g id="Layer_1-2" data-name="Layer 1"><path class="cls-1" d="M19.31,1c-5.65,0-11,3.21-12.1,7.84-1.33,5.57,3.78,11,11.69,11"/><path class="cls-1" d="M19.25,3.85c-3.6,0-6.83,2.12-7.27,5-.49,3.21,2.63,6.1,7,6.1"/><path class="cls-1" d="M19.31,1c6.78,0,13.2,3.91,14.59,9.73,1.75,7.33-4.81,14.81-15.13,14.81"/><path class="cls-1" d="M19.25,3.85c4.79,0,9.1,2.86,9.72,6.88.71,4.69-3.74,9.08-10.07,9.08"/><path class="cls-1" d="M24,10.73c.15,2.25-2.1,4.21-5,4.21"/><path class="cls-1" d="M11.93,18.14l3.88,2.42a6.31,6.31,0,0,1,3,5.35V40.74h3.64A11.77,11.77,0,0,0,34.18,29V13.27"/><path class="cls-1" d="M18.77,40.74h0A11.77,11.77,0,0,1,7,29V10.41"/><path class="cls-1" d="M46.49,1c-5.65,0-11,3.21-12.1,7.84-1.33,5.57,3.78,11,11.69,11"/><path class="cls-1" d="M46.43,3.85c-3.6,0-6.83,2.12-7.27,5-.49,3.21,2.63,6.1,7,6.1"/><path class="cls-1" d="M46.49,1c6.78,0,13.2,3.91,14.59,9.73C62.83,18.06,56.27,25.54,46,25.54"/><path class="cls-1" d="M46.43,3.85c4.79,0,9.1,2.86,9.72,6.88.71,4.69-3.74,9.08-10.07,9.08"/><path class="cls-1" d="M51.21,10.73c.15,2.25-2.1,4.21-5,4.21"/><path class="cls-1" d="M39.11,18.14,43,20.56a6.31,6.31,0,0,1,3,5.35V40.74h3.63A11.77,11.77,0,0,0,61.36,29V13.27"/><path class="cls-1" d="M46,40.74h0A11.77,11.77,0,0,1,34.18,29V10.41"/><path class="cls-1" d="M73.67,1c-5.65,0-11,3.21-12.1,7.84-1.33,5.57,3.78,11,11.69,11"/><path class="cls-1" d="M73.61,3.85c-3.6,0-6.83,2.12-7.27,5-.49,3.21,2.63,6.1,7,6.1"/><path class="cls-1" d="M73.67,1c6.78,0,13.2,3.91,14.59,9.73C90,18.06,83.45,25.54,73.14,25.54"/><path class="cls-1" d="M73.61,3.85c4.79,0,9.11,2.86,9.72,6.88.71,4.69-3.74,9.08-10.07,9.08"/><path class="cls-1" d="M78.39,10.73c.15,2.25-2.09,4.21-5,4.21"/><path class="cls-1" d="M66.29,18.14l3.88,2.42a6.31,6.31,0,0,1,3,5.35V40.74h3.63A11.77,11.77,0,0,0,88.54,29V13.27"/><path class="cls-1" d="M73.14,40.74h0A11.77,11.77,0,0,1,61.36,29V10.41"/><path class="cls-1" d="M82.43,50.32H10.57A9.58,9.58,0,0,1,1,40.74H92A9.58,9.58,0,0,1,82.43,50.32Z"/><path class="cls-1" d="M1,40.74v-1.5a6.59,6.59,0,0,1,6.59-6.59h0"/><path class="cls-1" d="M87.8,33.1A6.57,6.57,0,0,1,92,39.24v1.5"/></g></g></svg>