<svg xmlns="http://www.w3.org/2000/svg" viewBox="0 0 61.34 58.8"><defs><style>.cls-1{fill:none;stroke:#231f20;stroke-linecap:round;stroke-linejoin:round;stroke-width:2px;}</style></defs><title>Asset 4</title><g id="Layer_2" data-name="Layer 2"><g id="Layer_1-2" data-name="Layer 1"><line class="cls-1" x1="55.47" y1="5.87" x2="3.54" y2="57.8"/><line class="cls-1" x1="17.36" y1="43.98" x2="35.21" y2="38.22"/><circle class="cls-1" cx="38.09" cy="37.07" r="2.85"/><line class="cls-1" x1="31.18" y1="30.16" x2="49.03" y2="24.4"/><circle class="cls-1" cx="51.91" cy="23.25" r="2.85"/><circle class="cls-1" cx="40.97" cy="8.28" r="2.85"/><circle class="cls-1" cx="57.49" cy="3.85" r="2.85"/><line class="cls-1" x1="23.26" y1="38.08" x2="29.02" y2="20.22"/><circle class="cls-1" cx="30.17" cy="17.35" r="2.85"/><line class="cls-1" x1="21.94" y1="38.68" x2="16.57" y2="25.88"/><path class="cls-1" d="M18.32,23.11a2.85,2.85,0,1,1-2.72-3A2.84,2.84,0,0,1,18.32,23.11Z"/><line class="cls-1" x1="39.1" y1="22.24" x2="40.1" y2="11.44"/><path class="cls-1" d="M9.25,52.09l20.27-1.53a2.87,2.87,0,0,1,3.05,3.35h0a2.87,2.87,0,0,1-3.41,2.33Z"/><path class="cls-1" d="M6.41,54.93,6.75,34.6a2.88,2.88,0,0,0-3.53-2.85h0A2.89,2.89,0,0,0,1.1,35.3Z"/></g></g></svg>