<svg xmlns="http://www.w3.org/2000/svg" viewBox="0 0 97.22 66.09"><defs><style>.cls-1{fill:none;stroke:#231f20;stroke-linecap:round;stroke-linejoin:round;stroke-width:2px;}.cls-2{fill:#231f20;}</style></defs><title>Asset 11</title><g id="Layer_2" data-name="Layer 2"><g id="Layer_1-2" data-name="Layer 1"><path class="cls-1" d="M49,26.41A5,5,0,0,0,53.24,24a5,5,0,0,0,6-6,5,5,0,0,0,0-8.55,5,5,0,0,0-6-6,5,5,0,0,0-8.55,0,5,5,0,0,0-6,6,5,5,0,0,0,0,8.55,5,5,0,0,0,6,6A5,5,0,0,0,49,26.41Z"/><path class="cls-2" d="M54.82,12.06a1.25,1.25,0,0,0,0-2.5,1.25,1.25,0,0,0,0,2.5Z"/><path class="cls-2" d="M51.18,22a1.25,1.25,0,0,0,0-2.5,1.25,1.25,0,0,0,0,2.5Z"/><path class="cls-2" d="M44.56,15a1.25,1.25,0,0,0,0-2.5,1.25,1.25,0,0,0,0,2.5Z"/><path class="cls-2" d="M43,9.55a1.25,1.25,0,0,0,0-2.5,1.25,1.25,0,0,0,0,2.5Z"/><path class="cls-1" d="M13.7,42.29A5,5,0,0,0,18,39.9a5,5,0,0,0,6-6,5,5,0,0,0,0-8.55,5,5,0,0,0-6-6,5,5,0,0,0-8.55,0,5,5,0,0,0-6,6,5,5,0,0,0,0,8.55,5,5,0,0,0,6,6A5,5,0,0,0,13.7,42.29Z"/><path class="cls-2" d="M19.57,27.93a1.25,1.25,0,0,0,0-2.5,1.25,1.25,0,0,0,0,2.5Z"/><path class="cls-2" d="M15.92,37.86a1.25,1.25,0,0,0,0-2.5,1.25,1.25,0,0,0,0,2.5Z"/><path class="cls-2" d="M9.31,30.83a1.25,1.25,0,0,0,0-2.5,1.25,1.25,0,0,0,0,2.5Z"/><path class="cls-2" d="M7.71,25.43a1.25,1.25,0,0,0,0-2.5,1.25,1.25,0,0,0,0,2.5Z"/><path class="cls-1" d="M42.12,63.39a4.12,4.12,0,0,0,3.5-2,4.15,4.15,0,0,0,3.86-1.09,4.1,4.1,0,0,0,1.09-3.86,4.11,4.11,0,0,0,0-7,4.07,4.07,0,0,0-1.09-3.85,4.13,4.13,0,0,0-3.86-1.1,4.12,4.12,0,0,0-7,0,4.13,4.13,0,0,0-3.86,1.1,4.07,4.07,0,0,0-1.09,3.85,4.11,4.11,0,0,0,0,7,4.1,4.1,0,0,0,1.09,3.86,4.15,4.15,0,0,0,3.86,1.09A4.12,4.12,0,0,0,42.12,63.39Z"/><path class="cls-2" d="M46.92,51.86a1.25,1.25,0,0,0,0-2.5,1.25,1.25,0,0,0,0,2.5Z"/><path class="cls-2" d="M43.93,60a1.25,1.25,0,0,0,0-2.5,1.25,1.25,0,0,0,0,2.5Z"/><path class="cls-2" d="M38.52,54.24a1.25,1.25,0,0,0,0-2.5,1.25,1.25,0,0,0,0,2.5Z"/><path class="cls-2" d="M37.21,49.81a1.25,1.25,0,0,0,0-2.5,1.25,1.25,0,0,0,0,2.5Z"/><path class="cls-1" d="M79.59,41.37a3.38,3.38,0,0,0-3.17-.9,3.38,3.38,0,0,0-5.76,0,3.38,3.38,0,0,0-4.07,4.07,3.37,3.37,0,0,0,0,5.75,3.37,3.37,0,0,0,4.07,4.07,3.38,3.38,0,0,0,5.76,0,3.37,3.37,0,0,0,4.07-4.07,3.37,3.37,0,0,0,0-5.75A3.37,3.37,0,0,0,79.59,41.37Z"/><path class="cls-2" d="M69.37,47.25a1.25,1.25,0,0,0,0-2.5,1.25,1.25,0,0,0,0,2.5Z"/><path class="cls-2" d="M75.3,45.26a1.25,1.25,0,0,0,0-2.5,1.25,1.25,0,0,0,0,2.5Z"/><path class="cls-2" d="M76.78,50.29a1.25,1.25,0,0,0,0-2.5,1.25,1.25,0,0,0,0,2.5Z"/><path class="cls-2" d="M71.87,52.46a1.25,1.25,0,0,0,0-2.5,1.25,1.25,0,0,0,0,2.5Z"/><path class="cls-1" d="M87.67,10a3.39,3.39,0,0,0-2.88,1.6,3.38,3.38,0,0,0-4.07,4.07,3.38,3.38,0,0,0,0,5.76,3.38,3.38,0,0,0,4.07,4.07,3.38,3.38,0,0,0,5.76,0,3.38,3.38,0,0,0,4.07-4.07,3.39,3.39,0,0,0,0-5.76,3.38,3.38,0,0,0-4.07-4.07A3.4,3.4,0,0,0,87.67,10Z"/><path class="cls-2" d="M83.72,21.7a1.25,1.25,0,0,0,0-2.5,1.25,1.25,0,0,0,0,2.5Z"/><path class="cls-2" d="M86.5,16.1a1.25,1.25,0,0,0,0-2.5,1.25,1.25,0,0,0,0,2.5Z"/><path class="cls-2" d="M91.11,18.61a1.25,1.25,0,0,0,0-2.5,1.25,1.25,0,0,0,0,2.5Z"/><path class="cls-2" d="M89.17,23.62a1.25,1.25,0,0,0,0-2.5,1.25,1.25,0,0,0,0,2.5Z"/><line class="cls-1" x1="42.97" y1="36.47" x2="42.12" y2="42.58"/><line class="cls-1" x1="44.68" y1="24.02" x2="43.83" y2="30.26"/><line class="cls-1" x1="52.53" y1="52.99" x2="66.59" y2="50.29"/><line class="cls-1" x1="70.67" y1="40.47" x2="67.37" y2="35.87"/><line class="cls-1" x1="63.69" y1="30.71" x2="57.94" y2="22.69"/><line class="cls-1" x1="80.72" y1="21.38" x2="68.03" y2="31.34"/><path class="cls-1" d="M65.54,36.47a3.17,3.17,0,1,1,3.17-3.17A3.17,3.17,0,0,1,65.54,36.47Z"/><path class="cls-1" d="M42.91,36.47a3.17,3.17,0,1,1,3.18-3.17A3.17,3.17,0,0,1,42.91,36.47Z"/><path class="cls-1" d="M53.57,40.47a3.18,3.18,0,1,1,3.17-3.18A3.17,3.17,0,0,1,53.57,40.47Z"/><circle class="cls-1" cx="57.19" cy="61.91" r="3.17"/><path class="cls-1" d="M70.66,20.05a3.18,3.18,0,1,1,3.18-3.17A3.17,3.17,0,0,1,70.66,20.05Z"/><line class="cls-1" x1="73.13" y1="27.06" x2="71.87" y2="19.8"/><line class="cls-1" x1="42.91" y1="39.4" x2="50.4" y2="37.99"/><line class="cls-1" x1="39.82" y1="32.63" x2="26.41" y2="30.12"/><line class="cls-1" x1="60.37" y1="51.64" x2="57.95" y2="58.74"/><line class="cls-1" x1="22.69" y1="20.6" x2="36.26" y2="14.85"/></g></g></svg>