<svg xmlns="http://www.w3.org/2000/svg" viewBox="0 0 92.96 87.3"><defs><style>.cls-1{fill:none;stroke:#231f20;stroke-linecap:round;stroke-linejoin:round;stroke-width:2px;}.cls-2{fill:#231f20;}</style></defs><title>Asset 20</title><g id="Layer_2" data-name="Layer 2"><g id="Layer_1-2" data-name="Layer 1"><circle class="cls-1" cx="29.07" cy="29.07" r="18.31" transform="translate(-11.82 33.31) rotate(-50.92)"/><path class="cls-1" d="M29.07,43.65A14.58,14.58,0,1,1,43.65,29.07,14.59,14.59,0,0,1,29.07,43.65Z"/><path class="cls-1" d="M33,10.77V10a13.19,13.19,0,0,0-3.88-9,13.18,13.18,0,0,0-3.87,9.77"/><path class="cls-1" d="M33,47.38v.4c0,.35,0,.7,0,1a13.26,13.26,0,0,1-3.84,8.32,13.2,13.2,0,0,1-3.87-9c0-.25,0-.49,0-.73"/><path class="cls-1" d="M47.38,33h.74a13.12,13.12,0,0,0,9-3.88,13.17,13.17,0,0,0-8.34-3.83,13.54,13.54,0,0,0-1.42,0"/><path class="cls-1" d="M10.77,33h-.41c-.34,0-.69,0-1,0A13.11,13.11,0,0,1,1,29.07a13.2,13.2,0,0,1,9-3.87h.73"/><path class="cls-1" d="M44.75,18.87a3.83,3.83,0,0,0,.29-.28l.23-.24a13.14,13.14,0,0,0,3.65-9.12,13.19,13.19,0,0,0-8.6,3.17,13.85,13.85,0,0,0-1,1"/><path class="cls-1" d="M13.39,39.28c-.18.16-.35.33-.52.51a13.26,13.26,0,0,0-3.65,9.13,13.1,13.1,0,0,0,8.6-3.17,10.27,10.27,0,0,0,.77-.71,3.83,3.83,0,0,0,.28-.29"/><path class="cls-1" d="M39.27,44.75l.28.29.24.23a13.2,13.2,0,0,0,9.13,3.65,13.18,13.18,0,0,0-3.18-8.6,10.78,10.78,0,0,0-1-1"/><path class="cls-1" d="M13.39,18.87a3.83,3.83,0,0,1-.29-.28c-.25-.25-.48-.5-.71-.77A13.15,13.15,0,0,1,9.22,9.23a13.21,13.21,0,0,1,9.13,3.65c.18.16.35.34.52.51"/><path class="cls-1" d="M18.35,12.88a13.28,13.28,0,0,1,.2-9.83,13.1,13.1,0,0,1,6.68,6.3"/><path class="cls-1" d="M39.79,45.27a13.17,13.17,0,0,1-.21,9.83,13.22,13.22,0,0,1-6.67-6.27h0"/><path class="cls-1" d="M45.27,18.35a13.23,13.23,0,0,1,9.83.21,13.22,13.22,0,0,1-6.3,6.68h0"/><path class="cls-1" d="M9.32,32.91a13.2,13.2,0,0,0-6.27,6.68,13.2,13.2,0,0,0,9.82.2"/><path class="cls-1" d="M33,10A13.23,13.23,0,0,1,40,3.23a13.15,13.15,0,0,1,1,5,13.31,13.31,0,0,1-.69,4.21h0"/><path class="cls-1" d="M17.82,45.75a13.22,13.22,0,0,0,.28,9.16,13.19,13.19,0,0,0,7.1-6.8"/><path class="cls-1" d="M48.12,33A13.22,13.22,0,0,1,54.91,40,13.14,13.14,0,0,1,50,41a13.38,13.38,0,0,1-4.22-.69h0"/><path class="cls-1" d="M10,25.2a13.17,13.17,0,0,1-6.81-7.1,13.22,13.22,0,0,1,9.16-.28"/><path class="cls-2" d="M23.81,22.94a1.25,1.25,0,0,0,0-2.5,1.25,1.25,0,0,0,0,2.5Z"/><path class="cls-2" d="M29.07,22.94a1.25,1.25,0,0,0,0-2.5,1.25,1.25,0,0,0,0,2.5Z"/><path class="cls-2" d="M34.34,22.94a1.25,1.25,0,0,0,0-2.5,1.25,1.25,0,0,0,0,2.5Z"/><path class="cls-2" d="M23.81,27.93a1.25,1.25,0,0,0,0-2.5,1.25,1.25,0,0,0,0,2.5Z"/><path class="cls-2" d="M29.07,27.93a1.25,1.25,0,0,0,0-2.5,1.25,1.25,0,0,0,0,2.5Z"/><path class="cls-2" d="M18.54,27.93a1.25,1.25,0,0,0,0-2.5,1.25,1.25,0,0,0,0,2.5Z"/><path class="cls-2" d="M18.54,32.93a1.25,1.25,0,0,0,0-2.5,1.25,1.25,0,0,0,0,2.5Z"/><path class="cls-2" d="M39.61,27.93a1.25,1.25,0,0,0,0-2.5,1.25,1.25,0,0,0,0,2.5Z"/><path class="cls-2" d="M39.61,32.93a1.25,1.25,0,0,0,0-2.5,1.25,1.25,0,0,0,0,2.5Z"/><path class="cls-2" d="M34.34,27.93a1.25,1.25,0,0,0,0-2.5,1.25,1.25,0,0,0,0,2.5Z"/><path class="cls-2" d="M23.81,32.93a1.25,1.25,0,0,0,0-2.5,1.25,1.25,0,0,0,0,2.5Z"/><path class="cls-2" d="M29.07,32.93a1.25,1.25,0,0,0,0-2.5,1.25,1.25,0,0,0,0,2.5Z"/><path class="cls-2" d="M34.34,32.93a1.25,1.25,0,0,0,0-2.5,1.25,1.25,0,0,0,0,2.5Z"/><path class="cls-2" d="M23.81,37.92a1.25,1.25,0,0,0,0-2.5,1.25,1.25,0,0,0,0,2.5Z"/><path class="cls-2" d="M29.07,37.92a1.25,1.25,0,0,0,0-2.5,1.25,1.25,0,0,0,0,2.5Z"/><path class="cls-2" d="M34.34,37.92a1.25,1.25,0,0,0,0-2.5,1.25,1.25,0,0,0,0,2.5Z"/><circle class="cls-1" cx="68.41" cy="62.75" r="15.36" transform="translate(-24.34 66.75) rotate(-45)"/><path class="cls-1" d="M68.41,75A12.23,12.23,0,1,1,80.64,62.75,12.24,12.24,0,0,1,68.41,75Z"/><path class="cls-1" d="M71.66,47.4c0-.11,0-.22,0-.33a2.71,2.71,0,0,0,0-.29,11.1,11.1,0,0,0-3.25-7.57,11.09,11.09,0,0,0-3.22,7,11.75,11.75,0,0,0,0,1.19"/><path class="cls-1" d="M71.66,78.11c0,.11,0,.22,0,.33a8.51,8.51,0,0,1,0,.88,11.12,11.12,0,0,1-3.22,7,11.07,11.07,0,0,1-3.25-7.58v-.61"/><path class="cls-1" d="M83.77,66h.62A11,11,0,0,0,92,62.75a11,11,0,0,0-7-3.21,9.35,9.35,0,0,0-1.18,0"/><path class="cls-1" d="M53.06,66h-.34a8.44,8.44,0,0,1-.87,0,10.92,10.92,0,0,1-7-3.22,11,11,0,0,1,7.58-3.24h.61"/><path class="cls-1" d="M81.56,54.19l.25-.23c.06-.07.13-.13.18-.2a11,11,0,0,0,3.07-7.65,11.05,11.05,0,0,0-7.21,2.66,11.51,11.51,0,0,0-.88.83"/><path class="cls-1" d="M55.26,71.31l-.44.43a11.1,11.1,0,0,0-3.06,7.66A11,11,0,0,0,59,76.74c.22-.19.43-.39.64-.59l.24-.25"/><path class="cls-1" d="M77,75.9a2.83,2.83,0,0,1,.24.25c.07.06.13.13.2.18a11,11,0,0,0,7.66,3.07,11,11,0,0,0-2.67-7.21,7.65,7.65,0,0,0-.83-.88"/><path class="cls-1" d="M55.26,54.2,55,54c-.21-.21-.4-.42-.59-.64a11.07,11.07,0,0,1-2.66-7.21,11.07,11.07,0,0,1,7.66,3.06l.43.43"/><path class="cls-1" d="M59.42,49.17a11.17,11.17,0,0,1,.17-8.25,11,11,0,0,1,5.6,5.29"/><path class="cls-1" d="M77.4,76.33a11,11,0,0,1-.17,8.25,11.11,11.11,0,0,1-5.6-5.26h0"/><path class="cls-1" d="M82,53.76a11.12,11.12,0,0,1,8.25.18A11.09,11.09,0,0,1,85,59.54h0"/><path class="cls-1" d="M51.85,66a11.09,11.09,0,0,0-5.27,5.6,11,11,0,0,0,8.24.17"/><path class="cls-1" d="M71.66,46.78a11.08,11.08,0,0,1,6-5.7,11.07,11.07,0,0,1,.81,4.16,11.35,11.35,0,0,1-.57,3.53h0"/><path class="cls-1" d="M59,76.74a11.06,11.06,0,0,0,.23,7.68,11,11,0,0,0,5.95-5.7"/><path class="cls-1" d="M84.39,66a11.1,11.1,0,0,1,5.69,6,11,11,0,0,1-4.15.81,11.46,11.46,0,0,1-3.54-.57h0"/><path class="cls-1" d="M52.45,59.51a11.08,11.08,0,0,1-5.71-6,11.06,11.06,0,0,1,7.68-.23"/><path class="cls-2" d="M64,57.81a1.25,1.25,0,0,0,0-2.5,1.25,1.25,0,0,0,0,2.5Z"/><path class="cls-2" d="M68.41,57.81a1.25,1.25,0,0,0,0-2.5,1.25,1.25,0,0,0,0,2.5Z"/><path class="cls-2" d="M72.83,57.81a1.25,1.25,0,0,0,0-2.5,1.25,1.25,0,0,0,0,2.5Z"/><path class="cls-2" d="M64,62a1.25,1.25,0,0,0,0-2.5A1.25,1.25,0,0,0,64,62Z"/><path class="cls-2" d="M68.41,62a1.25,1.25,0,0,0,0-2.5,1.25,1.25,0,0,0,0,2.5Z"/><path class="cls-2" d="M59.58,62a1.25,1.25,0,0,0,0-2.5,1.25,1.25,0,0,0,0,2.5Z"/><path class="cls-2" d="M59.58,66.19a1.25,1.25,0,0,0,0-2.5,1.25,1.25,0,0,0,0,2.5Z"/><path class="cls-2" d="M77.25,62a1.25,1.25,0,0,0,0-2.5,1.25,1.25,0,0,0,0,2.5Z"/><path class="cls-2" d="M77.25,66.19a1.25,1.25,0,0,0,0-2.5,1.25,1.25,0,0,0,0,2.5Z"/><path class="cls-2" d="M72.83,62a1.25,1.25,0,0,0,0-2.5,1.25,1.25,0,0,0,0,2.5Z"/><path class="cls-2" d="M64,66.19a1.25,1.25,0,0,0,0-2.5,1.25,1.25,0,0,0,0,2.5Z"/><path class="cls-2" d="M68.41,66.19a1.25,1.25,0,0,0,0-2.5,1.25,1.25,0,0,0,0,2.5Z"/><path class="cls-2" d="M72.83,66.19a1.25,1.25,0,0,0,0-2.5,1.25,1.25,0,0,0,0,2.5Z"/><path class="cls-2" d="M64,70.37a1.25,1.25,0,0,0,0-2.5,1.25,1.25,0,0,0,0,2.5Z"/><path class="cls-2" d="M68.41,70.37a1.25,1.25,0,0,0,0-2.5,1.25,1.25,0,0,0,0,2.5Z"/><path class="cls-2" d="M72.83,70.37a1.25,1.25,0,0,0,0-2.5,1.25,1.25,0,0,0,0,2.5Z"/><line class="cls-1" x1="29.07" y1="57.15" x2="29.07" y2="85.5"/><path class="cls-1" d="M29.07,78h0A30.94,30.94,0,0,1,45.48,62.85l.26-.1"/><path class="cls-1" d="M29.07,69.12l-1.76-1.58a19.5,19.5,0,0,0-14.4-5l-2.66.19.81.83a19.51,19.51,0,0,0,18,5.53Z"/></g></g></svg>