<svg xmlns="http://www.w3.org/2000/svg" viewBox="0 0 65.38 73.76"><defs><style>.cls-1{fill:none;stroke:#231f20;stroke-linecap:round;stroke-linejoin:round;stroke-width:2px;}</style></defs><title>Asset 3</title><g id="Layer_2" data-name="Layer 2"><g id="Layer_1-2" data-name="Layer 1"><path class="cls-1" d="M38.63,25.83a5.95,5.95,0,1,1-5.94-5.95A5.94,5.94,0,0,1,38.63,25.83Z"/><circle class="cls-1" cx="32.69" cy="25.83" r="11.3" transform="translate(1.96 53.95) rotate(-80.78)"/><path class="cls-1" d="M38,15.86,40.36,4.68a2.48,2.48,0,0,0-1.79-2.91h0a22.8,22.8,0,0,0-11.77,0h0A2.47,2.47,0,0,0,25,4.68l2.35,11.18"/><path class="cls-1" d="M38,35.8,40.36,47a2.48,2.48,0,0,1-1.79,2.91h0a22.8,22.8,0,0,1-11.77,0h0A2.47,2.47,0,0,1,25,47L27.37,35.8"/><path class="cls-1" d="M42.66,31.14,53.83,33.5a2.48,2.48,0,0,0,2.91-1.79h0a22.8,22.8,0,0,0,0-11.77h0a2.49,2.49,0,0,0-2.91-1.79L42.66,20.51"/><path class="cls-1" d="M22.72,31.14,11.54,33.5a2.49,2.49,0,0,1-2.91-1.79h0a22.8,22.8,0,0,1,0-11.77h0a2.49,2.49,0,0,1,2.91-1.79l11.18,2.36"/><path class="cls-1" d="M48.48,19.29h0l4.57-3a2.49,2.49,0,0,0,.8-3.32,22.79,22.79,0,0,0-3.62-4.71,23,23,0,0,0-4.7-3.61,2.44,2.44,0,0,0-1.24-.34,2.49,2.49,0,0,0-2.09,1.13l-3,4.58h0"/><path class="cls-1" d="M16.89,32.37l-4.58,3a2.46,2.46,0,0,0-.79,3.32,23.38,23.38,0,0,0,3.61,4.71A23,23,0,0,0,19.84,47a2.48,2.48,0,0,0,3.32-.79l3-4.59"/><path class="cls-1" d="M48.49,32.37l4.57,3a2.49,2.49,0,0,1,1.13,2.08,2.53,2.53,0,0,1-.33,1.24,23.06,23.06,0,0,1-3.62,4.71A22.69,22.69,0,0,1,45.54,47a2.5,2.5,0,0,1-3.33-.79l-3-4.58"/><path class="cls-1" d="M16.9,19.29l-4.59-3A2.48,2.48,0,0,1,11.52,13a23.1,23.1,0,0,1,3.61-4.71,23.38,23.38,0,0,1,4.71-3.61,2.46,2.46,0,0,1,3.32.79l3,4.59"/><line class="cls-1" x1="32.69" y1="50.65" x2="32.69" y2="72.76"/><path class="cls-1" d="M32.69,67.21l3.85-4.92A14.4,14.4,0,0,1,49.2,56.83h0a14.35,14.35,0,0,0,9.19-2.27l6-3.91-3.87,5.29A28.52,28.52,0,0,1,32.69,67.21Z"/><path class="cls-1" d="M32.69,67.21l-3.85-4.92a14.41,14.41,0,0,0-12.66-5.46h0A14.35,14.35,0,0,1,7,54.56L1,50.65l3.87,5.29A28.51,28.51,0,0,0,32.69,67.21Z"/></g></g></svg>