<svg xmlns="http://www.w3.org/2000/svg" viewBox="0 0 81.14 90.16"><defs><style>.cls-1{fill:none;stroke:#231f20;stroke-linecap:round;stroke-linejoin:round;stroke-width:2px;}</style></defs><title>Asset 13</title><g id="Layer_2" data-name="Layer 2"><g id="Layer_1-2" data-name="Layer 1"><path class="cls-1" d="M27,57.2a8.12,8.12,0,0,0,.62-.8,7,7,0,0,0,.57-1,7.46,7.46,0,0,0,.42-1.09c.08-.24.14-.48.2-.74s.05-.26.07-.4a6.6,6.6,0,0,0,.08-.79c0-.13,0-.27,0-.4a24.49,24.49,0,0,1,1.65-8.84L33.84,35a22.14,22.14,0,0,0-12.73,4,21.42,21.42,0,0,0-2.88,2.43L17.15,42.5A12.46,12.46,0,0,0,16,43.78h0A13.4,13.4,0,0,0,13.22,52v.4c0,.27,0,.54.09.79s0,.27.07.4.12.5.19.74A7.46,7.46,0,0,0,14,55.41a9.75,9.75,0,0,0,.57,1,8.21,8.21,0,0,0,.63.8"/><path class="cls-1" d="M21.11,39a21.31,21.31,0,0,0-3.78-2.13,19.53,19.53,0,0,0-2.8-1A21.52,21.52,0,0,0,8.38,35l3.18,8.2A24.5,24.5,0,0,1,13.22,52v.4c0,.27,0,.54.09.79s0,.27.07.4.12.5.19.74A7.46,7.46,0,0,0,14,55.41c.17.34.37.67.57,1a8.21,8.21,0,0,0,.63.8"/><path class="cls-1" d="M29,52c0,.13,0,.27,0,.4a6.6,6.6,0,0,1-.08.79c0,.14,0,.27-.07.4s-.12.5-.2.74a7.46,7.46,0,0,1-.42,1.09,9.75,9.75,0,0,1-.57,1,8.12,8.12,0,0,1-.62.8"/><line class="cls-1" x1="16.02" y1="43.78" x2="16.02" y2="43.78"/><path class="cls-1" d="M17.33,36.86a8.87,8.87,0,0,1,1.08-1.3l.74-.74a14,14,0,0,1,2-1.65,15,15,0,0,1,8.67-2.75l-2.1,5.41"/><path class="cls-1" d="M14.53,35.83l-2.1-5.41a15,15,0,0,1,8.68,2.75"/><line class="cls-1" x1="16.02" y1="43.78" x2="16.02" y2="43.78"/><path class="cls-1" d="M25.42,31.06h0a11.71,11.71,0,0,0-3-7.81l-.36-.41a1.32,1.32,0,0,0-1-.44h0a1.3,1.3,0,0,0-1,.44l-.37.41a11.76,11.76,0,0,0-3,7.81h0"/><path class="cls-1" d="M21.11,59.88h0a6.62,6.62,0,0,0-8.4-2h0a10.19,10.19,0,0,1-7.27.83L1,57.59,7.73,62a4.84,4.84,0,0,0,6.1-.67h0a4.82,4.82,0,0,1,3.45-1.45Z"/><path class="cls-1" d="M21.11,59.88h0a6.62,6.62,0,0,1,8.4-2h0a10.16,10.16,0,0,0,7.26.83l4.45-1.16L34.49,62a4.84,4.84,0,0,1-6.1-.67h0a4.84,4.84,0,0,0-3.46-1.45Z"/><path class="cls-1" d="M66,35.81a9.65,9.65,0,0,0,.62-.81,8.17,8.17,0,0,0,.57-1,7.34,7.34,0,0,0,.42-1.08c.07-.25.14-.49.19-.75s.06-.26.08-.39.06-.53.08-.79,0-.28,0-.41a24.49,24.49,0,0,1,1.65-8.84l3.19-8.2A22.06,22.06,0,0,0,60,17.6,20.74,20.74,0,0,0,57.16,20L56.08,21.1A13.61,13.61,0,0,0,55,22.38h0a13.41,13.41,0,0,0-2.81,8.2c0,.13,0,.27,0,.41s.05.53.08.79.05.27.08.39.12.5.19.75A7.34,7.34,0,0,0,52.92,34a8.17,8.17,0,0,0,.57,1,9.65,9.65,0,0,0,.62.81"/><path class="cls-1" d="M60,17.6a21.36,21.36,0,0,0-3.78-2.14,19.53,19.53,0,0,0-2.8-1,21.89,21.89,0,0,0-6.16-.88l3.19,8.2a24.49,24.49,0,0,1,1.65,8.84c0,.13,0,.27,0,.41s.05.53.08.79.05.27.08.39.12.5.19.75A7.34,7.34,0,0,0,52.92,34a8.77,8.77,0,0,0,.57,1,9.65,9.65,0,0,0,.62.81"/><path class="cls-1" d="M67.93,30.59c0,.13,0,.27,0,.41s0,.53-.08.79,0,.27-.08.39-.12.5-.19.75A7.34,7.34,0,0,1,67.15,34a8.77,8.77,0,0,1-.57,1,9.65,9.65,0,0,1-.62.81"/><line class="cls-1" x1="54.95" y1="22.39" x2="54.95" y2="22.38"/><path class="cls-1" d="M56.26,15.46a8.8,8.8,0,0,1,1.07-1.3l.74-.74a15.51,15.51,0,0,1,2-1.65A15.06,15.06,0,0,1,68.71,9l-2.1,5.41"/><path class="cls-1" d="M53.46,14.43,51.35,9A15.12,15.12,0,0,1,60,11.77"/><line class="cls-1" x1="54.95" y1="22.39" x2="54.95" y2="22.38"/><path class="cls-1" d="M64.35,9.67h0a11.81,11.81,0,0,0-3-7.82L61,1.44A1.3,1.3,0,0,0,60,1h0a1.28,1.28,0,0,0-1,.44l-.37.41a11.76,11.76,0,0,0-3,7.82h0"/><path class="cls-1" d="M60,38.48h0a6.63,6.63,0,0,0-8.4-1.95h0a10.19,10.19,0,0,1-7.27.82l-4.44-1.16,6.73,4.41a4.82,4.82,0,0,0,6.1-.66h0a4.81,4.81,0,0,1,3.45-1.46Z"/><path class="cls-1" d="M60,38.48h0a6.62,6.62,0,0,1,8.39-1.95h0a10.19,10.19,0,0,0,7.27.82l4.44-1.16L73.41,40.6a4.82,4.82,0,0,1-6.1-.66h0a4.81,4.81,0,0,0-3.45-1.46Z"/><path class="cls-1" d="M21.11,59.88l1.43,6.17a6.26,6.26,0,0,0,4.58,4.67h0a6.25,6.25,0,0,1,4.67,5.12l2.05,13.32"/><path class="cls-1" d="M32.78,82.29l14-16.2a11.73,11.73,0,0,0,2.86-7.67h0a11.7,11.7,0,0,1,5.43-9.88h0A10.58,10.58,0,0,0,60,39.61v-.78"/><path class="cls-1" d="M48.42,63.7l1.58-1a18.65,18.65,0,0,1,12.46-2.8h0"/><path class="cls-1" d="M57,60h0a7.7,7.7,0,0,1,9.36-3l7.52,3L66,62.81a7.69,7.69,0,0,1-8.21-2Z"/><path class="cls-1" d="M43.55,70.18l1.85-.31A18.61,18.61,0,0,1,58,72.2h0"/><path class="cls-1" d="M52.9,70.15h0a7.69,7.69,0,0,1,9.78.91l5.73,5.73-8.32-.48a7.72,7.72,0,0,1-6.78-5Z"/><path class="cls-1" d="M14,72.41a18.6,18.6,0,0,1,12.64-1.8l.69.15"/><path class="cls-1" d="M19.09,70.57h0a7.7,7.7,0,0,0-9.81.5l-6,5.49,8.34-.14a7.7,7.7,0,0,0,7-4.74Z"/><line class="cls-1" x1="55.12" y1="48.54" x2="55.12" y2="44.25"/><line class="cls-1" x1="50.33" y1="54.59" x2="55.72" y2="53.19"/><line class="cls-1" x1="31.29" y1="74.17" x2="32.78" y2="70.21"/><line class="cls-1" x1="33.01" y1="83.73" x2="30.8" y2="82.29"/><line class="cls-1" x1="38.51" y1="75.69" x2="41.22" y2="76.21"/><line class="cls-1" x1="45.41" y1="67.72" x2="44.55" y2="65.04"/></g></g></svg>