<svg xmlns="http://www.w3.org/2000/svg" viewBox="0 0 61.63 94.59"><defs><style>.cls-1{fill:none;stroke:#231f20;stroke-linecap:round;stroke-linejoin:round;stroke-width:2px;}</style></defs><title>Asset 2</title><g id="Layer_2" data-name="Layer 2"><g id="Layer_1-2" data-name="Layer 1"><path class="cls-1" d="M22.31,18.4A4.44,4.44,0,1,1,17.87,14,4.44,4.44,0,0,1,22.31,18.4Z"/><path class="cls-1" d="M10.26,33.62a6.54,6.54,0,0,1-2.61-1.15A6.77,6.77,0,0,1,6.16,23a7.09,7.09,0,0,1,1.09-1.16,7.22,7.22,0,0,1-1.57-.29A6.77,6.77,0,1,1,9.87,8.68a7,7,0,0,1,1.44.68,6.85,6.85,0,0,1-.21-1.59,6.78,6.78,0,0,1,13.55,0,6.35,6.35,0,0,1-.21,1.59,7.13,7.13,0,0,1,1.45-.68A6.77,6.77,0,0,1,34.42,13a6.64,6.64,0,0,1,.19,3.44"/><path class="cls-1" d="M48.19,26.44A4.44,4.44,0,1,1,43.75,22,4.44,4.44,0,0,1,48.19,26.44Z"/><path class="cls-1" d="M43.25,38.63c.19-.34.35-.68.5-1a7.64,7.64,0,0,0,.76,1.4,6.77,6.77,0,0,0,11-8,7.09,7.09,0,0,0-1.09-1.16A6.67,6.67,0,0,0,56,29.6a6.77,6.77,0,0,0-4.19-12.88,6,6,0,0,0-1.44.68,6.91,6.91,0,0,0,.2-1.58,6.77,6.77,0,1,0-13.54,0,6.4,6.4,0,0,0,.21,1.58,6.2,6.2,0,0,0-1.45-.68,5.6,5.6,0,0,0-1.13-.26,6.75,6.75,0,0,0-7.4,4.61l-.09.29"/><path class="cls-1" d="M31.31,38.74a4.44,4.44,0,1,1-4.44-4.44A4.44,4.44,0,0,1,31.31,38.74Z"/><path class="cls-1" d="M43.41,33.37A6.77,6.77,0,0,0,34.88,29a6.38,6.38,0,0,0-1.44.69,6.92,6.92,0,0,0,.2-1.59,6.77,6.77,0,0,0-13.54,0,6.42,6.42,0,0,0,.21,1.59A6.67,6.67,0,0,0,18.86,29,6.77,6.77,0,1,0,14.68,41.9a7.13,7.13,0,0,0,1.57.3,6.39,6.39,0,0,0-1.1,1.16,6.77,6.77,0,0,0,11,8,6.89,6.89,0,0,0,.76-1.41,6.48,6.48,0,0,0,.77,1.41,6.77,6.77,0,1,0,11-8,6.39,6.39,0,0,0-1.1-1.16,7.33,7.33,0,0,0,1.58-.3A6.76,6.76,0,0,0,43.41,33.37Z"/><line class="cls-1" x1="26.87" y1="49.91" x2="26.87" y2="93.59"/><path class="cls-1" d="M16.65,52.82v4.54a9.52,9.52,0,0,0,4,7.74h0a9.56,9.56,0,0,1,2.87,3.29l3.39,6.46"/><path class="cls-1" d="M26.87,85.72,38.14,65a9.54,9.54,0,0,0,1.17-4.58h0a9.59,9.59,0,0,1,1.91-5.74l.41-.55a11.08,11.08,0,0,0,2.21-6.75l-.09-9.76"/><line class="cls-1" x1="26.87" y1="81.78" x2="16.65" y2="77.47"/><path class="cls-1" d="M20.7,75.17h0a5.29,5.29,0,0,0-4.28-4l-11.91-2,6.67,9.87a5.28,5.28,0,0,0,6.06,2l.18-.06A5,5,0,0,0,20.7,75.17Z"/><line class="cls-1" x1="35.06" y1="70.66" x2="48.32" y2="63.81"/><path class="cls-1" d="M42.31,63.15h0a5.3,5.3,0,0,1,4.58-3.65l12-1L51.5,67.79a5.28,5.28,0,0,1-6.2,1.58l-.17-.07A5,5,0,0,1,42.31,63.15Z"/><line class="cls-1" x1="26.96" y1="88.13" x2="37.91" y2="86.35"/><path class="cls-1" d="M34.52,83.17h0a5.27,5.27,0,0,1,5.1-2.87l12,.9-8.81,8a5.27,5.27,0,0,1-6.37.56l-.16-.1A5,5,0,0,1,34.52,83.17Z"/></g></g></svg>