<svg xmlns="http://www.w3.org/2000/svg" viewBox="0 0 85.09 73.87"><defs><style>.cls-1{fill:none;stroke:#231f20;stroke-linecap:round;stroke-linejoin:round;stroke-width:2px;}</style></defs><title>Asset 7</title><g id="Layer_2" data-name="Layer 2"><g id="Layer_1-2" data-name="Layer 1"><path class="cls-1" d="M25.78,44.91a10.12,10.12,0,0,1-8,3.32,10.17,10.17,0,0,1-4.5-1.31,10,10,0,0,1-3.42-3.19,3.13,3.13,0,0,1-.47-2.38,3.18,3.18,0,0,1,1.36-2l1-.63a4.31,4.31,0,0,1,4.68-.07l.81.51L17,36.86a7.67,7.67,0,0,1,11.2-7.44l2,1.06-.15-.95A4.34,4.34,0,0,1,32,25.25l1-.64a3.16,3.16,0,0,1,4.39.89,10,10,0,0,1,1.62,4.39,10.19,10.19,0,0,1-.55,4.66,10,10,0,0,1-3.89,4.94,9.65,9.65,0,0,1-2.25,1.12"/><path class="cls-1" d="M25.49,44a24.11,24.11,0,0,1-8.24-.79"/><path class="cls-1" d="M33.94,32.08A24.26,24.26,0,0,1,31.48,40"/><line class="cls-1" x1="27.19" y1="40.02" x2="24.41" y2="35.83"/><path class="cls-1" d="M32.65,41.12a3.94,3.94,0,1,0-1.1,5.46A3.94,3.94,0,0,0,32.65,41.12Z"/><path class="cls-1" d="M17.21,39.14l-.1-.12A15,15,0,0,0,5.65,33.37h0"/><path class="cls-1" d="M5.33,31.66A2.37,2.37,0,1,1,2.05,31,2.38,2.38,0,0,1,5.33,31.66Z"/><path class="cls-1" d="M7.7,22.11a2.36,2.36,0,1,1-3.27-.66A2.36,2.36,0,0,1,7.7,22.11Z"/><path class="cls-1" d="M17.74,32.92l-1.16-1.37A24.84,24.84,0,0,0,8,25l-.2-.1"/><path class="cls-1" d="M30.25,30.48l-.08-.14a15.05,15.05,0,0,1-.75-12.76h0"/><path class="cls-1" d="M28,16.63a2.36,2.36,0,1,0,.66-3.28A2.36,2.36,0,0,0,28,16.63Z"/><path class="cls-1" d="M18.24,15.11a2.36,2.36,0,1,0,.66-3.27A2.36,2.36,0,0,0,18.24,15.11Z"/><path class="cls-1" d="M24.31,28.56,23.5,27a24.92,24.92,0,0,1-2.7-10.49v-.23"/><path class="cls-1" d="M54.65,31.88a10.07,10.07,0,0,1-8.48-9.37A10,10,0,0,1,47,17.9a3.12,3.12,0,0,1,1.74-1.68,3.17,3.17,0,0,1,2.42,0l1.06.46a4.34,4.34,0,0,1,2.61,3.89v.95l1.81-1.4A7.67,7.67,0,0,1,69,25.49l.21,2.27.71-.64a4.35,4.35,0,0,1,4.62-.76l1,.46A3.17,3.17,0,0,1,77.22,31,10.1,10.1,0,0,1,64,36.24,9.91,9.91,0,0,1,61.78,35"/><path class="cls-1" d="M55.29,31.11a24.19,24.19,0,0,1-3.82-7.33"/><path class="cls-1" d="M69.86,31.73a24.39,24.39,0,0,1-8,2.24"/><line class="cls-1" x1="59.52" y1="30.4" x2="61.51" y2="25.79"/><path class="cls-1" d="M61.57,35.58a3.94,3.94,0,1,0-5.18,2.05A3.94,3.94,0,0,0,61.57,35.58Z"/><path class="cls-1" d="M54.82,21.55l0-.15A15.05,15.05,0,0,0,53.36,8.71h0"/><path class="cls-1" d="M54.61,7.51a2.36,2.36,0,1,1-1.23-3.1A2.35,2.35,0,0,1,54.61,7.51Z"/><path class="cls-1" d="M63.92,4.3a2.36,2.36,0,1,1-1.23-3.11A2.36,2.36,0,0,1,63.92,4.3Z"/><path class="cls-1" d="M60.32,18.61l.52-1.72a25,25,0,0,0,.8-10.8l0-.22"/><path class="cls-1" d="M69.19,27.76l.07-.13A15,15,0,0,1,79.54,20h0"/><path class="cls-1" d="M79.56,18.3a2.36,2.36,0,1,0,3.1-1.22A2.36,2.36,0,0,0,79.56,18.3Z"/><path class="cls-1" d="M75.53,9.32a2.36,2.36,0,1,0,3.1-1.23A2.35,2.35,0,0,0,75.53,9.32Z"/><path class="cls-1" d="M67.56,21.74l.9-1.55a25,25,0,0,1,7.33-8l.18-.13"/><path class="cls-1" d="M31.55,46.58l8.76,5.73A9.83,9.83,0,0,1,44.75,60l.72,12.87"/><path class="cls-1" d="M44.89,62.37l1.87-11.11a18.44,18.44,0,0,1,7.06-11.67l2.57-2"/></g></g></svg>