<svg xmlns="http://www.w3.org/2000/svg" viewBox="0 0 90.3 83.08"><defs><style>.cls-1{fill:none;stroke:#231f20;stroke-linecap:round;stroke-linejoin:round;stroke-width:2px;}</style></defs><title>Asset 8</title><g id="Layer_2" data-name="Layer 2"><g id="Layer_1-2" data-name="Layer 1"><path class="cls-1" d="M16.56,44.39H12a6.7,6.7,0,1,0,0,13.39H78.28a6.7,6.7,0,1,0,0-13.39H73.74"/><path class="cls-1" d="M12,57.78,15.3,77.87a5,5,0,0,0,5,4.21H45.15"/><path class="cls-1" d="M78.28,57.78,75,77.87a5,5,0,0,1-5,4.21H45.15"/><line class="cls-1" x1="21.15" y1="62.18" x2="30.48" y2="62.18"/><line class="cls-1" x1="39.08" y1="69.93" x2="48.42" y2="69.93"/><line class="cls-1" x1="13.78" y1="67.59" x2="23.11" y2="67.59"/><line class="cls-1" x1="49.4" y1="62.18" x2="58.74" y2="62.18"/><line class="cls-1" x1="58.99" y1="71.76" x2="68.32" y2="71.76"/><line class="cls-1" x1="56.04" y1="76.92" x2="65.38" y2="76.92"/><line class="cls-1" x1="16.48" y1="76.92" x2="25.82" y2="76.92"/><line class="cls-1" x1="67.59" y1="65.38" x2="76.92" y2="65.38"/><path class="cls-1" d="M5.32,51.09H1V45.15A44.15,44.15,0,0,1,45.15,1h0"/><path class="cls-1" d="M85,51.09H89.3V45.15A44.15,44.15,0,0,0,45.15,1h0"/><path class="cls-1" d="M47.54,39.91a2.39,2.39,0,1,1-2.39-2.39A2.39,2.39,0,0,1,47.54,39.91Z"/><path class="cls-1" d="M54.21,37.93A3.56,3.56,0,0,0,54,37L54,36.77a3.64,3.64,0,0,0-4.49-2.09,3.49,3.49,0,0,0-.78.37,3.35,3.35,0,0,0,.11-.85,3.64,3.64,0,1,0-7.28,0,3.35,3.35,0,0,0,.11.85,3.49,3.49,0,0,0-.78-.37,3.64,3.64,0,0,0-4.49,2.09l-.09.25a3.56,3.56,0,0,0-.17.91m2.36,8a3.48,3.48,0,0,0,1.2,1.53,3.63,3.63,0,0,0,5.09-.8,3.72,3.72,0,0,0,.41-.76,3.72,3.72,0,0,0,.41.76,3.63,3.63,0,0,0,5.09.8,3.48,3.48,0,0,0,1.2-1.53"/><path class="cls-1" d="M39.26,45.09h0a4.07,4.07,0,0,1-5.67,1l-2.27-1.58L36,37.85l2.27,1.58A4.07,4.07,0,0,1,39.26,45.09Z"/><path class="cls-1" d="M34.35,40.17l-9.59-9.54A3.65,3.65,0,0,0,20.53,30h0a3.68,3.68,0,0,0-2,2.87h0a3.67,3.67,0,0,0,2.11,3.73l12.3,5.66"/><path class="cls-1" d="M32,43.53,19.68,41.59A3.64,3.64,0,0,1,18.16,41a4.1,4.1,0,0,1-.66-.59,3.6,3.6,0,0,1-.86-1.81,3.66,3.66,0,0,1,.6-2.7,3.41,3.41,0,0,1,.53-.61,3.71,3.71,0,0,1,1-.66"/><path class="cls-1" d="M17.5,40.39a4,4,0,0,0-.68.85,3.72,3.72,0,0,0-.5,1.73,3.67,3.67,0,0,0,4.19,3.74L32,45"/><path class="cls-1" d="M22.3,29.57a3.59,3.59,0,0,1,.26-1.19,3.63,3.63,0,0,1,2.7-2.22A3.67,3.67,0,0,1,29.15,28l6.12,10.89"/><path class="cls-1" d="M27.27,26.34a3.44,3.44,0,0,1,.56-.93,3.52,3.52,0,0,1,1.44-1.07,3.66,3.66,0,0,1,3.47.38,3.51,3.51,0,0,1,.55.47,3.64,3.64,0,0,1,1,1.77l2.11,9.81"/><path class="cls-1" d="M33.93,18.26a2.39,2.39,0,1,1-3-1.6A2.39,2.39,0,0,1,33.93,18.26Z"/><path class="cls-1" d="M33.29,25.19a4.17,4.17,0,0,0,.08-.49,3.85,3.85,0,0,0,.61.6,3.22,3.22,0,0,0,.78.45h0a3.64,3.64,0,0,0,3.62-6.25,4,4,0,0,0-.75-.43,3.72,3.72,0,0,0,.77-.39,3.64,3.64,0,0,0-4.14-6,3.57,3.57,0,0,0-.64.58,4.19,4.19,0,0,0-.14-.85,3.64,3.64,0,0,0-7,2.09,3.47,3.47,0,0,0,.36.78,4.06,4.06,0,0,0-.85-.13,3.64,3.64,0,1,0-.17,7.28,3.46,3.46,0,0,0,.85-.09,4,4,0,0,0-.39.77,3.67,3.67,0,0,0,.29,3"/><path class="cls-1" d="M41.62,35.05h0a17,17,0,0,0-6.27-8.87l-.6-.43"/><path class="cls-1" d="M51,45.09h0a4.05,4.05,0,0,0,5.66,1L59,44.53l-4.64-6.68-2.27,1.58A4.06,4.06,0,0,0,51,45.09Z"/><path class="cls-1" d="M55.94,40.17l9.6-9.54A3.65,3.65,0,0,1,69.77,30h0a3.65,3.65,0,0,1,2,2.87h0a3.64,3.64,0,0,1-2.11,3.73L57.36,42.21"/><path class="cls-1" d="M71.5,34.61a3.57,3.57,0,0,1,1,.66,3.47,3.47,0,0,1,.54.61,3.66,3.66,0,0,1,.6,2.7,3.6,3.6,0,0,1-.86,1.81,4.1,4.1,0,0,1-.66.59,3.74,3.74,0,0,1-1.53.61L58.27,43.53"/><path class="cls-1" d="M58.26,45l11.52,1.68a3.66,3.66,0,0,0,2.63-.62,3.65,3.65,0,0,0,1.07-4.85,4,4,0,0,0-.68-.85"/><path class="cls-1" d="M55,38.86,61.15,28a3.6,3.6,0,0,1,1.1-1.22,3.87,3.87,0,0,1,.78-.41,3.65,3.65,0,0,1,4.32,1.33,4.43,4.43,0,0,1,.39.71A3.85,3.85,0,0,1,68,29.57"/><path class="cls-1" d="M54,36.77,56.06,27A3.64,3.64,0,0,1,57,25.19a3.51,3.51,0,0,1,.55-.47A3.66,3.66,0,0,1,61,24.34a3.52,3.52,0,0,1,1.44,1.07,3.44,3.44,0,0,1,.56.93"/><path class="cls-1" d="M56.36,18.26a2.39,2.39,0,1,0,3-1.6A2.39,2.39,0,0,0,56.36,18.26Z"/><path class="cls-1" d="M63.69,26.16a3.67,3.67,0,0,0,.29-3,4,4,0,0,0-.39-.77,3.46,3.46,0,0,0,.85.09,3.64,3.64,0,1,0-.17-7.28,4.06,4.06,0,0,0-.85.13,3.47,3.47,0,0,0,.36-.78,3.64,3.64,0,0,0-7-2.09,4.19,4.19,0,0,0-.14.85A3.57,3.57,0,0,0,56,12.7a3.64,3.64,0,0,0-4.14,6,3.72,3.72,0,0,0,.77.39,4,4,0,0,0-.75.43,3.64,3.64,0,0,0,3.62,6.25h0a3.22,3.22,0,0,0,.78-.45,3.85,3.85,0,0,0,.61-.6,4.17,4.17,0,0,0,.08.49"/><path class="cls-1" d="M48.68,35.05h0a17,17,0,0,1,6.26-8.87l.6-.43"/></g></g></svg>