<svg xmlns="http://www.w3.org/2000/svg" viewBox="0 0 72.13 72.26"><defs><style>.cls-1{fill:none;stroke:#231f20;stroke-linecap:round;stroke-linejoin:round;stroke-width:2px;}</style></defs><title>Asset 17</title><g id="Layer_2" data-name="Layer 2"><g id="Layer_1-2" data-name="Layer 1"><path class="cls-1" d="M36.07,33.78h0a7.77,7.77,0,0,1-7.43-5.5h0a22.09,22.09,0,0,1-.54-10.74L30.45,5.61a5.72,5.72,0,0,1,4.09-4.4h0a5.68,5.68,0,0,1,3.06,0h0a5.73,5.73,0,0,1,4.08,4.4L44,17.54a22.09,22.09,0,0,1-.54,10.74h0a7.76,7.76,0,0,1-7.42,5.5h0"/><path class="cls-1" d="M29.74,9.24,28.5,7.06a5.21,5.21,0,0,0-9.74,2.56,5,5,0,0,0,0,.67l1.4,11a20.11,20.11,0,0,0,3.57,9.12,7.09,7.09,0,0,0,8,2.61l.54-.2"/><path class="cls-1" d="M42.4,9.23l1.23-2.17a5.2,5.2,0,0,1,4.8-2.63,5.14,5.14,0,0,1,2.65.88,5.2,5.2,0,0,1,2.3,4.32c0,.22,0,.44,0,.66l-1.41,11a20.21,20.21,0,0,1-3.56,9.12,7,7,0,0,1-5.77,3A6.94,6.94,0,0,1,40.37,33q-.27-.09-.54-.21"/><path class="cls-1" d="M44.45,33.12l.16.06a9.69,9.69,0,0,1,6.7,8.46h0l-6.53-2.91a6,6,0,0,0-5.77.51l-2.94,2-2.94-2a6,6,0,0,0-5.78-.51l-6.52,2.91h0a9.68,9.68,0,0,1,6.69-8.46l.16-.06"/><line class="cls-1" x1="36.07" y1="37.38" x2="36.07" y2="33.78"/><path class="cls-1" d="M36.07,61.33h0V41.23"/><path class="cls-1" d="M1,34.36l9.85,4.94A66.91,66.91,0,0,1,36.59,62.08h0a5.94,5.94,0,0,1,1,3.27h0A5.9,5.9,0,0,1,29.87,71h0A24.77,24.77,0,0,1,16,59.9Z"/><path class="cls-1" d="M36.07,69.29A5.89,5.89,0,0,0,42.26,71,24.87,24.87,0,0,0,56.12,59.9l15-25.54L61.28,39.3a66.7,66.7,0,0,0-25.21,22"/></g></g></svg>