<svg xmlns="http://www.w3.org/2000/svg" viewBox="0 0 67.24 89.86"><defs><style>.cls-1{fill:none;stroke:#231f20;stroke-linecap:round;stroke-linejoin:round;stroke-width:2px;}</style></defs><title>Asset 19</title><g id="Layer_2" data-name="Layer 2"><g id="Layer_1-2" data-name="Layer 1"><path class="cls-1" d="M40.61,23.75a7,7,0,1,1-7-7A7,7,0,0,1,40.61,23.75Z"/><path class="cls-1" d="M56.37,23.75A9,9,0,0,0,52.1,16.1,9,9,0,0,0,41.27,5.27a9,9,0,0,0-15.3,0A9,9,0,0,0,15.14,16.1a9,9,0,0,0,0,15.31A9,9,0,0,0,26,42.23a9,9,0,0,0,15.3,0A9,9,0,0,0,52.1,31.41,9,9,0,0,0,56.37,23.75Z"/><line class="cls-1" x1="41.27" y1="5.27" x2="38.59" y2="12.12"/><line class="cls-1" x1="25.97" y1="5.27" x2="28.65" y2="12.12"/><line class="cls-1" x1="41.27" y1="42.23" x2="38.59" y2="35.38"/><line class="cls-1" x1="25.97" y1="42.23" x2="28.65" y2="35.38"/><line class="cls-1" x1="52.1" y1="31.41" x2="45.25" y2="28.72"/><line class="cls-1" x1="52.1" y1="16.1" x2="45.25" y2="18.78"/><line class="cls-1" x1="15.14" y1="31.41" x2="21.99" y2="28.72"/><line class="cls-1" x1="15.14" y1="16.1" x2="21.99" y2="18.78"/><line class="cls-1" x1="33.62" y1="46.5" x2="33.62" y2="88.86"/><path class="cls-1" d="M33.62,81,22.79,73.22a16,16,0,0,1-6.51-10.57h0A16,16,0,0,0,11,53.09L1,44.24,15.64,49.5A16,16,0,0,1,26.07,62.29l.22,1.51a15.77,15.77,0,0,0,1.38,4.6Z"/><path class="cls-1" d="M33.62,81l10.82-7.73A16,16,0,0,0,51,62.65h0a16,16,0,0,1,5.23-9.56l10-8.85L51.6,49.5A16,16,0,0,0,41.17,62.29L41,63.8a16.08,16.08,0,0,1-1.38,4.6Z"/></g></g></svg>