<svg xmlns="http://www.w3.org/2000/svg" viewBox="0 0 69.61 99.63"><defs><style>.cls-1{fill:none;stroke:#231f20;stroke-linecap:round;stroke-linejoin:round;stroke-width:2px;}</style></defs><title>Asset 12</title><g id="Layer_2" data-name="Layer 2"><g id="Layer_1-2" data-name="Layer 1"><path class="cls-1" d="M32.44,22a53,53,0,0,1-.5-7.59C31.94,7,33.22,1,34.8,1s2.86,6,2.86,13.43a54.68,54.68,0,0,1-.5,7.6"/><path class="cls-1" d="M37.16,33.69h0a54.68,54.68,0,0,1,.5,7.6c0,7.42-1.28,13.44-2.86,13.44s-2.86-6-2.86-13.44a54.68,54.68,0,0,1,.5-7.6"/><path class="cls-1" d="M40.64,25.51a53,53,0,0,1,7.59-.5c7.42,0,13.44,1.28,13.44,2.86s-6,2.86-13.44,2.86a54.68,54.68,0,0,1-7.6-.5"/><path class="cls-1" d="M29,25.51a52.89,52.89,0,0,0-7.58-.5C14,25,7.93,26.29,7.93,27.87s6,2.86,13.44,2.86a53,53,0,0,0,7.59-.5"/><path class="cls-1" d="M40.6,25.41a52.38,52.38,0,0,0,5.32-4.63l.4-.39C51.57,15.14,54.91,10,53.8,8.87s-5.15,1.52-9.73,5.76"/><path class="cls-1" d="M29,30.34a53.26,53.26,0,0,0-5.72,5C18,40.59,14.69,45.75,15.8,46.87s6.28-2.24,11.52-7.48a53.32,53.32,0,0,0,5-5.73"/><path class="cls-1" d="M37.25,33.66h0a53.32,53.32,0,0,0,5,5.73c5.24,5.24,10.4,8.59,11.52,7.48s-2.23-6.28-7.48-11.52a53.32,53.32,0,0,0-5.73-5"/><path class="cls-1" d="M29,25.4a54.37,54.37,0,0,1-5.71-5C18,15.14,14.69,10,15.8,8.87s6.28,2.23,11.52,7.48a54.56,54.56,0,0,1,5,5.71"/><path class="cls-1" d="M27.71,16.75h0c-.06-.17-.13-.34-.19-.52-2.54-7-3.39-13.06-1.91-13.6,1.31-.48,4,3.55,6.38,9.31"/><path class="cls-1" d="M41.88,39h0c.07.17.14.34.2.52,2.54,7,3.39,13.07,1.91,13.61-1.31.48-4-3.56-6.38-9.32"/><path class="cls-1" d="M45.92,20.78l.52-.19c7-2.54,13.07-3.39,13.61-1.91.48,1.31-3.56,4-9.32,6.38"/><path class="cls-1" d="M18.87,30.68c-5.76,2.36-9.8,5.07-9.32,6.38.54,1.48,6.64.63,13.61-1.91l.52-.19"/><path class="cls-1" d="M39.41,23.57a53.46,53.46,0,0,0,3.66-6.67c.36-.77.69-1.53,1-2.27,2.41-5.76,3.35-10.52,2.09-11.11-1.44-.67-5.14,4.24-8.27,11l-.24.51"/><path class="cls-1" d="M25.52,41.12c-2.41,5.75-3.34,10.51-2.08,11.1,1.44.66,5.14-4.25,8.27-11l.24-.5h0"/><path class="cls-1" d="M48,37.14c5.75,2.41,10.52,3.35,11.11,2.09.66-1.44-4.24-5.14-11-8.27l-.5-.24h0"/><path class="cls-1" d="M21.94,25h0l-.51-.24c-6.73-3.14-11.63-6.83-11-8.27.59-1.27,5.35-.33,11.1,2.08"/><circle class="cls-1" cx="34.8" cy="27.87" r="6.3"/><line class="cls-1" x1="34.8" y1="54.74" x2="34.8" y2="98.63"/><path class="cls-1" d="M34.8,78.24l6.62-9.77a26.11,26.11,0,0,1,8.38-7.89h0"/><path class="cls-1" d="M44.55,64.83l.11-.35A20.12,20.12,0,0,1,57.48,51.7l4.86-1.59-1.22,2.7A20.09,20.09,0,0,1,47.79,64Z"/><path class="cls-1" d="M45.7,70.94l.34-.15a20.1,20.1,0,0,1,18.08.62l4.49,2.46-2.8.95a20.08,20.08,0,0,1-17.29-2.08Z"/><path class="cls-1" d="M49.8,71.37,46.32,71a12.85,12.85,0,0,0-7.57,1.46h0"/><path class="cls-1" d="M34.8,88.72l-6.61-9.78a26.11,26.11,0,0,0-8.38-7.89h0"/><path class="cls-1" d="M25.06,75.3,25,75A20.12,20.12,0,0,0,12.13,62.17L7.27,60.58l1.22,2.7A20.09,20.09,0,0,0,21.82,74.47Z"/><path class="cls-1" d="M23.91,81.41l-.34-.15a20.1,20.1,0,0,0-18.08.62L1,84.34l2.8,1a20.08,20.08,0,0,0,17.29-2.08Z"/><path class="cls-1" d="M19.81,81.84l3.48-.41a12.85,12.85,0,0,1,7.57,1.46h0"/></g></g></svg>