<svg xmlns="http://www.w3.org/2000/svg" viewBox="0 0 95.35 88.05"><defs><style>.cls-1{fill:none;stroke:#231f20;stroke-linecap:round;stroke-linejoin:round;stroke-width:2px;}</style></defs><title>Asset 15</title><g id="Layer_2" data-name="Layer 2"><g id="Layer_1-2" data-name="Layer 1"><path class="cls-1" d="M51.87,43.76h0a7.11,7.11,0,0,1-7.12-7.11V31.82H59v4.83A7.11,7.11,0,0,1,51.87,43.76Z"/><path class="cls-1" d="M54,31.82l4.13-23.3a6.41,6.41,0,0,0-3.25-6.75h0a6.43,6.43,0,0,0-6.11,0h0a6.42,6.42,0,0,0-3.25,6.75l4.14,23.3"/><path class="cls-1" d="M46.9,31.82,37.37,12.17a6.44,6.44,0,0,1-.64-2.8,6.6,6.6,0,0,1,.18-1.53,6.34,6.34,0,0,1,1.75-3A6.4,6.4,0,0,1,43.13,3a6.16,6.16,0,0,1,1.41.16,6.27,6.27,0,0,1,2,.8"/><path class="cls-1" d="M36.91,7.84A6.66,6.66,0,0,0,35,7.71a6.36,6.36,0,0,0-3,1,6.41,6.41,0,0,0-1.19,9.74L44.76,33.35"/><path class="cls-1" d="M57.23,3.93a6.43,6.43,0,0,1,2-.8A6.16,6.16,0,0,1,60.61,3a6.42,6.42,0,0,1,4.47,1.82,6.32,6.32,0,0,1,1.74,3.05A6.61,6.61,0,0,1,67,9.37a6.31,6.31,0,0,1-.65,2.8L56.84,31.82"/><path class="cls-1" d="M59,33.35,72.89,18.47a6.39,6.39,0,0,0,1.73-4.38A6.4,6.4,0,0,0,71.7,8.73a6.36,6.36,0,0,0-3-1,6.69,6.69,0,0,0-1.9.13"/><path class="cls-1" d="M67.23,60.36h0a5,5,0,0,1,0-7L69.61,51l7,7-2.38,2.38A5,5,0,0,1,67.23,60.36Z"/><path class="cls-1" d="M74.18,55.54l13.51-9.43a4.45,4.45,0,0,0,1.72-4.92h0a4.46,4.46,0,0,0-3-3h0a4.45,4.45,0,0,0-4.92,1.72L72.05,53.41"/><path class="cls-1" d="M70.67,52l5-14.37A4.42,4.42,0,0,1,76.71,36a3.88,3.88,0,0,1,.85-.66,4.34,4.34,0,0,1,2.36-.65A4.51,4.51,0,0,1,83,36a4.59,4.59,0,0,1,.61.77,4.48,4.48,0,0,1,.57,1.36"/><path class="cls-1" d="M77.56,35.31a4.55,4.55,0,0,0-2.84-2,4.43,4.43,0,0,0-4.08,1.2,4.45,4.45,0,0,0-1.3,3l-.48,14.18"/><path class="cls-1" d="M89.49,43.39a4.48,4.48,0,0,1,1.36.57,4.13,4.13,0,0,1,.77.61,4.49,4.49,0,0,1,1.31,3.1A4.43,4.43,0,0,1,92.28,50a4.41,4.41,0,0,1-2.35,1.91l-14.37,5"/><path class="cls-1" d="M75.86,58.73,90,58.25a4.45,4.45,0,0,0,4.13-3.18,4.56,4.56,0,0,0,.08-2.2,4.55,4.55,0,0,0-2-2.84"/><path class="cls-1" d="M28.92,54.88h0A5,5,0,0,1,22,56.12L19.26,54.2l5.65-8.13L27.68,48A5,5,0,0,1,28.92,54.88Z"/><path class="cls-1" d="M23,48.89,11.27,37.27a4.47,4.47,0,0,0-5.15-.82h0A4.45,4.45,0,0,0,3.7,39.94h0a4.44,4.44,0,0,0,2.56,4.54l15,6.9"/><path class="cls-1" d="M20.11,53l-15-2.36a4.44,4.44,0,0,1-1.85-.75,3.88,3.88,0,0,1-.8-.71,4.34,4.34,0,0,1-1-2.21,4.4,4.4,0,0,1,.73-3.28,4.6,4.6,0,0,1,.65-.75A4.32,4.32,0,0,1,4,42.12"/><path class="cls-1" d="M2.44,49.16a4.63,4.63,0,0,0-.83,1A4.47,4.47,0,0,0,1,52.3a4.53,4.53,0,0,0,.48,2.15A4.4,4.4,0,0,0,2.91,56.1a4.46,4.46,0,0,0,3.19.75l14-2"/><path class="cls-1" d="M8.28,36a4.11,4.11,0,0,1,.32-1.44,4.36,4.36,0,0,1,3.28-2.7,4.39,4.39,0,0,1,2.44.22,4.1,4.1,0,0,1,.95.5A4.34,4.34,0,0,1,16.61,34l7.45,13.25"/><path class="cls-1" d="M25.79,46.68l-3-13.87A4.45,4.45,0,0,0,21,30.08a4.51,4.51,0,0,0-2-.77A4.51,4.51,0,0,0,15,30.92a4.71,4.71,0,0,0-.68,1.14"/><line class="cls-1" x1="51.87" y1="43.76" x2="51.87" y2="87.05"/><path class="cls-1" d="M67.23,60.36h0A69.51,69.51,0,0,0,53.64,78.18l-1.77,3.33"/><path class="cls-1" d="M51.87,52.93H47.71a7.26,7.26,0,0,1-5.57-2.6l-3.56-4.24"/><path class="cls-1" d="M39.73,43.35a3.95,3.95,0,1,1-3.95-4A3.94,3.94,0,0,1,39.73,43.35Z"/><circle class="cls-1" cx="59.4" cy="52.93" r="3.95"/><path class="cls-1" d="M79.51,74a4,4,0,1,1-4-3.95A3.94,3.94,0,0,1,79.51,74Z"/><path class="cls-1" d="M59.55,68.93l.12-1.21A33.78,33.78,0,0,0,59,57.06l0-.14"/><path class="cls-1" d="M56.84,73.33l5.27-1a16,16,0,0,1,9.09,1h0"/><path class="cls-1" d="M51.87,70.93h0A45.72,45.72,0,0,0,31.93,55.5l-2.81-1.12"/></g></g></svg>