<svg xmlns="http://www.w3.org/2000/svg" viewBox="0 0 55.07 94.08"><defs><style>.cls-1{fill:none;stroke:#231f20;stroke-linecap:round;stroke-linejoin:round;stroke-width:2px;}</style></defs><title>Asset 16</title><g id="Layer_2" data-name="Layer 2"><g id="Layer_1-2" data-name="Layer 1"><path class="cls-1" d="M13.92,1C8.75,1,3.86,3.94,2.84,8.18c-1.21,5.1,3.47,10.05,10.71,10.05"/><path class="cls-1" d="M13.87,3.61c-3.3,0-6.26,1.94-6.66,4.57-.44,2.94,2.41,5.58,6.43,5.58"/><path class="cls-1" d="M13.92,1C20.13,1,26,4.58,27.28,9.91c1.61,6.71-4.4,13.56-13.85,13.56"/><path class="cls-1" d="M13.87,3.61c4.39,0,8.34,2.62,8.9,6.3.65,4.29-3.43,8.32-9.22,8.32"/><path class="cls-1" d="M18.25,9.91c.13,2.06-1.92,3.85-4.61,3.85"/><line class="cls-1" x1="19.03" y1="37.15" x2="19.03" y2="37.15"/><path class="cls-1" d="M27.54,12.24V26.61a1.55,1.55,0,0,1,0,.22"/><path class="cls-1" d="M7.17,16.69l.09,0,3.45,2.16a5.82,5.82,0,0,1,2.72,4.91V37.39"/><path class="cls-1" d="M13.43,37.39h0A10.78,10.78,0,0,1,2.65,26.61v-17"/><path class="cls-1" d="M24.7,26.59c-5.17,0-10.06,2.94-11.07,7.18-1.22,5.1,3.46,10,10.7,10"/><path class="cls-1" d="M24.65,29.2c-3.3,0-6.26,1.93-6.66,4.57-.44,2.94,2.41,5.58,6.44,5.58"/><path class="cls-1" d="M24.7,26.59c6.21,0,12.09,3.57,13.37,8.91,1.6,6.71-4.41,13.56-13.85,13.56"/><path class="cls-1" d="M24.65,29.2c4.39,0,8.34,2.62,8.9,6.3.65,4.29-3.43,8.32-9.22,8.32"/><path class="cls-1" d="M29,35.5c.13,2.06-1.92,3.85-4.6,3.85"/><path class="cls-1" d="M18,42.28l3.55,2.21a5.79,5.79,0,0,1,2.72,4.91V63h3.32A10.78,10.78,0,0,0,38.32,52.2V37.82"/><path class="cls-1" d="M24.22,63h0A10.79,10.79,0,0,1,13.43,52.2v-17"/><path class="cls-1" d="M38.81,1C33.64,1,28.75,3.94,27.74,8.18c-1.22,5.1,3.46,10.05,10.7,10.05"/><path class="cls-1" d="M38.76,3.61c-3.3,0-6.26,1.94-6.66,4.57-.44,2.94,2.41,5.58,6.43,5.58"/><path class="cls-1" d="M38.81,1C45,1,50.9,4.58,52.18,9.91c1.6,6.71-4.41,13.56-13.86,13.56"/><path class="cls-1" d="M38.76,3.61c4.39,0,8.34,2.62,8.9,6.3.65,4.29-3.43,8.32-9.22,8.32"/><path class="cls-1" d="M43.14,9.91c.13,2.06-1.92,3.85-4.61,3.85"/><path class="cls-1" d="M32.06,16.69l3.55,2.22a5.77,5.77,0,0,1,2.71,4.9V37.39h3.33A10.77,10.77,0,0,0,52.43,26.61V12.23"/><path class="cls-1" d="M27.54,9.62v17a1.69,1.69,0,0,0,0,.23"/><line class="cls-1" x1="38.32" y1="37.39" x2="38.31" y2="37.39"/><line class="cls-1" x1="27.54" y1="62.98" x2="27.54" y2="93.08"/><path class="cls-1" d="M27.53,74.41l-2.2-1.06a14.45,14.45,0,0,1-8.18-13h0"/><path class="cls-1" d="M27.53,74.41h0A18.33,18.33,0,0,0,37.92,57.89V55.14"/><path class="cls-1" d="M27.53,83.08l5.53-5A13.34,13.34,0,0,1,45.19,75l8.88,2.18-5,4.69a13.34,13.34,0,0,1-12,3.3Z"/><path class="cls-1" d="M27.53,83.08l-5.53-5A13.33,13.33,0,0,0,9.87,75L1,77.2l5,4.69a13.36,13.36,0,0,0,12,3.3Z"/></g></g></svg>