<svg xmlns="http://www.w3.org/2000/svg" viewBox="0 0 63.76 80.07"><defs><style>.cls-1{fill:none;stroke:#231f20;stroke-linecap:round;stroke-linejoin:round;stroke-width:2px;}</style></defs><title>Asset 6</title><g id="Layer_2" data-name="Layer 2"><g id="Layer_1-2" data-name="Layer 1"><path class="cls-1" d="M35,13A3.07,3.07,0,1,1,31.88,10,3.06,3.06,0,0,1,35,13Z"/><path class="cls-1" d="M43.31,9.31a4.67,4.67,0,0,0-5.89-3,4.86,4.86,0,0,0-1,.48,5,5,0,0,0,.14-1.1,4.68,4.68,0,0,0-9.36,0,5,5,0,0,0,.14,1.1,4.77,4.77,0,0,0-1-.48,4.68,4.68,0,1,0-1.81,9.11,4.13,4.13,0,0,0-.76.8,4.68,4.68,0,1,0,7.57,5.5,4.38,4.38,0,0,0,.53-1,4.83,4.83,0,0,0,.53,1A4.68,4.68,0,1,0,40,16.21a4.13,4.13,0,0,0-.76-.8,4.57,4.57,0,0,0,1.09-.21A4.67,4.67,0,0,0,43.31,9.31Z"/><path class="cls-1" d="M14.39,43.68a3.07,3.07,0,1,1-4.34,0A3.07,3.07,0,0,1,14.39,43.68Z"/><path class="cls-1" d="M17.68,35.14a4.68,4.68,0,0,0-6.3,2,5.17,5.17,0,0,0-.37,1,4.3,4.3,0,0,0-.67-.87A4.68,4.68,0,1,0,3.72,44a5.12,5.12,0,0,0,.88.67,4.3,4.3,0,0,0-1,.37,4.68,4.68,0,1,0,4.25,8.34,4.76,4.76,0,0,0,.91-.63,4.59,4.59,0,0,0,0,1.11A4.68,4.68,0,1,0,18,52.37a4.49,4.49,0,0,0-.31-1.06,5.39,5.39,0,0,0,1.06.31,4.68,4.68,0,1,0,1.46-9.25,4.52,4.52,0,0,0-1.1,0,4.17,4.17,0,0,0,.62-.91A4.67,4.67,0,0,0,17.68,35.14Z"/><line class="cls-1" x1="31.88" y1="65.55" x2="31.88" y2="20.65"/><path class="cls-1" d="M17.68,51.31h0a27.67,27.67,0,0,1,12.89,12l1.12,2.08"/><path class="cls-1" d="M49.37,43.68a3.07,3.07,0,1,0,4.34,0A3.07,3.07,0,0,0,49.37,43.68Z"/><path class="cls-1" d="M44,41.43a4.56,4.56,0,0,0,.62.91,4.52,4.52,0,0,0-1.1,0A4.68,4.68,0,0,0,45,51.62a5,5,0,0,0,1.06-.31,4.49,4.49,0,0,0-.31,1.06A4.68,4.68,0,0,0,55,53.83a5.89,5.89,0,0,0,0-1.11,4.21,4.21,0,0,0,.91.63A4.68,4.68,0,0,0,60.21,45a4.62,4.62,0,0,0-1-.37A5,5,0,0,0,60,44a4.68,4.68,0,1,0-7.29-5.75,5.17,5.17,0,0,0-.37-1A4.68,4.68,0,0,0,44,41.43Z"/><path class="cls-1" d="M46.08,51.31h0a27.64,27.64,0,0,0-12.88,12l-1.12,2.08"/><path class="cls-1" d="M19.45,26.54H20A11.88,11.88,0,0,1,31.88,38.42V39a0,0,0,0,1,0,0h-.55A11.88,11.88,0,0,1,19.45,27.1v-.55A0,0,0,0,1,19.45,26.54Z"/><path class="cls-1" d="M43.76,26.54h.55a0,0,0,0,1,0,0v.55A11.88,11.88,0,0,1,32.43,39h-.55a0,0,0,0,1,0,0v-.55A11.88,11.88,0,0,1,43.76,26.54Z" transform="translate(76.19 65.52) rotate(180)"/><rect class="cls-1" x="27.99" y="65.67" width="7.79" height="11.26" rx="2.64"/><path class="cls-1" d="M28.1,74.9l-7.93,3.78a3.9,3.9,0,0,1-5.58-3.52h0a3.92,3.92,0,0,1,1.29-2.91l1.06-1-1.06-1a3.92,3.92,0,0,1-1.29-2.91h0a3.9,3.9,0,0,1,5.58-3.52L28.1,67.7"/><line class="cls-1" x1="24.68" y1="71.3" x2="27.99" y2="71.3"/><path class="cls-1" d="M35.67,74.9l7.92,3.78a3.9,3.9,0,0,0,5.59-3.52h0a3.92,3.92,0,0,0-1.29-2.91l-1.06-1,1.06-1a3.92,3.92,0,0,0,1.29-2.91h0a3.9,3.9,0,0,0-5.59-3.52L35.67,67.7"/><line class="cls-1" x1="39.09" y1="71.3" x2="35.78" y2="71.3"/></g></g></svg>