<svg xmlns="http://www.w3.org/2000/svg" viewBox="0 0 58.21 89.58"><defs><style>.cls-1{fill:none;stroke:#231f20;stroke-linecap:round;stroke-linejoin:round;stroke-width:2px;}</style></defs><title>Asset 14</title><g id="Layer_2" data-name="Layer 2"><g id="Layer_1-2" data-name="Layer 1"><circle class="cls-1" cx="29.11" cy="29.11" r="8.61" transform="translate(-5.91 50.74) rotate(-76.72)"/><path class="cls-1" d="M25.61,21.25h0a12.58,12.58,0,0,1-3.68-8.9V3.53A2.53,2.53,0,0,1,24.46,1h0a2.54,2.54,0,0,1,1.91.87L29.11,5"/><path class="cls-1" d="M32.6,21.25h0a12.58,12.58,0,0,0,3.68-8.9V3.53A2.53,2.53,0,0,0,33.75,1h0a2.54,2.54,0,0,0-1.91.87L29.11,5"/><line class="cls-1" x1="29.11" y1="11.12" x2="29.11" y2="20.5"/><path class="cls-1" d="M25.61,37h0a12.54,12.54,0,0,0-3.68,8.89v8.82a2.53,2.53,0,0,0,2.53,2.53h0a2.54,2.54,0,0,0,1.91-.87l2.74-3.13"/><path class="cls-1" d="M32.6,37h0a12.54,12.54,0,0,1,3.68,8.89v8.82a2.53,2.53,0,0,1-2.53,2.53h0a2.54,2.54,0,0,1-1.91-.87l-2.73-3.13"/><line class="cls-1" x1="29.11" y1="47.09" x2="29.11" y2="37.71"/><path class="cls-1" d="M37,25.61h0a12.54,12.54,0,0,1,8.89-3.68h8.82a2.53,2.53,0,0,1,2.53,2.53h0a2.54,2.54,0,0,1-.87,1.91l-3.13,2.74"/><path class="cls-1" d="M37,32.6h0a12.54,12.54,0,0,0,8.89,3.68h8.82a2.53,2.53,0,0,0,2.53-2.53h0a2.54,2.54,0,0,0-.87-1.91l-3.13-2.73"/><line class="cls-1" x1="47.09" y1="29.11" x2="37.71" y2="29.11"/><path class="cls-1" d="M21.25,25.61h0a12.58,12.58,0,0,0-8.9-3.68H3.53A2.53,2.53,0,0,0,1,24.46H1a2.54,2.54,0,0,0,.87,1.91L5,29.11"/><path class="cls-1" d="M21.25,32.6h0a12.58,12.58,0,0,1-8.9,3.68H3.53A2.53,2.53,0,0,1,1,33.75H1a2.54,2.54,0,0,1,.87-1.91L5,29.11"/><line class="cls-1" x1="11.12" y1="29.11" x2="20.5" y2="29.11"/><path class="cls-1" d="M36.28,11.78,42.11,6a2.54,2.54,0,0,1,4.33,1.79c0,.06,0,.11,0,.17l-.28,4.15"/><line class="cls-1" x1="32.19" y1="21.08" x2="32.19" y2="21.07"/><path class="cls-1" d="M46.15,12.06l4.15-.28h.17a2.54,2.54,0,0,1,1.79,4.33l-5.83,5.83"/><line class="cls-1" x1="37.14" y1="26.02" x2="37.13" y2="26.02"/><line class="cls-1" x1="41.82" y1="16.39" x2="35.19" y2="23.02"/><path class="cls-1" d="M11.78,36.28,6,42.11a2.54,2.54,0,0,0,1.79,4.33h.17l4.15-.28"/><line class="cls-1" x1="21.08" y1="32.19" x2="21.07" y2="32.19"/><path class="cls-1" d="M12.06,46.15l-.28,4.15c0,.06,0,.12,0,.17a2.54,2.54,0,0,0,4.33,1.79l5.83-5.83"/><line class="cls-1" x1="26.02" y1="37.14" x2="26.02" y2="37.13"/><line class="cls-1" x1="16.39" y1="41.82" x2="23.02" y2="35.19"/><path class="cls-1" d="M46.43,36.28l5.83,5.83a2.54,2.54,0,0,1-1.79,4.33H50.3l-4.15-.28"/><line class="cls-1" x1="37.14" y1="32.19" x2="37.13" y2="32.19"/><path class="cls-1" d="M46.15,46.15l.28,4.15c0,.06,0,.11,0,.17a2.54,2.54,0,0,1-4.33,1.79l-5.83-5.83"/><line class="cls-1" x1="32.19" y1="37.14" x2="32.19" y2="37.13"/><line class="cls-1" x1="41.82" y1="41.82" x2="35.19" y2="35.19"/><path class="cls-1" d="M12.06,12.06l-.28-4.15c0-.06,0-.12,0-.17A2.54,2.54,0,0,1,16.1,6l5.83,5.83"/><line class="cls-1" x1="26.02" y1="21.08" x2="26.02" y2="21.07"/><path class="cls-1" d="M11.78,21.93,6,16.1a2.54,2.54,0,0,1,1.79-4.33h.17l4.15.28"/><line class="cls-1" x1="21.08" y1="26.02" x2="21.07" y2="26.02"/><line class="cls-1" x1="16.39" y1="16.39" x2="23.02" y2="23.02"/><line class="cls-1" x1="29.11" y1="53.21" x2="29.11" y2="88.58"/><path class="cls-1" d="M39.37,67.87l-10,5.65,5.64-10a3.16,3.16,0,0,1,5-.68h0A3.16,3.16,0,0,1,39.37,67.87Z"/><path class="cls-1" d="M19.45,67.87l10,5.65-5.64-10a3.17,3.17,0,0,0-5-.68h0A3.16,3.16,0,0,0,19.45,67.87Z"/><path class="cls-1" d="M39.37,79.44l-10,5.64,5.64-10a3.16,3.16,0,0,1,5-.68h0A3.17,3.17,0,0,1,39.37,79.44Z"/><path class="cls-1" d="M19.45,79.44l10,5.64-5.64-10a3.17,3.17,0,0,0-5-.68h0A3.17,3.17,0,0,0,19.45,79.44Z"/></g></g></svg>