<svg xmlns="http://www.w3.org/2000/svg" viewBox="0 0 44.63 81.22"><defs><style>.cls-1{fill:none;stroke:#231f20;stroke-linecap:round;stroke-linejoin:round;stroke-width:2px;}</style></defs><title>Asset 1</title><g id="Layer_2" data-name="Layer 2"><g id="Layer_1-2" data-name="Layer 1"><path class="cls-1" d="M16,80.22,16.68,76A28.31,28.31,0,0,1,27.19,58h0A43.45,43.45,0,0,0,41.43,38.18l2.2-6.27h0A56.19,56.19,0,0,1,17.85,79.05Z"/><path class="cls-1" d="M21,64.72a23.28,23.28,0,0,0-6.53-8.61h0A36.74,36.74,0,0,1,3.6,38.7L2.09,33.33,2,35.12C-.19,55.24,16,63.11,16,80.22"/><path class="cls-1" d="M28.41,17l-2.71-.83a2.83,2.83,0,0,1-1.87-3.53l1.48-4.81A9.16,9.16,0,0,0,24.72,1h0l2.73,2.78a9.21,9.21,0,0,1,2.22,9.13Z"/><path class="cls-1" d="M28.41,17l2.7.83A2.83,2.83,0,0,0,34.64,16l1.48-4.81a9.15,9.15,0,0,1,4.32-5.34h0l-3.81.77a9.2,9.2,0,0,0-7,6.31Z"/><path class="cls-1" d="M28.56,5.16h0a5.13,5.13,0,0,1,6.38,2h0"/><path class="cls-1" d="M15.76,29.27l-2.35,1.57a2.83,2.83,0,0,1-3.92-.77L6.68,25.89A9.19,9.19,0,0,0,1,22H1l3.88-.36a9.18,9.18,0,0,1,8.48,4Z"/><path class="cls-1" d="M15.76,29.27l2.34-1.58a2.82,2.82,0,0,0,.78-3.92l-2.8-4.18a9.13,9.13,0,0,1-1.42-6.72h0l-1.81,3.44a9.22,9.22,0,0,0,.51,9.39Z"/><path class="cls-1" d="M6.64,21.67h0A5.14,5.14,0,0,1,12.19,18h0"/><path class="cls-1" d="M21.7,62.86V51.32a82.43,82.43,0,0,1,3.56-24L28.41,17"/><path class="cls-1" d="M21.7,47.35c0-8.41-5.94-18.08-5.94-18.08"/></g></g></svg>