<svg xmlns="http://www.w3.org/2000/svg" viewBox="0 0 76.21 78.11"><defs><style>.cls-1{fill:none;stroke:#231f20;stroke-linecap:round;stroke-linejoin:round;stroke-width:2px;}</style></defs><title>Asset 10</title><g id="Layer_2" data-name="Layer 2"><g id="Layer_1-2" data-name="Layer 1"><path class="cls-1" d="M19.36,32.8a5.06,5.06,0,0,0,.06-.79v-.07a3.41,3.41,0,0,0-1.9-3.07,3.4,3.4,0,0,1-1.76-2.06,15,15,0,0,0-1.57-3.45c-.23-.36-.46-.72-.72-1.06a14.9,14.9,0,0,0-9.91-5.84l-1.9-.25A29.93,29.93,0,0,1,8.94,30.14l.63,2.94a4.61,4.61,0,0,0,.34,1"/><path class="cls-1" d="M19.48,32.78a4.9,4.9,0,0,1-.06-.77v-.07a3.41,3.41,0,0,1,1.92-3.07,3.41,3.41,0,0,0,1.75-2.06,15,15,0,0,1,1.57-3.45c.23-.36.47-.72.72-1.06a14.9,14.9,0,0,1,9.91-5.84l1.9-.25a29.74,29.74,0,0,0-7.27,13.93l-.64,2.94a5.19,5.19,0,0,1-.37,1.07"/><path class="cls-1" d="M24.66,23.37,24.91,22a11.91,11.91,0,0,0-3.39-10.71h0a3,3,0,0,0-4.19,0h0A11.88,11.88,0,0,0,13.94,22l.25,1.35"/><path class="cls-1" d="M13.47,22.3l-2.34-7.42A13.13,13.13,0,0,0,6.71,8.49h0"/><path class="cls-1" d="M7,6.59a1.91,1.91,0,1,1-1.9-1.9A1.9,1.9,0,0,1,7,6.59Z"/><path class="cls-1" d="M25.38,22.3l2.34-7.42a13.13,13.13,0,0,1,4.42-6.39h0"/><path class="cls-1" d="M31.88,6.59a1.91,1.91,0,1,0,1.9-1.9A1.9,1.9,0,0,0,31.88,6.59Z"/><line class="cls-1" x1="19.42" y1="19.91" x2="19.42" y2="32.02"/><path class="cls-1" d="M19.36,32.8l-1.16-.16a13.71,13.71,0,0,0-8.43,1.53h0a13.73,13.73,0,0,1-6.54,1.66H1l5.63,3.1a7.62,7.62,0,0,0,5.63.7l1.51-.41a7.59,7.59,0,0,0,5.59-6.42Z"/><path class="cls-1" d="M19.36,32.8l1.15-.16A13.76,13.76,0,0,1,29,34.17h0a13.66,13.66,0,0,0,6.53,1.66h2.23l-5.63,3.1a7.59,7.59,0,0,1-5.62.7L25,39.22a7.58,7.58,0,0,1-5.59-6.42Z"/><path class="cls-1" d="M56.6,29.11a4.93,4.93,0,0,0,.06-.78v-.07a3.4,3.4,0,0,0-1.9-3.07A3.42,3.42,0,0,1,53,23.13a14.78,14.78,0,0,0-1.57-3.45c-.23-.36-.46-.72-.72-1.06a14.86,14.86,0,0,0-9.91-5.84l-1.89-.26a30,30,0,0,1,7.27,13.93l.63,2.94a4.89,4.89,0,0,0,.34,1"/><path class="cls-1" d="M56.72,29.09a4.77,4.77,0,0,1-.06-.76v-.07a3.4,3.4,0,0,1,1.92-3.07,3.44,3.44,0,0,0,1.75-2.06,14.78,14.78,0,0,1,1.57-3.45c.23-.36.47-.72.72-1.06a14.88,14.88,0,0,1,9.91-5.84l1.9-.26a29.74,29.74,0,0,0-7.27,13.93l-.64,2.94a5.19,5.19,0,0,1-.37,1.07"/><path class="cls-1" d="M61.9,19.68l.25-1.34A11.89,11.89,0,0,0,58.76,7.63h0a3,3,0,0,0-4.19,0h0a11.89,11.89,0,0,0-3.39,10.71l.25,1.34"/><path class="cls-1" d="M50.71,18.62l-2.34-7.43A13.11,13.11,0,0,0,44,4.81h0"/><path class="cls-1" d="M44.21,2.9A1.91,1.91,0,1,1,42.31,1,1.91,1.91,0,0,1,44.21,2.9Z"/><path class="cls-1" d="M62.62,18.62,65,11.19a13.11,13.11,0,0,1,4.42-6.38h0"/><path class="cls-1" d="M69.12,2.9A1.91,1.91,0,1,0,71,1,1.91,1.91,0,0,0,69.12,2.9Z"/><line class="cls-1" x1="56.66" y1="16.22" x2="56.66" y2="28.33"/><path class="cls-1" d="M56.6,29.12,55.44,29A13.71,13.71,0,0,0,47,30.48h0a13.73,13.73,0,0,1-6.54,1.66H38.24l5.63,3.11a7.61,7.61,0,0,0,5.63.69l1.51-.4a7.61,7.61,0,0,0,5.59-6.42Z"/><path class="cls-1" d="M56.6,29.12,57.75,29a13.76,13.76,0,0,1,8.44,1.53h0a13.66,13.66,0,0,0,6.53,1.66H75l-5.63,3.11a7.59,7.59,0,0,1-5.62.69l-1.51-.4a7.59,7.59,0,0,1-5.59-6.42Z"/><path class="cls-1" d="M19.36,32.8l0,5.7a10.18,10.18,0,0,0,4.51,8.4l4.22,2.83A7.93,7.93,0,0,1,31.51,55h0A3.48,3.48,0,0,0,34,57.74h0a3.48,3.48,0,0,1,2.57,3.37v16"/><path class="cls-1" d="M27.35,49.21H24.83a20.18,20.18,0,0,0-8.44,1.85h0"/><path class="cls-1" d="M20.93,49.69l-2.78-1.25A6.88,6.88,0,0,0,10.29,50h0a6.87,6.87,0,0,1-4.11,2.14l-4.52.62,4.55,2a11.34,11.34,0,0,0,14.72-5.13Z"/><path class="cls-1" d="M36.6,69.56l-2.2-1.22a20.25,20.25,0,0,0-8.27-2.5h0"/><path class="cls-1" d="M30.76,66.86l-1.82-2.45A6.87,6.87,0,0,0,21.3,62h0a6.88,6.88,0,0,1-4.63-.13l-4.25-1.66,3,4a11.35,11.35,0,0,0,15.36,2.68Z"/><path class="cls-1" d="M36.6,73.43l2.2-1.22a20.25,20.25,0,0,1,8.27-2.5h0"/><path class="cls-1" d="M42.44,70.73l1.82-2.45a6.86,6.86,0,0,1,7.64-2.43h0a6.88,6.88,0,0,0,4.63-.13l4.25-1.66-3,4a11.36,11.36,0,0,1-15.36,2.68Z"/><path class="cls-1" d="M49.5,43.35l2.52,0a20.16,20.16,0,0,1,8.45,1.78h0"/><path class="cls-1" d="M55.92,43.78l2.77-1.27A6.86,6.86,0,0,1,66.56,44h0a6.91,6.91,0,0,0,4.13,2.11l4.52.58-4.53,2.07a11.34,11.34,0,0,1-14.76-5Z"/><path class="cls-1" d="M31.51,55l3.87-5.2A11.39,11.39,0,0,1,43.9,45.2h0a11.36,11.36,0,0,0,10.18-7.71L56.6,30"/></g></g></svg>