<svg xmlns="http://www.w3.org/2000/svg" viewBox="0 0 66.08 96.12"><defs><style>.cls-1{fill:none;stroke:#231f20;stroke-linecap:round;stroke-linejoin:round;stroke-width:2px;}</style></defs><title>Asset 9</title><g id="Layer_2" data-name="Layer 2"><g id="Layer_1-2" data-name="Layer 1"><polyline class="cls-1" points="22.83 59.4 8.4 30.43 33.04 33.75 33.04 62.96"/><polyline class="cls-1" points="43.25 59.4 57.68 30.43 33.04 33.75"/><path class="cls-1" d="M34.23,70.53H31.85a3.41,3.41,0,0,1-3.41-3.41h0a3.41,3.41,0,0,1,3.41-3.41h2.38a3.41,3.41,0,0,1,3.41,3.41h0A3.41,3.41,0,0,1,34.23,70.53Z"/><path class="cls-1" d="M35.69,64s11.36-8.39,14.68-6.19c3.87,2.57,3.87,16,0,18.58-3.32,2.2-14.68-6.19-14.68-6.19"/><path class="cls-1" d="M37,69.16s13.09-.31,14.44,3.18a4.86,4.86,0,0,1,.09,2.6"/><path class="cls-1" d="M14.51,74.94a4.86,4.86,0,0,1,.09-2.6C16,68.85,29,69.16,29,69.16"/><path class="cls-1" d="M30.39,64S19,55.63,15.7,57.83c-3.87,2.57-3.87,16,0,18.58,3.32,2.2,14.69-6.19,14.69-6.19"/><path class="cls-1" d="M38.78,72.33S45.1,77.67,45.94,85l-3.65-1.1-3.54,6.9S37.64,74.94,33,70.53"/><path class="cls-1" d="M27.3,72.33S21,77.67,20.14,85l3.64-1.1,3.55,6.9S28.44,74.94,33,70.53"/><line class="cls-1" x1="41.61" y1="46.69" x2="38.74" y2="61.94"/><line class="cls-1" x1="24.47" y1="46.69" x2="27.34" y2="61.94"/><path class="cls-1" d="M36.14,13.15a3.1,3.1,0,1,1-3.1-3.1A3.1,3.1,0,0,1,36.14,13.15Z"/><path class="cls-1" d="M44.59,9.4a4.72,4.72,0,0,0-6-3,5.2,5.2,0,0,0-1,.48,4.57,4.57,0,0,0,.15-1.11,4.73,4.73,0,0,0-9.46,0,5.11,5.11,0,0,0,.14,1.11,4.72,4.72,0,1,0-2.83,8.72,4.94,4.94,0,0,0-.77.81,4.73,4.73,0,1,0,7.65,5.56A4.49,4.49,0,0,0,33,21a4.9,4.9,0,0,0,.53,1,4.73,4.73,0,0,0,7.66-5.56,4.94,4.94,0,0,0-.77-.81,5.43,5.43,0,0,0,1.1-.2A4.73,4.73,0,0,0,44.59,9.4Z"/><path class="cls-1" d="M14,21.64a3,3,0,1,1-4.21,0A3,3,0,0,1,14,21.64Z"/><path class="cls-1" d="M23.13,23.21a4.57,4.57,0,0,0-3.52-2.84,4.81,4.81,0,0,0-1.07,0,4.21,4.21,0,0,0,.6-.89,4.53,4.53,0,1,0-8.08-4.12,4.88,4.88,0,0,0-.36,1,4.36,4.36,0,0,0-.65-.85,4.54,4.54,0,0,0-6.41,6.42,4.36,4.36,0,0,0,.85.65,4.06,4.06,0,0,0-1,.36A4.53,4.53,0,0,0,7.59,31a4.67,4.67,0,0,0,.89-.61"/><path class="cls-1" d="M52.1,21.64a3,3,0,1,0,4.21,0A3,3,0,0,0,52.1,21.64Z"/><path class="cls-1" d="M57.6,30.4a4.93,4.93,0,0,0,.88.61,4.53,4.53,0,1,0,4.12-8.08,4.36,4.36,0,0,0-1-.36,4.36,4.36,0,0,0,.85-.65A4.54,4.54,0,0,0,56,15.5a4.85,4.85,0,0,0-.66.85,4.84,4.84,0,0,0-.35-1,4.54,4.54,0,0,0-8.09,4.12,4.67,4.67,0,0,0,.61.89,4.8,4.8,0,0,0-1.07,0A4.57,4.57,0,0,0,43,23.21"/><path class="cls-1" d="M32.89,33.72c0-8.69-9.29-11-9.29-11s-2.74,4.66-1.48,9.58"/><path class="cls-1" d="M15.72,31.42A9.38,9.38,0,0,1,16.84,27s4.68,1.18,5.65,5.35"/><path class="cls-1" d="M43.59,32.33c1-4.17,5.64-5.35,5.64-5.35a9.33,9.33,0,0,1,1.13,4.44"/><line class="cls-1" x1="25.58" y1="27.44" x2="27.93" y2="33.06"/><path class="cls-1" d="M43.66,32.28c1.26-4.92-1.48-9.58-1.48-9.58s-9.28,2.33-9.29,11"/><line class="cls-1" x1="40.2" y1="27.44" x2="37.85" y2="33.06"/><polyline class="cls-1" points="37.04 79.6 35.69 95.12 33.04 95.12 30.39 95.12 29.04 79.6"/><line class="cls-1" x1="33.04" y1="95.12" x2="33.04" y2="86.7"/><line class="cls-1" x1="30.23" y1="75.49" x2="35.85" y2="75.49"/><path class="cls-1" d="M14.31,12.44l-.38-.81A15.14,15.14,0,0,1,12.61,3.3l.19-1.52,1.93.73A15.12,15.12,0,0,1,21.79,8h0"/><path class="cls-1" d="M51.77,12.44l.38-.81A15.23,15.23,0,0,0,53.47,3.3l-.19-1.52-1.94.73A15.14,15.14,0,0,0,44.29,8h0"/></g></g></svg>