<svg xmlns="http://www.w3.org/2000/svg" width="24.161" height="21.996" viewBox="0 0 24.161 21.996"><defs><style>.a{fill:#fff;}.b{fill:#1C304A;}.c,.d{stroke:none;}.d{fill:#1C304A;}</style></defs><g transform="translate(-540.92 -680.004)"><g class="a" transform="translate(538 676)"><path class="c" d="M 23.07435989379883 25.50000381469727 L 6.925640106201172 25.50000381469727 C 5.660560131072998 25.50000381469727 4.527550220489502 24.84598350524902 3.894829988479614 23.7504825592041 C 3.262120008468628 22.65499305725098 3.261800050735474 21.34676361083984 3.893990039825439 20.25097274780273 L 11.96835041046143 6.255413055419922 C 12.60089015960693 5.159013271331787 13.73421955108643 4.504443168640137 15 4.504443168640137 C 16.26577949523926 4.504443168640137 17.39911079406738 5.159013271331787 18.03165054321289 6.255413055419922 L 26.10601043701172 20.25097274780273 C 26.73819923400879 21.34676361083984 26.73788070678711 22.65499305725098 26.10516929626465 23.7504825592041 C 25.47245025634766 24.84598350524902 24.33943939208984 25.50000381469727 23.07435989379883 25.50000381469727 Z"/><path class="d" d="M 15 5.00444221496582 C 13.9150390625 5.00444221496582 12.9436206817627 5.565502166748047 12.40144920349121 6.505273818969727 L 4.327089309692383 20.50083351135254 C 3.785209655761719 21.44008255004883 3.785480499267578 22.56142425537109 4.327810287475586 23.50042343139648 C 4.870140075683594 24.43941307067871 5.841289520263672 25.00000381469727 6.925640106201172 25.00000381469727 L 23.07435989379883 25.00000381469727 C 24.15871047973633 25.00000381469727 25.12985992431641 24.43941307067871 25.67218971252441 23.50042343139648 C 26.21451950073242 22.56142425537109 26.21479034423828 21.44008255004883 25.67291069030762 20.50083351135254 L 17.59854888916016 6.505273818969727 C 17.05638122558594 5.565502166748047 16.0849609375 5.00444221496582 15 5.00444221496582 M 15 4.004440307617188 C 16.34754180908203 4.004440307617188 17.69508361816406 4.671478271484375 18.46474075317383 6.005552291870117 L 26.53910064697266 20.00111389160156 C 28.07756042480469 22.66777420043945 26.15299034118652 26.00000381469727 23.07435989379883 26.00000381469727 L 6.925640106201172 26.00000381469727 C 3.847009658813477 26.00000381469727 1.922439575195312 22.66777420043945 3.460899353027344 20.00111389160156 L 11.53525924682617 6.005552291870117 C 12.3049144744873 4.671478271484375 13.65245819091797 4.004440307617188 15 4.004440307617188 Z"/></g><path class="b" d="M3.591-4.976H1.5L1.063-12.85H4.028ZM1.028-2.22a1.305,1.305,0,0,1,.386-1.024A1.628,1.628,0,0,1,2.537-3.59a1.579,1.579,0,0,1,1.1.355,1.3,1.3,0,0,1,.39,1.015,1.3,1.3,0,0,1-.394,1,1.549,1.549,0,0,1-1.1.367,1.6,1.6,0,0,1-1.114-.359A1.3,1.3,0,0,1,1.028-2.22Z" transform="translate(550.434 699)"/></g></svg>