<svg xmlns="http://www.w3.org/2000/svg" width="19" height="24.864" viewBox="0 0 19 24.864"><defs><style>.a{fill:#1C304A;}</style></defs><path class="a" d="M14.17,25.614H7.8A5,5,0,0,1,2.81,20.628V11.61H19.156v9.018A5,5,0,0,1,14.17,25.614ZM4.283,13.083v7.555A3.518,3.518,0,0,0,7.8,24.151H14.17a3.518,3.518,0,0,0,3.513-3.513V13.083Z" transform="translate(-1.483 -6.128)"/><path class="a" d="M19,12.347a.737.737,0,0,0-.737-.737H.737a.737.737,0,1,0,0,1.473H18.263A.737.737,0,0,0,19,12.347Z" transform="translate(0 -6.128)"/><rect class="a" width="1.473" height="2.927" transform="translate(8.763 10.411)"/><path class="a" d="M12.353,5.968V.737a.737.737,0,1,0-1.473,0V5.968a.737.737,0,0,0,1.473,0Z" transform="translate(-5.743 0)"/><path class="a" d="M27.673,5.968V.737a.737.737,0,1,0-1.473,0V5.968a.737.737,0,1,0,1.473,0Z" transform="translate(-13.829 0)"/><path class="a" d="M19.963,44.418V39.177a.737.737,0,0,0-1.473,0v5.241a.737.737,0,0,0,1.473,0Z" transform="translate(-9.76 -20.29)"/></svg>